<?xml version="1.0" encoding="UTF-8" standalone="no"?>
<!-- Created with Inkscape (http://www.inkscape.org/) -->

<svg
   width="186.72762mm"
   height="198.20464mm"
   viewBox="0 0 186.72762 198.20464"
   version="1.1"
   id="svg3400"
   inkscape:version="1.1 (c68e22c387, 2021-05-23)"
   sodipodi:docname="[suroi_snbx] De_Lisle.svg"
   xmlns:inkscape="http://www.inkscape.org/namespaces/inkscape"
   xmlns:sodipodi="http://sodipodi.sourceforge.net/DTD/sodipodi-0.dtd"
   xmlns="http://www.w3.org/2000/svg"
   xmlns:svg="http://www.w3.org/2000/svg">
  <sodipodi:namedview
     id="namedview3402"
     pagecolor="#ffffff"
     bordercolor="#666666"
     borderopacity="1.0"
     inkscape:pageshadow="2"
     inkscape:pageopacity="0.0"
     inkscape:pagecheckerboard="0"
     inkscape:document-units="mm"
     showgrid="false"
     inkscape:zoom="0.17349362"
     inkscape:cx="-1000.0368"
     inkscape:cy="400.59111"
     inkscape:window-width="1920"
     inkscape:window-height="1001"
     inkscape:window-x="-9"
     inkscape:window-y="-9"
     inkscape:window-maximized="1"
     inkscape:current-layer="layer1" />
  <defs
     id="defs3397" />
  <g
     inkscape:label="Layer 1"
     inkscape:groupmode="layer"
     id="layer1"
     transform="translate(214.60383,-38.531834)">
    <g
       id="g860"
       inkscape:export-filename="C:\Users\Isaiah H\Downloads\de_lisle.png"
       inkscape:export-xdpi="96"
       inkscape:export-ydpi="96"
       transform="translate(-266.95547,89.665679)">
      <path
         style="fill:#ffffff;fill-opacity:1;stroke:#323232;stroke-width:3.175;stroke-linecap:butt;stroke-linejoin:miter;stroke-miterlimit:4;stroke-dasharray:none;stroke-opacity:1"
         d="m 109.58514,61.781282 -3.59426,-4.283473 5.28987,-4.406549 -0.5735,-0.683472 8.64361,-7.285025 0.26891,0.320475 8.07859,-6.778748 -0.63865,-0.761123 3.43173,-2.879566 0.36975,0.440647 9.11522,-7.648582 0.38061,-1.535995 4.18864,-3.514692 6.29615,7.503475 -2.55197,6.658381 -32.43456,27.215826 -3.55184,-4.232918 z"
         id="path21736"
         sodipodi:nodetypes="cccccccccccccccccc" />
      <g
         id="g51486"
         style="fill:#323232;fill-opacity:1;stroke:#323232;stroke-width:0.396875;stroke-miterlimit:4;stroke-dasharray:none;stroke-opacity:1"
         transform="rotate(-40,76.615826,38.849488)">
        <path
           style="fill:#323232;fill-opacity:1;stroke:#323232;stroke-width:0.264583;stroke-linecap:butt;stroke-linejoin:miter;stroke-miterlimit:4;stroke-dasharray:none;stroke-opacity:1"
           d="m 104.22967,89.7618 c -3.38152,1.309686 -3.42532,3.030954 -3.10275,3.677976 1.50468,-2.598571 2.48723,-2.314383 3.69541,-3.041738 z"
           id="path50713"
           sodipodi:nodetypes="cccc" />
        <path
           style="fill:#323232;fill-opacity:1;stroke:#323232;stroke-width:0.264583;stroke-linecap:butt;stroke-linejoin:miter;stroke-miterlimit:4;stroke-dasharray:none;stroke-opacity:1"
           d="m 95.243901,89.631068 c 0.924755,0.707318 1.254672,1.155284 -0.581209,2.871911 -3.712214,3.471075 -0.269183,6.19921 1.051852,6.105139 -2.42448,-1.922237 -1.893068,-4.143451 -0.03486,-5.647698 1.452691,-1.175975 3.073325,-1.578368 2.388071,-3.486234 z"
           id="path48524"
           sodipodi:nodetypes="cscscc" />
        <path
           style="fill:#323232;fill-opacity:1;stroke:#323232;stroke-width:0.396875;stroke-linecap:butt;stroke-linejoin:miter;stroke-miterlimit:4;stroke-dasharray:none;stroke-opacity:1"
           d="m 89.891308,89.731074 c -2.034729,10.046161 4.928431,10.793046 6.914716,10.994526 4.354636,0.44172 7.912276,-2.066507 9.959166,-3.673061 V 87.019423 l -4.60981,2.391185 c 3.43185,1.163261 3.661,5.003766 2.67461,6.65986 -1.97845,3.321714 -5.016878,3.789338 -7.66389,3.789338 -2.620336,0 -4.882478,-1.415966 -5.623,-2.698589 -0.669766,-1.16007 -0.64547,-2.796296 -0.06178,-4.398021 l 0.69024,-0.123256 c 1.109433,-1.894727 3.165494,-2.134938 5.275397,-3.032123 z"
           id="path45308"
           sodipodi:nodetypes="cscccssscccc" />
      </g>
      <g
         id="g56564"
         transform="rotate(-40,74.054619,36.932327)">
        <path
           style="fill:none;stroke:#323232;stroke-width:2.38125;stroke-linecap:square;stroke-linejoin:miter;stroke-miterlimit:4;stroke-dasharray:none;stroke-opacity:1"
           d="m 104.85674,107.52636 h 11.38255"
           id="path56286" />
        <path
           style="fill:#ffffff;fill-opacity:1;stroke:#323232;stroke-width:3.175;stroke-linecap:butt;stroke-linejoin:miter;stroke-miterlimit:4;stroke-dasharray:none;stroke-opacity:1"
           d="m 102.94848,107.13196 h 11.38255 l 2.57981,-18.982544 H 105.9815 Z"
           id="path45306" />
      </g>
      <path
         style="fill:none;stroke:#323232;stroke-width:2.381;stroke-linecap:butt;stroke-linejoin:miter;stroke-miterlimit:4;stroke-dasharray:none;stroke-opacity:1"
         d="m 111.56706,52.818842 3.59426,4.283474 v 0 0"
         id="path54158" />
      <path
         id="path12944"
         style="fill:#ffffff;fill-opacity:1;stroke:#323232;stroke-width:3.175;stroke-linecap:butt;stroke-linejoin:miter;stroke-miterlimit:4;stroke-dasharray:none;stroke-opacity:1"
         d="m 147.04315,25.74197 c -1.94821,1.634737 -3.18797,2.766767 -3.48809,4.701693 -0.38953,2.511303 -6.387,7.350555 -11.75843,11.857729 l 1.04977,1.576662 -5.74162,4.817789 -2.37664,-1.964916 c -4.99657,4.192617 -11.46964,9.175531 -13.95787,14.41868 -2.88521,6.079648 -5.14058,13.211675 -12.026495,19.935498 L 54.701107,124.091 c 4.529195,3.88791 12.636531,10.84854 18.008783,17.87484 0.963828,1.26058 2.713309,2.41339 5.445178,3.24942 11.782259,-16.81742 15.384667,-34.18894 32.343062,-53.046601 1.53953,-1.711953 3.19658,-3.283352 2.31879,-4.742986 -2.34832,-3.904903 0.11111,-6.844605 8.22226,-19.085951 5.9014,-7.203093 21.03295,-21.317697 35.62641,-34.481306 l -3.65911,-4.360761 -2.16467,0.770999 z"
         sodipodi:nodetypes="csccccsscscssccccc" />
      <path
         style="fill:#ffffff;fill-opacity:1;stroke:#323232;stroke-width:3.175;stroke-linecap:butt;stroke-linejoin:miter;stroke-miterlimit:4;stroke-dasharray:none;stroke-opacity:1"
         d="m 159.86231,31.176051 c 10.21294,-8.569673 37.45069,-31.26596945 39.03763,-33.9230347 1.32602,-2.2202255 0.0981,-3.5235774 -1.20631,-3.9026471 -1.74938,-0.5083945 -4.17344,0.7084084 -5.53854,1.5622554 -2.17932,1.3631248 -18.78913,14.1994405 -23.70918,18.0311484 -4.6885,3.651378 -9.06306,10.158098 -12.10826,14.03175 z"
         id="path25992"
         sodipodi:nodetypes="csssscc" />
      <path
         style="fill:#323232;fill-opacity:1;stroke:#323232;stroke-width:0.264583px;stroke-linecap:butt;stroke-linejoin:miter;stroke-opacity:1"
         d="m 219.74258,-41.4247 9.14684,-7.675109 -1.15407,-1.375364 c -0.47148,-0.561872 -1.26234,-0.571009 -1.75142,-0.487294 -1.12424,0.192432 -1.8926,0.837167 -3.46765,2.158802 l -3.29987,4.907866 c -0.68832,1.023735 -0.0434,1.79229 0.52617,2.471099 z"
         id="path31555"
         sodipodi:nodetypes="cccscsc" />
      <g
         id="g53052"
         transform="rotate(-40,70.923297,31.905385)">
        <path
           style="fill:#323232;fill-opacity:1;stroke:#323232;stroke-width:0;stroke-linecap:butt;stroke-linejoin:miter;stroke-miterlimit:4;stroke-dasharray:none;stroke-opacity:1"
           d="m 155.51992,67.397588 c 0.57744,0.993908 0.54966,2.142744 4.6497,2.336515 l 11.50055,0.07689 1.26268,-1.115975 -1.26379,-0.364846 -11.16306,0.263644 c -0.12169,-1.176008 -0.94278,-1.34305 -1.23868,-1.339008 -0.2959,0.004 -1.16266,0.03687 -1.39269,0.918911 -0.16535,0.633998 -0.435,0.11499 -0.64478,-0.08254 -0.47515,-0.470659 -1.06353,-0.603951 -1.70993,-0.693594 z"
           id="path37647"
           sodipodi:nodetypes="cccccczsccc" />
        <path
           style="fill:#323232;fill-opacity:1;stroke:#323232;stroke-width:0.264583;stroke-linecap:butt;stroke-linejoin:miter;stroke-miterlimit:4;stroke-dasharray:none;stroke-opacity:1"
           d="m 177.91993,71.390472 v -1.474057 h -2.21376 c -0.55779,-2e-6 -0.55779,-0.351223 -0.55779,-0.714677 0,-0.362696 0,-0.810555 -0.75826,-0.810551 0,-1.647007 -2.71926,-1.629822 -2.71926,0.08716 0,0.627615 -0.14754,0.839257 -1.29862,0.897704 l -12.3587,0.627523 h -3.15504 l -0.59266,1.386901 z"
           id="path35244"
           sodipodi:nodetypes="cccscsscccc" />
      </g>
      <path
         style="fill:#323232;fill-opacity:1;stroke:#323232;stroke-width:0.264583px;stroke-linecap:butt;stroke-linejoin:miter;stroke-opacity:1"
         d="m 110.09793,62.64072 10.16806,6.544255 c 0.81398,-0.977082 1.49347,-1.969504 2.08182,-2.621276 l -10.27535,-7.010036 c -0.74203,0.848186 -1.47595,2.115894 -1.97453,3.087057 z"
         id="path52029"
         sodipodi:nodetypes="ccccc" />
      <circle
         style="fill:#323232;fill-opacity:1;stroke:#ffffff;stroke-width:0.661458;stroke-linejoin:miter;stroke-miterlimit:4;stroke-dasharray:none;stroke-opacity:1;stop-color:#000000"
         id="path51654"
         cx="48.387016"
         cy="121.01743"
         r="2.2754166"
         transform="rotate(-40)" />
      <path
         style="fill:none;stroke:#323232;stroke-width:2.381;stroke-linecap:butt;stroke-linejoin:miter;stroke-miterlimit:4;stroke-dasharray:none;stroke-opacity:1"
         d="m 114.8551,61.602163 -1.24441,-6.347817"
         id="path54389"
         sodipodi:nodetypes="cc" />
      <path
         id="rect58801-3-7"
         style="fill:#323232;stroke:#323232;stroke-width:0.264583;stroke-linecap:square;stop-color:#000000"
         d="m 145.69268,19.900805 6.09391,7.263264 1.49796,-0.552667 c 2.62562,-3.543899 8.76201,-11.977861 13.44074,-15.717581 4.87122,-3.8935814 21.64254,-16.5064851 23.72894,-18.0079342 5.16225,-3.7149378 8.93459,-2.5608801 10.54022,-0.6473738 0,0 24.73002,-20.744819 37.15176,-31.167896 1.56554,-1.313646 0.76639,-4.825195 -1.79148,-7.873539 -2.55786,-3.048346 -5.87758,-4.445478 -7.44284,-3.131492 -27.73151,23.279817 -55.47719,46.5570305 -83.21915,69.835301 z"
         sodipodi:nodetypes="cccsscssscc" />
    </g>
  </g>
</svg>
