<svg width="129" height="129" viewBox="0 0 129 129" fill="none" xmlns="http://www.w3.org/2000/svg">
<path d="M124.896 15.3463L113.413 3.86328L111.979 5.29828L123.462 16.7823L124.896 15.3463ZM21.9375 117.105L27.1395 122.306C29.7395 117.105 40.1435 106.702 45.3445 104.101L40.1435 98.9003L21.9375 117.105Z" fill="#323232"/>
<path d="M9.09766 106.125L23.4027 120.43L75.0657 68.7659L75.4157 65.8129L65.0127 55.4099L60.7607 54.4609L9.09766 106.125ZM83.4207 98.1379C83.9717 98.9979 82.7717 100.739 82.7717 100.739L77.1077 106.403C76.4017 106.668 75.4687 105.14 75.4687 105.14L60.3437 90.0139L68.4087 81.9489L70.0517 83.5919C71.3117 84.9779 69.8097 85.1079 70.4177 87.0829L80.4957 97.1619C80.4957 97.1619 83.0457 97.4989 83.4207 98.1379Z" fill="white" stroke="#323232" stroke-width="3"/>
<path d="M103.777 55.0502C103.777 55.0502 99.7939 55.6072 96.9499 50.8242L95.2969 52.4762L99.8489 57.0282C101.634 57.3582 103.452 56.0252 103.452 56.0252C103.452 56.0252 104.019 55.5572 103.778 55.0492L103.777 55.0502Z" fill="#323232"/>
<path d="M99.7891 43.8594L107.053 51.1234C107.053 51.1234 108.262 52.9684 106.723 55.3974L101.793 60.3274" stroke="#323232" stroke-width="1.859"/>
<path d="M4.14453 111.079L4.28853 112.524L17.0035 125.239L18.4485 125.383L21.0485 122.783L6.74653 108.477L4.14453 111.079Z" fill="#323232"/>
<path d="M69.2969 53.0804L75.7989 59.5824L121.312 14.0684L114.81 7.56641L69.2969 53.0804Z" fill="white" stroke="#323232" stroke-width="3"/>
<path d="M52.6619 46.9555L50.3859 45.9805C49.7359 45.9805 49.0859 46.6305 49.0859 47.2805L51.3619 48.2565L55.2619 52.1565L56.5629 50.8565L52.6619 46.9555Z" fill="#323232"/>
<path d="M49.7369 57.037C49.0859 57.687 49.7359 58.337 49.7359 58.337L51.3609 59.963L59.1639 52.161L57.5369 50.535C57.5369 50.535 56.8869 49.885 56.2369 50.535L49.7369 57.037ZM51.7939 56.28C51.9379 56.136 52.1332 56.0551 52.3369 56.0551C52.5406 56.0551 52.7359 56.136 52.8799 56.28C53.0236 56.424 53.1043 56.6191 53.1043 56.8225C53.1043 57.0259 53.0236 57.221 52.8799 57.365C52.7359 57.509 52.5406 57.5899 52.3369 57.5899C52.1332 57.5899 51.9379 57.509 51.7939 57.365C51.6499 57.221 51.569 57.0256 51.569 56.822C51.569 56.6183 51.6499 56.423 51.7939 56.279V56.28ZM55.4799 52.593C55.6239 52.449 55.8193 52.3681 56.0229 52.3681C56.2266 52.3681 56.4219 52.449 56.5659 52.593C56.7096 52.737 56.7903 52.9321 56.7903 53.1355C56.7903 53.3389 56.7096 53.534 56.5659 53.678C56.422 53.8221 56.2268 53.9032 56.0231 53.9034C55.8195 53.9036 55.6241 53.8228 55.4799 53.679C55.3359 53.535 55.255 53.3396 55.255 53.136C55.255 52.9323 55.3359 52.737 55.4799 52.593ZM30.2299 63.538L29.2539 64.514L30.8799 66.14V66.79L36.7309 72.642L37.7069 71.666L32.1809 66.14V65.49L30.2299 63.538Z" fill="#323232"/>
<path d="M113.855 70.9816C114.406 71.8416 113.205 73.5816 113.205 73.5816L107.542 79.2456C106.835 79.5116 105.902 77.9836 105.902 77.9836L89.1484 61.2286L95.6494 54.7266L110.929 70.0066C110.929 70.0066 113.479 70.3426 113.855 70.9806V70.9816Z" fill="white" stroke="#323232" stroke-width="3"/>
<path d="M103.98 44.8539L101.379 42.2539L83.1742 60.4569L89.9002 67.1829L100.303 56.7799L96.1772 52.6549L103.98 44.8539ZM8.91116 115.849L7.28516 117.474L12.0532 122.242L13.6782 120.616L8.91116 115.849ZM43.2312 64.8389C43.2312 64.8389 42.5812 64.1889 41.9312 64.8389L35.4292 71.3409C34.7792 71.9909 35.4292 72.6409 35.4292 72.6409L37.0542 74.2669L44.8572 66.4639L43.2312 64.8389Z" fill="#323232"/>
<path d="M35.4136 70.3657C35.9521 69.8272 35.9521 68.9541 35.4136 68.4155C34.875 67.877 34.0019 67.877 33.4634 68.4155C32.9248 68.9541 32.9248 69.8272 33.4634 70.3657C34.0019 70.9043 34.875 70.9043 35.4136 70.3657Z" fill="#323232"/>
<path d="M73.6328 57.4186L77.7468 61.5326L112.857 26.4226L108.744 22.3086L73.6328 57.4186Z" fill="white" stroke="#323232" stroke-width="3"/>
<path d="M32.4642 87.2695L34.1132 88.9195L24.2672 98.7655L22.6172 97.1155L32.4642 87.2695Z" fill="#7E7E7E"/>
<path d="M16.9023 98.323L20.8033 94.422L35.1083 108.726L31.2063 112.626L16.9023 98.323ZM29.9063 85.319L33.8073 81.418L48.1113 95.722L44.2113 99.623L29.9063 85.319Z" fill="#323232"/>
<path d="M72.0758 61.3555L74.0258 63.3055L60.4658 76.8665L53.3128 74.9145L16.2508 111.975L14.3008 110.025L52.6618 71.6655L59.8138 73.6155L72.0758 61.3555Z" fill="#323232"/>
<path d="M17.875 106.449L42.582 81.7422L47.784 86.9442L23.077 111.651L17.875 106.449Z" fill="white" stroke="#323232" stroke-width="3" stroke-linecap="round"/>
<path d="M62.646 60.4666C61.6937 59.5143 60.1497 59.5143 59.1976 60.4665C58.6204 61.0436 58.3936 61.8382 58.5161 62.5865C57.7677 62.4641 56.9734 62.6907 56.3961 63.2679C55.4438 64.2202 55.4438 65.7641 56.3961 66.7164C56.8093 67.1296 57.331 67.366 57.8703 67.4206L63.6786 67.7491L63.3502 61.9407C63.2955 61.4015 63.0592 60.8797 62.646 60.4666Z" fill="#7E7E7E"/>
<path d="M39.6216 89.1281C39.3272 88.8337 38.8499 88.8337 38.5555 89.1281C38.377 89.3066 38.3069 89.5522 38.3448 89.7836C38.1134 89.7457 37.8678 89.8158 37.6893 89.9943C37.3949 90.2887 37.3949 90.766 37.6893 91.0604C37.8171 91.1882 37.9784 91.2613 38.1451 91.2782L39.9409 91.3797L39.8394 89.5839C39.8225 89.4172 39.7494 89.2559 39.6216 89.1281Z" fill="#323232"/>
<path d="M73.1177 94.1867C72.8233 93.8923 72.3459 93.8923 72.0516 94.1867C71.8731 94.3651 71.803 94.6108 71.8409 94.8422C71.6095 94.8043 71.3639 94.8744 71.1854 95.0528C70.891 95.3473 70.891 95.8246 71.1854 96.119C71.3132 96.2468 71.4745 96.3198 71.6412 96.3367L73.437 96.4383L73.3354 94.6425C73.3185 94.4758 73.2455 94.3145 73.1177 94.1867Z" fill="#323232"/>
<path d="M26.7271 102.226C26.4327 101.931 25.9553 101.931 25.6609 102.226C25.4825 102.404 25.4124 102.65 25.4503 102.881C25.2189 102.843 24.9733 102.913 24.7948 103.092C24.5004 103.386 24.5004 103.864 24.7948 104.158C24.9225 104.286 25.0839 104.359 25.2506 104.376L27.0464 104.477L26.9448 102.682C26.9279 102.515 26.8548 102.354 26.7271 102.226Z" fill="#323232"/>
<path d="M98.8482 62.4719C98.5538 62.1775 98.0764 62.1775 97.782 62.4719C97.6036 62.6503 97.5335 62.896 97.5714 63.1273C97.34 63.0895 97.0944 63.1595 96.9159 63.338C96.6215 63.6324 96.6215 64.1098 96.9159 64.4042C97.0436 64.5319 97.205 64.605 97.3717 64.6219L99.1674 64.7235L99.0659 62.9277C99.049 62.7609 98.9759 62.5996 98.8482 62.4719Z" fill="#323232"/>
<path d="M107.333 70.7531C107.038 70.4587 106.561 70.4587 106.266 70.7531C106.088 70.9316 106.018 71.1772 106.056 71.4086C105.824 71.3707 105.579 71.4408 105.4 71.6193C105.106 71.9137 105.106 72.391 105.4 72.6854C105.528 72.8132 105.689 72.8863 105.856 72.9032L107.652 73.0047L107.55 71.2089C107.533 71.0422 107.46 70.8809 107.333 70.7531Z" fill="#323232"/>
</svg>
