<svg width="39" height="186" viewBox="0 0 39 186" fill="none" xmlns="http://www.w3.org/2000/svg">
<path d="M26.6047 117.153L27.2035 147.307L31.8024 177.461C21.0341 180.318 18.9786 180.174 8.09766 177.461L12.2767 147.307L12.4558 117.153L26.6047 117.153Z" fill="#5F1308" stroke="black" stroke-width="12" stroke-miterlimit="10"/>
<path d="M10.0977 162.491C20.9786 165.203 18.0341 165.347 28.8024 162.491L31.8024 177.453C21.0341 180.31 18.9786 180.166 8.09766 177.453L10.0977 162.491Z" fill="#4D3F3F" stroke="black" stroke-width="12" stroke-miterlimit="10"/>
<path d="M27.7654 105.506L32.1236 97.5062L30.1236 17.3605L26.7654 9.36051L12.2956 9.36051L8.93749 17.3605L6.9375 97.5062L11.2956 105.506L27.7654 105.506Z" fill="#1A1A1A" stroke="black" stroke-width="12" stroke-miterlimit="10"/>
<path d="M14.5836 121.223L24.4799 121.223L25.6124 94.0184L13.4512 94.0184L14.5836 121.223Z" fill="#4D3F3F" stroke="black" stroke-width="7"/>
<path d="M13.625 101.723H25.6115" stroke="black" stroke-opacity="0.501961" stroke-width="3"/>
<path d="M13.625 106.903H25.6115" stroke="black" stroke-opacity="0.501961" stroke-width="3"/>
<path d="M13.625 112.081H25.6115" stroke="black" stroke-opacity="0.501961" stroke-width="3"/>
<path d="M22.2558 33.7698L16.8047 33.7698L16.8047 48.2225L22.2558 48.2225L22.2558 33.7698Z" fill="#484848" stroke="black" stroke-width="4" stroke-miterlimit="10"/>
<path d="M22.9211 2.36041L16.1426 2.36041L16.1426 10.2006L22.9211 10.2006L22.9211 2.36041Z" fill="#484848" stroke="black" stroke-width="4" stroke-miterlimit="10"/>
</svg>
