<svg width="21" height="31" viewBox="0 0 21 31" fill="none" xmlns="http://www.w3.org/2000/svg">
<path d="M10.9812 1.20381C10.6812 0.803809 10.1812 0.803809 9.88125 1.20381C7.68125 4.20381 0.28125 15.3038 0.28125 20.3038C0.28125 25.9038 4.88125 30.5038 10.4812 30.5038C16.0812 30.5038 20.6813 25.9038 20.6813 20.3038C20.6813 15.4038 13.0812 4.20381 10.9812 1.20381ZM10.3812 26.6038C6.48125 26.6038 3.28125 23.4038 3.28125 19.5038C3.28125 19.2038 3.48125 19.0038 3.78125 19.0038C4.08125 19.0038 4.28125 19.2038 4.28125 19.5038C4.28125 22.9038 6.98125 25.6038 10.3812 25.6038C10.6812 25.6038 10.8812 25.8038 10.8812 26.1038C10.8812 26.4038 10.6812 26.6038 10.3812 26.6038Z" fill="#3491D7"/>
</svg>
