<svg width="73" height="73" viewBox="0 0 73 73" fill="none" xmlns="http://www.w3.org/2000/svg">
<mask id="mask0" mask-type="alpha" maskUnits="userSpaceOnUse" x="0" y="0" width="73" height="73">
<rect x="0.957031" y="0.265137" width="72" height="72" fill="#C4C4C4"/>
</mask>
<g mask="url(#mask0)">
<path d="M36.8579 65.6252C36.1553 65.6252 35.553 65.4245 34.8504 65.1233C34.5492 64.9226 26.5191 61.0079 18.6897 54.2826C13.972 50.2676 10.3584 46.0517 7.84902 41.7355C4.53659 36.0141 3.33207 30.1922 4.03471 24.4707C4.73735 19.1508 6.84526 14.8346 10.3584 11.7229C13.3697 8.91235 17.2844 7.30633 21.6006 6.90482C22.2029 6.90482 22.8052 6.80444 23.307 6.80444C26.8202 6.80444 30.233 7.70783 33.144 9.31386C34.4489 10.0165 35.553 10.8195 36.6571 11.8233C37.6609 10.8195 38.8654 10.0165 40.1703 9.31386C43.0813 7.70783 46.4941 6.80444 50.0073 6.80444C50.6095 6.80444 51.2118 6.80444 51.7137 6.90482C56.0299 7.30633 59.9446 8.91235 62.9559 11.7229C66.3687 14.8346 68.5769 19.1508 69.2796 24.4707C70.0826 30.2926 68.7777 36.0141 65.4653 41.7355C62.9559 46.0517 59.3423 50.2676 54.6246 54.2826C46.7952 61.0079 38.7651 64.9226 38.4639 65.1233C38.2632 65.4245 37.5605 65.6252 36.8579 65.6252Z" fill="#FF3D54"/>
<path d="M66.7424 24.957C66.1124 20.3557 64.3084 16.6684 61.3805 13.9971C58.8183 11.6594 55.5293 10.2615 51.8695 9.95398C50.1878 9.81319 48.49 9.91448 46.8507 10.2387C49.7062 10.8152 52.2723 12.0951 54.3573 13.9973C57.2851 16.6686 59.0891 20.3559 59.7192 24.9572C60.4167 30.0508 59.2743 35.2217 56.3234 40.3263C54.0132 44.3232 50.591 48.2867 46.1517 52.1068C41.3595 56.2307 36.4758 59.2621 33.4922 60.9536C35.1714 61.9057 36.251 62.435 36.3681 62.4919C36.5687 62.5893 36.7862 62.6381 37.0037 62.6381C37.2212 62.6381 37.4387 62.5893 37.6394 62.4919C37.9645 62.3341 45.6854 58.5516 53.1747 52.1068C57.6139 48.2865 61.0362 44.3232 63.3464 40.3263C66.2975 35.2215 67.4397 30.0506 66.7424 24.957Z" fill="#E4384D"/>
<path d="M23.5066 9.91616C26.5179 9.91616 29.4288 10.6188 31.9382 12.0241C34.0461 13.1282 35.6521 14.7342 36.8567 16.4406C38.0612 14.6339 39.7676 13.1282 41.7751 12.0241C44.2845 10.6188 47.1955 9.91616 50.2068 9.91616C50.7086 9.91616 51.2105 9.91616 51.7124 10.0165C55.326 10.3177 58.6384 11.7229 61.2482 14.0316C64.1591 16.7418 65.9659 20.3553 66.5682 24.9727C67.2708 30.0919 66.1667 35.2111 63.1554 40.3303C60.8467 44.3454 57.4339 48.2601 53.0173 52.0744C45.5894 58.4985 37.8604 62.3128 37.5593 62.5136C37.3585 62.6139 37.1578 62.6139 36.957 62.6139C36.7563 62.6139 36.5555 62.6139 36.3548 62.5136C36.0536 62.3128 28.3246 58.5989 20.7964 52.1748C16.3798 48.3604 12.967 44.3454 10.6583 40.4307C7.7474 35.3115 6.54288 30.1923 7.24552 25.073C7.84778 20.4557 9.65456 16.7418 12.5655 14.132C15.1753 11.8233 18.3873 10.418 22.1013 10.1169C22.5028 9.91616 23.0047 9.91616 23.5066 9.91616ZM23.5066 3.89355C22.8039 3.89355 22.2017 3.89356 21.499 3.99393C16.4802 4.39544 11.9632 6.3026 8.45004 9.61503C4.43497 13.2286 2.02593 18.1471 1.22291 24.1697C0.319523 30.5938 1.7248 37.1183 5.33836 43.3416C7.94815 47.9589 11.8628 52.3755 16.7813 56.6917C24.8114 63.6177 33.2431 67.7332 33.6446 67.9339C34.6484 68.4358 35.7525 68.6366 36.957 68.6366C38.0612 68.6366 39.1653 68.3354 40.2695 67.9339C40.671 67.7332 49.0022 63.6177 57.1328 56.6917C62.0512 52.4759 65.9659 47.9589 68.5757 43.3416C72.1893 37.0179 73.5945 30.5938 72.6911 24.1697C71.8881 18.1471 69.3787 13.2286 65.464 9.61503C61.9508 6.40297 57.4339 4.39544 52.4151 3.99393C51.7124 3.89356 51.1102 3.89355 50.4075 3.89355C46.3924 3.89355 42.4778 4.89732 39.0649 6.7041C38.3623 7.10561 37.6597 7.50712 37.0574 8.009C36.3548 7.50712 35.7525 7.10561 35.0499 6.7041C31.4363 4.79694 27.5216 3.89355 23.5066 3.89355Z" fill="#791A1D"/>
</g>
</svg>
