<svg width="44" height="66" viewBox="0 0 44 66" fill="none" xmlns="http://www.w3.org/2000/svg">
<path fill-rule="evenodd" clip-rule="evenodd" d="M38.9476 6.90831L31.801 17.7681L39.8768 33.7697L29.1094 43.3407L36.7857 62.6234C36.7473 62.6246 36.7089 62.6252 36.6704 62.6252C35.9678 62.6252 35.3655 62.4245 34.6629 62.1233C34.629 62.1007 34.4971 62.0311 34.2787 61.9156C32.5564 61.0056 25.4502 57.2508 18.5022 51.2826C13.7845 47.2676 10.1709 43.0517 7.66152 38.7355C4.34909 33.0141 3.14457 27.1922 3.84721 21.4707C4.54985 16.1508 6.65776 11.8346 10.1709 8.7229C13.1822 5.91235 17.0969 4.30633 21.4131 3.90482C21.728 3.90482 22.0428 3.87739 22.3433 3.8512C22.6177 3.8273 22.88 3.80444 23.1195 3.80444C26.6327 3.80444 30.0455 4.70783 32.9565 6.31386C34.2614 7.0165 35.3655 7.81951 36.4697 8.82328C37.2018 8.09113 38.0407 7.46579 38.9476 6.90831Z" fill="#FF3D54"/>
<path fill-rule="evenodd" clip-rule="evenodd" d="M35.382 59.0973C33.1949 57.945 26.8333 54.4862 20.6089 49.1748C16.1923 45.3604 12.7795 41.3454 10.4708 37.4307C7.5599 32.3115 6.35538 27.1923 7.05802 22.073C7.66028 17.4557 9.46706 13.7418 12.378 11.132C14.9878 8.82332 18.1998 7.41804 21.9138 7.11691C22.3153 6.91616 22.8172 6.91616 23.319 6.91616C26.3304 6.91616 29.2413 7.6188 31.7507 9.02407C32.7749 9.56053 33.6805 10.2155 34.4792 10.9428L36.8213 4.97431C36.1393 4.48853 35.5488 4.09632 34.8624 3.7041C31.2488 1.79694 27.3341 0.893555 23.319 0.893555C22.6164 0.893555 22.0142 0.893555 21.3115 0.993932C16.2927 1.39544 11.7757 3.3026 8.26254 6.61503C4.24747 10.2286 1.83843 15.147 1.03541 21.1697C0.132023 27.5938 1.5373 34.1183 5.15086 40.3416C7.76065 44.9589 11.6753 49.3755 16.5938 53.6917C24.4434 60.462 32.6767 64.5467 33.4179 64.9145C33.435 64.9229 33.4481 64.9294 33.4571 64.9339C34.4609 65.4358 35.565 65.6366 36.7695 65.6366C37.1609 65.6366 37.5523 65.5987 37.9436 65.532L35.382 59.0973Z" fill="#791A1D"/>
<path fill-rule="evenodd" clip-rule="evenodd" d="M36.5471 4.78662L41.6006 8.02115L35.2494 17.944L43.594 34.4785L32.6779 44.1818L40.7088 64.2108L37.9531 65.5312L37.0741 65.3273L32.7396 60.4577L30.3394 54.4717L25.5391 42.4997L36.1577 33.0608L28.3509 17.592L36.5471 4.78662Z" fill="#791A1D"/>
</svg>
