<svg width="148" height="148" viewBox="0 0 148 148" fill="none" xmlns="http://www.w3.org/2000/svg">
<path d="M140.768 77.6525C142.984 40.9924 115.061 9.47568 78.4008 7.25786C41.7409 5.04005 10.2263 32.961 8.01107 69.6211C5.79582 106.281 33.7187 137.798 70.3786 140.016C107.039 142.234 138.553 114.313 140.768 77.6525Z" fill="#816537"/>
<path fill-rule="evenodd" clip-rule="evenodd" d="M13.0197 74.0009C13.0197 107.687 40.3252 134.991 74 134.993C107.675 134.996 134.98 107.697 134.98 74.0111C134.98 40.325 107.675 13.0214 74 13.0186C40.3252 13.0158 13.0197 40.3148 13.0197 74.0009ZM74 146.006C34.2318 146.003 2 113.761 2 74C2 34.2392 34.2318 2.00269 74 2.00601C113.768 2.00932 146 34.2512 146 74.012C146 113.773 113.768 146.009 74 146.006Z" fill="black"/>
</svg>
