<svg width="4600" height="2900" viewBox="240 1480 4600 2900" xmlns="http://www.w3.org/2000/svg">
    <path
        d="M3134.59 2457.51L4790.31 1525.19L3154.09 2491.28L3153.99 2491.34L1451.33 3485.77L1421.96 3434.89L3134.46 2457.58L3134.59 2457.51Z"
        fill="#707070" stroke="#333333" stroke-width="50" />
    <path
        d="M323.318 4202.99L289.305 4155.08L593.239 3956.51C623.879 3935.66 639.367 3921.34 664.396 3891.76L754.616 3749.02C771.347 3708.7 765.941 3688.16 728.316 3650.47C651.812 3612.32 603.795 3600.85 507.324 3603.7C469.859 3604.81 475.484 3554.55 496.363 3551.72C644.727 3531.56 719.408 3556.48 837.959 3663.38C881.453 3689.27 905.254 3690.51 947.384 3668.91L1232.04 3514.95L1289.79 3614.98L933.856 3820.48C930.892 3823.34 929.416 3825.35 928.995 3829.06C927.384 3843.27 926.061 3851.53 928.974 3866.02C931.389 3878.03 931.754 3884.83 931.282 3897.02C931.122 3901.15 929.767 3901.92 925.287 3901.63L904.949 3902.41C846.779 3902.91 823.832 3916.91 818.32 3974.36L838.084 4053.59C840.506 4066.87 840.687 4074.44 837.929 4088.32C824.927 4162.8 857.463 4227.16 932.687 4226.45C951.637 4226.27 954.267 4258.84 941.161 4263.13C877.911 4283.81 786.229 4308.12 772.847 4291.6C760.537 4276.4 758.012 4271.12 752.762 4251.81L746.216 4202.47C738.895 4131.65 731.052 4090.59 699.098 4010.86C699.098 4010.86 692.635 3999.67 682.53 3992.11C679.599 3989.92 675.907 3988.99 672.299 3989.61C659.285 3991.84 645.591 4000.19 645.591 4000.19L323.318 4202.99Z"
        fill="#A03B3B" stroke="#333333" stroke-width="50" />
    <path
        d="M1487.34 4051.14C1320.39 3666.87 1222.33 3452.23 1039.17 3070.89C1030.28 3052.09 1041.07 3049.59 1063.21 3064.52C1386.55 3282.56 1567.84 3604.56 1505.23 4043.12C1500.79 4069.36 1497.1 4073.16 1487.34 4051.14Z"
        fill="#AAAAAA" stroke="#333333" stroke-width="50" />
    <path
        d="M1478.11 4029.91C1319.86 3666.07 1222.76 3453.54 1049.59 3092.59C1040.68 3103.51 1044.38 3112.92 1044.38 3112.92C1170.35 3426.99 1297.28 3705.63 1451.73 4006.46C1463.16 4028.72 1464.11 4029.91 1478.11 4029.91Z"
        fill="#333333" stroke="#333333" stroke-width="50" />
</svg>