<svg width="6500" height="1150" viewBox="-20 -10 6500 1150" xmlns="http://www.w3.org/2000/svg">
    <path
        d="M1107.12 1076.5C1151.99 682.288 1174.17 449.678 1204.67 50.5C1191.5 55.5 1190 65.5 1190 65.5C1142.05 400.479 1112.65 705.255 1096 1043C1094.77 1068 1095 1069.5 1107.12 1076.5Z"
        fill="#5C639C" stroke="black" stroke-width="40" />
    <path
        d="M3327.94 530.5L6445.98 564.061L3327.94 594.5L3327.88 594.501L1343.5 604.437V520.563L3327.87 530.499L3327.94 530.5Z"
        fill="#707070" stroke="black" stroke-width="40" />
    <path
        d="M1151.75 494.093V645.045L838.329 636.699C781.699 637.123 750.96 639.15 698.026 646.052C644.133 664.507 613.668 668.546 558.873 663.752C534.191 649.632 529.265 630.317 545.059 616.389C527.857 598.187 522.408 587.341 522.898 564.604C523.469 538.077 519.832 524.168 509.227 499.273C503.072 484.823 496.482 479.725 479.871 478.12C456.703 475.882 445.622 468.194 426.052 455.671C400.89 444.711 386.179 440.984 358.707 439.267L31.6195 444.447C25.1634 444.778 22.2659 443.152 20.683 436.82L15.0709 402.14C15.0709 402.14 13.9922 389.402 20.2513 380.267C25.5757 372.496 33.3463 371.345 42.1243 380.267L59.3924 400.269C64.3152 404.62 67.4411 405.812 73.4947 406.313L340.863 410.055C376.838 412.069 395.402 415.106 431.665 426.172C476.497 439.851 501.528 446.676 546.066 457.974C583.768 467.538 607.312 473.756 647.372 477.113L1151.75 494.093Z"
        fill="#A03B3B" stroke="black" stroke-width="40" />
    <path
        d="M21.5721 439.554H21.4026C26.3066 448.309 29.577 452.999 37.5195 459.844C41.4048 463.193 45.2939 464.393 53.2047 464.305L376.982 461.859C417.706 461.859 447.782 489.344 467.352 526.902L502.176 605.616C506.349 613.675 511.242 616.121 517.574 616.121H544.806C527.804 598.08 522.411 587.229 522.898 564.604C523.469 538.077 519.832 524.168 509.227 499.273C503.072 484.823 496.482 479.725 479.871 478.12C457.724 475.98 446.622 468.861 428.592 457.299C427.761 456.766 426.915 456.223 426.052 455.671C402.211 445.286 387.753 441.395 362.931 439.554H340.536L31.6195 444.447C26.2163 444.724 23.3056 443.63 21.5721 439.554Z"
        fill="#8D3434" stroke="black" stroke-width="40" />
    <path fill-rule="evenodd" clip-rule="evenodd"
        d="M522.872 566.323C522.877 565.758 522.885 565.185 522.898 564.605C523.469 538.077 519.832 524.168 509.227 499.273C508.149 496.743 507.058 494.499 505.901 492.51H462.891C455.087 492.217 453.25 492.51 459.15 501.432L477.281 530.644C485.854 546.582 492.372 555.303 507.788 567.77C515.364 573.896 518.457 573.459 522.872 566.323Z"
        fill="#682727" />
    <path
        d="M522.872 566.323L535.372 566.426L535.343 569.924L533.502 572.899L522.872 566.323ZM522.898 564.605L510.401 564.336L510.401 564.336L522.898 564.605ZM509.227 499.273L520.727 494.375L520.727 494.375L509.227 499.273ZM505.901 492.51V480.01H513.093L516.708 486.227L505.901 492.51ZM462.891 492.51V505.01H462.656L462.422 505.001L462.891 492.51ZM459.15 501.432L469.576 494.537L469.675 494.687L469.77 494.84L459.15 501.432ZM477.281 530.644L487.902 524.052L488.106 524.381L488.29 524.722L477.281 530.644ZM507.788 567.77L499.928 577.49L499.928 577.49L507.788 567.77ZM510.372 566.22C510.378 565.597 510.387 564.969 510.401 564.336L535.395 564.873C535.384 565.401 535.376 565.918 535.372 566.426L510.372 566.22ZM510.401 564.336C510.672 551.728 509.934 542.658 508.041 533.994C506.128 525.234 502.927 516.38 497.727 504.172L520.727 494.375C526.132 507.062 530.052 517.609 532.466 528.66C534.9 539.806 535.695 550.954 535.395 564.874L510.401 564.336ZM497.727 504.172C496.79 501.973 495.924 500.218 495.095 498.793L516.708 486.227C518.192 488.779 519.508 491.512 520.727 494.375L497.727 504.172ZM505.901 505.01H462.891V480.01H505.901V505.01ZM462.422 505.001C461.465 504.965 460.764 504.945 460.206 504.943C459.625 504.941 459.449 504.962 459.511 504.955C459.559 504.95 459.758 504.927 460.064 504.86C460.363 504.794 460.876 504.661 461.511 504.398C462.806 503.861 464.991 502.605 466.575 499.989C468.164 497.363 468.263 494.831 468.125 493.409C468.058 492.715 467.931 492.198 467.847 491.905C467.762 491.606 467.688 491.43 467.676 491.401C467.663 491.369 467.763 491.606 468.112 492.207C468.446 492.784 468.919 493.543 469.576 494.537L448.723 508.327C447.196 506.018 445.64 503.499 444.62 501.065C443.967 499.509 441.406 493.289 445.189 487.041C448.928 480.865 455.545 480.236 456.858 480.096C459.095 479.858 461.605 479.953 463.361 480.019L462.422 505.001ZM469.77 494.84L487.902 524.052L466.661 537.236L448.529 508.024L469.77 494.84ZM488.29 524.722C496.183 539.395 501.688 546.76 515.649 558.051L499.928 577.49C483.057 563.846 475.526 553.768 466.273 536.565L488.29 524.722ZM515.649 558.051C517.273 559.364 518.065 559.829 518.29 559.942C518.472 560.032 517.265 559.375 515.226 559.586C514.208 559.692 513.293 559.987 512.543 560.363C511.832 560.721 511.404 561.084 511.245 561.23C511.095 561.369 511.127 561.367 511.335 561.095C511.539 560.828 511.837 560.401 512.242 559.746L533.502 572.899C531.39 576.314 526.683 583.532 517.805 584.453C513.494 584.9 509.817 583.65 507.15 582.322C504.527 581.017 502.092 579.239 499.928 577.49L515.649 558.051Z"
        fill="black" />
    <path
        d="M683.204 583.887L750.693 595.543V640.584L698.026 646.052C644.133 664.507 613.668 668.546 558.873 663.752C534.191 649.632 529.265 630.317 545.059 616.389C587.941 593.529 636.436 611.084 683.204 583.887Z"
        fill="#A73E3E" stroke="black" stroke-width="40" />
    <path
        d="M1104.5 1099.5C1152.05 683.24 1174.44 448.327 1206.5 26.5C1208.2 5.77327 1218.79 9.00002 1230.5 33C1401.5 383.5 1397.5 753 1124 1101.5C1107.03 1122.01 1101.94 1123.45 1104.5 1099.5Z"
        fill="#AAAAAA" stroke="black" stroke-width="40" />
</svg>