<?xml version="1.0" encoding="utf-8"?>
<!-- Generator: Adobe Illustrator 27.3.1, SVG Export Plug-In . SVG Version: 6.00 Build 0)  -->
<svg version="1.1" id="Layer_1" xmlns="http://www.w3.org/2000/svg" xmlns:xlink="http://www.w3.org/1999/xlink" x="0px" y="0px"
	 viewBox="0 0 753.9 760.3" style="enable-background:new 0 0 753.9 760.3;" xml:space="preserve">
<style type="text/css">
	.st0{clip-path:url(#SVGID_00000015313070128024294720000010546716531479292310_);}
	.st1{fill-rule:evenodd;clip-rule:evenodd;fill-opacity:0;}
	.st2{fill-rule:evenodd;clip-rule:evenodd;fill:#FFFFFF;}
	.st3{fill-rule:evenodd;clip-rule:evenodd;fill:#323232;}
	.st4{fill:none;stroke:#323232;stroke-width:16;stroke-linejoin:round;stroke-miterlimit:10;}
	.st5{fill:none;stroke:#323232;stroke-width:16;stroke-miterlimit:8;}
	.st6{fill:none;stroke:#323232;stroke-width:16;stroke-linecap:round;stroke-linejoin:round;stroke-miterlimit:10;}
	.st7{fill-rule:evenodd;clip-rule:evenodd;fill:#7E7E7E;}
	.st8{fill:none;stroke:#323232;stroke-width:8;stroke-linejoin:round;stroke-miterlimit:10;}
	.st9{fill:none;stroke:#323232;stroke-width:12;stroke-linecap:square;stroke-linejoin:round;stroke-miterlimit:10;}
	.st10{fill:none;stroke:#323232;stroke-width:4;stroke-linejoin:round;stroke-miterlimit:10;}
	.st11{fill:none;stroke:#323232;stroke-width:16;stroke-linecap:round;stroke-miterlimit:8;}
	.st12{fill:none;stroke:#323232;stroke-width:12;stroke-linecap:round;stroke-linejoin:round;stroke-miterlimit:10;}
	.st13{fill:none;stroke:#323232;stroke-width:12;stroke-linejoin:round;stroke-miterlimit:10;}
	.st14{fill:none;stroke:#323232;stroke-width:8;stroke-linecap:round;stroke-linejoin:round;stroke-miterlimit:10;}
	.st15{fill:none;stroke:#323232;stroke-width:4;stroke-linecap:round;stroke-linejoin:round;stroke-miterlimit:10;}
</style>
<g>
	<defs>
		<rect id="SVGID_1_" x="-100.6" y="-90.2" width="950" height="950"/>
	</defs>
	<clipPath id="SVGID_00000078767314106359976920000007625071648263521713_">
		<use xlink:href="#SVGID_1_"  style="overflow:visible;"/>
	</clipPath>
	<g style="clip-path:url(#SVGID_00000078767314106359976920000007625071648263521713_);">
		<path class="st1" d="M-100.6-90.2h950v950h-950V-90.2z"/>
		<path class="st2" d="M128.3,740.1l-116-97.6L25,619.9L228,421.2l31.8-55.9l4.9,17.7l15.6-1.4L556,112.9L590,103l99.7-95.5l58,62.2
			l-103.2,97.6l6.4,12L506.5,318l-26.9,29.7l-39.6-32.5l-52.3,53.7v12.7l34.6,29v17l56.6,55.2l-36.8,32.5l-44.5-44.5l-14.1-28.3
			l-24-8.5l-46,48.8l-4.9,38.9l-70.7-66.5L136.7,552l73.5,80.6l-19.1,20.5l-29.7-22.6l-36.1-7.8L107,645.3l-4.9,23.3l46.7,39.6
			l-0.7,16.3L128.3,740.1z"/>
		<path class="st3" d="M586.6,108.4L686.9,8.1l59.5,59.5L644.5,169.5L586.6,108.4z"/>
		<path class="st1" d="M130.1,751.8c-0.8-0.1-2.7,0-4.6-0.6c-1.9-0.6-4.5-1.9-6.8-3.2s-4.4-2.8-7-4.7c-2.5-1.9-5-4-8.2-6.8
			c-3.2-2.8-6.4-5.6-11.2-10.3c-4.8-4.6-12.3-12.4-17.5-17.4c-5.2-5-9.5-8.9-13.7-12.7c-4.2-3.8-6.8-6.1-11.2-10
			c-4.4-3.9-10.8-9.4-15.3-13.3c-4.5-4-8.2-7.3-11.5-10.4c-3.3-3.1-6-5.8-8.3-8.3s-4.4-4.9-5.5-6.6c-1.1-1.7-1.3-2.1-0.9-3.4
			c0.4-1.2,2.9-3.4,3.5-4.1"/>
		<path class="st4" d="M130.1,751.8c-0.8-0.1-2.7,0-4.6-0.6c-1.9-0.6-4.5-1.9-6.8-3.2s-4.4-2.8-7-4.7c-2.5-1.9-5-4-8.2-6.8
			c-3.2-2.8-6.4-5.6-11.2-10.3c-4.8-4.6-12.3-12.4-17.5-17.4c-5.2-5-9.5-8.9-13.7-12.7c-4.2-3.8-6.8-6.1-11.2-10
			c-4.4-3.9-10.8-9.4-15.3-13.3c-4.5-4-8.2-7.3-11.5-10.4c-3.3-3.1-6-5.8-8.3-8.3s-4.4-4.9-5.5-6.6c-1.1-1.7-1.3-2.1-0.9-3.4
			c0.4-1.2,2.9-3.4,3.5-4.1"/>
		<path class="st1" d="M10,642.1l4.4-7.5l3.4,3.8"/>
		<path class="st5" d="M10,642.1l4.4-7.5l3.4,3.8"/>
		<path class="st1" d="M123.4,754.1l14.9-14.9l-1.7-1.1"/>
		<path class="st5" d="M123.4,754.1l14.9-14.9l-1.7-1.1"/>
		<path class="st1" d="M15.1,635.4c2,2,7.6,8.3,11.9,12.2c4.2,4,7.9,6.9,13.6,11.5c5.7,4.6,13.7,10.9,20.4,16.4s12.6,10.4,19.8,16.4
			c7.2,6,15.5,13.1,23.3,19.6s17,14.6,23.6,19.8s13.6,9.6,16.3,11.5"/>
		<path class="st4" d="M15.1,635.4c2,2,7.6,8.3,11.9,12.2c4.2,4,7.9,6.9,13.6,11.5c5.7,4.6,13.7,10.9,20.4,16.4s12.6,10.4,19.8,16.4
			c7.2,6,15.5,13.1,23.3,19.6s17,14.6,23.6,19.8s13.6,9.6,16.3,11.5"/>
		<path class="st3" d="M60.2,692.2l65.4,59.4l8.3-13.6l-65.4-53.4L60.2,692.2z"/>
		<path class="st1" d="M15.6,632.7l4.7-8.1l6-6l2.7-0.3l39-37.7l52.1,52.3l10.6-10.5l8.5-1l53.1,24.3l9.5-0.4l-52.7,64.3l1.1,14.1
			l-8,9.3l0.8,5.7"/>
		<path class="st5" d="M15.6,632.7l4.7-8.1l6-6l2.7-0.3l39-37.7l52.1,52.3l10.6-10.5l8.5-1l53.1,24.3l9.5-0.4l-52.7,64.3l1.1,14.1
			l-8,9.3l0.8,5.7"/>
		<path class="st1" d="M172.6,636.8L172.6,636.8c4.5,2.1,7.9,5.9,9.3,10.6c1.5,4.7,0.8,9.8-1.7,14l-14.9-8.9L172.6,636.8z"/>
		<path class="st1" d="M172.6,636.8L172.6,636.8c4.5,2.1,7.9,5.9,9.3,10.6c1.5,4.7,0.8,9.8-1.7,14"/>
		<path class="st4" d="M172.6,636.8L172.6,636.8c4.5,2.1,7.9,5.9,9.3,10.6c1.5,4.7,0.8,9.8-1.7,14"/>
		<path class="st1" d="M158.5,693.7L158.5,693.7c-2.9,3.7-7.2,6.1-11.9,6.6c-4.7,0.5-9.4-1-13-4l11.2-13.3L158.5,693.7z"/>
		<path class="st1" d="M158.5,693.7L158.5,693.7c-2.9,3.7-7.2,6.1-11.9,6.6c-4.7,0.5-9.4-1-13-4"/>
		<path class="st4" d="M158.5,693.7L158.5,693.7c-2.9,3.7-7.2,6.1-11.9,6.6c-4.7,0.5-9.4-1-13-4"/>
		<path class="st1" d="M158.5,693.7l21.7-32.2"/>
		<path class="st6" d="M158.5,693.7l21.7-32.2"/>
		<path class="st1" d="M118,635.1l-13.8,14l-0.9,20.1l30.4,27.2"/>
		<path class="st6" d="M118,635.1l-13.8,14l-0.9,20.1l30.4,27.2"/>
		<path class="st3" d="M88,648.8L88,648.8c-1.4,1.4-3.6,1.4-5,0l-30.3-30.3c-0.7-0.7-1-1.6-1-2.5c0-0.9,0.4-1.9,1-2.5l10.1-10.1
			c1.4-1.4,3.6-1.4,5,0l30.3,30.3c1.4,1.4,1.4,3.7,0,5L88,648.8z"/>
		<path class="st3" d="M66.4,635.1L66.4,635.1c-4.9-4.9-4.9-13,0-17.9l0,0c2.4-2.4,5.6-3.7,9-3.7c3.4,0,6.6,1.3,9,3.7l0,0
			c4.9,4.9,4.9,13,0,17.9l0,0C79.4,640,71.4,640,66.4,635.1z"/>
		<path class="st7" d="M71,630.6L71,630.6c-2.4-2.5-2.4-6.4,0-8.9l0,0c1.2-1.2,2.8-1.8,4.4-1.8c1.7,0,3.3,0.7,4.4,1.8l0,0
			c2.4,2.5,2.4,6.4,0,8.9l0,0C77.4,633,73.4,633,71,630.6z"/>
		<path class="st1" d="M64.3,584.2l162-162.2l31.3-60.6"/>
		<path class="st5" d="M64.3,584.2l162-162.2l31.3-60.6"/>
		<path class="st2" d="M162.3,554.1l68.3-68.3l66.3,66.3l-68.3,68.3L162.3,554.1z"/>
		<path class="st5" d="M162.3,554.1l68.3-68.3l66.3,66.3l-68.3,68.3L162.3,554.1z"/>
		<path class="st3" d="M272.4,519.3l8.3-1l21.6,21.5l-1,8.3L272.4,519.3z"/>
		<path class="st3" d="M268.3,528.8l15-15l23.3,23.3l-15,15L268.3,528.8z"/>
		<path class="st3" d="M234.6,481.5l8.3-1l21.6,21.5l-1,8.3L234.6,481.5z"/>
		<path class="st3" d="M230.5,491l15-15l23.3,23.3l-15,15L230.5,491z"/>
		<path class="st1" d="M142.4,563.3L142.4,563.3c-2.5-2.5-3.9-5.8-3.9-9.3c0-3.5,1.4-6.8,3.8-9.3l9.3,9.3L142.4,563.3z"/>
		<path class="st1" d="M142.4,563.3L142.4,563.3c-2.5-2.5-3.9-5.8-3.9-9.3c0-3.5,1.4-6.8,3.8-9.3"/>
		<path class="st6" d="M142.4,563.3L142.4,563.3c-2.5-2.5-3.9-5.8-3.9-9.3c0-3.5,1.4-6.8,3.8-9.3"/>
		<path class="st1" d="M227.8,459.4L227.8,459.4c2.5-2.5,5.8-3.8,9.3-3.8c3.5,0,6.8,1.4,9.3,3.9l-9.3,9.3L227.8,459.4z"/>
		<path class="st1" d="M227.8,459.4L227.8,459.4c2.5-2.5,5.8-3.8,9.3-3.8c3.5,0,6.8,1.4,9.3,3.9"/>
		<path class="st6" d="M227.8,459.4L227.8,459.4c2.5-2.5,5.8-3.8,9.3-3.8c3.5,0,6.8,1.4,9.3,3.9"/>
		<path class="st1" d="M142.4,544.8l85.4-85.4"/>
		<path class="st4" d="M142.4,544.8l85.4-85.4"/>
		<path class="st1" d="M246.4,459.5l62.8,62.8l0.9-6.5l3.4-3.3"/>
		<path class="st5" d="M246.4,459.5l62.8,62.8l0.9-6.5l3.4-3.3"/>
		<path class="st1" d="M310.7,515.2l3.8-3.8l1.3-29.2l16-16"/>
		<path class="st6" d="M310.7,515.2l3.8-3.8l1.3-29.2l16-16"/>
		<path class="st1" d="M333.6,447.6L333.6,447.6c3.6,6.4,2.8,13.9-1.9,18.6l-12-12.1L333.6,447.6z"/>
		<path class="st1" d="M333.6,447.6L333.6,447.6c3.6,6.4,2.8,13.9-1.9,18.6"/>
		<path class="st4" d="M333.6,447.6L333.6,447.6c3.6,6.4,2.8,13.9-1.9,18.6"/>
		<path class="st1" d="M347.5,441.9L347.5,441.9c5.2-5.2,12.4-7.9,19.7-7.4c7.3,0.5,14,4.2,18.5,10l-20.2,15.2L347.5,441.9z"/>
		<path class="st1" d="M347.5,441.9L347.5,441.9c5.2-5.2,12.4-7.9,19.7-7.4c7.3,0.5,14,4.2,18.5,10"/>
		<path class="st6" d="M347.5,441.9L347.5,441.9c5.2-5.2,12.4-7.9,19.7-7.4c7.3,0.5,14,4.2,18.5,10"/>
		<path class="st1" d="M347.5,441.9l-15.3,15.3"/>
		<path class="st4" d="M347.5,441.9l-15.3,15.3"/>
		<path class="st1" d="M385.1,443.8c1.2,1.9,4.9,7,7.3,11.3s4.9,10.3,7.3,14.6s4,6.7,7.3,10.9c3.3,4.2,8.1,9.9,12.3,14.5
			c4.1,4.6,8.2,8.7,12.4,12.9c4.2,4.2,10.4,10.4,12.5,12.5"/>
		<path class="st4" d="M385.1,443.8c1.2,1.9,4.9,7,7.3,11.3s4.9,10.3,7.3,14.6s4,6.7,7.3,10.9c3.3,4.2,8.1,9.9,12.3,14.5
			c4.1,4.6,8.2,8.7,12.4,12.9c4.2,4.2,10.4,10.4,12.5,12.5"/>
		<path class="st1" d="M266.1,473.5l85.4-85l36.1-6l14.1,14.1"/>
		<path class="st4" d="M266.1,473.5l85.4-85l36.1-6l14.1,14.1"/>
		<path class="st1" d="M428.9,402.7L428.9,402.7c-9.5,3.4-20.1,1-27.2-6.1l18.4-18.5L428.9,402.7z"/>
		<path class="st1" d="M428.9,402.7L428.9,402.7c-9.5,3.4-20.1,1-27.2-6.1"/>
		<path class="st4" d="M428.9,402.7L428.9,402.7c-9.5,3.4-20.1,1-27.2-6.1"/>
		<path class="st1" d="M434.8,394.4L434.8,394.4c-8.7,7.9-22,7.5-30.3-0.7L420,378L434.8,394.4z"/>
		<path class="st1" d="M434.8,394.4L434.8,394.4c-8.7,7.9-22,7.5-30.3-0.7"/>
		<path class="st8" d="M434.8,394.4L434.8,394.4c-8.7,7.9-22,7.5-30.3-0.7"/>
		<path class="st1" d="M429.3,430.8L429.3,430.8c-7-7.6-7.9-19-2-27.5l18.1,12.5L429.3,430.8z"/>
		<path class="st1" d="M429.3,430.8L429.3,430.8c-7-7.6-7.9-19-2-27.5"/>
		<path class="st6" d="M429.3,430.8L429.3,430.8c-7-7.6-7.9-19-2-27.5"/>
		<path class="st1" d="M426,420.4L426,420.4c-1.6-6.8,0.4-13.9,5.3-18.8l14.2,14.2L426,420.4z"/>
		<path class="st1" d="M426,420.4L426,420.4c-1.6-6.8,0.4-13.9,5.3-18.8"/>
		<path class="st9" d="M426,420.4L426,420.4c-1.6-6.8,0.4-13.9,5.3-18.8"/>
		<path class="st3" d="M426.6,396.9l4.3-4.2l4.2,4.3l-4.3,4.2L426.6,396.9z"/>
		<path class="st1" d="M434.3,519.4c1.6-1,6.3-3.9,9.4-6s5.9-4.2,9.1-6.7s7.1-5.6,10.3-8.3c3.2-2.6,6-5.1,8.8-7.6
			c2.8-2.5,5.6-5.1,7.9-7.2c2.3-2.1,4.8-4.7,5.8-5.6"/>
		<path class="st4" d="M434.3,519.4c1.6-1,6.3-3.9,9.4-6s5.9-4.2,9.1-6.7s7.1-5.6,10.3-8.3c3.2-2.6,6-5.1,8.8-7.6
			c2.8-2.5,5.6-5.1,7.9-7.2c2.3-2.1,4.8-4.7,5.8-5.6"/>
		<path class="st1" d="M429.3,430.8l55.8,58.4"/>
		<path class="st4" d="M429.3,430.8l55.8,58.4"/>
		<path class="st1" d="M393.9,388.9L393.9,388.9c-3.9-3.9-6.1-9.2-6.1-14.7s2.2-10.8,6.1-14.7l14.7,14.7L393.9,388.9z"/>
		<path class="st1" d="M393.9,388.9L393.9,388.9c-3.9-3.9-6.1-9.2-6.1-14.7s2.2-10.8,6.1-14.7"/>
		<path class="st4" d="M393.9,388.9L393.9,388.9c-3.9-3.9-6.1-9.2-6.1-14.7s2.2-10.8,6.1-14.7"/>
		<path class="st1" d="M393.7,359.6l39.4-39.4l12.8-3.4"/>
		<path class="st4" d="M393.7,359.6l39.4-39.4l12.8-3.4"/>
		<path class="st3" d="M449.4,366.6L449.4,366.6c-7.1,5.9-18.9,3.5-26.5-5.5s-7.9-21.1-0.9-27l0,0
			C422.6,349,434.8,363.5,449.4,366.6z"/>
		<path class="st10" d="M449.4,366.6L449.4,366.6c-7.1,5.9-18.9,3.5-26.5-5.5s-7.9-21.1-0.9-27l0,0
			C422.6,349,434.8,363.5,449.4,366.6z"/>
		<path class="st3" d="M408.2,353l25.5,25.5l6.5,0.1l10.7-10.7l-20.1-5.8l-14.3-19.4L408.2,353z"/>
		<path class="st1" d="M431.7,397.4l44.5-44.4"/>
		<path class="st8" d="M431.7,397.4l44.5-44.4"/>
		<path class="st1" d="M418.2,357.9l-24.5,24.4"/>
		<path class="st8" d="M418.2,357.9l-24.5,24.4"/>
		<path class="st3" d="M321.6,505.5l2.6-1.7l4.9-15l-10.7,2.8L321.6,505.5z"/>
		<path class="st10" d="M321.6,505.5l2.6-1.7l4.9-15l-10.7,2.8L321.6,505.5z"/>
		<path class="st1" d="M438.3,306.6l40.6,40.5l8.1-4.1l20.5-20.5l-1.3-4.5l119.5-119.5l4.3,1.3l13.1-13.3l8.1-2.7l3.1-3.1
			l-76.6-76.6l-17.7,7.2L357.9,313l19.2-5.6l6,6.2l37.2-9.5"/>
		<path class="st11" d="M438.3,306.6l40.6,40.5l8.1-4.1l20.5-20.5l-1.3-4.5l119.5-119.5l4.3,1.3l13.1-13.3l8.1-2.7l3.1-3.1
			l-76.6-76.6l-17.7,7.2L357.9,313l19.2-5.6l6,6.2l37.2-9.5"/>
		<path class="st1" d="M420.3,304L420.3,304c7.6-2.1,14.6-0.8,19,3.6l-20.7,20.7L420.3,304z"/>
		<path class="st1" d="M420.3,304L420.3,304c7.6-2.1,14.6-0.8,19,3.6"/>
		<path class="st4" d="M420.3,304L420.3,304c7.6-2.1,14.6-0.8,19,3.6"/>
		<path class="st1" d="M510,289.8L510,289.8c-1-4.1,0.4-8.8,3.8-12.2l7.6,7.6L510,289.8z"/>
		<path class="st1" d="M510,289.8L510,289.8c-1-4.1,0.4-8.8,3.8-12.2"/>
		<path class="st12" d="M510,289.8L510,289.8c-1-4.1,0.4-8.8,3.8-12.2"/>
		<path class="st1" d="M510,289.8l6.9,21.9"/>
		<path class="st13" d="M510,289.8l6.9,21.9"/>
		<path class="st1" d="M596.9,202.9L596.9,202.9c-4.1-1-8.8,0.4-12.2,3.8l7.6,7.6L596.9,202.9z"/>
		<path class="st1" d="M596.9,202.9L596.9,202.9c-4.1-1-8.8,0.4-12.2,3.8"/>
		<path class="st12" d="M596.9,202.9L596.9,202.9c-4.1-1-8.8,0.4-12.2,3.8"/>
		<path class="st1" d="M596.9,202.9l22,6.7"/>
		<path class="st13" d="M596.9,202.9l22,6.7"/>
		<path class="st1" d="M513.8,277.6l70.9-70.9"/>
		<path class="st13" d="M513.8,277.6l70.9-70.9"/>
		<path class="st3" d="M470.7,275.6L470.7,275.6c-1.5-1.5-1.5-3.9,0-5.3l27-27c0.7-0.7,1.7-1.1,2.7-1.1c1,0,2,0.4,2.7,1.1l2.7,2.7
			c1.5,1.5,1.5,3.9,0,5.3l-27,27c-1.5,1.5-3.9,1.5-5.3,0L470.7,275.6z"/>
		<path class="st3" d="M511.1,235.2L511.1,235.2c-1.5-1.5-1.5-3.9,0-5.3l27-27c0.7-0.7,1.7-1.1,2.7-1.1s2,0.4,2.7,1.1l2.7,2.7
			c1.5,1.5,1.5,3.9,0,5.3l-27,27c-1.5,1.5-3.9,1.5-5.3,0L511.1,235.2z"/>
		<path class="st3" d="M551.4,194.9L551.4,194.9c-1.5-1.5-1.5-3.9,0-5.3l27-27c0.7-0.7,1.7-1.1,2.7-1.1c1,0,2,0.4,2.7,1.1l2.7,2.7
			c1.5,1.5,1.5,3.9,0,5.3l-27,27c-1.5,1.5-3.9,1.5-5.3,0L551.4,194.9z"/>
		<path class="st1" d="M585,106.5l98.5-98.5h5l40.7,40.7"/>
		<path class="st5" d="M585,106.5l98.5-98.5h5l40.7,40.7"/>
		<path class="st1" d="M647.4,168.9l98.5-98.5v-5l-40.7-40.7"/>
		<path class="st5" d="M647.4,168.9l98.5-98.5v-5l-40.7-40.7"/>
		<path class="st1" d="M264.9,377.8L264.9,377.8c-4.4-4.3-4.4-11.4,0-15.8l26.8-26.8l0,0c2.1-2.1,4.9-3.3,7.9-3.3s5.8,1.2,7.9,3.3
			l0,0l0,0c4.4,4.3,4.4,11.4,0,15.8l-26.8,26.8C276.3,382.1,269.2,382.1,264.9,377.8z"/>
		<path class="st13" d="M264.9,377.8L264.9,377.8c-4.4-4.3-4.4-11.4,0-15.8l26.8-26.8l0,0c2.1-2.1,4.9-3.3,7.9-3.3s5.8,1.2,7.9,3.3
			l0,0l0,0c4.4,4.3,4.4,11.4,0,15.8l-26.8,26.8C276.3,382.1,269.2,382.1,264.9,377.8z"/>
		<path class="st1" d="M307.4,335.3L307.4,335.3c-4.4-4.3-4.4-11.4,0-15.8l34.3-34.3c2.1-2.1,4.9-3.3,7.9-3.3s5.8,1.2,7.9,3.3l0,0
			l0,0c4.4,4.3,4.4,11.4,0,15.8l-34.3,34.3C318.8,339.6,311.7,339.6,307.4,335.3z"/>
		<path class="st13" d="M307.4,335.3L307.4,335.3c-4.4-4.3-4.4-11.4,0-15.8l34.3-34.3c2.1-2.1,4.9-3.3,7.9-3.3s5.8,1.2,7.9,3.3l0,0
			l0,0c4.4,4.3,4.4,11.4,0,15.8l-34.3,34.3C318.8,339.6,311.7,339.6,307.4,335.3z"/>
		<path class="st1" d="M357.5,285.1L357.5,285.1c-4.4-4.3-4.4-11.4,0-15.8l34.3-34.3c2.1-2.1,4.9-3.3,7.9-3.3c3,0,5.8,1.2,7.9,3.3
			l0,0l0,0c4.4,4.3,4.4,11.4,0,15.8l-34.3,34.3C368.9,289.5,361.8,289.5,357.5,285.1z"/>
		<path class="st13" d="M357.5,285.1L357.5,285.1c-4.4-4.3-4.4-11.4,0-15.8l34.3-34.3c2.1-2.1,4.9-3.3,7.9-3.3c3,0,5.8,1.2,7.9,3.3
			l0,0l0,0c4.4,4.3,4.4,11.4,0,15.8l-34.3,34.3C368.9,289.5,361.8,289.5,357.5,285.1z"/>
		<path class="st1" d="M407.6,235L407.6,235c-4.4-4.3-4.4-11.4,0-15.8l34.3-34.3c2.1-2.1,4.9-3.3,7.9-3.3s5.8,1.2,7.9,3.3l0,0l0,0
			c4.4,4.3,4.4,11.4,0,15.8L423.4,235C419,239.4,412,239.4,407.6,235z"/>
		<path class="st13" d="M407.6,235L407.6,235c-4.4-4.3-4.4-11.4,0-15.8l34.3-34.3c2.1-2.1,4.9-3.3,7.9-3.3s5.8,1.2,7.9,3.3l0,0l0,0
			c4.4,4.3,4.4,11.4,0,15.8L423.4,235C419,239.4,412,239.4,407.6,235z"/>
		<path class="st1" d="M457.6,185L457.6,185c-4.4-4.3-4.4-11.4,0-15.8l27.4-27.4l0,0c2.1-2.1,4.9-3.3,7.9-3.3c3,0,5.8,1.2,7.9,3.3
			l0,0l0,0c4.4,4.3,4.4,11.4,0,15.8L473.4,185C469,189.4,462,189.4,457.6,185z"/>
		<path class="st13" d="M457.6,185L457.6,185c-4.4-4.3-4.4-11.4,0-15.8l27.4-27.4l0,0c2.1-2.1,4.9-3.3,7.9-3.3c3,0,5.8,1.2,7.9,3.3
			l0,0l0,0c4.4,4.3,4.4,11.4,0,15.8L473.4,185C469,189.4,462,189.4,457.6,185z"/>
		<path class="st1" d="M282,379.2L282,379.2c-3.3,3.3-8.2,4.6-12.7,3.4s-8.1-4.8-9.3-9.3c-1.2-4.6,0.1-9.4,3.4-12.7l9.3,9.3
			L282,379.2z"/>
		<path class="st1" d="M282,379.2L282,379.2c-3.3,3.3-8.2,4.6-12.7,3.4s-8.1-4.8-9.3-9.3c-1.2-4.6,0.1-9.4,3.4-12.7"/>
		<path class="st4" d="M282,379.2L282,379.2c-3.3,3.3-8.2,4.6-12.7,3.4s-8.1-4.8-9.3-9.3c-1.2-4.6,0.1-9.4,3.4-12.7"/>
		<path class="st1" d="M282,379.2l129.9-129.8"/>
		<path class="st6" d="M282,379.2l129.9-129.8"/>
		<path class="st1" d="M256.1,363.4l8.2-8.1"/>
		<path class="st5" d="M256.1,363.4l8.2-8.1"/>
		<path class="st3" d="M264,344.1l5.9-6l5.8,5.8l-5.9,6L264,344.1z"/>
		<path class="st3" d="M275.4,332.7l5.9-6l5.8,5.8l-5.9,6L275.4,332.7z"/>
		<path class="st3" d="M286.8,321.3l5.9-6l5.8,5.8l-5.9,6L286.8,321.3z"/>
		<path class="st3" d="M298.2,309.9l5.9-6l5.8,5.8l-5.9,6L298.2,309.9z"/>
		<path class="st3" d="M309.6,298.5l5.9-6l5.8,5.8l-5.9,6L309.6,298.5z"/>
		<path class="st3" d="M321,287.1l5.9-6l5.8,5.8l-5.9,6L321,287.1z"/>
		<path class="st3" d="M332.5,275.7l5.9-6l5.8,5.8l-5.9,6L332.5,275.7z"/>
		<path class="st3" d="M343.9,264.3l5.9-6l5.8,5.8l-5.9,6L343.9,264.3z"/>
		<path class="st3" d="M355.3,252.9l5.9-6l5.8,5.8l-5.9,6L355.3,252.9z"/>
		<path class="st3" d="M366.7,241.5l5.9-6l5.8,5.8l-5.9,6L366.7,241.5z"/>
		<path class="st3" d="M378.1,230.1l5.9-6l5.8,5.8l-5.9,6L378.1,230.1z"/>
		<path class="st3" d="M389.5,218.7l5.9-6l5.8,5.8l-5.9,6L389.5,218.7z"/>
		<path class="st3" d="M400.9,207.2l5.9-6l5.8,5.8l-5.9,6L400.9,207.2z"/>
		<path class="st3" d="M412.3,195.8l5.9-6l5.8,5.8l-5.9,6L412.3,195.8z"/>
		<path class="st3" d="M423.7,184.4l5.9-6l5.8,5.8l-5.9,6L423.7,184.4z"/>
		<path class="st3" d="M435.1,173l5.9-6l5.8,5.8l-5.9,6L435.1,173z"/>
		<path class="st3" d="M446.5,161.6l5.9-6l5.8,5.8l-5.9,6L446.5,161.6z"/>
		<path class="st3" d="M457.9,150.2l5.9-6l5.8,5.8l-5.9,6L457.9,150.2z"/>
		<path class="st3" d="M469.3,138.8l7.6-7.6l8.9,9l-7.6,7.6L469.3,138.8z"/>
		<path class="st3" d="M265.1,353.3L481.4,137l7.2,7.2L272.3,360.5L265.1,353.3z"/>
		<path class="st3" d="M531.9,129.9l-54.9,1.2l-4.1,4.1l11.8,8.5l16.1-3.7l5.5,18.4L531.9,129.9z"/>
		<path class="st1" d="M245.1,453.5l2.1-18.4l34.8-34.8"/>
		<path class="st8" d="M245.1,453.5l2.1-18.4l34.8-34.8"/>
		<path class="st1" d="M282,383.5L282,383.5c2.3,2.3,3.5,5.3,3.5,8.5s-1.3,6.2-3.5,8.5l-8.5-8.5L282,383.5z"/>
		<path class="st1" d="M282,383.5L282,383.5c2.3,2.3,3.5,5.3,3.5,8.5s-1.3,6.2-3.5,8.5"/>
		<path class="st14" d="M282,383.5L282,383.5c2.3,2.3,3.5,5.3,3.5,8.5s-1.3,6.2-3.5,8.5"/>
		<path class="st1" d="M249.2,455.1l2.1-18.4l34.8-34.8"/>
		<path class="st10" d="M249.2,455.1l2.1-18.4l34.8-34.8"/>
		<path class="st1" d="M285,380.4L285,380.4c5.8,5.8,6.3,15.1,1.1,21.5l-12.5-10.1L285,380.4z"/>
		<path class="st1" d="M285,380.4L285,380.4c5.8,5.8,6.3,15.1,1.1,21.5"/>
		<path class="st15" d="M285,380.4L285,380.4c5.8,5.8,6.3,15.1,1.1,21.5"/>
		<path class="st1" d="M454,476.8L454,476.8c2.4-2.2,6-2.1,8.3,0.2l-4.2,4.3L454,476.8z"/>
		<path class="st1" d="M454,476.8L454,476.8c2.4-2.2,6-2.1,8.3,0.2"/>
		<path class="st14" d="M454,476.8L454,476.8c2.4-2.2,6-2.1,8.3,0.2"/>
		<path class="st1" d="M454,476.8l-26.5,24.5"/>
		<path class="st8" d="M454,476.8l-26.5,24.5"/>
		<path class="st1" d="M470.6,477.1L470.6,477.1c-2.4,2.2-6,2.1-8.3-0.2l4.3-4.3L470.6,477.1z"/>
		<path class="st1" d="M470.6,477.1L470.6,477.1c-2.4,2.2-6,2.1-8.3-0.2"/>
		<path class="st8" d="M470.6,477.1L470.6,477.1c-2.4,2.2-6,2.1-8.3-0.2"/>
		<path class="st1" d="M142.5,563.4l62.8,62.8l6.9,14.1"/>
		<path class="st5" d="M142.5,563.4l62.8,62.8l6.9,14.1"/>
		<path class="st2" d="M607.8,87.2L612,83l59.5,59.5l-4.3,4.2L607.8,87.2z"/>
		<path class="st2" d="M627,68l4.3-4.2l59.5,59.5l-4.3,4.2L627,68z"/>
		<path class="st2" d="M646.2,48.8l4.3-4.2l59.5,59.5l-4.3,4.2L646.2,48.8z"/>
		<path class="st2" d="M665.4,29.6l4.3-4.2l59.5,59.5l-4.3,4.2L665.4,29.6z"/>
	</g>
</g>
</svg>
