<?xml version="1.0" encoding="utf-8"?>
<!-- Generator: Adobe Illustrator 27.3.1, SVG Export Plug-In . SVG Version: 6.00 Build 0)  -->
<svg version="1.1"
	 id="svg2824" xmlns:inkscape="http://www.inkscape.org/namespaces/inkscape" xmlns:sodipodi="http://sodipodi.sourceforge.net/DTD/sodipodi-0.dtd" xmlns:svg="http://www.w3.org/2000/svg" inkscape:version="1.2 (dc2aeda, 2022-05-15)" sodipodi:docname="SIX12 World Image Survivio.svg"
	 xmlns="http://www.w3.org/2000/svg" xmlns:xlink="http://www.w3.org/1999/xlink" x="0px" y="0px" viewBox="0 0 148.3 657.2"
	 style="enable-background:new 0 0 148.3 657.2;" xml:space="preserve">
<style type="text/css">
	.st0{clip-path:url(#SVGID_00000024715763373417014330000014657052597992728719_);}
	.st1{fill-rule:evenodd;clip-rule:evenodd;fill:#9C7239;}
	.st2{fill:none;stroke:#000000;stroke-width:24;stroke-miterlimit:8;}
	.st3{fill-rule:evenodd;clip-rule:evenodd;fill:#434343;}
	.st4{fill-rule:evenodd;clip-rule:evenodd;fill-opacity:0;}
	.st5{fill:none;stroke:#000000;stroke-width:12;stroke-linejoin:round;stroke-miterlimit:10;}
	.st6{fill-rule:evenodd;clip-rule:evenodd;fill:#B1A371;}
	.st7{fill:none;stroke:#000000;stroke-width:8;stroke-linejoin:round;stroke-miterlimit:10;}
	.st8{fill-rule:evenodd;clip-rule:evenodd;fill:#7A704A;}
	.st9{fill:none;stroke:#7A704A;stroke-width:16;stroke-miterlimit:8;}
	.st10{fill-rule:evenodd;clip-rule:evenodd;}
	.st11{fill:none;stroke:#000000;stroke-width:4;stroke-linejoin:round;stroke-miterlimit:10;}
	.st12{fill-rule:evenodd;clip-rule:evenodd;fill:#52492A;}
	.st13{fill:none;stroke:#000000;stroke-width:16;stroke-miterlimit:8;}
	.st14{fill:none;stroke:#000000;stroke-width:16;stroke-linejoin:round;stroke-miterlimit:10;}
</style>
<sodipodi:namedview  bordercolor="#000000" borderopacity="0.25" id="namedview2826" inkscape:current-layer="svg2824" inkscape:cx="64.258475" inkscape:cy="337" inkscape:deskcolor="#d1d1d1" inkscape:pagecheckerboard="0" inkscape:pageopacity="0.0" inkscape:showpageshadow="2" inkscape:window-height="456" inkscape:window-maximized="0" inkscape:window-width="1309" inkscape:window-x="0" inkscape:window-y="25" inkscape:zoom="0.35014837" pagecolor="#ffffff" showgrid="false">
	</sodipodi:namedview>
<g>
	<defs>
		<rect id="SVGID_1_" x="-4.8" y="-8.6" width="158" height="674"/>
	</defs>
	<clipPath id="SVGID_00000097462487266780103010000008256956138100615560_">
		<use xlink:href="#SVGID_1_"  style="overflow:visible;"/>
	</clipPath>
	<g id="g2822" style="clip-path:url(#SVGID_00000097462487266780103010000008256956138100615560_);">
		<path id="path2734" class="st1" d="M12.1,444.4h124.2v115.5H12.1V444.4z"/>
		<path id="path2736" class="st2" d="M12.1,444.4h124.2v115.5H12.1V444.4z"/>
		<path id="path2738" class="st3" d="M33.4,12h81.7l1.8,1.8v108.3l0,0H31.6l0,0V13.8L33.4,12z"/>
		<path id="path2740" class="st4" d="M36,12h76.4l1.7,1.7v108.4l0,0H34.4l0,0V13.7L36,12z"/>
		<path id="path2742" class="st2" d="M36,12h76.4l1.7,1.7v108.4l0,0H34.4l0,0V13.7L36,12z"/>
		<path id="path2744" class="st4" d="M34.4,42.6h79.7"/>
		<path id="path2746" class="st5" d="M34.4,42.6h79.7"/>
		<path id="path2748" class="st4" d="M34.4,67.2h79.7"/>
		<path id="path2750" class="st5" d="M34.4,67.2h79.7"/>
		<path id="path2752" class="st4" d="M34.4,91.9h79.7"/>
		<path id="path2754" class="st5" d="M34.4,91.9h79.7"/>
		<path id="path2756" class="st6" d="M89,122.1l-62.5,0.1v149.7l17.1,9.9v363h48.4"/>
		<path id="path2758" class="st6" d="M59.4,122.1l62.5,0.1v149.7l-17.1,9.9v363H56.3"/>
		<path id="path2760" class="st4" d="M35.9,425.2H0.1"/>
		<path id="path2762" class="st7" d="M35.9,425.2H0.1"/>
		<path id="path2764" class="st8" d="M58.8,122.1h31.1v518.2H58.8V122.1z"/>
		<path id="path2766" class="st9" d="M58.8,122.1h31.1v518.2H58.8V122.1z"/>
		<path id="path2768" class="st4" d="M148.2,425.2h-35.7"/>
		<path id="path2770" class="st7" d="M148.2,425.2h-35.7"/>
		<path id="path2772" class="st10" d="M105.7,575.3h36.8l-36.8,27V575.3z"/>
		<path id="path2774" class="st10" d="M42.7,575.3H6l36.8,27V575.3z"/>
		<path id="path2776" class="st4" d="M35.9,421H0.1"/>
		<path id="path2778" class="st11" d="M35.9,421H0.1"/>
		<path id="path2780" class="st4" d="M148.2,421h-35.7"/>
		<path id="path2782" class="st11" d="M148.2,421h-35.7"/>
		<path id="path2784" class="st12" d="M58.7,168h31.1v253H58.7V168z"/>
		<path id="path2786" class="st13" d="M58.7,168h31.1v253H58.7V168z"/>
		<path id="path2788" class="st10" d="M60.4,207.3h27.9v8H60.4V207.3z"/>
		<path id="path2790" class="st10" d="M60.3,225.3h27.9v8H60.3V225.3z"/>
		<path id="path2792" class="st10" d="M60.3,243.3h27.9v8H60.3V243.3z"/>
		<path id="path2794" class="st10" d="M60.3,261.3h27.9v8H60.3V261.3z"/>
		<path id="path2796" class="st10" d="M60.3,279.3h27.9v8H60.3V279.3z"/>
		<path id="path2798" class="st10" d="M60.3,297.3h27.9v8H60.3V297.3z"/>
		<path id="path2800" class="st10" d="M60.3,315.3h27.9v8H60.3V315.3z"/>
		<path id="path2802" class="st10" d="M60.3,333.3h27.9v8H60.3V333.3z"/>
		<path id="path2804" class="st10" d="M60.3,351.3h27.9v8H60.3V351.3z"/>
		<path id="path2806" class="st10" d="M60.4,369.3h27.9v8H60.4V369.3z"/>
		<path id="path2808" class="st4" d="M89.1,122.1l-62.5,0.1v149.7l19.1,10.8l-0.2,362l46.7,0"/>
		<path id="path2810" class="st2" d="M89.1,122.1l-62.5,0.1v149.7l19.1,10.8l-0.2,362l46.7,0"/>
		<path id="path2812" class="st10" d="M65.1,506.6L65.1,506.6c0-1.7,1.4-3.1,3.1-3.1h12.2l0,0c0.8,0,1.6,0.3,2.2,0.9
			c0.6,0.6,0.9,1.4,0.9,2.2v12.3c0,1.7-1.4,3.1-3.1,3.1H68.2c-1.7,0-3.1-1.4-3.1-3.1V506.6z"/>
		<path id="path2814" class="st4" d="M42.5,632.3h59"/>
		<path id="path2816" class="st14" d="M42.5,632.3h59"/>
		<path id="path2818" class="st4" d="M59.5,122.1l62.5,0.1v149.7l-19.1,10.8l0.2,362l-46.7,0"/>
		<path id="path2820" class="st2" d="M59.5,122.1l62.5,0.1v149.7l-19.1,10.8l0.2,362l-46.7,0"/>
	</g>
</g>
</svg>
