<svg width="40" height="266" viewBox="0 0 40 266" fill="none" xmlns="http://www.w3.org/2000/svg">
<path fill-rule="evenodd" clip-rule="evenodd" d="M0.367188 61.9297C0.367188 60.8251 1.26262 59.9297 2.36719 59.9297H37.7199C38.8245 59.9297 39.7199 60.8251 39.7199 61.9297V63.9908H38.876V67.2337H39.7199V70.2337H38.876V73.4766H39.7199V76.4766H38.876V79.7194H39.7199V82.7194H38.876V85.9623H39.7199V88.9623H38.876V92.2051H39.7199V94.2663C39.7199 95.3708 38.8245 96.2663 37.7199 96.2663H2.36719C1.26262 96.2663 0.367188 95.3708 0.367188 94.2663V92.2051H1.15059V88.9623H0.367188V85.9623H1.15059V82.7194H0.367188V79.7194H1.15059V76.4766H0.367188V73.4766H1.15059V70.2337H0.367188V67.2337H1.15059V63.9908H0.367188V61.9297Z" fill="black"/>
<path d="M29.364 52.1602L32.0271 59.9322V129.881L29.364 137.653H10.7218L8.05859 129.881V59.9322L10.7218 52.1602H29.364Z" fill="#676767" stroke="black" stroke-width="9" stroke-miterlimit="10"/>
<path d="M16.7598 63.7033C18.1762 63.7033 19.3244 62.5551 19.3244 61.1387C19.3244 59.7224 18.1762 58.5742 16.7598 58.5742C15.3435 58.5742 14.1953 59.7224 14.1953 61.1387C14.1953 62.5551 15.3435 63.7033 16.7598 63.7033Z" fill="black"/>
<path d="M16.7598 69.7033C18.1762 69.7033 19.3244 68.5551 19.3244 67.1387C19.3244 65.7224 18.1762 64.5742 16.7598 64.5742C15.3435 64.5742 14.1953 65.7224 14.1953 67.1387C14.1953 68.5551 15.3435 69.7033 16.7598 69.7033Z" fill="black"/>
<path d="M23.3262 63.7033C24.7426 63.7033 25.8908 62.5551 25.8908 61.1387C25.8908 59.7224 24.7426 58.5742 23.3262 58.5742C21.9099 58.5742 20.7617 59.7224 20.7617 61.1387C20.7617 62.5551 21.9099 63.7033 23.3262 63.7033Z" fill="black"/>
<path d="M23.3262 69.7033C24.7426 69.7033 25.8908 68.5551 25.8908 67.1387C25.8908 65.7224 24.7426 64.5742 23.3262 64.5742C21.9099 64.5742 20.7617 65.7224 20.7617 67.1387C20.7617 68.5551 21.9099 69.7033 23.3262 69.7033Z" fill="black"/>
<path d="M16.7598 76.2658C18.1762 76.2658 19.3244 75.1176 19.3244 73.7012C19.3244 72.2849 18.1762 71.1367 16.7598 71.1367C15.3435 71.1367 14.1953 72.2849 14.1953 73.7012C14.1953 75.1176 15.3435 76.2658 16.7598 76.2658Z" fill="black"/>
<path d="M16.7598 82.2658C18.1762 82.2658 19.3244 81.1176 19.3244 79.7012C19.3244 78.2849 18.1762 77.1367 16.7598 77.1367C15.3435 77.1367 14.1953 78.2849 14.1953 79.7012C14.1953 81.1176 15.3435 82.2658 16.7598 82.2658Z" fill="black"/>
<path d="M23.3262 76.2658C24.7426 76.2658 25.8908 75.1176 25.8908 73.7012C25.8908 72.2849 24.7426 71.1367 23.3262 71.1367C21.9099 71.1367 20.7617 72.2849 20.7617 73.7012C20.7617 75.1176 21.9099 76.2658 23.3262 76.2658Z" fill="black"/>
<path d="M23.3262 82.2658C24.7426 82.2658 25.8908 81.1176 25.8908 79.7012C25.8908 78.2849 24.7426 77.1367 23.3262 77.1367C21.9099 77.1367 20.7617 78.2849 20.7617 79.7012C20.7617 81.1176 21.9099 82.2658 23.3262 82.2658Z" fill="black"/>
<path d="M16.7598 88.8322C18.1762 88.8322 19.3244 87.684 19.3244 86.2676C19.3244 84.8513 18.1762 83.7031 16.7598 83.7031C15.3435 83.7031 14.1953 84.8513 14.1953 86.2676C14.1953 87.684 15.3435 88.8322 16.7598 88.8322Z" fill="black"/>
<path d="M16.7598 94.8322C18.1762 94.8322 19.3244 93.684 19.3244 92.2676C19.3244 90.8513 18.1762 89.7031 16.7598 89.7031C15.3435 89.7031 14.1953 90.8513 14.1953 92.2676C14.1953 93.684 15.3435 94.8322 16.7598 94.8322Z" fill="black"/>
<path d="M23.3262 88.8322C24.7426 88.8322 25.8908 87.684 25.8908 86.2676C25.8908 84.8513 24.7426 83.7031 23.3262 83.7031C21.9099 83.7031 20.7617 84.8513 20.7617 86.2676C20.7617 87.684 21.9099 88.8322 23.3262 88.8322Z" fill="black"/>
<path d="M23.3262 94.8322C24.7426 94.8322 25.8908 93.684 25.8908 92.2676C25.8908 90.8513 24.7426 89.7031 23.3262 89.7031C21.9099 89.7031 20.7617 90.8513 20.7617 92.2676C20.7617 93.684 21.9099 94.8322 23.3262 94.8322Z" fill="black"/>
<path d="M16.7598 101.395C18.1762 101.395 19.3244 100.246 19.3244 98.8301C19.3244 97.4138 18.1762 96.2656 16.7598 96.2656C15.3435 96.2656 14.1953 97.4138 14.1953 98.8301C14.1953 100.246 15.3435 101.395 16.7598 101.395Z" fill="black"/>
<path d="M16.7598 107.395C18.1762 107.395 19.3244 106.246 19.3244 104.83C19.3244 103.414 18.1762 102.266 16.7598 102.266C15.3435 102.266 14.1953 103.414 14.1953 104.83C14.1953 106.246 15.3435 107.395 16.7598 107.395Z" fill="black"/>
<path d="M23.3262 101.395C24.7426 101.395 25.8908 100.246 25.8908 98.8301C25.8908 97.4138 24.7426 96.2656 23.3262 96.2656C21.9099 96.2656 20.7617 97.4138 20.7617 98.8301C20.7617 100.246 21.9099 101.395 23.3262 101.395Z" fill="black"/>
<path d="M23.3262 107.395C24.7426 107.395 25.8908 106.246 25.8908 104.83C25.8908 103.414 24.7426 102.266 23.3262 102.266C21.9099 102.266 20.7617 103.414 20.7617 104.83C20.7617 106.246 21.9099 107.395 23.3262 107.395Z" fill="black"/>
<path d="M16.7598 113.258C18.1762 113.258 19.3244 112.11 19.3244 110.693C19.3244 109.277 18.1762 108.129 16.7598 108.129C15.3435 108.129 14.1953 109.277 14.1953 110.693C14.1953 112.11 15.3435 113.258 16.7598 113.258Z" fill="black"/>
<path d="M16.7598 119.258C18.1762 119.258 19.3244 118.11 19.3244 116.693C19.3244 115.277 18.1762 114.129 16.7598 114.129C15.3435 114.129 14.1953 115.277 14.1953 116.693C14.1953 118.11 15.3435 119.258 16.7598 119.258Z" fill="black"/>
<path d="M23.3262 113.258C24.7426 113.258 25.8908 112.11 25.8908 110.693C25.8908 109.277 24.7426 108.129 23.3262 108.129C21.9099 108.129 20.7617 109.277 20.7617 110.693C20.7617 112.11 21.9099 113.258 23.3262 113.258Z" fill="black"/>
<path d="M23.3262 119.258C24.7426 119.258 25.8908 118.11 25.8908 116.693C25.8908 115.277 24.7426 114.129 23.3262 114.129C21.9099 114.129 20.7617 115.277 20.7617 116.693C20.7617 118.11 21.9099 119.258 23.3262 119.258Z" fill="black"/>
<path d="M16.7598 125.82C18.1762 125.82 19.3244 124.672 19.3244 123.256C19.3244 121.84 18.1762 120.691 16.7598 120.691C15.3435 120.691 14.1953 121.84 14.1953 123.256C14.1953 124.672 15.3435 125.82 16.7598 125.82Z" fill="black"/>
<path d="M16.7598 131.82C18.1762 131.82 19.3244 130.672 19.3244 129.256C19.3244 127.84 18.1762 126.691 16.7598 126.691C15.3435 126.691 14.1953 127.84 14.1953 129.256C14.1953 130.672 15.3435 131.82 16.7598 131.82Z" fill="black"/>
<path d="M23.3262 125.82C24.7426 125.82 25.8908 124.672 25.8908 123.256C25.8908 121.84 24.7426 120.691 23.3262 120.691C21.9099 120.691 20.7617 121.84 20.7617 123.256C20.7617 124.672 21.9099 125.82 23.3262 125.82Z" fill="black"/>
<path d="M23.3262 131.82C24.7426 131.82 25.8908 130.672 25.8908 129.256C25.8908 127.84 24.7426 126.691 23.3262 126.691C21.9099 126.691 20.7617 127.84 20.7617 129.256C20.7617 130.672 21.9099 131.82 23.3262 131.82Z" fill="black"/>
<path d="M13.897 184.121H26.1886C26.9754 184.121 27.6133 183.226 27.6133 182.121L28.6133 142.121C28.6133 141.017 27.9754 140.121 27.1886 140.121H12.897C12.1102 140.121 11.4724 141.017 11.4724 142.121L12.4724 182.121C12.4724 183.226 13.1102 184.121 13.897 184.121Z" fill="#323232" stroke="black" stroke-width="6" stroke-miterlimit="10"/>
<path d="M14.043 46.2148V0.214844H26.043V46.2148H14.043Z" fill="black"/>
<path d="M16.025 262.328L14.6133 216.328H25.535L24.0713 262.328H16.025Z" fill="#676767" stroke="black" stroke-width="7"/>
<rect x="10.1641" y="39.6797" width="19.7615" height="9.00029" fill="black"/>
<path d="M12.4727 184.121H27.6136L26.6136 225.555H13.4727L12.4727 184.121Z" fill="#3F3F3F" stroke="black" stroke-width="6"/>
<rect x="16.5977" y="166.836" width="2.32295" height="10.7462" fill="black"/>
<rect x="21.168" y="166.836" width="2.32295" height="10.7462" fill="black"/>
</svg>
