<svg width="129" height="129" viewBox="0 0 129 129" fill="none" xmlns="http://www.w3.org/2000/svg">
<path d="M13.5787 110.45L14.6294 108.759C18.2298 112.068 24.2664 120.717 27.9971 119.46C29.7768 118.861 26.7293 122.65 25.4946 121.979L13.5787 110.45Z" fill="#323232" stroke="#323232" stroke-width="2.20305"/>
<path d="M33.3477 79.5721L37.9591 84.1552C38.298 84.4919 35.6589 87.3655 34.0525 88.4877C33.7989 86.8667 32.5082 86.0858 31.4022 85.4166L31.3847 85.406C30.2935 84.7456 32.367 81.053 33.3477 79.5721Z" fill="white" stroke="#323232" stroke-width="2.20305"/>
<path d="M42.3457 62.2368L43.651 63.534L50.453 56.6897C50.8023 56.3382 50.768 56.0381 49.6995 55.7744C47.4289 55.2143 46.9346 57.2177 46.8527 57.7018C46.7708 58.1858 45.4608 60.8134 43.8259 60.7474C42.0244 60.6747 41.8158 61.699 42.3457 62.2368Z" fill="#323232"/>
<path fill-rule="evenodd" clip-rule="evenodd" d="M15.2823 107.812C16.7667 113.092 28.0081 120.004 28.4911 119.734C28.5942 119.676 28.4589 119.203 28.2235 118.38C27.0806 114.384 23.5791 102.143 33.5842 89.2219C33.6187 89.1657 33.6551 89.1104 33.6915 89.0553C34.0988 88.4372 34.4999 87.8285 32.1753 85.8832C30.8299 84.7573 30.0649 85.8425 29.1173 87.1867C29.0321 87.3076 28.9454 87.4305 28.8567 87.5542C27.9965 88.7531 19.4487 101.559 15.2823 107.812ZM23.7855 112.449C22.559 107.236 22.6742 104.021 22.9231 103.52C23.172 103.018 17.9276 107.793 20.2704 109.538C21.368 110.356 22.2774 111.359 22.9018 112.048C23.6101 112.829 23.9517 113.206 23.7855 112.449Z" fill="white"/>
<path d="M28.4911 119.734L29.0285 120.695L29.0285 120.695L28.4911 119.734ZM15.2823 107.812L14.3656 107.202L14.0848 107.623L14.2219 108.111L15.2823 107.812ZM28.2235 118.38L29.2826 118.077L29.2826 118.077L28.2235 118.38ZM33.5842 89.2219L34.4552 89.8963L34.4919 89.849L34.5232 89.7979L33.5842 89.2219ZM33.6915 89.0553L32.7717 88.4492L32.7717 88.4492L33.6915 89.0553ZM32.1753 85.8832L31.4684 86.728L31.4684 86.728L32.1753 85.8832ZM29.1173 87.1867L30.0176 87.8213L30.0176 87.8213L29.1173 87.1867ZM28.8567 87.5542L29.7517 88.1963L29.7517 88.1963L28.8567 87.5542ZM22.9231 103.52L21.9364 103.03L21.9364 103.03L22.9231 103.52ZM23.7855 112.449L24.8614 112.213L24.8597 112.205L24.8578 112.197L23.7855 112.449ZM20.2704 109.538L20.9286 108.655L20.9286 108.655L20.2704 109.538ZM22.9018 112.048L23.7178 111.308L22.9018 112.048ZM27.9537 118.772C28.1449 118.665 28.3175 118.646 28.3963 118.641C28.484 118.636 28.5494 118.645 28.5783 118.649C28.6351 118.657 28.6595 118.668 28.6336 118.659C28.5881 118.644 28.4894 118.604 28.3277 118.525C28.0126 118.372 27.5594 118.122 27.0023 117.785C25.8924 117.113 24.4297 116.133 22.9344 114.981C21.4366 113.828 19.9298 112.52 18.7166 111.196C17.4839 109.851 16.6433 108.583 16.3427 107.514L14.2219 108.111C14.6635 109.681 15.7847 111.257 17.0923 112.684C18.4195 114.133 20.0315 115.526 21.59 116.727C23.151 117.929 24.682 118.956 25.8621 119.67C26.4499 120.025 26.9659 120.312 27.3638 120.506C27.5586 120.601 27.7524 120.687 27.9253 120.745C28.0086 120.774 28.1238 120.808 28.2515 120.828C28.3083 120.836 28.6651 120.898 29.0285 120.695L27.9537 118.772ZM27.1645 118.683C27.2866 119.11 27.3673 119.394 27.4086 119.581C27.4308 119.682 27.426 119.688 27.4248 119.645C27.4243 119.626 27.4212 119.526 27.4594 119.391C27.4979 119.256 27.6174 118.96 27.9537 118.772L29.0285 120.695C29.3906 120.493 29.5284 120.17 29.5784 119.994C29.628 119.82 29.6294 119.666 29.627 119.582C29.622 119.408 29.588 119.234 29.5599 119.107C29.5004 118.837 29.3958 118.473 29.2826 118.077L27.1645 118.683ZM32.7133 88.5475C22.3685 101.907 26.0001 114.612 27.1645 118.683L29.2826 118.077C28.1611 114.157 24.7897 102.379 34.4552 89.8963L32.7133 88.5475ZM32.7717 88.4492C32.737 88.5018 32.6907 88.572 32.6453 88.646L34.5232 89.7979C34.5468 89.7594 34.5733 89.719 34.6113 89.6614L32.7717 88.4492ZM31.4684 86.728C32.622 87.6933 32.8632 88.1493 32.9013 88.2785C32.9042 88.2883 32.899 88.2518 32.9091 88.2218C32.9095 88.2207 32.9045 88.2357 32.8818 88.2755C32.8569 88.3192 32.826 88.3668 32.7717 88.4492L34.6113 89.6614C34.8077 89.3633 35.3105 88.6593 35.0144 87.6553C34.7737 86.8393 34.0532 86.0183 32.8822 85.0384L31.4684 86.728ZM30.0176 87.8213C30.2607 87.4765 30.4608 87.1938 30.6544 86.9597C30.8509 86.7223 30.9888 86.6003 31.0808 86.5428C31.1208 86.5179 31.1386 86.5138 31.137 86.5142C31.1363 86.5144 31.1332 86.515 31.1287 86.5153C31.1242 86.5156 31.1216 86.5153 31.1221 86.5153C31.1228 86.5154 31.1293 86.5163 31.1424 86.5204C31.1557 86.5246 31.1766 86.5325 31.2055 86.5469C31.2645 86.5763 31.3519 86.6305 31.4684 86.728L32.8822 85.0384C32.4476 84.6747 31.9569 84.4018 31.4042 84.3304C30.8269 84.2559 30.3224 84.419 29.9135 84.6745C29.5276 84.9156 29.2125 85.2465 28.957 85.5554C28.6986 85.8677 28.4477 86.2247 28.217 86.552L30.0176 87.8213ZM29.7517 88.1963C29.8435 88.0683 29.9328 87.9416 30.0176 87.8213L28.217 86.552C28.1314 86.6735 28.0473 86.7927 27.9617 86.912L29.7517 88.1963ZM16.199 108.423C20.3764 102.153 28.9062 89.3747 29.7517 88.1963L27.9617 86.912C27.0867 88.1315 18.5209 100.965 14.3656 107.202L16.199 108.423ZM21.9364 103.03C21.8304 103.244 21.7807 103.481 21.7521 103.651C21.7191 103.847 21.6956 104.076 21.6808 104.329C21.6509 104.836 21.6529 105.494 21.7016 106.285C21.7992 107.871 22.0871 110.04 22.7133 112.702L24.8578 112.197C24.2574 109.645 23.9897 107.6 23.9005 106.15C23.8558 105.423 23.8566 104.857 23.88 104.458C23.8918 104.258 23.9086 104.112 23.9247 104.016C23.9452 103.894 23.9536 103.921 23.9099 104.009L21.9364 103.03ZM20.9286 108.655C20.8256 108.578 20.7984 108.518 20.7843 108.467C20.7649 108.396 20.7533 108.262 20.8048 108.039C20.9129 107.571 21.237 106.97 21.7005 106.337C22.1499 105.723 22.6647 105.166 23.0481 104.797C23.2441 104.608 23.3819 104.491 23.4439 104.445C23.4578 104.435 23.4557 104.437 23.4412 104.446C23.4335 104.451 23.416 104.461 23.3905 104.475C23.3684 104.486 23.3183 104.511 23.2485 104.533C23.1988 104.549 23.03 104.602 22.8068 104.578C22.5253 104.549 22.1263 104.381 21.9277 103.943C21.7775 103.612 21.8408 103.322 21.8591 103.246C21.8848 103.137 21.9216 103.06 21.9364 103.03L23.9099 104.009C23.9324 103.964 23.9743 103.874 24.0026 103.754C24.0233 103.667 24.0865 103.369 23.9339 103.033C23.7327 102.589 23.3286 102.418 23.0398 102.388C22.8091 102.363 22.6305 102.418 22.5687 102.438C22.4252 102.484 22.3163 102.551 22.2769 102.576C22.2207 102.611 22.1687 102.648 22.1251 102.68C21.9571 102.806 21.7443 102.994 21.5203 103.209C21.0635 103.649 20.4604 104.301 19.9226 105.036C19.3989 105.752 18.8668 106.64 18.6583 107.543C18.5514 108.005 18.5165 108.527 18.6596 109.049C18.8082 109.591 19.1296 110.062 19.6122 110.422L20.9286 108.655ZM23.7178 111.308C23.099 110.626 22.1236 109.546 20.9286 108.655L19.6122 110.422C20.6124 111.167 21.4557 112.093 22.0857 112.788L23.7178 111.308ZM22.7097 112.686C22.7254 112.757 22.7274 112.782 22.7268 112.775C22.7264 112.771 22.7242 112.744 22.7265 112.701C22.7286 112.662 22.736 112.575 22.7728 112.466C22.8098 112.355 22.8925 112.175 23.0745 112.017C23.2714 111.846 23.5046 111.77 23.7147 111.76C23.9027 111.752 24.0451 111.796 24.1158 111.823C24.1909 111.852 24.2415 111.882 24.2621 111.895C24.3104 111.926 24.2895 111.921 24.1537 111.781C24.0398 111.663 23.8991 111.508 23.7178 111.308L22.0857 112.788C22.2586 112.978 22.4262 113.163 22.5705 113.312C22.6927 113.439 22.8797 113.627 23.0811 113.755C23.1533 113.801 23.4326 113.979 23.8167 113.961C24.0511 113.95 24.3052 113.866 24.5193 113.68C24.7184 113.507 24.8147 113.305 24.8616 113.166C24.9455 112.915 24.9302 112.686 24.9219 112.587C24.9109 112.46 24.8873 112.331 24.8614 112.213L22.7097 112.686Z" fill="#323232"/>
<path d="M44.8184 90.8203C42.7622 85.1996 39.3167 83.8892 38.2246 84.1046L45.0863 76.4539L56.5313 64.9378L55.5105 72.2654C54.9428 75.1994 53.5706 77.0185 49.0351 78.2988C45.4086 81.6466 51.9199 87.3319 55.604 89.5901C53.6746 91.4962 49.7317 95.4141 49.3952 95.8374C48.9746 96.3665 46.8746 96.441 44.8184 90.8203Z" fill="white" stroke="#323232" stroke-width="2.20305"/>
<path d="M52.7351 72.6205C52.8196 72.7044 52.9003 72.9002 52.8127 73.2629C52.7278 73.6146 52.4972 74.0356 52.1183 74.4169C51.7394 74.7981 51.3198 75.0313 50.9686 75.1184C50.6065 75.2083 50.4103 75.1287 50.3258 75.0448C50.2414 74.9609 50.1606 74.7651 50.2482 74.4024C50.3332 74.0507 50.5637 73.6297 50.9426 73.2484C51.3215 72.8672 51.7411 72.634 52.0923 72.5469C52.4544 72.457 52.6507 72.5366 52.7351 72.6205Z" fill="#323232" stroke="#323232" stroke-width="1.05746"/>
<path d="M60.6993 68.8458L56.5879 64.7598L65.8871 55.4028L67.8719 57.3754L67.5116 57.9516L81.328 70.4747L74.7033 79.7447C72.4495 78.0077 63.942 69.7699 61.5116 67.5467L60.6993 68.8458Z" fill="white"/>
<path d="M60.6993 68.8458L56.5879 64.7598L65.8871 55.4028L67.8719 57.3754L67.5116 57.9516M60.6993 68.8458L67.5116 57.9516M60.6993 68.8458C61.309 67.8707 60.93 68.4768 61.5116 67.5467C63.942 69.7699 72.4495 78.0077 74.7033 79.7447L81.328 70.4747L67.5116 57.9516" stroke="#323232" stroke-width="2.20305"/>
<path d="M35.8085 78.2078C35.0276 78.3503 33.7502 78.613 33.4415 79.4815L38.1698 84.532L47.4789 73.8509L65.635 55.582L63.2549 48.6013L60.9251 46.7213L41.9721 65.792C41.0241 66.7458 39.2391 69.0969 38.8041 71.7576C37.9386 77.0513 37.025 77.9857 35.8085 78.2078Z" fill="white" stroke="#323232" stroke-width="2.20305"/>
<rect x="62.4375" y="51.7012" width="19.2396" height="5.56047" transform="rotate(-45.1773 62.4375 51.7012)" fill="white" stroke="#323232" stroke-width="2.20305"/>
<path d="M76.0291 40.7453L75.1497 38.8263L64.2402 49.8035L60.6312 46.2168L62.0609 44.5775L62.429 44.9434L90.993 17.3203L88.5291 14.8715L90.5437 12.8444L93.0076 15.2932L102.991 5.24806L105.578 7.81901L95.5945 17.8641L96.4982 18.7622L97.8946 17.3571L99.0963 17.5202L101.339 19.7487L101.342 20.783L99.9454 22.1882L100.441 22.6806L98.4264 24.7077L97.7127 23.9985L95.8064 28.0933L80.1756 43.8212L76.8768 45.0988L74.6009 42.837L76.0291 40.7453Z" fill="white" stroke="#323232" stroke-width="2.20305"/>
<path d="M75.125 38.8516L90.7862 23.0931L94.1294 21.1393L95.7977 19.4605" stroke="#323232" stroke-width="2.20305"/>
<path d="M38.4238 72.8457L46.0414 75.158" stroke="#323232" stroke-width="1.76244"/>
</svg>
