<svg width="129" height="129" viewBox="0 0 129 129" fill="none" xmlns="http://www.w3.org/2000/svg">
<mask id="mask0" mask-type="alpha" maskUnits="userSpaceOnUse" x="0" y="9" width="110" height="110">
<rect x="0.183594" y="9.43994" width="109.431" height="109.431" fill="#C4C4C4"/>
</mask>
<g mask="url(#mask0)">
<path fill-rule="evenodd" clip-rule="evenodd" d="M24.331 54.6064L23.3326 56.6248L23.3588 56.6727L21.7964 57.5036L24.4654 62.5223L26.0888 61.6589L26.1445 61.7606L28.4 62.2574L31.8266 60.4351L33.054 58.0859L32.9995 57.9836L34.5509 57.1586L31.8819 52.1399L30.1306 53.0713L28.1221 52.5901L24.331 54.6064ZM10.3318 62.1821L4.87447 65.0845L8.71909 72.3136L14.3739 69.3062L15.195 67.2881L15.1104 67.129L19.8961 64.5839L20.9566 66.5779L21.4446 66.3184C21.9573 66.895 22.8154 67.0694 23.5269 66.691C24.2384 66.3126 24.5735 65.5037 24.3821 64.7562L25.1652 64.3397L21.3928 57.2464L17.1842 59.4846L17.5323 60.1392L12.7466 62.6844L12.6763 62.5522L10.3318 62.1821ZM35.9651 49.4387L31.9474 51.5754L35.9368 59.0768L39.9546 56.94L35.9651 49.4387ZM36.4211 50.295L44.8166 48.2608L45.9644 50.4191L39.3536 55.8091L36.4211 50.295Z" fill="white"/>
<path fill-rule="evenodd" clip-rule="evenodd" d="M3.65234 64.8396L10.2534 61.329L13.3969 61.8252L16.3562 67.3896L15.2314 70.1544L8.40864 73.7829L3.65234 64.8396ZM6.27826 65.6422L9.21121 71.157L13.6982 68.7707L14.2154 67.4993L12.1374 63.592L10.5919 63.3481L6.27826 65.6422Z" fill="black"/>
<path fill-rule="evenodd" clip-rule="evenodd" d="M11.3555 62.5288L18.0213 58.9838L21.2967 65.1427L14.6309 68.6877L11.3555 62.5288ZM13.9814 63.3314L15.4335 66.0618L18.6708 64.3401L17.2187 61.6097L13.9814 63.3314Z" fill="black"/>
<path fill-rule="evenodd" clip-rule="evenodd" d="M30.7188 51.3307L36.4507 48.2823L41.3518 57.4979L35.6198 60.5463L30.7188 51.3307ZM33.3447 52.1333L36.4224 57.9204L38.7259 56.6953L35.6482 50.9082L33.3447 52.1333Z" fill="black"/>
<path fill-rule="evenodd" clip-rule="evenodd" d="M34.9805 49.6458L45.3241 47.1395L47.2001 50.6671L39.0553 57.3078L34.9805 49.6458ZM37.8697 50.9435L39.6599 54.3096L44.7368 50.1703L44.3172 49.3813L37.8697 50.9435Z" fill="black"/>
<path fill-rule="evenodd" clip-rule="evenodd" d="M23.6878 54.0526L28.0376 51.7393L30.3109 52.0795L32.3717 50.9835L35.9524 57.7164L33.9587 58.7767L32.6364 61.3077L28.6288 63.4391L26.1986 62.9037L24.1527 63.9918L20.5719 57.2589L22.648 56.1548L23.6878 54.0526ZM23.1978 58.0614L24.9552 61.3659L26.5682 60.508L26.8727 61.0641L28.3483 61.3891L31.1939 59.8758L32.0451 58.2466L31.7751 57.7389L33.3265 56.9138L31.5691 53.6094L30.0177 54.4345L29.7659 53.9611L28.3837 53.7543L25.1512 55.4734L24.5154 56.7587L24.7707 57.2249L23.1978 58.0614Z" fill="black"/>
<path fill-rule="evenodd" clip-rule="evenodd" d="M15.957 59.2399L21.8798 56.09L26.5639 64.8975L20.6411 68.0474L15.957 59.2399ZM18.583 60.0424L21.4437 65.4215L23.938 64.095L21.0773 58.7159L18.583 60.0424Z" fill="black"/>
<path d="M22.838 63.2207C23.0584 63.6352 22.9011 64.15 22.4865 64.3705C22.072 64.591 21.5572 64.4336 21.3367 64.0191C21.1162 63.6045 21.2736 63.0897 21.6881 62.8692C22.1027 62.6488 22.6175 62.8061 22.838 63.2207Z" fill="black"/>
<path d="M28.5387 57.4801C28.6529 57.6948 28.5714 57.9614 28.3568 58.0755C28.1421 58.1897 27.8755 58.1082 27.7614 57.8935C27.6472 57.6789 27.7287 57.4123 27.9434 57.2982C28.158 57.184 28.4246 57.2655 28.5387 57.4801Z" fill="black"/>
<path d="M37.3848 55.4833C37.6053 55.8979 37.448 56.4127 37.0334 56.6332C36.6188 56.8537 36.1041 56.6963 35.8836 56.2818C35.6631 55.8672 35.8204 55.3524 36.235 55.1319C36.6496 54.9115 37.1644 55.0688 37.3848 55.4833Z" fill="black"/>
<path fill-rule="evenodd" clip-rule="evenodd" d="M51.4946 64.8698L48.0417 67.6642C46.4827 68.9258 46.555 71.3259 48.1872 72.4914L52.752 75.7508C53.7633 76.473 55.1128 76.5053 56.1575 75.8324L57.9673 74.6669C59.3427 73.7811 59.768 71.9642 58.9287 70.5599L56.0071 65.6717C55.0602 64.0873 52.9295 63.7087 51.4946 64.8698ZM47.0874 66.485C44.7489 68.3774 44.8575 71.9777 47.3057 73.7258L51.8705 76.9853C53.3875 78.0685 55.4117 78.117 56.9789 77.1077L58.7886 75.9421C60.8517 74.6134 61.4897 71.8882 60.2307 69.7817L57.3092 64.8935C55.8887 62.5169 52.6927 61.9489 50.5404 63.6907L47.0874 66.485Z" fill="black"/>
<path d="M52.0966 72.2522L50.7838 72.6975L53.996 67.6757C54.257 68.1665 54.4494 71.1259 54.4974 71.8645L54.4977 71.8689C54.5486 72.6526 55.0416 73.1794 55.2852 73.3497C55.6156 73.5807 56.3974 74.1858 56.4546 74.3359C56.5119 74.486 56.0084 75.0247 55.6554 75.1673C55.3729 75.2813 53.1652 73.2714 52.0966 72.2522Z" fill="black"/>
<path fill-rule="evenodd" clip-rule="evenodd" d="M14.9692 75.4569L9.52795 78.3506L10.856 80.8478L9.18354 81.7373L11.0225 85.1952L12.695 84.3057L14.769 88.2056L17.4773 86.7652L19.6152 84.3239L20.838 84.514C21 84.5392 21.1658 84.5112 21.3106 84.4342L27.5496 81.1161C27.9194 80.9194 28.0598 80.4602 27.8631 80.0904L27.2412 78.9211C27.2361 78.9115 27.2308 78.9019 27.2253 78.8926L31.2525 76.7508C33.5451 76.5982 35.6179 77.492 36.5659 79.2745C36.6272 79.3897 36.6827 79.5067 36.7327 79.6253L34.2517 95.1299C33.9776 96.8427 35.1929 98.4362 36.9173 98.6249L40.3873 99.0047C40.648 99.0434 40.9501 99.0807 41.3001 99.1178C46.0794 99.2111 47.4275 96.3698 46.8013 95.1923C46.2966 94.2434 45.553 93.1872 44.7287 92.2045L45.8862 82.1087C48.2097 76.8857 53.8389 66.6932 57.8524 65.6259C58.0235 65.5804 58.2505 63.9429 58.4435 62.2899L71.3321 55.4354L71.0537 54.9118L74.5636 53.0452C74.9651 53.2076 75.433 53.1977 75.8453 52.9785L90.4667 45.2024C91.2063 44.809 91.487 43.8906 91.0937 43.1509L88.6131 38.4866C88.2197 37.747 87.3012 37.4662 86.5616 37.8596L71.9402 45.6357C71.5285 45.8546 71.259 46.2361 71.1688 46.659L67.6577 48.5263L67.3788 48.0018L15.1424 75.7825L14.9692 75.4569ZM98.8498 33.5297L88.1968 37.4891L91.7043 44.0842L100.961 37.4984L100.659 36.932L101.957 36.242L100.415 33.3428L99.1174 34.0328L98.8498 33.5297Z" fill="white"/>
<path fill-rule="evenodd" clip-rule="evenodd" d="M8.21545 77.9493L15.3709 74.1438L15.5441 74.4695L67.7805 46.6888L68.0594 47.2132L70.3711 45.9838C70.5872 45.4859 70.9676 45.0535 71.4848 44.7784L86.1062 37.0024C86.5444 36.7693 87.0209 36.6806 87.4813 36.7194L99.3085 32.3236L99.5192 32.7197L100.817 32.0297L103.27 36.6432L101.973 37.3332L102.218 37.7951L91.8866 45.1461C91.662 45.5201 91.3361 45.8397 90.923 46.0594L76.3015 53.8355C75.7835 54.111 75.2114 54.1844 74.6771 54.0845L72.3671 55.313L72.6456 55.8366L59.3479 62.9086C59.2678 63.566 59.1827 64.2043 59.0981 64.7182C59.0457 65.0369 58.9896 65.3327 58.9297 65.5624C58.9011 65.6724 58.8623 65.8045 58.8086 65.927C58.7826 65.9861 58.737 66.0813 58.6639 66.1793C58.6083 66.2538 58.4313 66.4765 58.1024 66.564C57.3698 66.7588 56.4207 67.4281 55.3204 68.5858C54.2464 69.7157 53.1294 71.2014 52.0464 72.8434C49.9192 76.0683 47.9864 79.7986 46.8341 82.3679L45.7406 91.9054C46.4905 92.8327 47.1713 93.8197 47.6589 94.7364C48.2475 95.8432 47.7926 97.3025 46.7605 98.3221C45.6726 99.397 43.8617 100.139 41.2816 100.088L41.2398 100.087L41.1983 100.083C40.8475 100.046 40.5374 100.008 40.2639 99.9676L36.8122 99.5899C34.536 99.3408 32.9318 97.2374 33.2935 94.9764L35.7276 79.7652C35.7215 79.7535 35.7154 79.7419 35.7092 79.7303C35.0153 78.4255 33.4577 77.6376 31.5187 77.7089L28.5393 79.2935L28.7207 79.6344C29.1691 80.4776 28.8491 81.5247 28.0059 81.9731L21.7669 85.2912C21.4368 85.4668 21.0587 85.5306 20.6893 85.4732L19.9942 85.3651L18.0908 87.5387L14.3682 89.5184L12.2942 85.6186L10.6217 86.508L7.87104 81.3359L9.54352 80.4465L8.21545 77.9493ZM10.497 82.1385L11.4243 83.8821L13.0967 82.9927L15.1708 86.8925L16.8647 85.9916L19.2372 83.2825L20.9177 83.5438L26.9067 80.3586L26.3866 79.3806L25.8757 78.511L30.9809 75.7959L31.1885 75.782C33.7415 75.6121 36.2453 76.6033 37.4235 78.8186C37.4985 78.9596 37.5665 79.1029 37.6278 79.2483L37.7356 79.5043L35.2107 95.2832C35.0244 96.4479 35.8508 97.5315 37.0234 97.6598L40.512 98.0416L40.5305 98.0443C40.7637 98.079 41.0379 98.1132 41.3606 98.1478C43.5344 98.1821 44.7755 97.5539 45.3959 96.9409C46.0762 96.2689 45.9822 95.7188 45.9446 95.6481C45.4802 94.7749 44.7795 93.775 43.9854 92.8283L43.7171 92.5085L44.9391 81.85L44.9997 81.714C46.1788 79.0634 48.1916 75.1612 50.4256 71.7743C51.542 70.0818 52.7301 68.4928 53.913 67.2482C54.917 66.1919 55.9988 65.2952 57.1003 64.8554C57.1255 64.7322 57.153 64.581 57.1823 64.403C57.2807 63.805 57.3835 63.0012 57.4797 62.1773L57.5387 61.6717L70.0196 55.034L69.7412 54.5105L74.5081 51.9753L74.928 52.1451C75.0747 52.2044 75.2417 52.2 75.3899 52.1213L90.0113 44.3452C90.2776 44.2036 90.3786 43.8729 90.237 43.6067L87.7564 38.9424C87.6148 38.6761 87.2841 38.575 87.0179 38.7166L72.3965 46.4927C72.2485 46.5714 72.1516 46.707 72.1186 46.8616L72.0242 47.3037L67.2569 49.8392L66.9779 49.3147L14.7415 77.0954L14.5683 76.7697L10.8414 78.7518L12.1694 81.249L10.497 82.1385ZM92.0427 42.6521L99.7036 37.2015L99.3468 36.5307L100.644 35.8407L100.014 34.6557L98.7166 35.3457L98.3921 34.7356L89.5753 38.0125L92.0427 42.6521Z" fill="black"/>
<path d="M16.125 75.2615L66.3888 48.5299L70.3421 55.9635L20.0784 82.695L16.125 75.2615Z" fill="#AEAEAE"/>
<path d="M37.1216 72.5823C37.2485 71.6089 37.8386 70.757 38.7054 70.296L42.4719 68.2929C44.6192 67.1509 47.17 68.8734 46.9131 71.2918L44.2515 96.3531C44.0741 98.023 42.574 99.2311 40.9047 99.0485L36.8516 98.6049C35.1617 98.42 33.9536 96.8827 34.1734 95.197L37.1216 72.5823Z" fill="black"/>
<path fill-rule="evenodd" clip-rule="evenodd" d="M29.8181 75.0195C29.4482 75.2162 29.3079 75.6754 29.5046 76.0452L29.9805 76.9402C32.7509 76.3017 35.445 77.1668 36.5661 79.2748C37.0498 80.1844 37.1779 81.2075 37.0003 82.2326L43.5677 78.7399C43.9375 78.5432 44.0779 78.084 43.8812 77.7142L40.0196 70.4531C39.8229 70.0833 39.3636 69.9429 38.9938 70.1396L29.8181 75.0195Z" fill="black"/>
<path d="M46.8053 95.1921C47.4315 96.3695 46.0834 99.2108 41.3041 99.1175C37.2143 98.6844 39.6592 98.2187 38.3641 95.7833C37.0689 93.348 37.5953 89.8899 39.8054 88.7145C41.1226 88.014 45.1893 92.1535 46.8053 95.1921Z" fill="black"/>
<path d="M60.4969 46.9939L60.6707 46.5428C60.7035 46.4577 60.7659 46.3872 60.8465 46.3443L61.0992 46.2099C61.3174 46.0938 61.5784 46.0914 61.7987 46.2032L63.0108 46.8186L63.0242 46.8115C63.2315 46.7013 63.4781 46.6932 63.6921 46.7897L63.8733 46.8714L64.2552 47.5895L64.4813 47.7271L65.2337 49.1418L62.4327 50.6314L60.4969 46.9939Z" fill="black"/>
<path d="M17.5312 69.8784L60.5126 47.0198L62.4336 50.632L19.4523 73.4906L17.5312 69.8784Z" fill="black"/>
<path d="M21.9922 66.698L36.3529 59.0606L38.3451 62.8065L23.9844 70.4439L21.9922 66.698Z" fill="black"/>
<path d="M14.4609 73.106L19.5691 70.3893L21.0801 73.2304L15.9719 75.9471L14.4609 73.106Z" fill="black"/>
<path d="M19.5642 70.3893C20.3144 71.7999 19.779 73.5515 18.3684 74.3017C16.9578 75.0519 15.2062 74.5166 14.456 73.106C13.7058 71.6954 14.2412 69.9437 15.6517 69.1935C17.0623 68.4434 18.814 68.9787 19.5642 70.3893Z" fill="black"/>
<path d="M72.03 49.1031C71.8495 48.7637 71.9783 48.3422 72.3177 48.1617L88.3166 39.653C88.6561 39.4725 89.0776 39.6013 89.2581 39.9408C89.4386 40.2802 89.3098 40.7017 88.9704 40.8822L72.9714 49.3909C72.632 49.5714 72.2105 49.4425 72.03 49.1031Z" fill="black"/>
<path d="M73.2175 51.3407C73.037 51.0012 73.1658 50.5797 73.5052 50.3992L89.5041 41.8906C89.8436 41.71 90.2651 41.8389 90.4456 42.1783C90.6261 42.5177 90.4973 42.9392 90.1579 43.1197L74.1589 51.6284C73.8195 51.8089 73.398 51.6801 73.2175 51.3407Z" fill="black"/>
<path d="M70.3359 47.5409L71.8915 46.7136L75.125 52.7934L73.5694 53.6208L70.3359 47.5409Z" fill="black"/>
<path d="M19.8678 83.2801C19.6712 82.9103 19.8115 82.451 20.1813 82.2543L26.3953 78.9496C26.7651 78.7529 27.2243 78.8933 27.421 79.2631L27.7146 79.8152C27.9113 80.185 27.7709 80.6442 27.4011 80.8409L21.1872 84.1456C20.8174 84.3423 20.3581 84.202 20.1614 83.8321L19.8678 83.2801Z" fill="black"/>
<path fill-rule="evenodd" clip-rule="evenodd" d="M19.1966 83.6361C18.8033 82.8965 19.084 81.978 19.8236 81.5846L26.0376 78.2799C26.7772 77.8865 27.6957 78.1672 28.0891 78.9069L28.3827 79.4589C28.776 80.1986 28.4953 81.1171 27.7557 81.5104L21.5417 84.8152C20.8021 85.2085 19.8836 84.9278 19.4902 84.1882L19.1966 83.6361ZM26.7498 79.6191L20.5359 82.9239L20.8295 83.4759L27.0434 80.1712L26.7498 79.6191Z" fill="black"/>
<path fill-rule="evenodd" clip-rule="evenodd" d="M61.0043 58.2589C61.9616 57.7498 62.3249 56.561 61.8158 55.6037C61.3067 54.6463 60.1179 54.283 59.1606 54.7921C59.0653 54.8428 58.9759 54.9002 58.8927 54.9634L58.8812 54.9418L52.6968 58.2308L52.5317 62.7659L60.7249 58.4086L60.7125 58.3853C60.8115 58.3516 60.909 58.3096 61.0043 58.2589Z" fill="black"/>
<path d="M22.9017 76.1993C22.7942 75.9971 22.8709 75.7461 23.0731 75.6386L46.1245 63.3792C46.3267 63.2717 46.5777 63.3484 46.6852 63.5506C46.7928 63.7528 46.716 64.0038 46.5139 64.1113L23.4624 76.3707C23.2603 76.4782 23.0092 76.4015 22.9017 76.1993Z" fill="black"/>
<path d="M26.5462 67.3841C26.4387 67.182 26.5154 66.9309 26.7176 66.8234L56.3174 51.0815C56.5195 50.974 56.7706 51.0507 56.8781 51.2528C56.9856 51.455 56.9089 51.706 56.7067 51.8136L27.107 67.5555C26.9048 67.663 26.6538 67.5863 26.5462 67.3841Z" fill="#666666"/>
<path d="M22.1836 74.8553L25.7896 72.9376L28.4504 72.8884L28.7767 73.5019L28.3452 74.3103L23.3161 76.9849L22.1836 74.8553Z" fill="black"/>
<path fill-rule="evenodd" clip-rule="evenodd" d="M28.7167 58.751C29.3485 58.415 29.5882 57.6305 29.2523 56.9988C28.9163 56.367 28.1318 56.1273 27.5001 56.4632C26.8683 56.7992 26.6285 57.5837 26.9645 58.2154C27.3005 58.8472 28.085 59.0869 28.7167 58.751ZM29.429 60.0902C30.8004 59.3609 31.3208 57.6579 30.5915 56.2865C29.8622 54.9151 28.1592 54.3947 26.7878 55.124C25.4164 55.8533 24.8959 57.5563 25.6253 58.9277C26.3546 60.2991 28.0576 60.8196 29.429 60.0902Z" fill="black"/>
<path fill-rule="evenodd" clip-rule="evenodd" d="M26.4229 57.6154L23.9183 57.5474L23.9492 56.4102L26.4537 56.4782L26.4229 57.6154Z" fill="black"/>
<path fill-rule="evenodd" clip-rule="evenodd" d="M29.425 56.0172L30.7688 53.9026L29.8086 53.2925L28.4648 55.4071L29.425 56.0172Z" fill="black"/>
<path fill-rule="evenodd" clip-rule="evenodd" d="M27.1297 58.9467L25.7859 61.0613L26.7461 61.6715L28.0898 59.5569L27.1297 58.9467Z" fill="black"/>
<path fill-rule="evenodd" clip-rule="evenodd" d="M30.1318 57.3487L32.6363 57.4167L32.6055 58.554L30.101 58.486L30.1318 57.3487Z" fill="black"/>
<path d="M15.7109 71.3434L17.4103 70.4396L18.3141 72.139L16.6147 73.0428L15.7109 71.3434Z" fill="#666666"/>
<path d="M16.1719 76.1663L17.5111 75.454L20.8437 81.7202L19.5044 82.4325L16.1719 76.1663Z" fill="black"/>
<path d="M66.6992 49.1207L68.0385 48.4085L72.0556 55.9619L70.7164 56.6742L66.6992 49.1207Z" fill="black"/>
<path d="M20.3438 69.5286L20.8885 69.2389L22.2916 71.8772L21.7469 72.1669L20.3438 69.5286Z" fill="#666666"/>
<path d="M23.0234 68.1071L23.5682 67.8174L24.9713 70.4557L24.4266 70.7454L23.0234 68.1071Z" fill="#666666"/>
<path d="M25.6953 66.6853L26.24 66.3956L27.6432 69.0339L27.0984 69.3236L25.6953 66.6853Z" fill="#666666"/>
<path d="M23.0514 69.782C23.1675 70.0002 23.0846 70.2713 22.8664 70.3874C22.6481 70.5035 22.377 70.4206 22.261 70.2023C22.1449 69.9841 22.2277 69.713 22.446 69.5969C22.6643 69.4809 22.9353 69.5637 23.0514 69.782Z" fill="#666666"/>
<path d="M25.7233 68.3602C25.8394 68.5785 25.7565 68.8495 25.5382 68.9656C25.32 69.0817 25.0489 68.9989 24.9328 68.7806C24.8168 68.5623 24.8996 68.2913 25.1179 68.1752C25.3361 68.0591 25.6072 68.1419 25.7233 68.3602Z" fill="#666666"/>
<path fill-rule="evenodd" clip-rule="evenodd" d="M8.21545 77.9493L17.0728 73.2387L17.246 73.5643L67.7802 46.6888L68.0592 47.2134L70.3711 45.9838C70.5872 45.4859 70.9676 45.0535 71.4848 44.7784L86.1062 37.0024C86.5444 36.7693 87.0209 36.6806 87.4813 36.7194L99.3085 32.3236L99.5192 32.7197L100.817 32.0297L103.27 36.6432L101.973 37.3332L102.218 37.7951L91.8866 45.1461C91.662 45.5201 91.3361 45.8397 90.923 46.0594L76.3015 53.8355C75.7835 54.111 75.2114 54.1844 74.6771 54.0845L72.3669 55.3132L72.6453 55.8366L59.3479 62.9085C59.2678 63.5659 59.1827 64.2042 59.0981 64.7181C59.0457 65.0368 58.9896 65.3326 58.9298 65.5624C58.9011 65.6724 58.8623 65.8045 58.8086 65.927C58.7827 65.9861 58.737 66.0812 58.6639 66.1793C58.6083 66.2538 58.4314 66.4765 58.1024 66.564C57.3698 66.7588 56.4207 67.4281 55.3204 68.5858C54.2464 69.7157 53.1294 71.2014 52.0464 72.8434C49.9192 76.0683 47.9864 79.7986 46.8341 82.3679L45.7406 91.9054C46.4905 92.8327 47.1713 93.8197 47.6589 94.7364C48.2475 95.8432 47.7926 97.3025 46.7605 98.3221C45.6726 99.397 43.8617 100.139 41.2816 100.088L41.2398 100.087L41.1983 100.083C40.8475 100.046 40.5374 100.008 40.2639 99.9676L36.8122 99.5899C34.536 99.3408 32.9318 97.2374 33.2935 94.9764L35.7276 79.7652C35.7215 79.7535 35.7154 79.7419 35.7092 79.7303C35.0153 78.4254 33.4576 77.6376 31.5185 77.7089L22.0812 82.7279L18.409 87.3694L14.3682 89.5184L12.2942 85.6186L10.6217 86.508L7.87104 81.3359L9.54352 80.4465L8.21545 77.9493ZM10.497 82.1385L11.4243 83.8821L13.0967 82.9927L15.1708 86.8925L17.1385 85.846L19.7938 82.4899L19.4851 81.9095L30.9806 75.7959L31.1883 75.7821C33.7413 75.6121 36.2453 76.6032 37.4235 78.8186C37.4985 78.9596 37.5665 79.1029 37.6278 79.2483L37.7356 79.5043L35.2107 95.2832C35.0244 96.4479 35.8508 97.5315 37.0234 97.6598L40.512 98.0416L40.5305 98.0443C40.7637 98.079 41.0379 98.1132 41.3606 98.1478C43.5344 98.1821 44.7755 97.5539 45.3959 96.9409C46.0762 96.2689 45.9822 95.7188 45.9446 95.6481C45.4802 94.7749 44.7795 93.775 43.9854 92.8283L43.7171 92.5085L44.9391 81.85L44.9997 81.714C46.1788 79.0634 48.1916 75.1612 50.4256 71.7743C51.542 70.0818 52.7301 68.4928 53.913 67.2482C54.917 66.1919 55.9988 65.2952 57.1003 64.8554C57.1255 64.7321 57.153 64.5809 57.1823 64.403C57.2807 63.8049 57.3835 63.0011 57.4797 62.1772L57.5387 61.6716L70.0194 55.0341L69.741 54.5106L74.5081 51.9753L74.928 52.1451C75.0747 52.2044 75.2417 52.2 75.3899 52.1213L90.0113 44.3452C90.2776 44.2036 90.3786 43.8729 90.237 43.6067L87.7564 38.9424C87.6148 38.6761 87.2841 38.575 87.0179 38.7166L72.3965 46.4927C72.2485 46.5714 72.1516 46.707 72.1186 46.8616L72.0242 47.3037L67.2566 49.8393L66.9777 49.3147L16.4434 76.1902L16.2703 75.8646L10.8414 78.7518L12.1694 81.249L10.497 82.1385ZM92.0427 42.6521L99.7036 37.2015L99.3468 36.5307L100.644 35.8407L100.014 34.6557L98.7166 35.3457L98.3921 34.7356L89.5753 38.0125L92.0427 42.6521Z" fill="black"/>
<path d="M43.122 78.9766C43.9075 80.4535 43.347 82.2875 41.8701 83.073C40.3932 83.8584 38.5592 83.2979 37.7737 81.821C36.9883 80.3441 37.5488 78.5101 39.0257 77.7247C40.5026 76.9392 42.3366 77.4997 43.122 78.9766Z" fill="#666666"/>
<path d="M21.8115 76.4181C22.1349 77.0262 21.9041 77.7815 21.2959 78.1049C20.6877 78.4283 19.9325 78.1975 19.6091 77.5894C19.2856 76.9812 19.5165 76.226 20.1246 75.9025C20.7328 75.5791 21.488 75.8099 21.8115 76.4181Z" fill="black"/>
<path d="M41.5458 79.8136C41.8693 80.4217 41.6385 81.177 41.0303 81.5004C40.4221 81.8239 39.6669 81.593 39.3435 80.9849C39.02 80.3767 39.2508 79.6215 39.859 79.298C40.4672 78.9746 41.2224 79.2054 41.5458 79.8136Z" fill="black"/>
</g>
<mask id="mask1" mask-type="alpha" maskUnits="userSpaceOnUse" x="18" y="9" width="111" height="110">
<rect width="109.431" height="109.431" transform="matrix(-1 0 0 1 128.184 9.43994)" fill="#C4C4C4"/>
</mask>
<g mask="url(#mask1)">
<path fill-rule="evenodd" clip-rule="evenodd" d="M104.036 54.6064L105.035 56.6248L105.008 56.6727L106.571 57.5036L103.902 62.5223L102.278 61.6589L102.223 61.7606L99.9672 62.2574L96.5406 60.4351L95.3132 58.0859L95.3676 57.9836L93.8163 57.1586L96.4853 52.1399L98.2366 53.0713L100.245 52.5901L104.036 54.6064ZM118.035 62.1821L123.493 65.0845L119.648 72.3136L113.993 69.3062L113.172 67.2881L113.257 67.129L108.471 64.5839L107.411 66.5779L106.923 66.3184C106.41 66.895 105.552 67.0694 104.84 66.691C104.129 66.3126 103.794 65.5037 103.985 64.7562L103.202 64.3397L106.974 57.2464L111.183 59.4846L110.835 60.1392L115.621 62.6844L115.691 62.5522L118.035 62.1821ZM92.402 49.4387L96.4198 51.5754L92.4304 59.0768L88.4126 56.94L92.402 49.4387ZM91.9461 50.295L83.5506 48.2608L82.4028 50.4191L89.0136 55.8091L91.9461 50.295Z" fill="white"/>
<path fill-rule="evenodd" clip-rule="evenodd" d="M124.715 64.8396L118.114 61.329L114.97 61.8252L112.011 67.3896L113.136 70.1544L119.959 73.7829L124.715 64.8396ZM122.089 65.6422L119.156 71.157L114.669 68.7707L114.152 67.4993L116.23 63.592L117.775 63.3481L122.089 65.6422Z" fill="black"/>
<path fill-rule="evenodd" clip-rule="evenodd" d="M117.012 62.5288L110.346 58.9838L107.07 65.1427L113.736 68.6877L117.012 62.5288ZM114.386 63.3314L112.934 66.0618L109.696 64.3401L111.148 61.6097L114.386 63.3314Z" fill="black"/>
<path fill-rule="evenodd" clip-rule="evenodd" d="M97.6484 51.3307L91.9164 48.2823L87.0153 57.4979L92.7473 60.5463L97.6484 51.3307ZM95.0225 52.1333L91.9448 57.9204L89.6413 56.6953L92.719 50.9082L95.0225 52.1333Z" fill="black"/>
<path fill-rule="evenodd" clip-rule="evenodd" d="M93.3867 49.6458L83.0431 47.1395L81.1671 50.6671L89.3119 57.3078L93.3867 49.6458ZM90.4975 50.9435L88.7072 54.3096L83.6304 50.1703L84.05 49.3813L90.4975 50.9435Z" fill="black"/>
<path fill-rule="evenodd" clip-rule="evenodd" d="M104.679 54.0526L100.33 51.7393L98.0563 52.0795L95.9955 50.9835L92.4148 57.7164L94.4084 58.7767L95.7308 61.3077L99.7384 63.4391L102.169 62.9037L104.215 63.9918L107.795 57.2589L105.719 56.1548L104.679 54.0526ZM105.169 58.0614L103.412 61.3659L101.799 60.508L101.495 61.0641L100.019 61.3891L97.1733 59.8758L96.3221 58.2466L96.5921 57.7389L95.0407 56.9138L96.7981 53.6094L98.3495 54.4345L98.6013 53.9611L99.9835 53.7543L103.216 55.4734L103.852 56.7587L103.596 57.2249L105.169 58.0614Z" fill="black"/>
<path fill-rule="evenodd" clip-rule="evenodd" d="M112.41 59.2399L106.487 56.09L101.803 64.8975L107.726 68.0474L112.41 59.2399ZM109.784 60.0424L106.924 65.4215L104.429 64.095L107.29 58.7159L109.784 60.0424Z" fill="black"/>
<path d="M105.529 63.2207C105.309 63.6352 105.466 64.15 105.881 64.3705C106.295 64.591 106.81 64.4336 107.03 64.0191C107.251 63.6045 107.094 63.0897 106.679 62.8692C106.264 62.6488 105.75 62.8061 105.529 63.2207Z" fill="black"/>
<path d="M99.8285 57.4801C99.7143 57.6948 99.7958 57.9614 100.01 58.0755C100.225 58.1897 100.492 58.1082 100.606 57.8935C100.72 57.6789 100.638 57.4123 100.424 57.2982C100.209 57.184 99.9426 57.2655 99.8285 57.4801Z" fill="black"/>
<path d="M90.9824 55.4833C90.7619 55.8979 90.9192 56.4127 91.3338 56.6332C91.7483 56.8537 92.2631 56.6963 92.4836 56.2818C92.7041 55.8672 92.5467 55.3524 92.1322 55.1319C91.7176 54.9115 91.2028 55.0688 90.9824 55.4833Z" fill="black"/>
<path fill-rule="evenodd" clip-rule="evenodd" d="M76.8726 64.8698L80.3255 67.6642C81.8845 68.9258 81.8122 71.3259 80.18 72.4914L75.6152 75.7508C74.6039 76.473 73.2544 76.5053 72.2097 75.8324L70.3999 74.6669C69.0245 73.7811 68.5992 71.9642 69.4385 70.5599L72.3601 65.6717C73.307 64.0873 75.4377 63.7087 76.8726 64.8698ZM81.2797 66.485C83.6182 68.3774 83.5097 71.9777 81.0615 73.7258L76.4967 76.9853C74.9797 78.0685 72.9555 78.117 71.3883 77.1077L69.5786 75.9421C67.5155 74.6134 66.8775 71.8882 68.1365 69.7817L71.058 64.8935C72.4785 62.5169 75.6744 61.9489 77.8268 63.6907L81.2797 66.485Z" fill="black"/>
<path d="M76.2706 72.2522L77.5834 72.6975L74.3712 67.6757C74.1102 68.1665 73.9178 71.1259 73.8698 71.8645L73.8695 71.8689C73.8186 72.6526 73.3256 73.1794 73.082 73.3497C72.7516 73.5807 71.9698 74.1858 71.9125 74.3359C71.8553 74.486 72.3588 75.0247 72.7118 75.1673C72.9942 75.2813 75.202 73.2714 76.2706 72.2522Z" fill="black"/>
<path fill-rule="evenodd" clip-rule="evenodd" d="M113.398 75.4569L118.839 78.3506L117.511 80.8478L119.184 81.7373L117.345 85.1952L115.672 84.3057L113.598 88.2056L110.89 86.7652L108.752 84.3239L107.529 84.514C107.367 84.5392 107.201 84.5112 107.057 84.4342L100.818 81.1161C100.448 80.9194 100.307 80.4602 100.504 80.0904L101.126 78.9211C101.131 78.9115 101.136 78.9019 101.142 78.8926L97.1146 76.7508C94.8221 76.5982 92.7492 77.492 91.8013 79.2745C91.74 79.3897 91.6845 79.5067 91.6345 79.6253L94.1155 95.1299C94.3896 96.8427 93.1742 98.4362 91.4499 98.6249L87.9799 99.0047C87.7192 99.0434 87.4171 99.0807 87.0671 99.1178C82.2877 99.2111 80.9397 96.3698 81.5659 95.1923C82.0706 94.2434 82.8142 93.1872 83.6385 92.2045L82.481 82.1087C80.1574 76.8857 74.5283 66.6932 70.5148 65.6259C70.3437 65.5804 70.1166 63.9429 69.9237 62.2899L57.0351 55.4354L57.3135 54.9118L53.8036 53.0452C53.4021 53.2076 52.9342 53.1977 52.5219 52.9785L37.9005 45.2024C37.1609 44.809 36.8802 43.8906 37.2735 43.1509L39.7541 38.4866C40.1475 37.747 41.066 37.4662 41.8056 37.8596L56.427 45.6357C56.8387 45.8546 57.1082 46.2361 57.1984 46.659L60.7095 48.5263L60.9884 48.0018L113.225 75.7825L113.398 75.4569ZM29.5173 33.5297L40.1704 37.4891L36.6629 44.0842L27.4067 37.4984L27.7079 36.932L26.4104 36.242L27.9523 33.3428L29.2498 34.0328L29.5173 33.5297Z" fill="white"/>
<path fill-rule="evenodd" clip-rule="evenodd" d="M120.152 77.9493L112.996 74.1438L112.823 74.4695L60.5867 46.6888L60.3078 47.2132L57.9961 45.9838C57.78 45.4859 57.3996 45.0535 56.8824 44.7784L42.261 37.0024C41.8228 36.7693 41.3463 36.6806 40.8859 36.7194L29.0587 32.3236L28.848 32.7197L27.5506 32.0297L25.097 36.6432L26.3944 37.3332L26.1488 37.7951L36.4806 45.1461C36.7052 45.5201 37.0311 45.8397 37.4442 46.0594L52.0656 53.8355C52.5837 54.111 53.1558 54.1844 53.6901 54.0845L56.0001 55.313L55.7216 55.8366L69.0193 62.9086C69.0994 63.566 69.1845 64.2043 69.2691 64.7182C69.3215 65.0369 69.3776 65.3327 69.4374 65.5624C69.4661 65.6724 69.5049 65.8045 69.5586 65.927C69.5845 65.9861 69.6302 66.0813 69.7033 66.1793C69.7589 66.2538 69.9358 66.4765 70.2648 66.564C70.9974 66.7588 71.9464 67.4281 73.0468 68.5858C74.1208 69.7157 75.2377 71.2014 76.3208 72.8434C78.448 76.0683 80.3808 79.7986 81.5331 82.3679L82.6266 91.9054C81.8767 92.8327 81.1958 93.8197 80.7083 94.7364C80.1197 95.8432 80.5746 97.3025 81.6067 98.3221C82.6946 99.397 84.5055 100.139 87.0856 100.088L87.1274 100.087L87.1689 100.083C87.5196 100.046 87.8298 100.008 88.1033 99.9676L91.555 99.5899C93.8312 99.3408 95.4354 97.2374 95.0736 94.9764L92.6396 79.7652C92.6457 79.7535 92.6518 79.7419 92.6579 79.7303C93.3519 78.4255 94.9095 77.6376 96.8485 77.7089L99.8279 79.2935L99.6465 79.6344C99.1981 80.4776 99.5181 81.5247 100.361 81.9731L106.6 85.2912C106.93 85.4668 107.308 85.5306 107.678 85.4732L108.373 85.3651L110.276 87.5387L113.999 89.5184L116.073 85.6186L117.745 86.508L120.496 81.3359L118.824 80.4465L120.152 77.9493ZM117.87 82.1385L116.943 83.8821L115.27 82.9927L113.196 86.8925L111.502 85.9916L109.13 83.2825L107.45 83.5438L101.46 80.3586L101.981 79.3806L102.492 78.511L97.3863 75.7959L97.1787 75.782C94.6257 75.6121 92.1219 76.6033 90.9437 78.8186C90.8687 78.9596 90.8006 79.1029 90.7394 79.2483L90.6316 79.5043L93.1564 95.2832C93.3428 96.4479 92.5164 97.5315 91.3438 97.6598L87.8552 98.0416L87.8367 98.0443C87.6035 98.079 87.3293 98.1132 87.0066 98.1478C84.8328 98.1821 83.5917 97.5539 82.9712 96.9409C82.291 96.2689 82.385 95.7188 82.4226 95.6481C82.8869 94.7749 83.5877 93.775 84.3818 92.8283L84.65 92.5085L83.4281 81.85L83.3675 81.714C82.1884 79.0634 80.1756 75.1612 77.9415 71.7743C76.8252 70.0818 75.6371 68.4928 74.4542 67.2482C73.4501 66.1919 72.3684 65.2952 71.2669 64.8554C71.2417 64.7322 71.2142 64.581 71.1849 64.403C71.0865 63.805 70.9837 63.0012 70.8875 62.1773L70.8285 61.6717L58.3476 55.034L58.626 54.5105L53.8591 51.9753L53.4392 52.1451C53.2925 52.2044 53.1255 52.2 52.9773 52.1213L38.3559 44.3452C38.0896 44.2036 37.9886 43.8729 38.1302 43.6067L40.6108 38.9424C40.7524 38.6761 41.0831 38.575 41.3493 38.7166L55.9707 46.4927C56.1187 46.5714 56.2156 46.707 56.2486 46.8616L56.3429 47.3037L61.1103 49.8392L61.3892 49.3147L113.626 77.0954L113.799 76.7697L117.526 78.7518L116.198 81.249L117.87 82.1385ZM36.3245 42.6521L28.6636 37.2015L29.0204 36.5307L27.7229 35.8407L28.3532 34.6557L29.6506 35.3457L29.9751 34.7356L38.7919 38.0125L36.3245 42.6521Z" fill="black"/>
<path d="M112.242 75.2615L61.9784 48.5299L58.0251 55.9635L108.289 82.695L112.242 75.2615Z" fill="#AEAEAE"/>
<path d="M91.2456 72.5823C91.1187 71.6089 90.5286 70.757 89.6618 70.296L85.8953 68.2929C83.748 67.1509 81.1972 68.8734 81.454 71.2918L84.1157 96.3531C84.2931 98.023 85.7932 99.2311 87.4625 99.0485L91.5155 98.6049C93.2054 98.42 94.4136 96.8827 94.1938 95.197L91.2456 72.5823Z" fill="black"/>
<path fill-rule="evenodd" clip-rule="evenodd" d="M98.5491 75.0195C98.9189 75.2162 99.0593 75.6754 98.8626 76.0452L98.3867 76.9402C95.6163 76.3017 92.9222 77.1668 91.8011 79.2748C91.3174 80.1844 91.1892 81.2075 91.3669 82.2326L84.7995 78.7399C84.4297 78.5432 84.2893 78.084 84.486 77.7142L88.3476 70.4531C88.5443 70.0833 89.0035 69.9429 89.3734 70.1396L98.5491 75.0195Z" fill="black"/>
<path d="M81.5619 95.1921C80.9357 96.3695 82.2838 99.2108 87.0631 99.1175C91.1529 98.6844 88.7079 98.2187 90.0031 95.7833C91.2983 93.348 90.7718 89.8899 88.5617 88.7145C87.2446 88.014 83.1779 92.1535 81.5619 95.1921Z" fill="black"/>
<path d="M67.8702 46.9939L67.6965 46.5428C67.6637 46.4577 67.6013 46.3872 67.5207 46.3443L67.268 46.2099C67.0498 46.0938 66.7888 46.0914 66.5684 46.2032L65.3564 46.8186L65.343 46.8115C65.1357 46.7013 64.8891 46.6932 64.6751 46.7897L64.4939 46.8714L64.112 47.5895L63.8858 47.7271L63.1335 49.1418L65.9345 50.6314L67.8702 46.9939Z" fill="black"/>
<path d="M110.836 69.8784L67.8546 47.0198L65.9336 50.632L108.915 73.4906L110.836 69.8784Z" fill="black"/>
<path d="M106.375 66.698L92.0143 59.0606L90.0221 62.8065L104.383 70.4439L106.375 66.698Z" fill="black"/>
<path d="M113.906 73.106L108.798 70.3893L107.287 73.2304L112.395 75.9471L113.906 73.106Z" fill="black"/>
<path d="M108.803 70.3893C108.053 71.7999 108.588 73.5515 109.999 74.3017C111.409 75.0519 113.161 74.5166 113.911 73.106C114.661 71.6954 114.126 69.9437 112.715 69.1935C111.305 68.4434 109.553 68.9787 108.803 70.3893Z" fill="black"/>
<path d="M56.3372 49.1031C56.5177 48.7637 56.3889 48.3422 56.0495 48.1617L40.0505 39.653C39.7111 39.4725 39.2896 39.6013 39.1091 39.9408C38.9286 40.2802 39.0574 40.7017 39.3968 40.8822L55.3958 49.3909C55.7352 49.5714 56.1567 49.4425 56.3372 49.1031Z" fill="black"/>
<path d="M55.1497 51.3407C55.3302 51.0012 55.2014 50.5797 54.862 50.3992L38.863 41.8906C38.5236 41.71 38.1021 41.8389 37.9216 42.1783C37.7411 42.5177 37.8699 42.9392 38.2093 43.1197L54.2083 51.6284C54.5477 51.8089 54.9692 51.6801 55.1497 51.3407Z" fill="black"/>
<path d="M58.0312 47.5409L56.4756 46.7136L53.2422 52.7934L54.7978 53.6208L58.0312 47.5409Z" fill="black"/>
<path d="M108.499 83.2801C108.696 82.9103 108.556 82.451 108.186 82.2543L101.972 78.9496C101.602 78.7529 101.143 78.8933 100.946 79.2631L100.653 79.8152C100.456 80.185 100.596 80.6442 100.966 80.8409L107.18 84.1456C107.55 84.3423 108.009 84.202 108.206 83.8321L108.499 83.2801Z" fill="black"/>
<path fill-rule="evenodd" clip-rule="evenodd" d="M109.171 83.6361C109.564 82.8965 109.283 81.978 108.544 81.5846L102.33 78.2799C101.59 77.8865 100.671 78.1672 100.278 78.9069L99.9845 79.4589C99.5912 80.1986 99.8719 81.1171 100.612 81.5104L106.825 84.8152C107.565 85.2085 108.484 84.9278 108.877 84.1882L109.171 83.6361ZM101.617 79.6191L107.831 82.9239L107.538 83.4759L101.324 80.1712L101.617 79.6191Z" fill="black"/>
<path fill-rule="evenodd" clip-rule="evenodd" d="M67.3629 58.2589C66.4056 57.7498 66.0423 56.561 66.5514 55.6037C67.0605 54.6463 68.2493 54.283 69.2066 54.7921C69.3019 54.8428 69.3913 54.9002 69.4745 54.9634L69.486 54.9418L75.6704 58.2308L75.8355 62.7659L67.6423 58.4086L67.6547 58.3853C67.5557 58.3516 67.4582 58.3096 67.3629 58.2589Z" fill="black"/>
<path d="M105.465 76.1993C105.573 75.9971 105.496 75.7461 105.294 75.6386L82.2427 63.3792C82.0405 63.2717 81.7895 63.3484 81.682 63.5506C81.5744 63.7528 81.6512 64.0038 81.8533 64.1113L104.905 76.3707C105.107 76.4782 105.358 76.4015 105.465 76.1993Z" fill="black"/>
<path d="M101.821 67.3841C101.928 67.182 101.852 66.9309 101.65 66.8234L72.0498 51.0815C71.8477 50.974 71.5966 51.0507 71.4891 51.2528C71.3816 51.455 71.4583 51.706 71.6605 51.8136L101.26 67.5555C101.462 67.663 101.713 67.5863 101.821 67.3841Z" fill="#666666"/>
<path d="M106.184 74.8553L102.578 72.9376L99.9168 72.8884L99.5905 73.5019L100.022 74.3103L105.051 76.9849L106.184 74.8553Z" fill="black"/>
<path fill-rule="evenodd" clip-rule="evenodd" d="M99.6505 58.751C99.0187 58.415 98.779 57.6305 99.1149 56.9988C99.4509 56.367 100.235 56.1273 100.867 56.4632C101.499 56.7992 101.739 57.5837 101.403 58.2154C101.067 58.8472 100.282 59.0869 99.6505 58.751ZM98.9382 60.0902C97.5668 59.3609 97.0463 57.6579 97.7757 56.2865C98.505 54.9151 100.208 54.3947 101.579 55.124C102.951 55.8533 103.471 57.5563 102.742 58.9277C102.013 60.2991 100.31 60.8196 98.9382 60.0902Z" fill="black"/>
<path fill-rule="evenodd" clip-rule="evenodd" d="M101.944 57.6154L104.449 57.5474L104.418 56.4102L101.913 56.4782L101.944 57.6154Z" fill="black"/>
<path fill-rule="evenodd" clip-rule="evenodd" d="M98.9422 56.0172L97.5984 53.9026L98.5586 53.2925L99.9023 55.4071L98.9422 56.0172Z" fill="black"/>
<path fill-rule="evenodd" clip-rule="evenodd" d="M101.238 58.9467L102.581 61.0613L101.621 61.6715L100.277 59.5569L101.238 58.9467Z" fill="black"/>
<path fill-rule="evenodd" clip-rule="evenodd" d="M98.2354 57.3487L95.7308 57.4167L95.7617 58.554L98.2662 58.486L98.2354 57.3487Z" fill="black"/>
<path d="M112.656 71.3434L110.957 70.4396L110.053 72.139L111.752 73.0428L112.656 71.3434Z" fill="#666666"/>
<path d="M112.195 76.1663L110.856 75.454L107.524 81.7202L108.863 82.4325L112.195 76.1663Z" fill="black"/>
<path d="M61.668 49.1207L60.3287 48.4085L56.3116 55.9619L57.6508 56.6742L61.668 49.1207Z" fill="black"/>
<path d="M108.023 69.5286L107.479 69.2389L106.076 71.8772L106.62 72.1669L108.023 69.5286Z" fill="#666666"/>
<path d="M105.344 68.1071L104.799 67.8174L103.396 70.4557L103.941 70.7454L105.344 68.1071Z" fill="#666666"/>
<path d="M102.672 66.6853L102.127 66.3956L100.724 69.0339L101.269 69.3236L102.672 66.6853Z" fill="#666666"/>
<path d="M105.316 69.782C105.2 70.0002 105.283 70.2713 105.501 70.3874C105.719 70.5035 105.99 70.4206 106.106 70.2023C106.222 69.9841 106.139 69.713 105.921 69.5969C105.703 69.4809 105.432 69.5637 105.316 69.782Z" fill="#666666"/>
<path d="M102.644 68.3602C102.528 68.5785 102.611 68.8495 102.829 68.9656C103.047 69.0817 103.318 68.9989 103.434 68.7806C103.55 68.5623 103.468 68.2913 103.249 68.1752C103.031 68.0591 102.76 68.1419 102.644 68.3602Z" fill="#666666"/>
<path fill-rule="evenodd" clip-rule="evenodd" d="M120.152 77.9493L111.294 73.2387L111.121 73.5643L60.587 46.6888L60.308 47.2134L57.9961 45.9838C57.78 45.4859 57.3996 45.0535 56.8824 44.7784L42.261 37.0024C41.8228 36.7693 41.3463 36.6806 40.8859 36.7194L29.0587 32.3236L28.848 32.7197L27.5506 32.0297L25.097 36.6432L26.3944 37.3332L26.1488 37.7951L36.4806 45.1461C36.7052 45.5201 37.0311 45.8397 37.4442 46.0594L52.0656 53.8355C52.5837 54.111 53.1558 54.1844 53.6901 54.0845L56.0003 55.3132L55.7219 55.8366L69.0193 62.9085C69.0994 63.5659 69.1845 64.2042 69.2691 64.7181C69.3215 65.0368 69.3776 65.3326 69.4374 65.5624C69.4661 65.6724 69.5049 65.8045 69.5586 65.927C69.5845 65.9861 69.6302 66.0812 69.7033 66.1793C69.7589 66.2538 69.9358 66.4765 70.2648 66.564C70.9974 66.7588 71.9464 67.4281 73.0468 68.5858C74.1208 69.7157 75.2377 71.2014 76.3208 72.8434C78.448 76.0683 80.3808 79.7986 81.5331 82.3679L82.6266 91.9054C81.8767 92.8327 81.1958 93.8197 80.7083 94.7364C80.1197 95.8432 80.5746 97.3025 81.6067 98.3221C82.6946 99.397 84.5055 100.139 87.0856 100.088L87.1274 100.087L87.1689 100.083C87.5196 100.046 87.8298 100.008 88.1033 99.9676L91.555 99.5899C93.8312 99.3408 95.4354 97.2374 95.0736 94.9764L92.6396 79.7652C92.6457 79.7535 92.6518 79.7419 92.6579 79.7303C93.3519 78.4254 94.9096 77.6376 96.8487 77.7089L106.286 82.7279L109.958 87.3694L113.999 89.5184L116.073 85.6186L117.745 86.508L120.496 81.3359L118.824 80.4465L120.152 77.9493ZM117.87 82.1385L116.943 83.8821L115.27 82.9927L113.196 86.8925L111.229 85.846L108.573 82.4899L108.882 81.9095L97.3866 75.7959L97.1789 75.7821C94.6259 75.6121 92.1219 76.6032 90.9437 78.8186C90.8687 78.9596 90.8006 79.1029 90.7394 79.2483L90.6316 79.5043L93.1564 95.2832C93.3428 96.4479 92.5164 97.5315 91.3438 97.6598L87.8552 98.0416L87.8367 98.0443C87.6035 98.079 87.3293 98.1132 87.0066 98.1478C84.8328 98.1821 83.5917 97.5539 82.9712 96.9409C82.291 96.2689 82.385 95.7188 82.4226 95.6481C82.8869 94.7749 83.5877 93.775 84.3818 92.8283L84.65 92.5085L83.4281 81.85L83.3675 81.714C82.1884 79.0634 80.1756 75.1612 77.9415 71.7743C76.8252 70.0818 75.6371 68.4928 74.4542 67.2482C73.4501 66.1919 72.3684 65.2952 71.2669 64.8554C71.2417 64.7321 71.2142 64.5809 71.1849 64.403C71.0865 63.8049 70.9837 63.0011 70.8875 62.1772L70.8285 61.6716L58.3478 55.0341L58.6262 54.5106L53.8591 51.9753L53.4392 52.1451C53.2925 52.2044 53.1255 52.2 52.9773 52.1213L38.3559 44.3452C38.0896 44.2036 37.9886 43.8729 38.1302 43.6067L40.6108 38.9424C40.7524 38.6761 41.0831 38.575 41.3493 38.7166L55.9707 46.4927C56.1187 46.5714 56.2156 46.707 56.2486 46.8616L56.3429 47.3037L61.1106 49.8393L61.3895 49.3147L111.924 76.1902L112.097 75.8646L117.526 78.7518L116.198 81.249L117.87 82.1385ZM36.3245 42.6521L28.6636 37.2015L29.0204 36.5307L27.7229 35.8407L28.3532 34.6557L29.6506 35.3457L29.9751 34.7356L38.7919 38.0125L36.3245 42.6521Z" fill="black"/>
<path d="M85.2451 78.9766C84.4597 80.4535 85.0202 82.2875 86.4971 83.073C87.974 83.8584 89.808 83.2979 90.5934 81.821C91.3789 80.3441 90.8184 78.5101 89.3415 77.7247C87.8646 76.9392 86.0306 77.4997 85.2451 78.9766Z" fill="#666666"/>
<path d="M106.556 76.4181C106.232 77.0262 106.463 77.7815 107.071 78.1049C107.679 78.4283 108.435 78.1975 108.758 77.5894C109.082 76.9812 108.851 76.226 108.243 75.9025C107.634 75.5791 106.879 75.8099 106.556 76.4181Z" fill="black"/>
<path d="M86.8213 79.8136C86.4979 80.4217 86.7287 81.177 87.3369 81.5004C87.9451 81.8239 88.7003 81.593 89.0237 80.9849C89.3472 80.3767 89.1164 79.6215 88.5082 79.298C87.9 78.9746 87.1448 79.2054 86.8213 79.8136Z" fill="black"/>
</g>
</svg>
