<?xml version="1.0"?>
<svg width="72" height="238" xmlns="http://www.w3.org/2000/svg" xmlns:svg="http://www.w3.org/2000/svg" xmlns:xlink="http://www.w3.org/1999/xlink" version="1.1">
 <metadata id="metadata858">image/svg+xml</metadata>
 <defs id="defs850">
  <clipPath clipPathUnits="userSpaceOnUse" id="clipPath854">
   <path d="m34,40l0,56l2,4l0,68l-6,4l0,22l-12,0l0,-22l-6,-4l0,-68l2,-4l0,-56l20,0z" fill="#515151" id="path856" stroke-miterlimit="10" stroke-opacity="0.49" stroke-width="10"/>
  </clipPath>
  <clipPath clipPathUnits="userSpaceOnUse" id="clipPath917">
   <path clip-path="none" d="m24,10c7.48,0 13.5,12.93 13.5,29l0,126c0,16.07 -6.02,29 -13.5,29c-7.48,0 -13.5,-12.93 -13.5,-29l0,-126c0,-16.07 6.02,-29 13.5,-29z" fill="#7b673c" id="path919" stroke-miterlimit="10" stroke-width="7.86"/>
  </clipPath>
  <clipPath clipPathUnits="userSpaceOnUse" id="clipPath1007">
   <path d="m12,134l24,0l4,4l0,46l-4,4l-24,0l-4,-4l0,-46l4,-4z" fill="#353535" id="path1009" stroke-linecap="round" stroke-miterlimit="10" stroke-width="18.05"/>
  </clipPath>
  <clipPath clipPathUnits="userSpaceOnUse" id="clipPath978">
   <path clip-path="none" d="m234.12,84l-2.12,36l0,32l28,0l0,-32l-2.12,-36l-23.76,0z" fill="#515151" id="path980" stroke-miterlimit="10" stroke-opacity="0.49" stroke-width="10"/>
  </clipPath>
  <clipPath clipPathUnits="userSpaceOnUse" id="clipPath960">
   <path clip-path="none" d="m30,48l4,4l4,68l0,68l-4,12l0,14l2,10l0,32l-24,0l0,-32l2,-10l0,-14l-4,-12l0,-68l4,-68l4,-4l12,0z" fill="#515151" id="path962" stroke-miterlimit="10" stroke-opacity="0.49" stroke-width="10"/>
  </clipPath>
  <clipPath clipPathUnits="userSpaceOnUse" id="clipPath969">
   <path clip-path="none" d="m49.95,58l4,4l0,36l-4,4l-28,0l-4,-4l0,-36l4,-4l28,0z" fill="#515151" id="path971" stroke-miterlimit="10" stroke-opacity="0.49" stroke-width="11.47"/>
  </clipPath>
  <clipPath clipPathUnits="userSpaceOnUse" id="clipPath975">
   <path clip-path="none" d="m25.95,38l-3.88,6l-0.12,58l2,0l0,72l2,2l0,62l20,0l0,-62l2,-2l0,-72l2,0l0.12,-58l-4.12,-6l-20,0z" fill="#515151" id="path977" stroke-miterlimit="10" stroke-opacity="0.49" stroke-width="10"/>
  </clipPath>
  <clipPath clipPathUnits="userSpaceOnUse" id="clipPath1040">
   <path d="m47.95,110l4,4l0,54l-4,4l-24,0l-4,-4l0,-54l4,-4l24,0z" fill="#515151" id="path1042" stroke-miterlimit="10" stroke-opacity="0.49" stroke-width="11.47"/>
  </clipPath>
  <symbol height="40" id="svg_5" width="72" xmlns="http://www.w3.org/2000/svg" xmlns:cc="http://creativecommons.org/ns#" xmlns:dc="http://purl.org/dc/elements/1.1/" xmlns:inkscape="http://www.inkscape.org/namespaces/inkscape" xmlns:rdf="http://www.w3.org/1999/02/22-rdf-syntax-ns#" xmlns:sodipodi="http://sodipodi.sourceforge.net/DTD/sodipodi-0.dtd" xmlns:svg="http://www.w3.org/2000/svg">
   <metadata id="svg_4">image/svg+xml</metadata>
   <rect fill="#5d5644" height="31.22" id="svg_2" rx="1.91" ry="2.08" stroke="#000000" stroke-width="8.78" width="63.22" x="4.39" y="4.39"/>
  </symbol>
 </defs>
 <g class="layer">
  <title>Layer 1</title>
  <use id="svg_6" x="0" xlink:href="#svg_5" y="112.63"/>
  <g id="g881">
   <path clip-path="url(#clipPath975)" d="m26,38l-3.88,6l-0.12,58l2,0l0,72l2,2l0,62l20,0l0,-62l2,-2l0,-72l2,0l0.12,-58l-4.12,-6l-20,0z" fill="#252525" id="path973" stroke="#000000" stroke-miterlimit="10" stroke-width="16"/>
   <path clip-path="url(#clipPath1040)" d="m48,110l4,4l0,54l-4,4l-24,0l-4,-4l0,-54l4,-4l24,0z" fill="#676767" id="path1038" stroke="#000000" stroke-miterlimit="10" stroke-width="16"/>
   <path clip-path="url(#clipPath969)" d="m50,58l4,4l0,36l-4,4l-28,0l-4,-4l0,-36l4,-4l28,0z" fill="#676767" id="path967" stroke="#000000" stroke-miterlimit="10" stroke-width="16"/>
   <path d="m28,122.96l16,0" fill="none" id="path904" stroke="#000000" stroke-miterlimit="4" stroke-width="3"/>
   <path d="m28,128.96l16,0" fill="none" id="path906" stroke="#000000" stroke-miterlimit="4" stroke-width="3"/>
   <path d="m28,134.96l16,0" fill="none" id="path909" stroke="#000000" stroke-miterlimit="4" stroke-width="3"/>
   <path d="m28,141.61l16,0" fill="none" id="path913" stroke="#000000" stroke-miterlimit="4" stroke-width="3"/>
   <path d="m28,147.61l16,0" fill="none" id="path916" stroke="#000000" stroke-miterlimit="4" stroke-width="3"/>
   <path d="m28,153.61l16,0" fill="none" id="path918" stroke="#000000" stroke-miterlimit="4" stroke-width="3"/>
   <path d="m30,0l12,0l2,2l0,12l-16,0l0,-12l2,-2z" fill="#000000" id="path925" stroke-linecap="round" stroke-miterlimit="4" stroke-width="10.04"/>
   <path d="m30,40l0,-28l12,0l0,28l-12,0z" fill="#000000" id="path927" stroke-linecap="round" stroke-miterlimit="4" stroke-width="14.73"/>
   <g id="g1019" transform="translate(-3.28226 0.564523)">
    <circle cx="36" cy="70" fill="#000000" id="circle1007" r="2.56" stroke-linecap="round" stroke-linejoin="round" stroke-miterlimit="4" stroke-width="3.85"/>
    <circle cx="36" cy="76" fill="#000000" id="circle1009" r="2.56" stroke-linecap="round" stroke-linejoin="round" stroke-miterlimit="4" stroke-width="3.85"/>
    <circle cx="42.57" cy="70" fill="#000000" id="circle1011" r="2.56" stroke-linecap="round" stroke-linejoin="round" stroke-miterlimit="4" stroke-width="3.85"/>
    <circle cx="42.57" cy="76" fill="#000000" id="circle1013" r="2.56" stroke-linecap="round" stroke-linejoin="round" stroke-miterlimit="4" stroke-width="3.85"/>
   </g>
   <g id="g1029" transform="translate(-3.28226 13.129)">
    <circle cx="36" cy="70" fill="#000000" id="circle1021" r="2.56" stroke-linecap="round" stroke-linejoin="round" stroke-miterlimit="4" stroke-width="3.85"/>
    <circle cx="36" cy="76" fill="#000000" id="circle1023" r="2.56" stroke-linecap="round" stroke-linejoin="round" stroke-miterlimit="4" stroke-width="3.85"/>
    <circle cx="42.57" cy="70" fill="#000000" id="circle1025" r="2.56" stroke-linecap="round" stroke-linejoin="round" stroke-miterlimit="4" stroke-width="3.85"/>
    <circle cx="42.57" cy="76" fill="#000000" id="circle1027" r="2.56" stroke-linecap="round" stroke-linejoin="round" stroke-miterlimit="4" stroke-width="3.85"/>
   </g>
   <path d="m28,160l16,0" fill="none" id="path1044" stroke="#000000" stroke-miterlimit="4" stroke-width="3"/>
  </g>
 </g>
</svg>