<svg width="17" height="17" viewBox="0 0 17 17" fill="none" xmlns="http://www.w3.org/2000/svg">
<path opacity="0.9" d="M16.4358 8.855C16.4366 13.3005 12.8338 16.9049 8.38837 16.9056C7.84752 16.9056 7.30741 16.8509 6.77693 16.743C2.42083 15.8584 -0.393917 11.6093 0.49066 7.25317C1.13377 4.08584 3.6097 1.61001 6.77693 0.966902C11.1323 0.0775146 15.3838 2.8882 16.2732 7.24355C16.3811 7.77403 16.4358 8.31414 16.4358 8.855Z" fill="#9B45CF"/>
<path d="M2.82636 9.45248C2.38209 9.45248 2.02148 9.09187 2.02148 8.6476C2.02148 5.53583 4.54401 3.01331 7.65578 3.01331C8.10005 3.01331 8.46066 3.37391 8.46066 3.81818C8.46066 4.26245 8.10005 4.62305 7.65578 4.62305C5.4334 4.62305 3.63123 6.42522 3.63123 8.6476C3.63123 9.09187 3.27063 9.45248 2.82636 9.45248Z" fill="white" fill-opacity="0.5"/>
</svg>
