<svg width="129" height="129" viewBox="0 0 129 129" fill="none" xmlns="http://www.w3.org/2000/svg">
<mask id="mask0" mask-type="alpha" maskUnits="userSpaceOnUse" x="0" y="0" width="129" height="129">
<rect x="0.878906" y="0.0900879" width="128" height="128" fill="#C4C4C4"/>
</mask>
<g mask="url(#mask0)">
<path d="M9.26384 89.1384L17.0766 102.641L28.422 95.6735L19.35 80.1204L9.26384 89.1384Z" fill="white" stroke="black" stroke-width="3.4217"/>
<path d="M8.41785 89.4997C7.99754 89.8603 7.87369 90.4592 8.11648 90.957L10.2289 95.2878C10.5635 95.9739 11.4399 96.1861 12.0514 95.7291L22.5384 87.8922C23.0299 87.5249 23.1711 86.8493 22.868 86.3158L20.0775 81.4058C19.6993 80.7403 18.8078 80.585 18.2268 81.0835L8.41785 89.4997Z" fill="white" stroke="black" stroke-width="3.4217"/>
<path d="M36.0259 90.2659C36.0259 90.2659 37.578 89.3132 38.4512 89.2877C39.3117 89.2596 40.9073 90.1043 40.9073 90.1043L48.0441 84.7855C48.0441 84.7855 48.601 82.9432 49.4932 82.5327L51.3666 81.1389C53.3291 81.4705 54.4761 83.5552 54.9795 84.1469L58.127 80.9731L54.0128 75.6254C53.4804 74.8731 53.7447 74.5599 54.0807 73.9422C54.5169 73.1417 55.4618 73.0353 55.8241 72.1988C56.035 71.7127 56.0967 71.0677 55.9218 70.5678C55.6831 69.883 54.3584 68.1121 54.3584 68.1121L68.7806 57.3466L61.9152 48.1382L59.9397 45.4973L54.8628 49.295L52.0812 55.4746L42.2473 62.811L22.5794 77.4838L31.862 93.443L36.0259 90.2659ZM52.9444 105.83L54.4714 107.748L43.4844 112.384C43.4844 112.384 43.1969 111.634 43.1972 111.39L43.0909 92.9564L49.0674 88.5693L51.3581 91.5586C51.3581 91.5586 51.2952 94.2215 51.535 95.1578C51.7465 95.977 53.0114 97.0401 53.0114 97.0401L51.7597 98.817L52.9444 105.83Z" fill="white" stroke="black" stroke-width="3.4217"/>
<path d="M47.4499 63.5704L44.376 65.8698C44.1068 66.0711 44.5013 67.0533 45.2569 68.0635C46.0126 69.0737 46.8434 69.7294 47.1125 69.5281L50.1864 67.2287C50.4556 67.0273 50.0612 66.0452 49.3055 65.035C48.5498 64.0248 47.7191 63.3691 47.4499 63.5704Z" fill="white" fill-opacity="0.48" stroke="black" stroke-width="1.73275"/>
<path d="M53.9675 58.6946L50.8936 60.994C50.6244 61.1953 51.0189 62.1775 51.7745 63.1877C52.5302 64.1979 53.3609 64.8536 53.6301 64.6523L56.704 62.3529C56.9732 62.1515 56.5788 61.1694 55.8231 60.1592C55.0674 59.149 54.2366 58.4933 53.9675 58.6946Z" fill="white" fill-opacity="0.48" stroke="black" stroke-width="1.73275"/>
<path d="M60.3913 53.8893L57.3174 56.1887C57.0483 56.39 57.4427 57.3722 58.1984 58.3824C58.954 59.3926 59.7848 60.0483 60.0539 59.847L63.1278 57.5476C63.397 57.3462 63.0026 56.3641 62.2469 55.3539C61.4912 54.3437 60.6605 53.688 60.3913 53.8893Z" fill="white" fill-opacity="0.48" stroke="black" stroke-width="1.73275"/>
<path d="M28.6681 77.6198L39.5723 69.463C40.53 68.7466 41.9035 68.9755 42.6642 69.9924C43.4249 71.0093 43.2665 72.4049 42.3088 73.1213L31.4046 81.278C30.4469 81.9944 29.0635 81.7523 28.3028 80.7353C27.5421 79.7184 27.7104 78.3361 28.6681 77.6198Z" fill="white" fill-opacity="0.48" stroke="black" stroke-width="1.73275"/>
<rect x="63.5823" y="44.5388" width="51.2997" height="3.71467" transform="rotate(-36.7979 63.5823 44.5388)" fill="white" stroke="black" stroke-width="1.82751"/>
<rect x="-0.184359" y="1.27903" width="51.2997" height="3.71467" transform="matrix(0.800753 -0.598994 -0.598994 -0.800753 72.122 55.6458)" fill="white" stroke="black" stroke-width="1.82751"/>
<path d="M65.4079 50.5358L67.6275 48.8755C67.8195 48.7319 68.2034 48.4447 68.8285 48.48C69.4537 48.5153 70.3201 48.8731 70.8763 48.8163C71.4325 48.7595 71.6786 48.288 71.7523 47.5862C71.8261 46.8844 71.7275 45.9522 71.8702 45.3426C72.0129 44.7329 72.3968 44.4457 73.0219 44.481C73.6471 44.5163 74.5135 44.8741 75.0008 44.7251C75.4881 44.5762 75.5963 43.9204 75.8423 43.449C76.0884 42.9775 76.4723 42.6903 76.6643 42.5467C76.8562 42.4032 77.2391 42.1167 77.7609 42.0138C78.2827 41.9109 78.9423 41.9923 79.2228 41.5669C79.5033 41.1415 79.4048 40.2094 79.5475 39.5997C79.6901 38.99 80.0741 38.7028 80.6992 38.7381C81.3243 38.7734 82.1907 39.1312 82.8848 39.2587C83.5789 39.3861 84.1006 39.2832 84.3122 38.7657C84.5238 38.2482 84.4253 37.316 84.568 36.7063C84.7106 36.0967 85.0945 35.8095 85.2865 35.6659L85.6704 35.3787C85.8624 35.2351 86.2463 34.9479 86.8714 34.9833C87.4966 35.0186 88.363 35.3764 88.9192 35.3195C89.4754 35.2627 89.7215 34.7912 89.7952 34.0894C89.869 33.3876 89.7704 32.4555 89.9131 31.8458C90.0558 31.2361 90.4397 30.9489 91.0648 30.9842C91.69 31.0195 92.5564 31.3773 93.0437 31.2284C93.531 31.0794 93.6392 30.4237 93.8852 29.9522C94.1313 29.4807 94.5152 29.1936 94.7072 29.05C94.8991 28.9064 95.2821 28.6199 95.8038 28.517C96.3256 28.4141 96.9852 28.4955 97.2657 28.0701C97.5462 27.6447 97.4477 26.7126 97.5904 26.1029C97.733 25.4932 98.117 25.2061 98.7421 25.2414C99.3672 25.2767 100.234 25.6345 100.928 25.7619C101.622 25.8893 102.144 25.7864 102.355 25.2689C102.567 24.7514 102.468 23.8192 102.611 23.2096C102.754 22.5999 103.137 22.3127 103.329 22.1691L103.713 21.8819C103.905 21.7383 104.289 21.4512 104.914 21.4865C105.539 21.5218 106.406 21.8796 106.962 21.8227C107.518 21.7659 107.764 21.2944 107.838 20.5926C107.912 19.8908 107.724 19.2271 107.867 18.6174C107.938 18.3136 108.264 17.9494 108.629 17.6759" stroke="black" stroke-width="1.36868"/>
<circle cx="107.345" cy="20.0631" r="4.49243" transform="rotate(-36.7979 107.345 20.0631)" fill="white" stroke="black" stroke-width="1.83403"/>
</g>
</svg>
