<svg width="132" height="129" viewBox="0 0 132 129" fill="none" xmlns="http://www.w3.org/2000/svg">
<path d="M27.2429 107.575L20.8609 113.7C17.5236 117.084 15.5788 111.326 18.0074 109.176C19.9694 107.256 24.2073 103.16 25.4633 102.139C26.7193 101.119 27.5429 102.319 27.7978 103.046C27.8663 103.564 28.0498 104.801 28.2357 105.606C28.4216 106.411 27.6513 107.254 27.2429 107.575Z" stroke="#FF0000" stroke-width="2.2"/>
<path fill-rule="evenodd" clip-rule="evenodd" d="M9.04122 113.257C12.3822 116.402 18.3995 122.499 19.2461 124.063C19.6956 124.894 22.7224 121.478 22.2951 119.756C21.9725 118.455 23.1238 116.925 23.4684 116.692C23.744 116.505 26.688 113.699 28.1256 112.319C28.5522 111.96 29.5917 111.289 30.3368 111.482C31.2681 111.724 34.9676 111.678 34.3816 108.08C34.0445 106.01 33.6205 104.69 33.334 103.798C33.1225 103.139 32.9858 102.714 33.0144 102.392C33.0916 101.523 33.5662 100.736 35.5037 98.9588C36.9148 97.6649 40.5357 94.3321 41.976 92.7741L57.9656 77.3624C57.9766 77.3522 57.9877 77.3419 57.9989 77.3315C58.298 77.0534 58.6905 76.6885 60.2922 76.6436C60.9776 76.6244 62.898 74.9662 63.7242 74.0284C63.7843 73.1409 63.9504 71.0149 66.5285 68.9135L70.7066 64.9375L66.1049 60.3388L30.6783 95.3642C30.2875 95.7728 29.2663 96.6122 28.308 96.7013C27.1101 96.8126 26.7258 96.9032 25.24 98.2496C24.0513 99.3266 17.2512 105.892 13.9997 109.04C13.0813 109.93 11.9021 110.751 10.9175 111.438C9.66595 112.31 8.72877 112.963 9.04122 113.257ZM20.8593 113.7L27.2412 107.576C27.6496 107.255 28.4199 106.412 28.234 105.606C28.0482 104.801 27.8646 103.564 27.7961 103.047C27.5413 102.319 26.7176 101.119 25.4616 102.139C24.2056 103.16 19.9677 107.256 18.0058 109.176C15.5771 111.326 17.5219 117.084 20.8593 113.7Z" fill="white"/>
<path d="M19.2461 124.063L20.3454 123.468L20.3454 123.468L19.2461 124.063ZM9.04122 113.257L8.18383 114.167L8.18448 114.168L9.04122 113.257ZM22.2951 119.756L23.5083 119.455L22.2951 119.756ZM28.1256 112.319L27.3199 111.363L27.2891 111.389L27.26 111.417L28.1256 112.319ZM30.3368 111.482L30.0223 112.692L30.3368 111.482ZM34.3816 108.08L35.6153 107.879L35.6153 107.879L34.3816 108.08ZM33.334 103.798L34.5242 103.416L34.5242 103.416L33.334 103.798ZM33.0144 102.392L31.7693 102.281L31.7693 102.281L33.0144 102.392ZM35.5037 98.9588L36.3485 99.8801L35.5037 98.9588ZM41.976 92.7741L41.1085 91.8741L41.0825 91.8991L41.0581 91.9256L41.976 92.7741ZM57.9656 77.3624L57.1178 76.4438L57.1079 76.453L57.0981 76.4624L57.9656 77.3624ZM57.9989 77.3315L58.8501 78.2469L58.8501 78.2469L57.9989 77.3315ZM60.2922 76.6436L60.3272 77.8931L60.2922 76.6436ZM63.7242 74.0284L64.6621 74.8547L64.9426 74.5363L64.9713 74.1129L63.7242 74.0284ZM66.5285 68.9135L67.3183 69.8825L67.3554 69.8521L67.3902 69.8191L66.5285 68.9135ZM70.7066 64.9375L71.5683 65.8431L72.4969 64.9594L71.5902 64.0534L70.7066 64.9375ZM66.1049 60.3388L66.9885 59.4546L66.1096 58.5763L65.226 59.4499L66.1049 60.3388ZM30.6783 95.3642L29.7995 94.4753L29.7871 94.4876L29.775 94.5002L30.6783 95.3642ZM28.308 96.7013L28.4237 97.9459L28.4237 97.9459L28.308 96.7013ZM25.24 98.2496L26.0793 99.1758L25.24 98.2496ZM13.9997 109.04L13.1302 108.142L13.1301 108.142L13.9997 109.04ZM10.9175 111.438L11.6322 112.463L11.6322 112.463L10.9175 111.438ZM27.2412 107.576L26.469 106.593L26.4203 106.631L26.3757 106.674L27.2412 107.576ZM20.8593 113.7L19.9938 112.798L19.9813 112.81L19.9693 112.822L20.8593 113.7ZM27.7961 103.047L29.0353 102.883L29.0184 102.755L28.9758 102.633L27.7961 103.047ZM25.4616 102.139L24.6734 101.169L24.6734 101.169L25.4616 102.139ZM18.0058 109.176L18.8342 110.112L18.8577 110.092L18.8802 110.07L18.0058 109.176ZM20.3454 123.468C20.0561 122.934 19.4243 122.156 18.7051 121.334C17.952 120.473 17.0015 119.451 15.9809 118.387C13.9391 116.26 11.5845 113.935 9.89797 112.347L8.18448 114.168C9.83887 115.725 12.1634 118.02 14.1772 120.118C15.1844 121.168 16.1057 122.16 16.8234 122.98C17.5749 123.839 18.0128 124.411 18.1467 124.658L20.3454 123.468ZM21.0819 120.057C21.0917 120.096 21.1037 120.326 20.9097 120.788C20.7319 121.212 20.4443 121.678 20.117 122.094C19.7819 122.52 19.4663 122.816 19.2716 122.948C19.1563 123.026 19.1938 122.971 19.3526 122.949C19.4489 122.936 19.6369 122.929 19.8547 123.023C20.0902 123.125 20.2534 123.298 20.3454 123.468L18.1467 124.658C18.295 124.932 18.5345 125.176 18.8635 125.318C19.1748 125.453 19.4735 125.456 19.6948 125.425C20.1035 125.369 20.4479 125.17 20.6729 125.018C21.1588 124.689 21.6575 124.179 22.0819 123.64C22.5141 123.09 22.9311 122.431 23.2147 121.756C23.4821 121.119 23.7122 120.276 23.5083 119.455L21.0819 120.057ZM22.7672 115.657C22.5094 115.832 22.2737 116.103 22.1039 116.324C21.908 116.578 21.6991 116.898 21.5162 117.259C21.1717 117.94 20.8144 118.979 21.0819 120.057L23.5083 119.455C23.4532 119.232 23.5102 118.856 23.7469 118.388C23.8546 118.175 23.978 117.988 24.0848 117.849C24.2176 117.676 24.2551 117.669 24.1695 117.727L22.7672 115.657ZM27.26 111.417C26.5427 112.106 25.4499 113.15 24.503 114.044C24.0291 114.492 23.5946 114.899 23.2629 115.205C23.0965 115.358 22.9601 115.482 22.8591 115.572C22.7278 115.688 22.7193 115.69 22.7672 115.657L24.1695 117.727C24.2864 117.648 24.4301 117.52 24.5182 117.442C24.6366 117.337 24.7866 117.2 24.9575 117.043C25.3002 116.727 25.7432 116.312 26.2195 115.862C27.1729 114.961 28.2709 113.912 28.9912 113.221L27.26 111.417ZM30.6512 110.273C29.8448 110.063 29.0618 110.339 28.5858 110.559C28.0623 110.802 27.6031 111.125 27.3199 111.363L28.9312 113.275C29.0747 113.154 29.3485 112.961 29.6377 112.827C29.7793 112.762 29.8952 112.724 29.9792 112.707C30.0663 112.69 30.0711 112.705 30.0223 112.692L30.6512 110.273ZM33.1478 108.281C33.2601 108.97 33.148 109.352 33.0328 109.561C32.9156 109.774 32.7189 109.946 32.4197 110.079C32.1115 110.217 31.7382 110.29 31.3735 110.311C30.9978 110.332 30.7273 110.292 30.6512 110.273L30.0223 112.692C30.4118 112.793 30.953 112.839 31.5146 112.807C32.0872 112.775 32.7768 112.657 33.4366 112.363C34.1055 112.065 34.7819 111.567 35.2227 110.767C35.6655 109.963 35.7961 108.989 35.6153 107.879L33.1478 108.281ZM32.1439 104.18C32.4235 105.051 32.8256 106.302 33.1478 108.281L35.6153 107.879C35.2634 105.718 34.8176 104.33 34.5242 103.416L32.1439 104.18ZM31.7693 102.281C31.7365 102.65 31.8032 102.997 31.8712 103.271C31.9406 103.549 32.0426 103.865 32.1439 104.18L34.5242 103.416C34.4139 103.072 34.3418 102.846 34.2971 102.666C34.2511 102.482 34.2637 102.455 34.2595 102.502L31.7693 102.281ZM34.6589 98.0375C32.7331 99.8035 31.8935 100.883 31.7693 102.281L34.2595 102.502C34.2897 102.163 34.3993 101.668 36.3485 99.8801L34.6589 98.0375ZM41.0581 91.9256C39.6619 93.436 36.0894 96.7258 34.6589 98.0375L36.3485 99.8801C37.7403 98.6039 41.4095 95.2283 42.8939 93.6227L41.0581 91.9256ZM57.0981 76.4624L41.1085 91.8741L42.8434 93.6741L58.833 78.2624L57.0981 76.4624ZM57.1478 76.416C57.1363 76.4267 57.1269 76.4355 57.1178 76.4438L58.8133 78.281C58.8263 78.269 58.8391 78.2571 58.8501 78.2469L57.1478 76.416ZM60.2572 75.3941C59.3755 75.4188 58.7195 75.533 58.2009 75.7363C57.6418 75.9555 57.3296 76.247 57.1478 76.416L58.8501 78.2469C58.9674 78.1379 59.001 78.1079 59.1133 78.0639C59.2661 78.004 59.6073 77.9133 60.3272 77.8931L60.2572 75.3941ZM62.7862 73.2021C62.43 73.6065 61.7988 74.206 61.1754 74.7037C60.8651 74.9515 60.5835 75.1524 60.3604 75.2856C60.2487 75.3524 60.1722 75.3897 60.129 75.4074C60.0698 75.4316 60.1258 75.3978 60.2572 75.3941L60.3272 77.8931C60.63 77.8847 60.8959 77.7948 61.0762 77.721C61.2724 77.6407 61.4648 77.538 61.6424 77.4319C61.998 77.2195 62.3767 76.9437 62.7353 76.6573C63.4501 76.0866 64.1922 75.3881 64.6621 74.8547L62.7862 73.2021ZM65.7387 67.9446C64.2912 69.1245 63.4775 70.3502 63.0256 71.4518C62.5762 72.5474 62.5096 73.4638 62.477 73.9438L64.9713 74.1129C64.9989 73.7055 65.0454 73.1152 65.3386 72.4006C65.6293 71.692 66.1877 70.804 67.3183 69.8825L65.7387 67.9446ZM69.8449 64.032L65.6668 68.008L67.3902 69.8191L71.5683 65.8431L69.8449 64.032ZM65.2213 61.2229L69.823 65.8217L71.5902 64.0534L66.9885 59.4546L65.2213 61.2229ZM31.5571 96.2531L66.9837 61.2277L65.226 59.4499L29.7995 94.4753L31.5571 96.2531ZM28.4237 97.9459C29.1914 97.8746 29.8853 97.5227 30.3811 97.2046C30.8935 96.8757 31.3223 96.4993 31.5816 96.2283L29.775 94.5002C29.6434 94.6377 29.3662 94.8853 29.0308 95.1006C28.6787 95.3265 28.3829 95.4389 28.1923 95.4566L28.4237 97.9459ZM26.0793 99.1758C26.8185 98.5061 27.168 98.2602 27.4181 98.1415C27.6296 98.0411 27.8246 98.0016 28.4237 97.9459L28.1923 95.4566C27.5936 95.5123 26.9974 95.5738 26.3459 95.8831C25.7329 96.1741 25.1474 96.6467 24.4007 97.3233L26.0793 99.1758ZM14.8692 109.938C18.1332 106.778 24.9107 100.235 26.0793 99.1758L24.4007 97.3233C23.192 98.4185 16.3691 105.006 13.1302 108.142L14.8692 109.938ZM11.6322 112.463C12.5991 111.789 13.8655 110.91 14.8693 109.938L13.1301 108.142C12.2971 108.949 11.2052 109.714 10.2028 110.412L11.6322 112.463ZM9.89862 112.348C10.0789 112.518 10.2182 112.777 10.2299 113.083C10.2398 113.342 10.1527 113.517 10.1237 113.57C10.0757 113.658 10.0596 113.642 10.2181 113.503C10.504 113.252 10.9804 112.917 11.6322 112.463L10.2028 110.412C9.60303 110.83 8.98507 111.258 8.56763 111.625C8.37444 111.795 8.10437 112.052 7.92943 112.373C7.83694 112.542 7.71811 112.824 7.73172 113.178C7.74709 113.579 7.92541 113.923 8.18383 114.167L9.89862 112.348ZM26.3757 106.674L19.9938 112.798L21.7248 114.602L28.1067 108.477L26.3757 106.674ZM27.0161 105.887C27.0008 105.821 27.0447 105.88 26.9014 106.109C26.7705 106.317 26.5808 106.505 26.469 106.593L28.0134 108.559C28.31 108.326 28.7097 107.931 29.0195 107.437C29.317 106.962 29.6532 106.197 29.452 105.325L27.0161 105.887ZM26.5569 103.211C26.6263 103.735 26.816 105.021 27.0161 105.887L29.452 105.325C29.2803 104.581 29.103 103.394 29.0353 102.883L26.5569 103.211ZM26.2498 103.11C26.4205 102.971 26.4731 102.99 26.4153 102.995C26.3479 103 26.3034 102.973 26.3105 102.977C26.3317 102.991 26.389 103.041 26.4606 103.148C26.5298 103.252 26.584 103.367 26.6164 103.46L28.9758 102.633C28.8045 102.144 28.4116 101.374 27.698 100.898C27.3104 100.639 26.8086 100.458 26.2255 100.502C25.6521 100.546 25.1308 100.798 24.6734 101.169L26.2498 103.11ZM18.8802 110.07C20.8666 108.125 25.051 104.084 26.2498 103.11L24.6734 101.169C23.3603 102.236 19.0688 106.387 17.1314 108.283L18.8802 110.07ZM19.9693 112.822C19.2772 113.524 18.9116 113.497 18.8601 113.489C18.8019 113.479 18.6004 113.408 18.403 112.985C18.2122 112.576 18.119 112.004 18.1964 111.434C18.2731 110.868 18.5011 110.407 18.8342 110.112L17.1773 108.24C16.2961 109.02 15.8565 110.085 15.7191 111.098C15.5823 112.106 15.7285 113.166 16.1375 114.042C16.5399 114.904 17.2986 115.772 18.4678 115.958C19.6437 116.145 20.7727 115.568 21.7493 114.578L19.9693 112.822Z" fill="#323232"/>
<path d="M42.5457 94.8726L40.5392 94.1537L54.8044 80.4162L55.6276 81.2502L53.293 83.5534C53.7103 84.0064 53.4395 84.2982 53.3015 84.4452L48.8576 88.8819L48.3067 90.037C48.0541 90.3833 48.4626 91.0638 48.0692 91.6697C47.6008 92.3912 47.9945 93.732 48.3143 94.3612C49.6034 96.7017 50.9771 99.3429 51.6002 99.6486C53.4202 100.542 52.2117 101.725 51.4702 102.174C51.143 102.389 50.2611 102.95 49.351 103.47C48.4409 103.991 47.6272 103.51 47.3342 103.204L42.5457 94.8726Z" fill="white" stroke="#323232" stroke-width="2"/>
<path d="M51.8405 90.3098C50.4152 90.3768 49.946 90.1512 49.0336 88.8061C49.2535 88.6537 49.4782 88.4293 49.5474 88.6107C49.9046 89.546 51.023 90.2781 52.1418 90.0768C52.1494 90.1991 52.0342 90.3007 51.8405 90.3098Z" fill="#323232" stroke="#323232" stroke-width="0.4"/>
<path d="M52.5978 90.7284C51.3228 92.9097 49.4556 91.6736 48.5721 90.8595L48.5806 90.4629C50.4531 92.4321 51.9513 91.4385 52.4664 90.6956C52.6086 90.4231 53.037 89.6666 53.6128 88.8204C54.1887 87.9741 54.2403 87.6087 54.199 87.3456C53.9696 86.3102 52.4208 85.4451 51.9015 85.514C52.3486 85.1551 53.2355 84.4646 53.2055 84.5745C53.1679 84.7119 53.3575 85.5433 54.1318 85.7262C54.3663 85.7816 54.543 85.6137 55.1087 85.2304C55.1438 85.4947 55.252 85.5156 54.7514 85.9212C54.2948 86.2913 54.633 87.2589 54.2599 88.0491C53.9774 88.5501 53.7495 88.7582 52.5978 90.7284Z" fill="#323232" stroke="#323232" stroke-width="0.4"/>
<path fill-rule="evenodd" clip-rule="evenodd" d="M48.8822 59.1412C48.4344 59.4545 48.321 60.0691 48.6276 60.5215L49.5465 61.8777C49.8683 62.3526 50.5229 62.46 50.9796 62.1128L59.0748 55.9587L61.5026 57.8347C61.8214 58.0863 62.6056 58.5386 63.1918 58.3349C63.9246 58.0804 64.7328 58.2678 65.2423 58.9801L65.2632 59.0108L68.5645 56.3168C68.5811 55.9709 67.9915 55.2674 65.5001 55.2203C64.854 55.208 64.0308 54.9393 63.3155 54.7059C62.8981 54.5696 62.5174 54.4454 62.2302 54.3911C61.9781 54.3435 61.3962 54.2093 60.7198 54.0534C59.7488 53.8295 58.5831 53.5608 57.9188 53.4387C57.5984 53.2855 57.214 53.312 56.9143 53.5216L48.8822 59.1412Z" fill="#323232"/>
<circle cx="19.4966" cy="119.82" r="1.08326" transform="rotate(-34.121 19.4966 119.82)" fill="#323232"/>
<path fill-rule="evenodd" clip-rule="evenodd" d="M57.6565 72.0803L56.4954 73.2246L56.5957 73.3263L52.4609 77.4009L52.4523 77.3922C52.4135 77.3528 52.3502 77.3524 52.3109 77.3911L49.8741 79.7925C49.8348 79.8312 49.8343 79.8945 49.8731 79.9339L49.8818 79.9427L46.0553 83.7136L45.9481 83.6048L44.8599 84.6772C44.7813 84.7547 44.7803 84.8814 44.8579 84.96L45.264 85.3722C45.3416 85.4508 45.4682 85.4518 45.5469 85.3742L46.635 84.3019L46.5231 84.1883L50.3496 80.4174L50.353 80.4208C50.3917 80.4602 50.455 80.4606 50.4944 80.4219L52.9311 78.0205C52.9705 77.9817 52.9709 77.9184 52.9322 77.8791L52.9288 77.8757L57.0635 73.801L57.1781 73.9173L58.3421 72.7702C58.4562 72.6578 58.4575 72.4742 58.3451 72.3601L58.0724 72.0833C57.9584 71.9677 57.7722 71.9663 57.6565 72.0803Z" fill="#323232"/>
<circle cx="39.3013" cy="92.0199" r="0.908839" transform="rotate(-34.121 39.3013 92.0199)" fill="#323232"/>
<circle cx="72.8428" cy="59.9228" r="0.830459" transform="rotate(-34.121 72.8428 59.9228)" fill="#FF0000"/>
<mask id="path-12-outside-1" maskUnits="userSpaceOnUse" x="24.2982" y="55.1443" width="46.5226" height="39.5829" fill="black">
<rect fill="white" x="24.2982" y="55.1443" width="46.5226" height="39.5829"/>
<path d="M34.3019 91.0242L33.4945 89.8325L33.3072 87.8149L33.7736 87.2193L33.8001 85.9287L38.0333 81.6301L37.1421 80.7733L37.5539 79.5929L38.3488 79.2049L40.9742 76.1032C40.9742 76.1032 40.6361 75.557 41.1298 74.9731C41.6413 74.3682 42.2598 74.5896 42.2598 74.5896L42.5281 74.2409L42.464 73.0698L42.9716 72.1343L44.1677 72.7835L43.4297 74.2465L44.0128 74.7L45.0249 73.8137L46.3377 71.3408L55.3383 62.4173L58.04 61.2744L58.3966 60.8358C58.9654 60.7637 60.212 60.7716 60.6479 61.3799C60.8579 61.6729 60.8524 61.7933 60.7568 61.8233L61.2923 61.9548L62.2767 63.1563L34.3019 91.0242Z"/>
</mask>
<path d="M34.3019 91.0242L33.4945 89.8325L33.3072 87.8149L33.7736 87.2193L33.8001 85.9287L38.0333 81.6301L37.1421 80.7733L37.5539 79.5929L38.3488 79.2049L40.9742 76.1032C40.9742 76.1032 40.6361 75.557 41.1298 74.9731C41.6413 74.3682 42.2598 74.5896 42.2598 74.5896L42.5281 74.2409L42.464 73.0698L42.9716 72.1343L44.1677 72.7835L43.4297 74.2465L44.0128 74.7L45.0249 73.8137L46.3377 71.3408L55.3383 62.4173L58.04 61.2744L58.3966 60.8358C58.9654 60.7637 60.212 60.7716 60.6479 61.3799C60.8579 61.6729 60.8524 61.7933 60.7568 61.8233L61.2923 61.9548L62.2767 63.1563L34.3019 91.0242Z" fill="white"/>
<path d="M60.7568 61.8233L61.0564 62.7774L64.4697 61.7053L60.9952 60.8522L60.7568 61.8233ZM60.2905 61.7088L60.5289 60.7377L59.8592 62.6111L60.2905 61.7088ZM60.4571 60.8693C60.5387 60.8437 60.6072 60.8354 60.6523 60.8326C60.6983 60.8298 60.7339 60.8319 60.7554 60.8339C60.796 60.8377 60.8164 60.8441 60.8107 60.8425C60.7989 60.8392 60.7645 60.827 60.7218 60.8066L59.8592 62.6111C59.9724 62.6652 60.1196 62.7264 60.2763 62.7698C60.3547 62.7915 60.4561 62.8146 60.5694 62.8252C60.6716 62.8348 60.8528 62.8413 61.0564 62.7774L60.4571 60.8693ZM60.052 62.68L60.5183 62.7945L60.9952 60.8522L60.5289 60.7377L60.052 62.68ZM34.3019 91.0242L32.6462 92.1461L34.0016 94.1464L35.7134 92.4411L34.3019 91.0242ZM33.4945 89.8325L31.503 90.0173L31.5505 90.529L31.8388 90.9544L33.4945 89.8325ZM33.3072 87.8149L31.7326 86.5818L31.2423 87.2079L31.3158 87.9997L33.3072 87.8149ZM33.7736 87.2193L35.3482 88.4524L35.7595 87.9272L35.7732 87.2604L33.7736 87.2193ZM33.8001 85.9287L32.3751 84.5254L31.8169 85.0922L31.8005 85.8876L33.8001 85.9287ZM38.0333 81.6301L39.4583 83.0335L40.8787 81.5912L39.4194 80.1883L38.0333 81.6301ZM37.1421 80.7733L35.2537 80.1145L34.831 81.3259L35.756 82.2151L37.1421 80.7733ZM37.5539 79.5929L36.6764 77.7957L35.9368 78.1569L35.6656 78.934L37.5539 79.5929ZM38.3488 79.2049L39.2263 81.0021L39.6038 80.8177L39.8753 80.497L38.3488 79.2049ZM40.9742 76.1032L42.5008 77.3954L43.4398 76.286L42.6746 75.0503L40.9742 76.1032ZM42.464 73.0698L40.7061 72.116L40.4361 72.6136L40.467 73.179L42.464 73.0698ZM42.9716 72.1343L43.9258 70.3765L42.1677 69.4222L41.2137 71.1805L42.9716 72.1343ZM44.1677 72.7835L45.9534 73.6842L46.8273 71.9516L45.1218 71.0258L44.1677 72.7835ZM43.4297 74.2465L41.6441 73.3457L40.903 74.8148L42.2018 75.8251L43.4297 74.2465ZM44.0128 74.7L42.7848 76.2786L44.0882 77.2925L45.3304 76.2046L44.0128 74.7ZM45.0249 73.8137L46.3425 75.3183L46.619 75.0762L46.7913 74.7515L45.0249 73.8137ZM46.3377 71.3408L44.9295 69.9206L44.7137 70.1346L44.5712 70.403L46.3377 71.3408ZM55.3383 62.4173L54.5591 60.5753L54.204 60.7255L53.9302 60.997L55.3383 62.4173ZM58.04 61.2744L58.8192 63.1163L59.2777 62.9224L59.5918 62.5361L58.04 61.2744ZM58.3966 60.8358L58.1452 58.8516L57.3503 58.9523L56.8448 59.574L58.3966 60.8358ZM60.6479 61.3799L62.2736 60.2148L62.2736 60.2148L60.6479 61.3799ZM60.7568 61.8233L60.1574 59.9152L53.331 62.0595L60.2799 63.7656L60.7568 61.8233ZM61.2923 61.9548L62.8394 60.6873L62.4168 60.1715L61.7692 60.0125L61.2923 61.9548ZM62.2767 63.1563L63.6882 64.5732L64.9738 63.2925L63.8238 61.8888L62.2767 63.1563ZM41.1298 74.9731L39.6026 73.6817L39.6026 73.6817L41.1298 74.9731ZM42.2598 74.5896L41.5858 76.4726L42.957 76.9635L43.8451 75.8091L42.2598 74.5896ZM42.5281 74.2409L44.1133 75.4604L44.5656 74.8724L44.5251 74.1317L42.5281 74.2409ZM35.9576 89.9023L35.1502 88.7106L31.8388 90.9544L32.6462 92.1461L35.9576 89.9023ZM35.4859 89.6477L35.2986 87.6301L31.3158 87.9997L31.503 90.0173L35.4859 89.6477ZM34.8819 89.0479L35.3482 88.4524L32.1989 85.9862L31.7326 86.5818L34.8819 89.0479ZM35.7732 87.2604L35.7997 85.9698L31.8005 85.8876L31.774 87.1782L35.7732 87.2604ZM35.2251 87.332L39.4583 83.0335L36.6083 80.2268L32.3751 84.5254L35.2251 87.332ZM39.4194 80.1883L38.5282 79.3315L35.756 82.2151L36.6472 83.0719L39.4194 80.1883ZM39.0304 81.4322L39.4423 80.2518L35.6656 78.934L35.2537 80.1145L39.0304 81.4322ZM38.4314 81.3902L39.2263 81.0021L37.4713 77.4076L36.6764 77.7957L38.4314 81.3902ZM39.8753 80.497L42.5008 77.3954L39.4477 74.811L36.8222 77.9127L39.8753 80.497ZM44.222 74.0236L44.7296 73.0881L41.2137 71.1805L40.7061 72.116L44.222 74.0236ZM42.0175 73.892L43.2135 74.5412L45.1218 71.0258L43.9258 70.3765L42.0175 73.892ZM42.382 71.8828L41.6441 73.3457L45.2154 75.1472L45.9534 73.6842L42.382 71.8828ZM42.2018 75.8251L42.7848 76.2786L45.2407 73.1214L44.6577 72.6678L42.2018 75.8251ZM45.3304 76.2046L46.3425 75.3183L43.7072 72.3091L42.6952 73.1954L45.3304 76.2046ZM46.7913 74.7515L48.1042 72.2787L44.5712 70.403L43.2584 72.8759L46.7913 74.7515ZM47.7458 72.7611L56.7464 63.8375L53.9302 60.997L44.9295 69.9206L47.7458 72.7611ZM56.1175 64.2592L58.8192 63.1163L57.2607 59.4324L54.5591 60.5753L56.1175 64.2592ZM59.5918 62.5361L59.9484 62.0975L56.8448 59.574L56.4882 60.0127L59.5918 62.5361ZM58.648 62.8199C58.7028 62.8129 58.803 62.8048 58.9259 62.8048C59.0488 62.8049 59.1651 62.8132 59.2603 62.8282C59.3625 62.8444 59.3898 62.8603 59.3636 62.8484C59.3391 62.8372 59.176 62.7594 59.0223 62.5449L62.2736 60.2148C61.5646 59.2256 60.4386 58.9647 59.8839 58.8771C59.2232 58.7729 58.5755 58.7971 58.1452 58.8516L58.648 62.8199ZM59.0223 62.5449C59.1005 62.654 58.9216 62.4528 58.8498 62.0609C58.8074 61.8299 58.7713 61.3559 59.0438 60.8435C59.3369 60.2924 59.81 60.0244 60.1574 59.9152L61.3561 63.7314C61.7514 63.6073 62.2611 63.3129 62.5755 62.7216C62.8693 62.169 62.8395 61.641 62.7842 61.3395C62.6865 60.8066 62.4053 60.3987 62.2736 60.2148L59.0223 62.5449ZM60.2799 63.7656L60.8154 63.8971L61.7692 60.0125L61.2337 59.881L60.2799 63.7656ZM59.7453 63.2223L60.7296 64.4238L63.8238 61.8888L62.8394 60.6873L59.7453 63.2223ZM60.8652 61.7394L32.8904 89.6073L35.7134 92.4411L63.6882 64.5732L60.8652 61.7394ZM40.9742 76.1032C42.6746 75.0503 42.6752 75.0512 42.6758 75.0522C42.676 75.0525 42.6766 75.0534 42.677 75.0541C42.6777 75.0553 42.6785 75.0565 42.6793 75.0578C42.6808 75.0603 42.6823 75.0627 42.6838 75.0652C42.6867 75.0701 42.6897 75.0749 42.6925 75.0798C42.6982 75.0894 42.7037 75.0988 42.709 75.1081C42.7196 75.1266 42.7294 75.1448 42.7385 75.1625C42.7567 75.1977 42.7731 75.2332 42.7876 75.2697C42.8154 75.3398 42.8431 75.4303 42.8551 75.5406C42.8849 75.8139 42.8021 76.093 42.657 76.2645L39.6026 73.6817C38.9638 74.4372 38.8032 75.2813 38.8786 75.9737C38.9135 76.2935 38.9948 76.5571 39.0707 76.7478C39.1091 76.8446 39.1481 76.9273 39.1828 76.9947C39.2002 77.0285 39.2168 77.0589 39.2321 77.0857C39.2397 77.0992 39.2471 77.1118 39.254 77.1235C39.2575 77.1293 39.2609 77.135 39.2642 77.1404C39.2659 77.1431 39.2675 77.1458 39.2691 77.1484C39.2699 77.1497 39.2707 77.151 39.2715 77.1523C39.2719 77.1529 39.2725 77.1539 39.2727 77.1542C39.2732 77.1551 39.2738 77.1561 40.9742 76.1032ZM42.657 76.2645C42.5362 76.4074 42.3128 76.5236 42.0712 76.546C41.973 76.5551 41.8876 76.5478 41.8174 76.5357C41.781 76.5295 41.7445 76.5213 41.7072 76.5112C41.6885 76.506 41.6691 76.5003 41.649 76.494C41.6389 76.4908 41.6287 76.4874 41.6181 76.4839C41.6129 76.4821 41.6076 76.4803 41.6022 76.4784C41.5995 76.4775 41.5968 76.4765 41.594 76.4755C41.5927 76.4751 41.5913 76.4746 41.5899 76.4741C41.5892 76.4738 41.5882 76.4735 41.5878 76.4734C41.5868 76.473 41.5858 76.4726 42.2598 74.5896C42.9339 72.7066 42.9329 72.7063 42.9318 72.7059C42.9315 72.7058 42.9304 72.7054 42.9297 72.7051C42.9283 72.7046 42.9269 72.7041 42.9254 72.7036C42.9225 72.7026 42.9196 72.7016 42.9166 72.7005C42.9106 72.6985 42.9044 72.6963 42.898 72.6941C42.8851 72.6898 42.8712 72.6853 42.8565 72.6806C42.8271 72.6713 42.794 72.6614 42.7573 72.6514C42.6842 72.6316 42.5954 72.6108 42.493 72.5932C42.2909 72.5586 42.0189 72.5337 41.7021 72.5631C41.0234 72.626 40.235 72.9339 39.6026 73.6817L42.657 76.2645ZM43.8451 75.8091L44.1133 75.4604L40.9429 73.0215L40.6746 73.3702L43.8451 75.8091ZM44.5251 74.1317L44.4611 72.9606L40.467 73.179L40.5311 74.3501L44.5251 74.1317Z" fill="#323232" mask="url(#path-12-outside-1)"/>
<circle cx="42.1301" cy="75.7521" r="0.403098" transform="rotate(-34.121 42.1301 75.7521)" fill="#323232"/>
<rect x="50.6569" y="69.0551" width="8.48875" height="2.74771" rx="1" transform="rotate(-44.8415 50.6569 69.0551)" stroke="#323232" stroke-width="1.8"/>
<rect x="47.0352" y="81.7168" width="11.8758" height="2.426" rx="0.4" transform="rotate(-44.8415 47.0352 81.7168)" fill="#323232"/>
<path d="M64.9628 59.333L61.5613 62.565L62.661 63.6676L66.1331 60.5137L70.4177 64.4629L79.8884 55.346C79.7753 54.6491 80.2592 53.9091 80.5153 53.6263L89.4645 44.9882L90.4005 44.1579L91.8934 45.6674L94.5395 43.725L92.9762 42.043L94.2061 40.8914L95.5567 39.555L96.0287 39.4382L96.6027 40.1515L97.6078 39.0934L97.0668 38.4174L97.8253 37.6098L97.5957 36.0723L96.5852 33.1187L94.9823 31.4503L94.2853 30.9436L91.8583 33.1496L92.2208 33.4673L91.2021 34.9466L69.0502 56.2204L68.6919 55.8892L64.8561 58.964L64.9628 59.333Z" fill="white" stroke="#323232" stroke-width="2.3"/>
<path d="M72.1076 58.2292L70.9847 57.1825C77.2563 50.9616 90.0437 38.2722 91.0201 37.2815C91.9965 36.2907 92.9849 35.5898 93.357 35.3632L93.9262 36.0418C93.1416 36.5353 93.0748 37.3812 93.1394 37.7425L90.7944 39.6233L87.5724 42.7885L87.2259 43.8289C85.065 45.9148 80.4884 50.3559 79.4701 51.434C78.4518 52.5121 77.5235 52.9147 77.1866 52.9813L72.1076 58.2292Z" fill="#323232"/>
<path fill-rule="evenodd" clip-rule="evenodd" d="M113.508 57.7192C113.579 57.5007 113.553 57.2891 113.417 57.1633C113.2 56.9627 112.787 57.0566 112.494 57.3732L111.546 58.3972L102.053 50.5168C102.136 50.2686 102.072 49.9838 101.867 49.7958L100.889 48.9023C100.65 48.683 100.296 48.6671 100.039 48.8451L96.0171 45.506L96.0498 45.4673C96.121 45.3828 96.1103 45.2567 96.0259 45.1854L95.8025 44.997C95.718 44.9257 95.5919 44.9364 95.5206 45.0209L95.4844 45.0638L91.642 41.8741L90.4923 43.259L94.3237 46.4397L94.2872 46.483C94.216 46.5674 94.2267 46.6936 94.3111 46.7648L94.5345 46.9533C94.619 47.0245 94.7451 47.0138 94.8164 46.9294L94.8564 46.8819L110.322 59.7202L109.441 60.6717C109.148 60.9883 109.086 61.4076 109.303 61.6082C109.454 61.7481 109.701 61.7448 109.935 61.6229C109.951 61.6431 109.968 61.6623 109.987 61.6801C110.177 61.8579 110.484 61.8386 110.673 61.6369L113.622 58.4827C113.811 58.281 113.809 57.9734 113.619 57.7955C113.585 57.7638 113.548 57.7384 113.508 57.7192Z" fill="#323232"/>
<path d="M36.4813 86.9818L45.9058 77.5185L48.3331 72.8333" stroke="#323232" stroke-width="1.5" stroke-linecap="round"/>
<path d="M36.842 80.5508L38.5792 82.14L45.1277 74.5223L44.1212 73.7717" stroke="#323232" stroke-width="1.5"/>
<path fill-rule="evenodd" clip-rule="evenodd" d="M95.099 30.9275L96.6853 32.6115L108.615 20.8931L108.99 21.311L111.874 18.6406L111.636 18.2366C111.188 18.4595 110.717 18.6476 112.417 17.6174C114.117 16.5871 114.463 15.7755 114.424 15.4985C115.472 14.5795 118.685 11.2096 120.16 9.63951C119.864 8.08741 118.829 7.93381 118.373 8.39684C116.665 10.1322 113.059 13.6582 112.306 13.8791C111.553 14.1001 110.962 15.005 110.761 15.4299L110.119 15.9977L109.732 15.731L109.308 16.0182L106.125 12.6719C105.901 12.0695 105.205 11.6308 104.885 11.4868L103.649 12.7854L104.768 14.0973L107.051 19.3379L95.099 30.9275ZM107.696 18.3446L108.989 17.0602L106.661 14.6362L106.231 14.9279L107.696 18.3446Z" fill="#323232"/>
<rect x="58.7891" y="79.6094" width="11.6859" height="16.5403" rx="2" transform="rotate(-42.8135 58.7891 79.6094)" fill="#323232"/>
</svg>
