<svg width="129" height="129" viewBox="0 0 129 129" fill="none" xmlns="http://www.w3.org/2000/svg">
<mask id="mask0" mask-type="alpha" maskUnits="userSpaceOnUse" x="0" y="0" width="129" height="129">
<rect x="0.445312" y="0.168945" width="128" height="128" fill="#C4C4C4"/>
</mask>
<g mask="url(#mask0)">
<path d="M62.0234 63.377L57.2958 58.6493L11.8866 104.058L16.6142 108.786L62.0234 63.377Z" fill="black"/>
<path d="M93.6626 54.3691C94.0108 54.021 94.0107 53.4565 93.6626 53.1084L86.6738 46.1196C86.3256 45.7714 85.7612 45.7714 85.413 46.1196L57.3902 74.1424C55.6496 75.883 55.6496 78.7052 57.3902 80.4459L59.3363 82.3919C61.0769 84.1326 63.8991 84.1326 65.6398 82.3919L93.6626 54.3691Z" fill="white"/>
<path fill-rule="evenodd" clip-rule="evenodd" d="M95.43 51.3406L88.4411 44.3518C87.1167 43.0273 84.9693 43.0273 83.6449 44.3518L55.6221 72.3746C52.9051 75.0916 52.9051 79.4967 55.6221 82.2137L57.5681 84.1597C60.2851 86.8767 64.6902 86.8767 67.4072 84.1597L95.43 56.1369C96.7545 54.8124 96.7544 52.6651 95.43 51.3406ZM93.6622 53.1084C94.0104 53.4565 94.0104 54.021 93.6622 54.3691L65.6394 82.3919C63.8988 84.1326 61.0766 84.1326 59.3359 82.3919L57.3899 80.4459C55.6492 78.7052 55.6492 75.883 57.3899 74.1424L85.4127 46.1196C85.7608 45.7714 86.3252 45.7714 86.6734 46.1196L93.6622 53.1084Z" fill="#323232"/>
<path d="M99.25 29.4872L91.1858 21.423L35.3227 77.286C33.5821 79.0267 33.5821 81.8489 35.3227 83.5896L37.0834 85.3502C38.8241 87.0909 41.6463 87.0909 43.3869 85.3502L99.25 29.4872Z" fill="white"/>
<path fill-rule="evenodd" clip-rule="evenodd" d="M91.1858 24.9585L95.7145 29.4872L41.6192 83.5825C40.8548 84.3468 39.6155 84.3468 38.8511 83.5825L37.0905 81.8218C36.3261 81.0574 36.3261 79.8182 37.0905 79.0538L91.1858 24.9585ZM99.25 29.4872L43.3869 85.3502C41.6463 87.0909 38.8241 87.0909 37.0834 85.3502L35.3227 83.5896C33.5821 81.8489 33.5821 79.0267 35.3227 77.286L91.1858 21.423L99.25 29.4872Z" fill="#323232"/>
<path d="M116.268 12.3261L108.303 4.36089C108.303 4.36089 101.966 8.98388 97.6918 12.4724C93.4173 15.9608 84.1969 25.97 84.1969 25.97L94.6613 36.4344C94.6613 36.4344 105.116 26.9707 108.155 22.9358C111.194 18.9009 116.268 12.3261 116.268 12.3261Z" fill="white"/>
<path fill-rule="evenodd" clip-rule="evenodd" d="M112.947 12.5407C112.496 13.1272 111.956 13.8295 111.368 14.596C109.719 16.7449 107.685 19.4048 106.158 21.4318C104.783 23.2579 101.567 26.4903 98.5385 29.3936C97.099 30.7738 95.7468 32.0376 94.7357 32.9733L87.6713 25.9089C88.583 24.9379 89.8018 23.6505 91.1392 22.2666C93.9949 19.3114 97.2684 16.0448 99.2725 14.4092C101.37 12.6973 103.991 10.6935 106.102 9.10707C106.831 8.55914 107.497 8.06315 108.055 7.64895L112.947 12.5407ZM84.1969 25.97L94.6613 36.4344C94.6613 36.4344 105.116 26.9707 108.155 22.9358C111.194 18.9009 116.268 12.3261 116.268 12.3261L108.303 4.36089C108.303 4.36089 101.966 8.98388 97.6918 12.4724C93.4173 15.9608 84.1969 25.97 84.1969 25.97Z" fill="#323232"/>
<path d="M43.4383 85.7946L34.8314 77.1877C34.8314 77.1877 20.8155 89.3524 15.4959 93.8227C10.1764 98.2929 4.65729 104.664 4.65729 104.664L3.90385 107.288L13.1506 116.535L15.9648 115.971C15.9648 115.971 22.8801 110.128 26.8023 105.129C30.7245 100.131 43.4383 85.7946 43.4383 85.7946Z" fill="white"/>
<path fill-rule="evenodd" clip-rule="evenodd" d="M40.0083 85.9001C39.8532 86.076 39.6884 86.2629 39.5148 86.4598C38.2596 87.8842 36.5447 89.836 34.7066 91.9447C31.0499 96.1398 26.8446 101.026 24.8356 103.586C22.9935 105.933 20.3949 108.54 18.2005 110.603C17.1141 111.624 16.1471 112.493 15.4528 113.105C15.21 113.32 15.0009 113.502 14.8321 113.649L13.9721 113.821L6.71334 106.562L6.90542 105.893C7.05073 105.729 7.2375 105.519 7.46085 105.271C8.04931 104.618 8.88993 103.698 9.89396 102.642C11.9125 100.518 14.5486 97.8843 17.1043 95.7366C19.7792 93.4888 24.6261 89.3187 28.7924 85.721C30.8781 83.9199 32.7974 82.2587 34.1952 81.0479C34.3757 80.8914 34.5476 80.7425 34.71 80.6018L40.0083 85.9001ZM34.8314 77.1877L43.4383 85.7946C43.4383 85.7946 30.7245 100.131 26.8023 105.129C22.8801 110.128 15.9648 115.971 15.9648 115.971L13.1506 116.535L3.90385 107.288L4.65729 104.664C4.65729 104.664 10.1764 98.2929 15.4959 93.8227C20.8155 89.3524 34.8314 77.1877 34.8314 77.1877Z" fill="#323232"/>
<path d="M25.1509 108.786C25.499 108.438 25.499 107.873 25.1509 107.525L13.1505 95.5247C12.8023 95.1766 12.2379 95.1766 11.8898 95.5247L9.46962 97.9449C9.12148 98.293 9.12148 98.8574 9.46962 99.2056L21.47 111.206C21.8182 111.554 22.3826 111.554 22.7308 111.206L25.1509 108.786Z" fill="#323232"/>
<path d="M43.6128 86.1452C44.3756 85.0813 44.2561 83.6216 43.3304 82.6959L37.8788 77.2443C36.9658 76.3313 35.531 76.2009 34.4685 76.9344L29.1638 80.5961C27.7894 81.5448 27.6111 83.5072 28.792 84.6881L35.8041 91.7002C36.9713 92.8674 38.9068 92.7089 39.8686 91.3674L43.6128 86.1452Z" fill="white"/>
<path fill-rule="evenodd" clip-rule="evenodd" d="M36.111 79.012L41.5626 84.4636C41.623 84.524 41.6308 84.6192 41.581 84.6885L37.8369 89.9107C37.7742 89.9982 37.648 90.0085 37.5719 89.9324L30.5597 82.9203C30.4827 82.8433 30.4944 82.7153 30.584 82.6535L35.8887 78.9918C35.9579 78.944 36.0515 78.9525 36.111 79.012ZM43.3304 82.6959C44.2561 83.6216 44.3756 85.0813 43.6128 86.1452L39.8686 91.3674C38.9068 92.7089 36.9713 92.8674 35.8041 91.7002L28.792 84.6881C27.6111 83.5072 27.7894 81.5448 29.1638 80.5961L34.4685 76.9344C35.531 76.2009 36.9658 76.3313 37.8788 77.2443L43.3304 82.6959Z" fill="#323232"/>
<path d="M78.375 47.8495L73.2349 42.7094L71.217 44.7273L76.3571 49.8674L78.375 47.8495Z" fill="#323232"/>
<path d="M67.4883 58.7385L62.3482 53.5984L60.3303 55.6163L65.4704 60.7564L67.4883 58.7385Z" fill="#323232"/>
<path d="M67.9219 54.7465L65.9248 52.7494L59.481 59.1932L61.478 61.1903L67.9219 54.7465Z" fill="#323232"/>
<path d="M56.5977 69.6274L51.4575 64.4873L49.4396 66.5052L54.5797 71.6454L56.5977 69.6274Z" fill="#323232"/>
<path fill-rule="evenodd" clip-rule="evenodd" d="M28.2189 106.835L38.694 94.4468L46.5682 101.105L40.6427 108.113C38.1301 111.084 33.6843 111.456 30.7128 108.944L28.2189 106.835ZM38.2812 89.5143L49.4875 98.99C50.5994 99.9302 50.7386 101.594 49.7984 102.706L43.3153 110.373C39.5546 114.82 32.9004 115.377 28.4529 111.616L23.2864 107.248L38.2812 89.5143Z" fill="#323232"/>
<path d="M38.6289 94.1023L36.8212 96.2399L45.369 103.468L47.1766 101.331L38.6289 94.1023Z" fill="#323232"/>
<path fill-rule="evenodd" clip-rule="evenodd" d="M39.7129 102.711C39.7967 102.565 39.9457 102.467 40.1135 102.449L43.8309 102.044L43.6027 99.9476L39.8852 100.352C39.046 100.444 38.3014 100.931 37.8821 101.664L35.2051 106.343C34.9158 106.848 35.0911 107.493 35.5967 107.782C36.1022 108.071 36.7465 107.896 37.0358 107.39L39.7129 102.711Z" fill="#323232"/>
<path d="M68.0345 75.248L66.9645 82.0119L69.7976 80.2916L93.9784 56.1108L80.3237 62.3565L68.6598 74.0203C68.3269 74.3532 68.108 74.783 68.0345 75.248Z" fill="#AEAEAE"/>
<path fill-rule="evenodd" clip-rule="evenodd" d="M69.5403 74.9042C69.3941 75.0504 69.298 75.2391 69.2657 75.4433L68.617 79.544L69.0167 79.3013L88.1837 60.1343L81.0449 63.3995L69.5403 74.9042ZM66.7964 75.0527C66.9112 74.3269 67.2529 73.656 67.7725 73.1364L79.5956 61.3134L93.455 54.9741L94.8589 56.9947L70.5716 81.2819L65.3051 84.4797L66.7964 75.0527Z" fill="#323232"/>
</g>
</svg>
