<svg width="54" height="330" viewBox="0 0 54 330" fill="none" xmlns="http://www.w3.org/2000/svg">
<rect x="19.7539" y="168" width="15" height="144.075" fill="black"/>
<path d="M10.6367 97.5177C7.32301 97.5177 4.63672 100.204 4.63672 103.518L4.63672 192.429C4.63672 200.161 10.9047 206.429 18.6367 206.429H35.8754C43.6073 206.429 49.8754 200.161 49.8754 192.429L49.8754 103.518C49.8754 100.204 47.1891 97.5177 43.8754 97.5177H10.6367Z" fill="#272727" stroke="black" stroke-width="8"/>
<path d="M18.4648 59.1832H36.0511L36.0511 232.426C36.0511 235.74 33.3648 238.426 30.0511 238.426H24.4648C21.1511 238.426 18.4648 235.74 18.4648 232.426L18.4648 59.1832Z" fill="url(#paint0_linear)" stroke="black" stroke-width="8"/>
<path d="M17.2706 12.1268C17.639 9.32876 17.9648 6.83332 18.2081 4.9624L36.5283 4.9624C36.7935 6.73172 37.1405 9.08502 37.5196 11.7567C38.353 17.6283 39.3351 24.9901 39.9503 31.0663C40.5461 36.9503 40.5536 47.4203 40.3961 56.6237C40.318 61.1815 40.2012 65.3589 40.1038 68.3974C40.0916 68.7782 40.0797 69.1411 40.0683 69.4845H14.5508C14.5345 69.0869 14.5175 68.6631 14.5 68.2154C14.3779 65.094 14.2316 60.8186 14.1344 56.198C13.9371 46.8191 13.9558 36.4525 14.6924 31.2211C15.4851 25.5912 16.4775 18.151 17.2706 12.1268Z" fill="#636363" stroke="black" stroke-width="8"/>
<path d="M17.2457 240.232C17.3209 239.042 17.3876 237.974 17.4448 237.054H37.2649C37.3275 237.931 37.3999 238.944 37.4807 240.072C37.7771 244.21 38.1865 249.889 38.638 256.054C39.5401 268.373 40.6131 282.666 41.2895 290.463C41.9444 298.012 41.9469 306.44 41.779 313.036C41.6953 316.322 41.5701 319.129 41.4659 321.111C41.4159 322.063 41.3708 322.824 41.3376 323.356L39.9457 325.869H15.1058L13.3016 323.162C13.2606 322.603 13.2066 321.828 13.147 320.877C13.0164 318.791 12.8596 315.861 12.7554 312.497C12.5456 305.722 12.556 297.366 13.3727 290.597C14.2412 283.398 15.318 269.02 16.1729 256.552C16.6019 250.295 16.9775 244.481 17.2457 240.232Z" fill="#272727" stroke="black" stroke-width="8"/>
<mask id="path-6-inside-1" fill="white">
<rect x="6.21875" y="296.537" width="42.0751" height="11.6786" rx="2"/>
</mask>
<rect x="6.21875" y="296.537" width="42.0751" height="11.6786" rx="2" fill="#434343" stroke="black" stroke-width="11.6786" mask="url(#path-6-inside-1)"/>
<path d="M16.7969 233.985C16.9562 233.019 17.7913 232.31 18.7703 232.31H36.0672C37.0328 232.31 37.8604 233 38.0345 233.95L40.6409 248.174C40.866 249.402 39.9226 250.534 38.6737 250.534H16.4255C15.1911 250.534 14.2514 249.427 14.4521 248.209L16.7969 233.985Z" fill="#444444" stroke="black" stroke-width="8"/>
<rect x="18.4453" y="117.424" width="16.3086" height="6.40246" fill="black"/>
<rect x="18.4453" y="151.973" width="16.3086" height="6.40246" fill="black"/>
<rect x="28.9648" y="146.448" width="7.85145" height="17.4537" fill="black"/>
<rect x="18.4453" y="186.522" width="16.3086" height="6.40246" fill="black"/>
<defs>
<linearGradient id="paint0_linear" x1="27.258" y1="55.1832" x2="27.258" y2="242.426" gradientUnits="userSpaceOnUse">
<stop stop-color="#636363"/>
<stop offset="1" stop-color="#3F3F3F"/>
</linearGradient>
</defs>
</svg>
