<?xml version="1.0" encoding="UTF-8" standalone="no"?>
<svg
   width="112.48659"
   height="104.71927"
   version="1.1"
   id="svg14"
   sodipodi:docname="45eb9e0d8d58094293bf937f783b93c0.svg"
   xmlns:inkscape="http://www.inkscape.org/namespaces/inkscape"
   xmlns:sodipodi="http://sodipodi.sourceforge.net/DTD/sodipodi-0.dtd"
   xmlns="http://www.w3.org/2000/svg"
   xmlns:svg="http://www.w3.org/2000/svg">
  <defs
     id="defs18" />
  <sodipodi:namedview
     id="namedview16"
     pagecolor="#ffffff"
     bordercolor="#666666"
     borderopacity="1.0"
     inkscape:pageshadow="2"
     inkscape:pageopacity="0.0"
     inkscape:pagecheckerboard="0" />
  <path
     d="m 106.92256,1.4145 -72.321999,41.755 3.907,6.767 17.785,-10.268 1.687,-2.554 42.680999,-24.643 1.87,0.501 8.3,-4.791 c -0.372,-1.34 -2.864,-5.842 -3.907,-6.767 z m -2.843,15.405 -1.185,0.685 -1.87,-0.5 -39.806999,22.982 -1.687,2.554 -2.37,1.37 2.053,3.556 c 0,0 39.215,-22.124 45.550999,-29.46 z"
     fill="#ffffff"
     stroke="#323232"
     stroke-width="2.829"
     id="path2" />
  <path
     d="m 53.602561,45.9635 -16.598,9.583 -5.569,-9.645 -6.077,7.77 c 7.32,0.472 10.296,8.853 10.296,8.853 l 20.002,-13.005 z m -33.129,13.421 c -9.539,11.861 -16.9400004,21.412 -18.6410004,38.206 -0.488,2.182 -0.87599998,5.033 0.82,5.555 1.954,0.693 5.983,-1.681 9.4700004,-3.358 1.817,-0.874 3.292,-1.958 3.26,-3.869 -0.22,-11.013 3.816,-21.468 15.47,-30.004 -1.368,-5.15 -5.883,-7.652 -10.379,-6.53 z"
     fill="#ffffff"
     stroke="#323232"
     stroke-width="2.829"
     id="path4" />
  <path
     d="m 42.202561,71.0875 -7.813,4.423 c -3.685,1.933 -10.13,-2.3 -10.13,-2.3 l 1.739,-2.225 c 0,0 4.07,3.77 7.214,2.646 l 7.58,-4.351 c 1.223,-0.823 2.1,-2.833 2.1,-2.833 0.365,-2.569 -1.09,-3.62 -1.09,-3.62 -2.578,-2.03 -6.192,-1.174 -2.433,-3.242 1.368,-0.228 3.687,0.983 4.454,2.015 0.183,0.27 2.049,3.18 1.032,5.994 -0.422,1.477 -1.745,2.664 -2.653,3.493 z"
     fill="#323232"
     id="path6" />
  <path
     d="m 34.284561,64.6675 c -0.602,3.12 2.248,5.36 2.47,5.436 0.42,0.167 1.268,0.316 1.365,0.206 -0.206,-0.877 -3.53,-2.638 -1.957,-6.732 z m -2.384,1.294 c -2.288,2.48 -2.387,5.376 -1.513,6.481 0.325,0.332 0.755,0.79 0.97,0.92 0.234,0.046 0.088,-0.18 0.013,-0.499 -0.575,-2.439 0.41,-5.066 2.54,-7.885 z"
     fill="#323232"
     id="path8" />
  <path
     d="m 20.775561,53.4025 c 0,0 -1.608,0.122 -4.133,0.14 -0.235,0 -1.206,0.743 -1.206,0.743 -0.695,0.805 1.869,3.54 1.869,3.54 z"
     fill="#ffffff"
     fill-opacity="0.965"
     stroke="#323232"
     stroke-width="2.829"
     id="path10" />
  <path
     d="m 20.668561,59.1755 4.313,-5.082 c 4.004,-1.744 9.666,4.938 10.557,8.42 l -4.835,3.432 c 0.892,-2.902 -5.306,-9.013 -10.035,-6.77 z"
     fill="#ffffff"
     stroke="#323232"
     stroke-width="2.829"
     id="path12" />
</svg>
