<svg width="603" height="300" viewBox="0 0 603 300" fill="none" xmlns="http://www.w3.org/2000/svg">
    <path d="M117.2 224.41C240.257 178.025 547.279 62.5531 584.438 44.7715L115.746 217.49L117.2 224.41Z" fill="#707070"
        stroke="#333333" stroke-width="5" />
    <path fill-rule="evenodd" clip-rule="evenodd"
        d="M84.1857 281.665C92.2182 278.814 103.908 274.666 110.291 260.978C116.872 246.865 120.235 231.286 115.746 217.49C111.256 203.693 106.575 193.508 97.1971 186.995C95.7868 186.015 94.5207 185.114 93.3692 184.293C87.5438 180.145 84.65 178.084 80.8337 178.584C75.3234 179.526 75.9228 184.096 75.9228 184.096L86.1005 220.831L89.9491 234.328L91.6194 249.151C92.9442 260.907 81.7159 266.744 74.154 269.874C62.6876 274.048 53.0007 270.475 46.5142 265.568C39.7111 260.422 36.3866 253.823 36.3866 253.823L26.9897 257.244L32.9733 267.836C35.3835 272.103 38.0425 274.207 40.5937 276.225C41.2094 276.712 41.8188 277.195 42.4168 277.701C51.6383 285.509 63.1384 289.314 82.4021 282.303C82.9723 282.095 83.5682 281.884 84.1857 281.665Z"
        fill="#797979" />
    <path
        d="M110.291 260.978L108.025 259.922L108.025 259.922L110.291 260.978ZM84.1857 281.665L83.3496 279.309L83.3496 279.309L84.1857 281.665ZM97.1971 186.995L98.6233 184.942L98.6233 184.942L97.1971 186.995ZM93.3692 184.293L91.919 186.33L91.919 186.33L93.3692 184.293ZM80.8337 178.584L80.5086 176.105L80.4605 176.112L80.4127 176.12L80.8337 178.584ZM75.9228 184.096L73.444 184.421L73.4668 184.595L73.5135 184.764L75.9228 184.096ZM86.1005 220.831L83.6912 221.498L83.6937 221.507L83.6963 221.516L86.1005 220.831ZM89.9491 234.328L92.4333 234.048L92.4101 233.842L92.3532 233.643L89.9491 234.328ZM91.6194 249.151L94.1037 248.871L94.1037 248.871L91.6194 249.151ZM74.154 269.874L75.009 272.224L75.0601 272.205L75.1103 272.184L74.154 269.874ZM46.5142 265.568L45.006 267.562L45.006 267.562L46.5142 265.568ZM36.3866 253.823L38.6193 252.699L37.6195 250.714L35.5316 251.474L36.3866 253.823ZM26.9897 257.244L26.1346 254.894L23.3614 255.904L24.813 258.473L26.9897 257.244ZM32.9733 267.836L35.15 266.606L35.15 266.606L32.9733 267.836ZM40.5937 276.225L39.0425 278.186L39.0425 278.186L40.5937 276.225ZM42.4168 277.701L44.0323 275.793L44.0323 275.793L42.4168 277.701ZM108.025 259.922C102.119 272.587 91.3804 276.459 83.3496 279.309L85.0218 284.021C93.0561 281.17 105.697 276.744 112.556 262.035L108.025 259.922ZM113.368 218.264C117.576 231.194 114.485 246.068 108.025 259.922L112.556 262.035C119.258 247.662 122.894 231.379 118.123 216.716L113.368 218.264ZM95.771 189.048C104.416 195.052 108.894 204.513 113.368 218.264L118.123 216.716C113.619 202.874 108.734 191.964 98.6233 184.942L95.771 189.048ZM91.919 186.33C93.0697 187.149 94.3469 188.059 95.771 189.048L98.6233 184.942C97.2266 183.971 95.9718 183.078 94.8195 182.257L91.919 186.33ZM81.1588 181.063C82.4476 180.894 83.6178 181.12 85.2236 181.928C86.9423 182.794 88.9443 184.211 91.919 186.33L94.8195 182.257C91.9687 180.227 89.6112 178.54 87.4725 177.463C85.2209 176.329 83.0361 175.774 80.5086 176.105L81.1588 181.063ZM75.9228 184.096C78.4016 183.771 78.4017 183.773 78.4019 183.774C78.402 183.775 78.4022 183.776 78.4023 183.777C78.4025 183.779 78.4028 183.78 78.403 183.782C78.4034 183.786 78.4038 183.789 78.4042 183.792C78.4049 183.798 78.4054 183.803 78.4059 183.807C78.4068 183.815 78.4072 183.819 78.4073 183.82C78.4074 183.822 78.4063 183.81 78.4053 183.787C78.4033 183.741 78.4017 183.652 78.4096 183.536C78.4258 183.294 78.4789 182.984 78.6105 182.676C78.8079 182.215 79.3165 181.38 81.2547 181.049L80.4127 176.12C76.8406 176.73 74.8938 178.651 74.0132 180.71C73.6059 181.663 73.4644 182.554 73.4209 183.199C73.3989 183.526 73.4011 183.802 73.4102 184.009C73.4149 184.113 73.4213 184.2 73.4275 184.27C73.4307 184.304 73.4338 184.334 73.4366 184.36C73.438 184.372 73.4393 184.384 73.4406 184.394C73.4412 184.399 73.4418 184.404 73.4424 184.409C73.4427 184.411 73.4429 184.413 73.4432 184.415C73.4433 184.416 73.4435 184.418 73.4436 184.418C73.4438 184.42 73.444 184.421 75.9228 184.096ZM88.5097 220.163L78.332 183.429L73.5135 184.764L83.6912 221.498L88.5097 220.163ZM92.3532 233.643L88.5047 220.145L83.6963 221.516L87.5449 235.014L92.3532 233.643ZM94.1037 248.871L92.4333 234.048L87.4648 234.608L89.1352 249.431L94.1037 248.871ZM75.1103 272.184C78.9457 270.596 83.9895 268.218 87.9174 264.582C91.9234 260.874 94.8774 255.737 94.1037 248.871L89.1352 249.431C89.6862 254.321 87.6885 257.98 84.521 260.912C81.2755 263.917 76.9242 266.022 73.1977 267.564L75.1103 272.184ZM45.006 267.562C51.9816 272.839 62.5475 276.759 75.009 272.224L73.2989 267.525C62.8277 271.336 54.0198 268.111 48.0224 263.574L45.006 267.562ZM36.3866 253.823C34.154 254.948 34.1543 254.949 34.1546 254.95C34.1547 254.95 34.1551 254.95 34.1553 254.951C34.1558 254.952 34.1563 254.953 34.1569 254.954C34.158 254.956 34.1594 254.959 34.161 254.962C34.1641 254.968 34.1681 254.976 34.1729 254.985C34.1825 255.004 34.1955 255.029 34.2118 255.06C34.2443 255.122 34.2902 255.208 34.3495 255.317C34.468 255.534 34.6403 255.839 34.8667 256.218C35.3192 256.975 35.9902 258.027 36.8833 259.244C38.6636 261.672 41.359 264.803 45.006 267.562L48.0224 263.574C44.8663 261.187 42.498 258.446 40.9152 256.287C40.1268 255.212 39.5415 254.293 39.1581 253.652C38.9665 253.332 38.8259 253.082 38.7361 252.917C38.6912 252.835 38.659 252.775 38.6395 252.738C38.6298 252.719 38.6232 252.706 38.6199 252.7C38.6182 252.696 38.6173 252.695 38.6172 252.694C38.6171 252.694 38.6173 252.695 38.6176 252.695C38.6178 252.696 38.618 252.696 38.6183 252.697C38.6184 252.697 38.6187 252.697 38.6187 252.698C38.619 252.698 38.6193 252.699 36.3866 253.823ZM27.8447 259.593L37.2417 256.173L35.5316 251.474L26.1346 254.894L27.8447 259.593ZM35.15 266.606L29.1664 256.014L24.813 258.473L30.7966 269.066L35.15 266.606ZM42.145 274.265C39.6378 272.281 37.3079 270.426 35.15 266.606L30.7966 269.066C33.459 273.779 36.4473 276.132 39.0425 278.186L42.145 274.265ZM44.0323 275.793C43.3973 275.255 42.7554 274.748 42.145 274.265L39.0425 278.186C39.6634 278.677 40.2402 279.134 40.8014 279.609L44.0323 275.793ZM81.5471 279.954C72.1977 283.356 64.9495 284.056 59.0465 283.092C53.166 282.132 48.3911 279.484 44.0323 275.793L40.8014 279.609C45.6641 283.726 51.25 286.885 58.2408 288.026C65.2091 289.164 73.3429 288.261 83.2572 284.652L81.5471 279.954ZM83.3496 279.309C82.7341 279.527 82.1285 279.742 81.5471 279.954L83.2572 284.652C83.8162 284.449 84.4024 284.241 85.0218 284.021L83.3496 279.309Z"
        fill="#333333" />
    <path fill-rule="evenodd" clip-rule="evenodd"
        d="M91.7157 278.73C102.662 250.11 98.938 229.898 80.337 178.682C80.4968 178.646 80.6623 178.614 80.8337 178.584C84.65 178.084 87.5438 180.145 93.3692 184.293L93.3695 184.294C94.5209 185.114 95.7869 186.015 97.1971 186.995C106.575 193.508 111.256 203.693 115.746 217.49C120.235 231.286 116.872 246.865 110.291 260.978C105.722 270.775 98.4348 275.685 91.7157 278.73Z"
        fill="#8B8B8B" />
    <path
        d="M91.7157 278.73L89.3807 277.837L87.208 283.518L92.7476 281.007L91.7157 278.73ZM80.337 178.682L79.7866 176.244L77.0184 176.868L77.9872 179.536L80.337 178.682ZM80.8337 178.584L80.5086 176.105L80.4605 176.112L80.4127 176.12L80.8337 178.584ZM93.3692 184.293L91.9189 186.33L91.9253 186.334L91.9318 186.339L93.3692 184.293ZM93.3695 184.294L94.8197 182.257L94.8133 182.253L94.8069 182.248L93.3695 184.294ZM97.1971 186.995L98.6233 184.942L98.6233 184.942L97.1971 186.995ZM110.291 260.978L112.556 262.035L110.291 260.978ZM94.0508 279.623C99.6543 264.972 101.531 252.351 99.587 236.868C97.6602 221.525 91.9841 203.428 82.6868 177.829L77.9872 179.536C87.2909 205.153 92.7772 222.769 94.626 237.491C96.4573 252.074 94.7233 263.868 89.3807 277.837L94.0508 279.623ZM80.4127 176.12C80.1991 176.156 79.9905 176.198 79.7866 176.244L80.8874 181.121C81.0031 181.095 81.1254 181.071 81.2547 181.049L80.4127 176.12ZM94.8195 182.257C91.9687 180.227 89.6112 178.54 87.4725 177.463C85.2209 176.329 83.0361 175.774 80.5086 176.105L81.1588 181.063C82.4476 180.894 83.6178 181.12 85.2236 181.928C86.9422 182.794 88.9443 184.211 91.9189 186.33L94.8195 182.257ZM94.8069 182.248L94.8066 182.248L91.9318 186.339L91.932 186.339L94.8069 182.248ZM98.6233 184.942C97.2267 183.972 95.972 183.078 94.8197 182.257L91.9192 186.33C93.0698 187.149 94.347 188.059 95.771 189.048L98.6233 184.942ZM118.123 216.716C113.619 202.874 108.734 191.964 98.6233 184.942L95.771 189.048C104.416 195.052 108.894 204.513 113.368 218.264L118.123 216.716ZM112.556 262.035C119.258 247.662 122.894 231.379 118.123 216.716L113.368 218.264C117.576 231.194 114.485 246.068 108.025 259.922L112.556 262.035ZM92.7476 281.007C99.7991 277.812 107.652 272.552 112.556 262.035L108.025 259.922C103.792 268.999 97.0706 273.559 90.6838 276.453L92.7476 281.007Z"
        fill="#333333" />
    <mask id="path-6-inside-1_3_9" fill="white">
        <path fill-rule="evenodd" clip-rule="evenodd"
            d="M22.1025 244.124L89.8593 219.463L94.6475 232.618L26.8907 257.28L26.3962 257.46L26.3909 257.445C22.4422 258.627 18.3466 256.888 17.078 253.402C15.8094 249.917 17.8287 245.951 21.6131 244.318L21.6079 244.304L22.1025 244.124Z" />
    </mask>
    <path fill-rule="evenodd" clip-rule="evenodd"
        d="M22.1025 244.124L89.8593 219.463L94.6475 232.618L26.8907 257.28L26.3962 257.46L26.3909 257.445C22.4422 258.627 18.3466 256.888 17.078 253.402C15.8094 249.917 17.8287 245.951 21.6131 244.318L21.6079 244.304L22.1025 244.124Z"
        fill="#A03B3B" />
    <path
        d="M22.1025 244.124L23.8126 248.822L22.1025 244.124ZM89.8593 219.463L94.5577 217.752L92.8476 213.054L88.1492 214.764L89.8593 219.463ZM94.6475 232.618L96.3576 237.317L101.056 235.607L99.346 230.908L94.6475 232.618ZM26.8907 257.28L28.6008 261.978L26.8907 257.28ZM26.3962 257.46L21.6977 259.17L23.4078 263.868L28.1063 262.158L26.3962 257.46ZM26.3909 257.445L31.0894 255.735L29.4762 251.303L24.9575 252.655L26.3909 257.445ZM21.6131 244.318L23.5941 248.909L27.9248 247.041L26.3116 242.608L21.6131 244.318ZM21.6079 244.304L19.8978 239.606L15.1993 241.316L16.9094 246.014L21.6079 244.304ZM23.8126 248.822L91.5694 224.161L88.1492 214.764L20.3924 239.426L23.8126 248.822ZM85.1608 221.173L89.9491 234.328L99.346 230.908L94.5577 217.752L85.1608 221.173ZM92.9374 227.92L25.1806 252.581L28.6008 261.978L96.3576 237.317L92.9374 227.92ZM25.1806 252.581L24.6861 252.761L28.1063 262.158L28.6008 261.978L25.1806 252.581ZM31.0946 255.75L31.0894 255.735L21.6925 259.155L21.6977 259.17L31.0946 255.75ZM24.9575 252.655C24.0769 252.919 23.2761 252.827 22.7095 252.583C22.1573 252.344 21.8901 252.004 21.7764 251.692L12.3795 255.112C14.7309 261.573 21.866 264.019 27.8244 262.235L24.9575 252.655ZM21.7764 251.692C21.6628 251.38 21.6487 250.947 21.9187 250.41C22.1956 249.858 22.7501 249.273 23.5941 248.909L19.6322 239.728C13.9217 242.192 10.0281 248.652 12.3795 255.112L21.7764 251.692ZM26.3116 242.608L26.3064 242.594L16.9094 246.014L16.9147 246.029L26.3116 242.608ZM23.318 249.002L23.8126 248.822L20.3924 239.426L19.8978 239.606L23.318 249.002Z"
        fill="#333333" mask="url(#path-6-inside-1_3_9)" />
    <rect x="25.4056" y="245.582" width="6" height="9" transform="rotate(-20 25.4056 245.582)" fill="#A66868"
        stroke="#333333" stroke-width="5" />
</svg>