<svg width="605" height="105" viewBox="0 0 605 105" fill="none" xmlns="http://www.w3.org/2000/svg">
    <path d="M104 59C235.5 57.5 563.5 54 604.5 50L105 52L104 59Z" fill="#707070" stroke="#333333" stroke-width="5" />
    <path fill-rule="evenodd" clip-rule="evenodd"
        d="M53.3943 101.51C61.9173 101.579 74.321 101.679 85 91C96.0114 79.9886 104.5 66.5 105 52C105.5 37.5 104.584 26.3278 98 17C97.0098 15.5971 96.1284 14.3168 95.3269 13.1524C91.2717 7.26137 89.2573 4.33497 85.5 3.50001C80 2.50001 79 7.00001 79 7.00001L76 45L75 59L71.5 73.5C68.7241 85 56.1767 86.6445 48.0001 87C35.7978 87 27.9172 80.3294 23.5 73.5C18.8674 66.3374 18.0001 59 18.0001 59L8.00003 59L10 71C10.8056 75.8336 12.5847 78.7202 14.2916 81.4897C14.7035 82.1581 15.1112 82.8196 15.5 83.5C21.4949 93.991 31 101.5 51.5 101.5C52.1068 101.5 52.7391 101.505 53.3943 101.51Z"
        fill="#797979" />
    <path
        d="M85 91L83.2323 89.2322L83.2323 89.2322L85 91ZM53.3943 101.51L53.4145 99.0105L53.4145 99.0105L53.3943 101.51ZM98 17L100.042 15.5583L100.042 15.5583L98 17ZM95.3269 13.1524L93.2676 14.5699L93.2676 14.5699L95.3269 13.1524ZM85.5 3.50001L86.0424 1.05954L85.995 1.04902L85.9472 1.04034L85.5 3.50001ZM79 7.00001L76.5596 6.45768L76.5216 6.62866L76.5078 6.80325L79 7.00001ZM76 45L73.5078 44.8033L73.507 44.8126L73.5064 44.8219L76 45ZM75 59L77.4302 59.5866L77.4789 59.385L77.4937 59.1781L75 59ZM71.5 73.5L73.9302 74.0866L73.9302 74.0866L71.5 73.5ZM48.0001 87V89.5H48.0544L48.1087 89.4977L48.0001 87ZM23.5 73.5L21.4008 74.8577L21.4008 74.8577L23.5 73.5ZM18.0001 59L20.4828 58.7066L20.222 56.5H18.0001L18.0001 59ZM8.00003 59L8.00003 56.5L5.04888 56.5L5.53405 59.411L8.00003 59ZM10 71L12.466 70.589L12.466 70.589L10 71ZM14.2916 81.4897L12.1634 82.8014L12.1634 82.8014L14.2916 81.4897ZM15.5 83.5L17.6706 82.2596L17.6706 82.2596L15.5 83.5ZM83.2323 89.2322C73.3506 99.1139 61.9356 99.0791 53.4145 99.0105L53.3742 104.01C61.899 104.079 75.2914 104.244 86.7678 92.7678L83.2323 89.2322ZM102.502 51.9139C102.033 65.5033 94.0413 78.4232 83.2323 89.2322L86.7678 92.7678C97.9814 81.5541 106.967 67.4967 107.499 52.0862L102.502 51.9139ZM95.9576 18.4417C102.027 27.0405 103 37.4619 102.502 51.9139L107.499 52.0862C108 37.5381 107.141 25.6151 100.042 15.5583L95.9576 18.4417ZM93.2676 14.5699C94.0686 15.7335 94.9577 17.0252 95.9576 18.4417L100.042 15.5583C99.0618 14.169 98.1883 12.9001 97.3861 11.7348L93.2676 14.5699ZM84.9577 5.94048C86.2266 6.22245 87.2491 6.83468 88.4814 8.14377C89.8004 9.54492 91.1969 11.5618 93.2676 14.5699L97.3861 11.7348C95.4017 8.85197 93.7634 6.46012 92.1221 4.71657C90.3941 2.88098 88.5308 1.61252 86.0424 1.05954L84.9577 5.94048ZM79 7.00001C81.4405 7.54234 81.4402 7.54377 81.4399 7.54518C81.4398 7.54563 81.4394 7.54703 81.4392 7.54793C81.4388 7.54973 81.4384 7.55147 81.4381 7.55315C81.4373 7.55651 81.4366 7.55963 81.4359 7.56251C81.4346 7.56828 81.4334 7.5731 81.4325 7.57701C81.4306 7.58482 81.4295 7.58904 81.4292 7.58995C81.4288 7.59167 81.4317 7.58055 81.4386 7.55867C81.4526 7.51412 81.4812 7.43072 81.5286 7.32378C81.6264 7.10258 81.7824 6.82908 82.0114 6.58486C82.3546 6.21872 83.1182 5.60795 85.0528 5.95969L85.9472 1.04034C82.3818 0.392076 79.8954 1.5313 78.3637 3.16516C77.6551 3.92094 77.2174 4.70994 76.9559 5.30125C76.8235 5.60055 76.7311 5.8609 76.6689 6.05854C76.6377 6.15775 76.6138 6.24233 76.596 6.30949C76.5871 6.34311 76.5797 6.37248 76.5737 6.39726C76.5706 6.40965 76.568 6.42091 76.5656 6.43099C76.5645 6.43603 76.5634 6.44078 76.5624 6.44523C76.5619 6.44746 76.5614 6.44961 76.5609 6.45168C76.5607 6.45272 76.5603 6.45422 76.5602 6.45474C76.5599 6.45622 76.5596 6.45768 79 7.00001ZM78.4923 45.1968L81.4923 7.19677L76.5078 6.80325L73.5078 44.8033L78.4923 45.1968ZM77.4937 59.1781L78.4937 45.1781L73.5064 44.8219L72.5064 58.8219L77.4937 59.1781ZM73.9302 74.0866L77.4302 59.5866L72.5698 58.4134L69.0698 72.9134L73.9302 74.0866ZM48.1087 89.4977C52.2559 89.3173 57.809 88.8072 62.7437 86.734C67.7762 84.6197 72.3089 80.8034 73.9302 74.0866L69.0698 72.9134C67.9152 77.6967 64.7863 80.4525 60.807 82.1243C56.7298 83.8373 51.9209 84.3272 47.8915 84.5024L48.1087 89.4977ZM21.4008 74.8577C26.1511 82.2021 34.7388 89.5 48.0001 89.5V84.5C36.8568 84.5 29.6833 78.4567 25.5992 72.1423L21.4008 74.8577ZM18.0001 59C15.5174 59.2935 15.5175 59.2941 15.5175 59.2948C15.5176 59.295 15.5176 59.2957 15.5177 59.2963C15.5178 59.2973 15.518 59.2985 15.5181 59.2998C15.5184 59.3023 15.5188 59.3053 15.5192 59.3088C15.5201 59.3156 15.5211 59.3243 15.5225 59.3348C15.5251 59.3556 15.5287 59.3836 15.5334 59.4183C15.5428 59.4877 15.5564 59.5844 15.575 59.7065C15.6123 59.9507 15.6696 60.2969 15.7529 60.7302C15.9193 61.596 16.19 62.814 16.6128 64.2638C17.4554 67.1539 18.9174 71.018 21.4008 74.8577L25.5992 72.1423C23.45 68.8194 22.162 65.4335 21.4129 62.8642C21.0397 61.5844 20.8041 60.5204 20.6631 59.7866C20.5926 59.4201 20.546 59.1371 20.5178 58.952C20.5037 58.8595 20.4941 58.7916 20.4885 58.75C20.4857 58.7293 20.4839 58.7151 20.483 58.7078C20.4825 58.7041 20.4823 58.7022 20.4823 58.702C20.4822 58.7018 20.4823 58.7022 20.4824 58.7029C20.4824 58.7033 20.4825 58.7038 20.4826 58.7044C20.4826 58.7047 20.4827 58.7053 20.4827 58.7054C20.4827 58.706 20.4828 58.7066 18.0001 59ZM8.00003 61.5L18.0001 61.5L18.0001 56.5L8.00003 56.5L8.00003 61.5ZM12.466 70.589L10.466 58.589L5.53405 59.411L7.53405 71.411L12.466 70.589ZM16.4199 80.1781C14.7423 77.4562 13.1873 74.9167 12.466 70.589L7.53405 71.411C8.42396 76.7505 10.4271 79.9842 12.1634 82.8014L16.4199 80.1781ZM17.6706 82.2596C17.2578 81.5373 16.8282 80.8406 16.4199 80.1781L12.1634 82.8014C12.5788 83.4755 12.9646 84.1019 13.3294 84.7403L17.6706 82.2596ZM51.5 99C41.5506 99 34.5004 97.1781 29.2831 94.2534C24.0856 91.3398 20.5043 87.2185 17.6706 82.2596L13.3294 84.7403C16.4907 90.2725 20.6594 95.1512 26.8381 98.6149C32.9971 102.067 40.9495 104 51.5 104V99ZM53.4145 99.0105C52.7613 99.0052 52.1187 99 51.5 99V104C52.0949 104 52.7169 104.005 53.3742 104.01L53.4145 99.0105Z"
        fill="#333333" />
    <path fill-rule="evenodd" clip-rule="evenodd"
        d="M61.4739 101.328C81.5484 78.1783 84.9622 57.9113 84.9997 3.42236C85.1622 3.44312 85.3289 3.4689 85.5 3.50001C89.2573 4.33497 91.2717 7.26137 95.3269 13.1524L95.327 13.1526C96.1286 14.317 97.0098 15.5972 98 17C104.584 26.3278 105.5 37.5 105 52C104.5 66.5 96.0114 79.9886 85 91C77.3564 98.6437 68.8292 100.765 61.4739 101.328Z"
        fill="#8B8B8B" />
    <path
        d="M61.4738 101.328L59.5851 99.6904L55.6006 104.285L61.6647 103.821L61.4738 101.328ZM84.9997 3.42236L85.3166 0.942522L82.5017 0.582803L82.4997 3.42063L84.9997 3.42236ZM85.5 3.50001L86.0423 1.05954L85.995 1.04902L85.9472 1.04034L85.5 3.50001ZM95.3269 13.1524L93.2676 14.5699L93.272 14.5764L93.2765 14.5828L95.3269 13.1524ZM95.327 13.1526L97.3863 11.7351L97.3819 11.7286L97.3774 11.7222L95.327 13.1526ZM98 17L100.042 15.5583L100.042 15.5583L98 17ZM85 91L86.7678 92.7678L85 91ZM63.3626 102.966C73.6391 91.1152 79.7198 79.8971 83.1881 64.6831C86.6252 49.6062 87.4809 30.659 87.4997 3.42408L82.4997 3.42063C82.4809 30.6746 81.611 49.1054 78.3132 63.5717C75.0466 77.901 69.3831 88.3913 59.5851 99.6904L63.3626 102.966ZM85.9472 1.04034C85.7341 1.00158 85.5239 0.969012 85.3166 0.942522L84.6828 5.90219C84.8005 5.91723 84.9238 5.93622 85.0528 5.95969L85.9472 1.04034ZM97.3861 11.7348C95.4017 8.85197 93.7634 6.46012 92.1221 4.71657C90.3941 2.88098 88.5308 1.61252 86.0423 1.05954L84.9577 5.94048C86.2266 6.22245 87.2491 6.83468 88.4814 8.14377C89.8004 9.54491 91.1969 11.5618 93.2676 14.5699L97.3861 11.7348ZM97.3774 11.7222L97.3772 11.7219L93.2765 14.5828L93.2767 14.5831L97.3774 11.7222ZM100.042 15.5583C99.0619 14.1691 98.1884 12.9003 97.3863 11.7351L93.2678 14.5701C94.0687 15.7337 94.9578 17.0253 95.9576 18.4417L100.042 15.5583ZM107.499 52.0862C108 37.5381 107.141 25.6151 100.042 15.5583L95.9576 18.4417C102.027 27.0405 103 37.4619 102.502 51.9139L107.499 52.0862ZM86.7678 92.7678C97.9814 81.5541 106.967 67.4967 107.499 52.0862L102.502 51.9139C102.033 65.5033 94.0413 78.4232 83.2323 89.2322L86.7678 92.7678ZM61.6647 103.821C69.3838 103.23 78.5625 100.973 86.7678 92.7678L83.2323 89.2322C76.1502 96.3143 68.2745 98.3002 61.283 98.8356L61.6647 103.821Z"
        fill="#333333" />
    <mask id="path-6-inside-1_3_9" fill="white">
        <path fill-rule="evenodd" clip-rule="evenodd"
            d="M7.89477 45H80L80 59L7.89477 59L7.36847 59V58.9847C3.25371 58.7446 3.05176e-05 55.7092 3.05176e-05 52C3.05176e-05 48.2908 3.25371 45.2555 7.36847 45.0153V45L7.89477 45Z" />
    </mask>
    <path fill-rule="evenodd" clip-rule="evenodd"
        d="M7.89477 45H80L80 59L7.89477 59L7.36847 59V58.9847C3.25371 58.7446 3.05176e-05 55.7092 3.05176e-05 52C3.05176e-05 48.2908 3.25371 45.2555 7.36847 45.0153V45L7.89477 45Z"
        fill="#A03B3B" />
    <path
        d="M7.89477 45V50V45ZM80 45L85 45L85 40H80V45ZM80 59V64H85L85 59L80 59ZM7.89477 59V64V59ZM7.36847 59H2.36847V64L7.36847 64L7.36847 59ZM7.36847 58.9847H12.3685V54.268L7.65977 53.9932L7.36847 58.9847ZM7.36847 45.0153L7.65977 50.0068L12.3685 49.732V45.0153L7.36847 45.0153ZM7.36847 45L7.36847 40L2.36847 40L2.36847 45H7.36847ZM7.89477 50L80 50V40L7.89477 40V50ZM75 45L75 59L85 59L85 45L75 45ZM80 54L7.89477 54V64H80V54ZM7.89477 54L7.36847 54L7.36847 64L7.89477 64L7.89477 54ZM12.3685 59V58.9847H2.36847V59H12.3685ZM7.65977 53.9932C6.74212 53.9396 6.021 53.5795 5.57217 53.1561C5.13469 52.7435 5.00003 52.3323 5.00003 52H-4.99997C-4.99997 58.875 0.86825 63.6139 7.07716 63.9762L7.65977 53.9932ZM5.00003 52C5.00003 51.6678 5.13469 51.2566 5.57217 50.8439C6.021 50.4205 6.74212 50.0604 7.65977 50.0068L7.07717 40.0238C0.86825 40.3862 -4.99997 45.125 -4.99997 52H5.00003ZM12.3685 45.0153V45H2.36847V45.0153L12.3685 45.0153ZM7.36847 50L7.89477 50L7.89477 40L7.36847 40L7.36847 50Z"
        fill="#333333" mask="url(#path-6-inside-1_3_9)" />
    <rect x="10.5" y="47.5" width="6" height="9" fill="#A66868" stroke="#333333" stroke-width="5" />
</svg>