<svg width="605" height="105" viewBox="0 0 605 105" fill="none" xmlns="http://www.w3.org/2000/svg">
<path d="M104 45.8769C235.5 47.3769 563.5 50.8769 604.5 54.8769L105 52.8769L104 45.8769Z" fill="#707070" stroke="#333333" stroke-width="5"/>
<path fill-rule="evenodd" clip-rule="evenodd" d="M53.3944 3.36658C61.9174 3.29789 74.321 3.1979 85.0001 13.877C96.0114 24.8883 104.5 38.3769 105 52.8769C105.5 67.3769 104.584 78.5491 98.0001 87.8769C97.0098 89.2798 96.1285 90.5601 95.3269 91.7246C91.2718 97.6156 89.2574 100.542 85.5001 101.377C80.0001 102.377 79.0001 97.8769 79.0001 97.8769L76.0001 59.8769L75.0001 45.8769L71.5001 31.3769C68.7242 19.8769 56.1768 18.2325 48.0002 17.8769C35.7979 17.8769 27.9172 24.5475 23.5001 31.3769C18.8674 38.5396 18.0002 45.8769 18.0002 45.8769H8.00009L10.0001 33.877C10.8057 29.0434 12.5848 26.1568 14.2917 23.3872C14.7036 22.7189 15.1113 22.0574 15.5001 21.377C21.495 10.8859 31.0001 3.37696 51.5001 3.37696C52.1069 3.37696 52.7392 3.37186 53.3944 3.36658Z" fill="#797979"/>
<path d="M85.0001 13.877L83.2323 15.6447L83.2323 15.6447L85.0001 13.877ZM53.3944 3.36658L53.4145 5.8665L53.4145 5.8665L53.3944 3.36658ZM98.0001 87.8769L100.043 89.3187L100.043 89.3187L98.0001 87.8769ZM95.3269 91.7246L93.2677 90.3071L93.2677 90.3071L95.3269 91.7246ZM85.5001 101.377L86.0424 103.817L85.995 103.828L85.9473 103.837L85.5001 101.377ZM79.0001 97.8769L76.5596 98.4193L76.5216 98.2483L76.5078 98.0737L79.0001 97.8769ZM76.0001 59.8769L73.5078 60.0737L73.5071 60.0644L73.5064 60.0551L76.0001 59.8769ZM75.0001 45.8769L77.4303 45.2903L77.479 45.492L77.4937 45.6988L75.0001 45.8769ZM71.5001 31.3769L73.9303 30.7903L73.9303 30.7903L71.5001 31.3769ZM48.0002 17.8769V15.3769H48.0545L48.1087 15.3793L48.0002 17.8769ZM23.5001 31.3769L21.4009 30.0192L21.4009 30.0192L23.5001 31.3769ZM18.0002 45.8769L20.4829 46.1704L20.2221 48.3769H18.0002V45.8769ZM8.00009 45.8769V48.3769H5.04894L5.53411 45.4659L8.00009 45.8769ZM10.0001 33.877L12.4661 34.288L12.4661 34.288L10.0001 33.877ZM14.2917 23.3872L12.1634 22.0755L12.1634 22.0755L14.2917 23.3872ZM15.5001 21.377L17.6707 22.6173L17.6707 22.6173L15.5001 21.377ZM83.2323 15.6447C73.3506 5.76304 61.9357 5.79782 53.4145 5.8665L53.3742 0.866664C61.8991 0.797954 75.2915 0.632772 86.7679 12.1092L83.2323 15.6447ZM102.502 52.9631C102.033 39.3737 94.0414 26.4538 83.2323 15.6447L86.7679 12.1092C97.9815 23.3228 106.967 37.3802 107.499 52.7908L102.502 52.9631ZM95.9577 86.4352C102.027 77.8364 103 67.415 102.502 52.9631L107.499 52.7908C108 67.3388 107.141 79.2619 100.043 89.3187L95.9577 86.4352ZM93.2677 90.3071C94.0687 89.1434 94.9578 87.8517 95.9577 86.4352L100.043 89.3187C99.0618 90.7079 98.1883 91.9768 97.3862 93.1421L93.2677 90.3071ZM84.9578 98.9365C86.2266 98.6545 87.2492 98.0423 88.4815 96.7332C89.8005 95.332 91.197 93.3152 93.2677 90.3071L97.3862 93.1421C95.4018 96.025 93.7635 98.4168 92.1221 100.16C90.3942 101.996 88.5308 103.264 86.0424 103.817L84.9578 98.9365ZM79.0001 97.8769C81.4406 97.3346 81.4402 97.3332 81.4399 97.3318C81.4398 97.3313 81.4395 97.3299 81.4393 97.329C81.4389 97.3272 81.4385 97.3255 81.4381 97.3238C81.4374 97.3204 81.4366 97.3173 81.436 97.3144C81.4346 97.3087 81.4335 97.3039 81.4325 97.2999C81.4306 97.2921 81.4295 97.2879 81.4293 97.287C81.4288 97.2853 81.4317 97.2964 81.4386 97.3183C81.4526 97.3628 81.4813 97.4462 81.5286 97.5532C81.6265 97.7744 81.7825 98.0479 82.0114 98.2921C82.3547 98.6582 83.1183 99.269 85.0529 98.9173L85.9473 103.837C82.3819 104.485 79.8955 103.346 78.3637 101.712C77.6552 100.956 77.2175 100.167 76.9559 99.5757C76.8236 99.2764 76.7311 99.0161 76.669 98.8184C76.6378 98.7192 76.6138 98.6346 76.596 98.5675C76.5871 98.5338 76.5797 98.5045 76.5737 98.4797C76.5707 98.4673 76.568 98.456 76.5657 98.446C76.5645 98.4409 76.5634 98.4362 76.5624 98.4317C76.5619 98.4295 76.5614 98.4273 76.561 98.4253C76.5607 98.4242 76.5604 98.4227 76.5603 98.4222C76.5599 98.4207 76.5596 98.4193 79.0001 97.8769ZM78.4923 59.6802L81.4923 97.6802L76.5078 98.0737L73.5078 60.0737L78.4923 59.6802ZM77.4937 45.6988L78.4937 59.6988L73.5064 60.0551L72.5064 46.0551L77.4937 45.6988ZM73.9303 30.7903L77.4303 45.2903L72.5699 46.4635L69.0699 31.9635L73.9303 30.7903ZM48.1087 15.3793C52.2559 15.5596 57.8091 16.0697 62.7437 18.1429C67.7763 20.2572 72.309 24.0736 73.9303 30.7903L69.0699 31.9636C67.9153 27.1803 64.7863 24.4244 60.8071 22.7526C56.7299 21.0397 51.921 20.5498 47.8916 20.3746L48.1087 15.3793ZM21.4009 30.0192C26.1511 22.6748 34.7388 15.3769 48.0002 15.3769V20.3769C36.8569 20.3769 29.6834 26.4202 25.5993 32.7347L21.4009 30.0192ZM18.0002 45.8769C15.5174 45.5835 15.5175 45.5828 15.5176 45.5822C15.5176 45.5819 15.5177 45.5812 15.5178 45.5807C15.5179 45.5796 15.518 45.5785 15.5182 45.5772C15.5185 45.5746 15.5189 45.5716 15.5193 45.5682C15.5201 45.5613 15.5212 45.5526 15.5225 45.5422C15.5252 45.5213 15.5288 45.4934 15.5335 45.4587C15.5428 45.3892 15.5565 45.2925 15.5751 45.1704C15.6124 44.9262 15.6697 44.5801 15.753 44.1468C15.9193 43.281 16.1901 42.0629 16.6128 40.6131C17.4555 37.7231 18.9174 33.859 21.4009 30.0192L25.5993 32.7347C23.4501 36.0576 22.1621 39.4434 21.4129 42.0127C21.0398 43.2926 20.8041 44.3566 20.6631 45.0903C20.5927 45.4569 20.5461 45.7399 20.5178 45.9249C20.5037 46.0174 20.4942 46.0854 20.4886 46.1269C20.4858 46.1477 20.484 46.1618 20.483 46.1692C20.4826 46.1728 20.4823 46.1748 20.4823 46.175C20.4823 46.1751 20.4823 46.1748 20.4824 46.174C20.4825 46.1736 20.4825 46.1731 20.4826 46.1725C20.4827 46.1722 20.4827 46.1717 20.4827 46.1716C20.4828 46.171 20.4829 46.1704 18.0002 45.8769ZM8.00009 43.3769H18.0002V48.3769H8.00009V43.3769ZM12.4661 34.288L10.4661 46.2879L5.53411 45.4659L7.53411 33.466L12.4661 34.288ZM16.4199 24.6989C14.7424 27.4208 13.1874 29.9603 12.4661 34.288L7.53411 33.466C8.42402 28.1265 10.4271 24.8928 12.1634 22.0755L16.4199 24.6989ZM17.6707 22.6173C17.2579 23.3397 16.8283 24.0363 16.4199 24.6989L12.1634 22.0755C12.5789 21.4014 12.9647 20.775 13.3295 20.1366L17.6707 22.6173ZM51.5001 5.87696C41.5507 5.87696 34.5005 7.69886 29.2831 10.6236C24.0856 13.5371 20.5043 17.6585 17.6707 22.6173L13.3295 20.1366C16.4907 14.6044 20.6594 9.72576 26.8382 6.26209C32.9972 2.80955 40.9495 0.876959 51.5001 0.876959V5.87696ZM53.4145 5.8665C52.7614 5.87176 52.1188 5.87696 51.5001 5.87696V0.876959C52.095 0.876959 52.7169 0.87196 53.3742 0.866664L53.4145 5.8665Z" fill="#333333"/>
<path fill-rule="evenodd" clip-rule="evenodd" d="M61.4739 3.54867C81.5484 26.6987 84.9622 46.9657 84.9998 101.455C85.1623 101.434 85.329 101.408 85.5001 101.377C89.2574 100.542 91.2718 97.6156 95.3269 91.7246L95.3271 91.7243C96.1286 90.5599 97.0099 89.2797 98.0001 87.8769C104.584 78.5491 105.5 67.3769 105 52.8769C104.5 38.3769 96.0114 24.8883 85.0001 13.877C77.3564 6.2333 68.8292 4.11191 61.4739 3.54867Z" fill="#8B8B8B"/>
<path d="M61.4739 3.54867L59.5851 5.18652L55.6007 0.591612L61.6648 1.05597L61.4739 3.54867ZM84.9998 101.455L85.3167 103.934L82.5017 104.294L82.4998 101.456L84.9998 101.455ZM85.5001 101.377L86.0424 103.817L85.995 103.828L85.9473 103.837L85.5001 101.377ZM95.3269 91.7246L93.2676 90.3071L93.2721 90.3006L93.2766 90.2941L95.3269 91.7246ZM95.3271 91.7243L97.3864 93.1419L97.3819 93.1483L97.3774 93.1548L95.3271 91.7243ZM98.0001 87.8769L100.043 89.3187L100.042 89.3187L98.0001 87.8769ZM85.0001 13.877L86.7679 12.1092L85.0001 13.877ZM63.3627 1.91083C73.6392 13.7617 79.7199 24.9799 83.1882 40.1939C86.6252 55.2708 87.481 74.2179 87.4998 101.453L82.4998 101.456C82.481 74.2023 81.6111 55.7715 78.3132 41.3052C75.0466 26.976 69.3832 16.4856 59.5851 5.18652L63.3627 1.91083ZM85.9473 103.837C85.7342 103.875 85.524 103.908 85.3167 103.934L84.6829 98.9748C84.8005 98.9597 84.9238 98.9407 85.0529 98.9173L85.9473 103.837ZM97.3862 93.1421C95.4018 96.025 93.7635 98.4168 92.1221 100.16C90.3942 101.996 88.5308 103.264 86.0424 103.817L84.9578 98.9365C86.2266 98.6545 87.2492 98.0423 88.4815 96.7332C89.8005 95.332 91.197 93.3152 93.2676 90.3071L97.3862 93.1421ZM97.3774 93.1548L97.3772 93.155L93.2766 90.2941L93.2768 90.2939L97.3774 93.1548ZM100.042 89.3187C99.0619 90.7078 98.1885 91.9767 97.3864 93.1419L93.2678 90.3068C94.0688 89.1432 94.9578 87.8516 95.9577 86.4352L100.042 89.3187ZM107.499 52.7908C108 67.3388 107.141 79.2619 100.043 89.3187L95.9577 86.4352C102.027 77.8364 103 67.415 102.502 52.9631L107.499 52.7908ZM86.7679 12.1092C97.9815 23.3228 106.967 37.3802 107.499 52.7908L102.502 52.9631C102.033 39.3737 94.0414 26.4538 83.2323 15.6447L86.7679 12.1092ZM61.6648 1.05597C69.3839 1.64706 78.5626 3.90392 86.7679 12.1092L83.2323 15.6447C76.1503 8.56268 68.2746 6.57675 61.283 6.04138L61.6648 1.05597Z" fill="#333333"/>
<mask id="path-6-inside-1_3_9" fill="white">
<path fill-rule="evenodd" clip-rule="evenodd" d="M7.89483 59.8769L80.0001 59.8769V45.8769L7.89483 45.8769H7.36853V45.8923C3.25377 46.1324 9.15527e-05 49.1678 9.15527e-05 52.8769C9.15527e-05 56.5861 3.25377 59.6215 7.36853 59.8616V59.8769H7.89483Z"/>
</mask>
<path fill-rule="evenodd" clip-rule="evenodd" d="M7.89483 59.8769L80.0001 59.8769V45.8769L7.89483 45.8769H7.36853V45.8923C3.25377 46.1324 9.15527e-05 49.1678 9.15527e-05 52.8769C9.15527e-05 56.5861 3.25377 59.6215 7.36853 59.8616V59.8769H7.89483Z" fill="#A03B3B"/>
<path d="M80.0001 59.8769H85.0001V64.8769H80.0001V59.8769ZM80.0001 45.8769V40.8769H85.0001V45.8769H80.0001ZM7.36853 45.8769H2.36853V40.8769H7.36853V45.8769ZM7.36853 45.8923H12.3685V50.609L7.65983 50.8838L7.36853 45.8923ZM7.36853 59.8616L7.65983 54.8701L12.3685 55.1449V59.8616L7.36853 59.8616ZM7.36853 59.8769V64.8769H2.36853L2.36853 59.8769H7.36853ZM7.89483 54.8769L80.0001 54.8769V64.8769H7.89483V54.8769ZM75.0001 59.8769V45.8769H85.0001V59.8769H75.0001ZM80.0001 50.8769L7.89483 50.8769V40.8769L80.0001 40.8769V50.8769ZM7.89483 50.8769H7.36853V40.8769H7.89483V50.8769ZM12.3685 45.8769V45.8923H2.36853V45.8769H12.3685ZM7.65983 50.8838C6.74218 50.9373 6.02106 51.2974 5.57223 51.7208C5.13475 52.1335 5.00009 52.5447 5.00009 52.8769H-4.99991C-4.99991 46.0019 0.868311 41.2631 7.07723 40.9007L7.65983 50.8838ZM5.00009 52.8769C5.00009 53.2092 5.13475 53.6204 5.57223 54.0331C6.02106 54.4565 6.74218 54.8166 7.65983 54.8701L7.07723 64.8531C0.868311 64.4908 -4.99991 59.7519 -4.99991 52.8769H5.00009ZM12.3685 59.8616V59.8769H2.36853V59.8616L12.3685 59.8616ZM7.36853 54.8769H7.89483V64.8769H7.36853V54.8769Z" fill="#333333" mask="url(#path-6-inside-1_3_9)"/>
<rect x="2.5" y="-2.5" width="6" height="9" transform="matrix(1 0 0 -1 8.00009 54.8769)" fill="#A66868" stroke="#333333" stroke-width="5"/>
</svg>
