<svg width="25" height="130" viewBox="0 0 25 130" fill="none" xmlns="http://www.w3.org/2000/svg">
<path d="M20.0726 52.5334L17.0729 52.5783L20.0726 52.5334C20.0399 50.3478 18.2588 48.5933 16.0731 48.5933H8.2742C6.08842 48.5933 4.30737 50.3478 4.27465 52.5334L3.30459 117.328C3.27117 119.56 5.07158 121.388 7.30415 121.388H17.0431C19.2757 121.388 21.0761 119.56 21.0427 117.328L20.0726 52.5334Z" fill="#88A1AE" stroke="black" stroke-width="6"/>
<rect x="10.2695" y="54.9048" width="3.81322" height="22.9228" rx="1" fill="#536266"/>
<rect x="10.2695" y="56.4321" width="3.81322" height="2.93018" rx="1" fill="#364548"/>
<rect x="10.2695" y="55.9644" width="3.81322" height="2.18607" rx="1" fill="#030303"/>
<path d="M3.0534 119.268L5.01385 119.664L3.0534 119.268L2.45718 122.221C2.08209 124.079 3.50249 125.815 5.39785 125.815H18.9474C20.8427 125.815 22.2631 124.079 21.888 122.221L21.2918 119.268C21.0092 117.868 19.7791 116.862 18.3511 116.862H5.99407C4.56607 116.862 3.33599 117.868 3.0534 119.268Z" fill="#C0D3D7" stroke="black" stroke-width="4"/>
<path d="M7.38672 121.827L7.38672 114.597L9.05658 112.379L15.3308 112.379L16.964 114.335L16.964 121.827L7.38672 121.827Z" fill="#617276" stroke="black" stroke-width="2.27106"/>
<rect x="9.23047" y="112.604" width="6.55993" height="5.88838" transform="rotate(-90 9.23047 112.604)" fill="#C0D3D7" stroke="black" stroke-width="2.27106"/>
<rect x="7.74609" y="86.4517" width="5.3228" height="8.79746" transform="rotate(-90 7.74609 86.4517)" fill="#88A1AE" stroke="black" stroke-width="2.27106"/>
<path d="M8.98047 81.1284L10.8421 71.0503L13.5497 71.0503L15.898 81.1284L8.98047 81.1284Z" fill="#C0D3D7" stroke="black" stroke-width="2.27106"/>
<path fill-rule="evenodd" clip-rule="evenodd" d="M7.37891 95.9802L8.91503 98.1198L8.97878 98.119L8.97878 100.189L15.6276 100.189L15.6276 98.0383L15.7633 98.0366L17.5152 95.9802L17.5152 91.4406L15.7633 88.8829L15.6276 88.8829L15.6276 86.8275L8.97878 86.8275L8.97878 88.8829L8.91503 88.8829L7.37891 90.9576L7.37891 95.9802Z" fill="#88A1AE"/>
<path d="M8.91503 98.1198L7.99261 98.7821L8.3375 99.2624L8.92882 99.2553L8.91503 98.1198ZM7.37891 95.9802L6.24338 95.9802L6.24338 96.3456L6.45649 96.6425L7.37891 95.9802ZM8.97878 98.119L10.1143 98.119L10.1143 96.9696L8.96499 96.9836L8.97878 98.119ZM8.97878 100.189L7.84325 100.189L7.84325 101.324L8.97878 101.324L8.97878 100.189ZM15.6276 100.189L15.6276 101.324L16.7631 101.324L16.7631 100.189L15.6276 100.189ZM15.6276 98.0383L15.6138 96.9029L14.4921 96.9165L14.4921 98.0383L15.6276 98.0383ZM15.7633 98.0366L15.7771 99.1721L16.293 99.1658L16.6277 98.773L15.7633 98.0366ZM17.5152 95.9802L18.3796 96.7166L18.6507 96.3983L18.6507 95.9802L17.5152 95.9802ZM17.5152 91.4406L18.6507 91.4406L18.6507 91.089L18.452 90.7989L17.5152 91.4406ZM15.7633 88.8829L16.7001 88.2412L16.3618 87.7473L15.7633 87.7473L15.7633 88.8829ZM15.6276 88.8829L14.4921 88.8829L14.4921 90.0184L15.6276 90.0184L15.6276 88.8829ZM15.6276 86.8275L16.7631 86.8275L16.7631 85.692L15.6276 85.692L15.6276 86.8275ZM8.97878 86.8275L8.97877 85.692L7.84324 85.692L7.84324 86.8275L8.97878 86.8275ZM8.97878 88.8829L8.97878 90.0184L10.1143 90.0184L10.1143 88.8829L8.97878 88.8829ZM8.91503 88.8829L8.91503 87.7473L8.34287 87.7473L8.00241 88.2072L8.91503 88.8829ZM7.37891 90.9576L6.46629 90.2819L6.24338 90.583L6.24338 90.9576L7.37891 90.9576ZM9.83745 97.4576L8.30133 95.318L6.45649 96.6425L7.99261 98.7821L9.83745 97.4576ZM8.96499 96.9836L8.90124 96.9844L8.92882 99.2553L8.99256 99.2545L8.96499 96.9836ZM10.1143 100.189L10.1143 98.119L7.84325 98.119L7.84325 100.189L10.1143 100.189ZM15.6276 99.0534L8.97878 99.0534L8.97878 101.324L15.6276 101.324L15.6276 99.0534ZM14.4921 98.0383L14.4921 100.189L16.7631 100.189L16.7631 98.0383L14.4921 98.0383ZM15.7495 96.9012L15.6138 96.9029L15.6414 99.1737L15.7771 99.1721L15.7495 96.9012ZM16.6508 95.2438L14.8989 97.3003L16.6277 98.773L18.3796 96.7166L16.6508 95.2438ZM16.3797 91.4406L16.3797 95.9802L18.6507 95.9802L18.6507 91.4406L16.3797 91.4406ZM14.8264 89.5245L16.5784 92.0823L18.452 90.7989L16.7001 88.2412L14.8264 89.5245ZM15.6276 90.0184L15.7633 90.0184L15.7633 87.7473L15.6276 87.7473L15.6276 90.0184ZM14.4921 86.8275L14.4921 88.8829L16.7631 88.8829L16.7631 86.8275L14.4921 86.8275ZM8.97878 87.963L15.6276 87.963L15.6276 85.692L8.97877 85.692L8.97878 87.963ZM10.1143 88.8829L10.1143 86.8275L7.84324 86.8275L7.84324 88.8829L10.1143 88.8829ZM8.91503 90.0184L8.97878 90.0184L8.97878 87.7473L8.91503 87.7473L8.91503 90.0184ZM8.29152 91.6333L9.82765 89.5586L8.00241 88.2072L6.46629 90.2819L8.29152 91.6333ZM8.51444 95.9802L8.51444 90.9576L6.24338 90.9576L6.24338 95.9802L8.51444 95.9802Z" fill="black"/>
<rect x="8.05469" y="106.046" width="5.57556" height="8.23987" transform="rotate(-90 8.05469 106.046)" fill="#88A1AE" stroke="black" stroke-width="2.27106"/>
<rect x="8.60938" y="123.815" width="7.67595" height="5.82265" fill="black"/>
<path d="M14.3494 95.3599L16.2019 97.3179L18.1602 96.101L18.1602 91.02L16.2019 89.8556L14.3494 92.0256L14.3494 95.3599Z" fill="#D32929"/>
<path d="M11.1623 91.814L9.30987 89.856L7.35156 91.0729V96.1539L9.30987 97.3183L11.1623 95.1483V91.814Z" fill="#D32929"/>
<path d="M8.91503 98.1198L8.10271 98.703L8.40643 99.1261L8.92717 99.1197L8.91503 98.1198ZM7.37891 95.9802L6.37891 95.9802L6.37891 96.302L6.56658 96.5634L7.37891 95.9802ZM8.97878 98.119L9.97878 98.119L9.97878 97.1068L8.96663 97.1191L8.97878 98.119ZM8.97878 100.189L7.97878 100.189L7.97878 101.189L8.97878 101.189L8.97878 100.189ZM15.6276 100.189L15.6276 101.189L16.6276 101.189L16.6276 100.189L15.6276 100.189ZM15.6276 98.0383L15.6155 97.0384L14.6276 97.0504L14.6276 98.0383L15.6276 98.0383ZM15.7633 98.0366L15.7754 99.0366L16.2298 99.0311L16.5245 98.6851L15.7633 98.0366ZM17.5152 95.9802L18.2764 96.6287L18.5152 96.3484L18.5152 95.9802L17.5152 95.9802ZM17.5152 91.4406L18.5152 91.4406L18.5152 91.131L18.3402 90.8755L17.5152 91.4406ZM15.7633 88.8829L16.5883 88.3178L16.2904 87.8829L15.7633 87.8829L15.7633 88.8829ZM15.6276 88.8829L14.6276 88.8829L14.6276 89.8829L15.6276 89.8829L15.6276 88.8829ZM15.6276 86.8275L16.6276 86.8275L16.6276 85.8275L15.6276 85.8275L15.6276 86.8275ZM8.97878 86.8275L8.97877 85.8275L7.97877 85.8275L7.97878 86.8275L8.97878 86.8275ZM8.97878 88.8829L8.97878 89.8829L9.97878 89.8829L9.97878 88.8829L8.97878 88.8829ZM8.91503 88.8829L8.91503 87.8829L8.41116 87.8829L8.11134 88.2878L8.91503 88.8829ZM7.37891 90.9576L6.57521 90.3626L6.37891 90.6277L6.37891 90.9576L7.37891 90.9576ZM9.72736 97.5366L8.19123 95.397L6.56658 96.5634L8.10271 98.703L9.72736 97.5366ZM8.96663 97.1191L8.90289 97.1199L8.92717 99.1197L8.99092 99.119L8.96663 97.1191ZM9.97878 100.189L9.97878 98.119L7.97878 98.119L7.97878 100.189L9.97878 100.189ZM15.6276 99.189L8.97878 99.189L8.97878 101.189L15.6276 101.189L15.6276 99.189ZM14.6276 98.0383L14.6276 100.189L16.6276 100.189L16.6276 98.0383L14.6276 98.0383ZM15.7511 97.0367L15.6155 97.0384L15.6398 99.0382L15.7754 99.0366L15.7511 97.0367ZM16.754 95.3317L15.002 97.3882L16.5245 98.6851L18.2764 96.6287L16.754 95.3317ZM16.5152 91.4406L16.5152 95.9802L18.5152 95.9802L18.5152 91.4406L16.5152 91.4406ZM14.9382 89.448L16.6902 92.0057L18.3402 90.8755L16.5883 88.3178L14.9382 89.448ZM15.6276 89.8829L15.7633 89.8829L15.7633 87.8829L15.6276 87.8829L15.6276 89.8829ZM14.6276 86.8275L14.6276 88.8829L16.6276 88.8829L16.6276 86.8275L14.6276 86.8275ZM8.97878 87.8275L15.6276 87.8275L15.6276 85.8275L8.97877 85.8275L8.97878 87.8275ZM9.97878 88.8829L9.97877 86.8275L7.97878 86.8275L7.97878 88.8829L9.97878 88.8829ZM8.91503 89.8829L8.97878 89.8829L8.97878 87.8829L8.91503 87.8829L8.91503 89.8829ZM8.1826 91.5527L9.71872 89.4779L8.11134 88.2878L6.57521 90.3626L8.1826 91.5527ZM8.37891 95.9802L8.37891 90.9576L6.37891 90.9576L6.37891 95.9802L8.37891 95.9802Z" fill="black"/>
<path d="M15.564 89.7251L13.7344 91.5952V95.1347L15.2458 97.1233" stroke="black" stroke-width="1.5"/>
<path d="M9.15479 97.1235L10.9844 95.2534L10.9844 91.714L9.47299 89.7253" stroke="black" stroke-width="1.5"/>
<mask id="path-19-outside-1" maskUnits="userSpaceOnUse" x="3.07812" y="0.0502924" width="19" height="23" fill="black">
<rect fill="white" x="3.07812" y="0.0502924" width="19" height="23"/>
<path fill-rule="evenodd" clip-rule="evenodd" d="M8.07813 19.0503L9.84012 5.87402L11.2299 5.87402L11.2299 4.15524L13.6244 4.15524L13.6244 5.87402L15.098 5.87402L16.8154 19.0503L8.07813 19.0503Z"/>
</mask>
<path fill-rule="evenodd" clip-rule="evenodd" d="M8.07813 19.0503L9.84012 5.87402L11.2299 5.87402L11.2299 4.15524L13.6244 4.15524L13.6244 5.87402L15.098 5.87402L16.8154 19.0503L8.07813 19.0503Z" fill="#DEECEF"/>
<path d="M9.84012 5.87402L9.84012 1.87402L6.33941 1.87402L5.87541 5.34384L9.84012 5.87402ZM8.07813 19.0503L4.11342 18.5201L3.50762 23.0503L8.07813 23.0503L8.07813 19.0503ZM11.2299 5.87402L11.2299 9.87402L15.2299 9.87402L15.2299 5.87402L11.2299 5.87402ZM11.2299 4.15524L11.2299 0.155237L7.22991 0.155237L7.22991 4.15524L11.2299 4.15524ZM13.6244 4.15524L17.6244 4.15524L17.6244 0.155237L13.6244 0.155237L13.6244 4.15524ZM13.6244 5.87402L9.62438 5.87402L9.62438 9.87402L13.6244 9.87402L13.6244 5.87402ZM15.098 5.87402L19.0644 5.35701L18.6104 1.87402L15.098 1.87402L15.098 5.87402ZM16.8154 19.0503L16.8154 23.0503L21.3706 23.0503L20.7819 18.5333L16.8154 19.0503ZM5.87541 5.34384L4.11342 18.5201L12.0428 19.5805L13.8048 6.40419L5.87541 5.34384ZM11.2299 1.87402L9.84012 1.87402L9.84012 9.87402L11.2299 9.87402L11.2299 1.87402ZM15.2299 5.87402L15.2299 4.15524L7.22991 4.15524L7.22991 5.87402L15.2299 5.87402ZM11.2299 8.15524L13.6244 8.15524L13.6244 0.155237L11.2299 0.155237L11.2299 8.15524ZM9.62438 4.15524L9.62438 5.87402L17.6244 5.87402L17.6244 4.15524L9.62438 4.15524ZM15.098 1.87402L13.6244 1.87402L13.6244 9.87402L15.098 9.87402L15.098 1.87402ZM20.7819 18.5333L19.0644 5.35701L11.1315 6.39102L12.849 19.5673L20.7819 18.5333ZM8.07813 23.0503L16.8154 23.0503L16.8154 15.0503L8.07812 15.0503L8.07813 23.0503Z" fill="black" mask="url(#path-19-outside-1)"/>
<path d="M8.06333 45.7163C7.08343 45.7163 6.28906 44.9219 6.28906 43.942L6.28906 22.9861C6.28906 22.0062 7.08343 21.2118 8.06333 21.2118L16.2838 21.2118C17.2637 21.2118 18.0581 22.0062 18.0581 22.9861L18.0581 43.942C18.0581 44.9219 17.2637 45.7163 16.2838 45.7163L8.06333 45.7163Z" fill="#C0D3D7" stroke="black" stroke-width="2"/>
<path d="M4.28906 43.942C4.28906 46.0265 5.97886 47.7163 8.06333 47.7163L16.2838 47.7163C18.3683 47.7163 20.0581 46.0265 20.0581 43.942L20.0581 22.9861C20.0581 20.9016 18.3683 19.2118 16.2838 19.2118L8.06333 19.2118C5.97886 19.2118 4.28906 20.9016 4.28906 22.9861L4.28906 43.942Z" stroke="black" stroke-width="4"/>
<rect x="8.93359" y="45.7163" width="24.4028" height="2.29907" rx="0.814222" transform="rotate(-90 8.93359 45.7163)" fill="black"/>
<rect x="13.1172" y="45.7173" width="24.4028" height="2.29907" rx="0.814222" transform="rotate(-90 13.1172 45.7173)" fill="black"/>
<rect x="2.63672" y="44.7427" width="19.0753" height="6.85107" fill="#070707"/>
</svg>
