<svg width="75" height="250" viewBox="0 0 75 250" fill="none" xmlns="http://www.w3.org/2000/svg">
<path d="M60.8185 74.9922H12.8947V109.085L0.351562 134.172V231.303L18.0411 248.671H56.958L74.6475 231.303V134.172L60.8185 109.085V74.9922Z" fill="#BB3337"/>
<path fill-rule="evenodd" clip-rule="evenodd" d="M60.8185 109.085V74.9922H12.8947V109.085L0.351562 134.172V231.303L18.0411 248.671H56.958L74.6475 231.303V134.172L60.8185 109.085ZM65.6475 136.488L51.8185 111.401V83.9922H21.8947V111.209L9.35156 136.296V227.527L21.7207 239.671H53.2784L65.6475 227.527V136.488Z" fill="black"/>
<path d="M61.5078 4.9375V12.9375H53.5078V98.4209H21.5078V12.9375H13.5078V4.9375H61.5078Z" fill="black"/>
<path d="M17.4453 0.671875H57.5519V78.2434H17.4453V0.671875Z" fill="#671532"/>
<path fill-rule="evenodd" clip-rule="evenodd" d="M48.5519 9.67188H26.4453V69.2434H48.5519V9.67188ZM17.4453 0.671875V78.2434H57.5519V0.671875H17.4453Z" fill="black"/>
<path d="M7.50781 175.672H51.0629V185.672H7.50781V175.672Z" fill="black"/>
<path d="M21.5078 239.672H53.5078V243.672L51.5078 245.672H43.5078V249.672H31.5078V245.672H23.5078L21.5078 243.672V239.672Z" fill="black"/>
<path d="M7.50781 203.672H55.5078V213.672H7.50781V203.672Z" fill="black"/>
<path d="M45.5447 153.672L45.4609 223.672H65.4694L65.5532 153.672H45.5447Z" fill="#B72B44"/>
<path fill-rule="evenodd" clip-rule="evenodd" d="M41.0476 149.172H70.0561L69.9616 228.172H40.9531L41.0476 149.172ZM50.0369 158.172L49.9639 219.172H60.9724L61.0454 158.172H50.0369Z" fill="black"/>
<path d="M34.5078 133.895V123.895H40.5078V133.895C40.5078 137.895 34.5078 137.895 34.5078 133.895Z" fill="black"/>
<path d="M42.9922 133.895V123.895H48.9922V133.895C48.9922 137.895 42.9922 137.895 42.9922 133.895Z" fill="black"/>
<path d="M36.9141 190.641L38.5625 187.785H41.8596L43.5081 190.641L41.8596 193.496H38.5625L36.9141 190.641Z" fill="black"/>
<path d="M36.9141 198.641L38.5625 195.785H41.8596L43.5081 198.641L41.8596 201.496H38.5625L36.9141 198.641Z" fill="black"/>
<path d="M34.5078 165.672V155.672H40.5078V165.672C40.5078 169.672 34.5078 169.672 34.5078 165.672Z" fill="black"/>
<path d="M50.002 185.672H45.4609V203.672H50.002V185.672Z" fill="#A41A22" fill-opacity="0.654902"/>
<path d="M24.3403 162C23.5807 162.88 22.532 163.423 21.2235 163.612C20.3235 163.742 19.415 163.659 18.5078 163.365L18.5078 145.979C19.415 145.685 20.3235 145.601 21.2235 145.732C22.532 145.921 23.5806 146.463 24.3402 147.344C25.005 148.114 25.4026 149.103 25.4901 150.203C25.5724 151.242 25.3664 152.301 24.9093 153.186C24.5868 153.81 24.1513 154.317 23.643 154.672C24.1513 155.026 24.5868 155.534 24.9093 156.158C25.3664 157.042 25.5723 158.102 25.4901 159.141C25.4026 160.241 25.0051 161.23 24.3403 162Z" fill="#FC8FAF"/>
<path d="M24.0421 193.328C24.8516 193.328 25.5078 192.672 25.5078 191.863C25.5078 191.372 25.2665 190.938 24.8964 190.672C25.2665 190.406 25.5078 189.972 25.5078 189.481C25.5078 188.672 24.8516 188.016 24.0421 188.016C23.6909 188.016 23.3687 188.137 23.1163 188.343L20.508 190.672L23.1163 193.001C23.3687 193.207 23.6909 193.328 24.0421 193.328Z" fill="#FC8FAF"/>
<path d="M24.0421 201.297C24.8516 201.297 25.5078 200.641 25.5078 199.831C25.5078 199.341 25.2665 198.907 24.8964 198.641C25.2665 198.375 25.5078 197.941 25.5078 197.45C25.5078 196.641 24.8516 195.984 24.0421 195.984C23.6909 195.984 23.3687 196.106 23.1163 196.312L20.508 198.641L23.1163 200.97C23.3687 201.176 23.6909 201.297 24.0421 201.297Z" fill="#FC8FAF"/>
<path d="M19.609 163.175C22.1981 163.175 24.2969 161.077 24.2969 158.488C24.2969 156.919 23.5251 155.53 22.3413 154.68C23.5251 153.829 24.2969 152.441 24.2969 150.871C24.2969 148.282 22.1981 146.184 19.609 146.184C18.4858 146.184 17.4552 146.572 16.6479 147.23L8.30563 154.679L16.6479 162.129C17.4552 162.788 18.4858 163.175 19.609 163.175Z" fill="#FC8FAF"/>
<path d="M32.2453 193.328C33.0547 193.328 33.7109 192.672 33.7109 191.863C33.7109 191.372 33.4696 190.938 33.0995 190.672C33.4696 190.406 33.7109 189.972 33.7109 189.481C33.7109 188.672 33.0547 188.016 32.2453 188.016C31.8941 188.016 31.5718 188.137 31.3194 188.343L28.7111 190.672L31.3194 193.001C31.5718 193.207 31.8941 193.328 32.2453 193.328Z" fill="#FC8FAF"/>
<path d="M32.2453 201.297C33.0547 201.297 33.7109 200.641 33.7109 199.831C33.7109 199.341 33.4696 198.907 33.0995 198.641C33.4696 198.375 33.7109 197.941 33.7109 197.45C33.7109 196.641 33.0547 195.984 32.2453 195.984C31.8941 195.984 31.5718 196.106 31.3194 196.312L28.7111 198.641L31.3194 200.97C31.5718 201.176 31.8941 201.297 32.2453 201.297Z" fill="#FC8FAF"/>
<path d="M27.5078 150.672H44.5078V157.672H27.5078V150.672Z" fill="black"/>
<path fill-rule="evenodd" clip-rule="evenodd" d="M29.8021 154.681C30.2603 153.518 30.5119 152.251 30.5119 150.925C30.5119 145.262 25.9215 140.672 20.2589 140.672C17.2394 140.672 14.5248 141.977 12.6484 144.054V144.048L12.5473 144.168C12.4601 144.267 12.3748 144.368 12.2915 144.471L3.23438 155.209L12.6484 165.308V165.307C14.5248 167.384 17.2394 168.69 20.2589 168.69C25.9215 168.69 30.5119 164.099 30.5119 158.437C30.5119 157.111 30.2603 155.844 29.8021 154.681ZM23.7692 154.675C24.6839 153.77 25.2506 152.513 25.2506 151.125C25.2506 148.365 23.0138 146.129 20.2545 146.129C18.7266 146.129 17.3589 146.814 16.4425 147.895L10.5241 154.146L16.2707 161.241C17.183 162.445 18.628 163.222 20.2545 163.222C23.0138 163.222 25.2506 160.985 25.2506 158.226C25.2506 156.837 24.6839 155.581 23.7692 154.675Z" fill="black"/>
<path d="M30.5117 33.6719H65.5698V129.672H30.5117V33.6719Z" fill="#871529"/>
<path fill-rule="evenodd" clip-rule="evenodd" d="M56.5698 42.6719H39.5117V120.672H56.5698V42.6719ZM30.5117 33.6719V129.672H65.5698V33.6719H30.5117Z" fill="black"/>
<path d="M15.4922 235.527H59.505V242.236H15.4922V235.527Z" fill="black"/>
</svg>
