<?xml version="1.0"?>
<svg width="59" height="157" xmlns="http://www.w3.org/2000/svg" xmlns:svg="http://www.w3.org/2000/svg" xmlns:xlink="http://www.w3.org/1999/xlink" version="1.1">
 <metadata id="metadata10">image/svg+xml</metadata>
 <defs id="defs8">
  <symbol height="188" id="svg_15" width="32" xmlns="http://www.w3.org/2000/svg" xmlns:cc="http://creativecommons.org/ns#" xmlns:dc="http://purl.org/dc/elements/1.1/" xmlns:inkscape="http://www.inkscape.org/namespaces/inkscape" xmlns:rdf="http://www.w3.org/1999/02/22-rdf-syntax-ns#" xmlns:sodipodi="http://sodipodi.sourceforge.net/DTD/sodipodi-0.dtd" xmlns:svg="http://www.w3.org/2000/svg">
   <metadata id="svg_14">image/svg+xml</metadata>
   <defs id="svg_12">
    <clipPath id="svg_11">
     <rect fill="#515151" height="24.34" id="svg_13" rx="2.47" ry="3.84" stroke-miterlimit="10" stroke-opacity="0.49" stroke-width="1.32" width="3.7" x="0.53" y="272.66"/>
    </clipPath>
   </defs>
   <rect clip-path="url(#svg_11)" fill="#1e1e1e" height="24.34" id="svg_10" rx="2.47" ry="3.84" stroke="#000000" stroke-miterlimit="10" stroke-width="2.12" transform="matrix(7.5593953,0,0,7.5589519,-1.9989201,-2059.0086)" width="3.7" x="0.53" y="272.66"/>
  </symbol>
 </defs>
 <g class="layer">
  <title>Layer 1</title>
  <path d="m7.31,89.12l43.95,0c1.07,0 1.85,0.8 1.93,1.79l1.32,15.35c0.09,0.98 -0.86,1.78 -1.93,1.78l-46.56,0c-1.07,0 -2.01,-0.8 -1.93,-1.78l1.29,-15.35c0.09,-0.99 0.87,-1.79 1.93,-1.79z" fill="#1e1e1e" id="rect2" stroke="#000000" stroke-width="8.18"/>
  <use fill="#7fff00" id="svg_16" transform="matrix(0.94894 0 0 0.851715 10.7044 -178.125)" x="10.52" xlink:href="#svg_15" y="207.12"/>
 </g>
</svg>