<?xml version="1.0" encoding="UTF-8" standalone="no"?>
<svg
   width="120.56387"
   height="119.90395"
   version="1.1"
   id="svg50"
   sodipodi:docname="2fd982b2541d9488c6178d19626cc041.svg"
   xmlns:inkscape="http://www.inkscape.org/namespaces/inkscape"
   xmlns:sodipodi="http://sodipodi.sourceforge.net/DTD/sodipodi-0.dtd"
   xmlns="http://www.w3.org/2000/svg"
   xmlns:svg="http://www.w3.org/2000/svg">
  <defs
     id="defs54" />
  <sodipodi:namedview
     id="namedview52"
     pagecolor="#ffffff"
     bordercolor="#666666"
     borderopacity="1.0"
     inkscape:pageshadow="2"
     inkscape:pageopacity="0.0"
     inkscape:pagecheckerboard="0" />
  <g
     transform="matrix(0.15247344,-0.15247344,0.15247344,0.15247344,-0.16606899,14.92723)"
     id="g48">
    <path
       d="m -65.966,273.904 c 0,0 -4,0.637 -4,2.362 l -17.792,33.269 -8.869,0.053 -7.67,-0.867 v 58.257 c 5.353,9.594 27.901,6.603 38.467,16 H 4.923 v 23.49 l 1.972,0.004 14.218,-7.494 -1.601,-37.356 h 67.471 l 0.19,14.645 16.227,-10.307 v -6.983 h 9.619 V 308.47 h -4.74 l -6.11,0.99 -20,0.1 -13.888,-24.869 c -0.068,-1.627 -3.753,-2.39 -3.753,-2.39 z m 8,6.701 120.136,2.373 c 7.766,0.767 11.79,11.659 13.995,20 0,0 -3.48,6.533 -9.52,6.341 l -129.492,0.168 c 0,0 -4,-0.136 -8,-9.017 0.38,-4 4.806,-12.388 12.88,-19.865 z"
       fill="#ffffff"
       stroke="#323232"
       stroke-width="11"
       id="path2" />
    <path
       d="m -72.457,457.032 -25.384,-5.887 c 0,0 -3.455,-0.877 -2.805,-4.126 l 37.044,-51.72 0.435,-6.509 h 22.58 l -0.068,17.67 h -2.81 l -3.705,4.518 -22.66,37.134 c 1.316,9.1 6.128,8.371 -2.627,8.92 z M -278.043,302.708 c 0,0 -15.748,-0.774 -15.787,0 8,36.27 4.216,61.465 4,86.914 0,0 0.296,3.339 3.328,3.447 h 28.672 c 6.211,0 52.891,-27.108 80,-36.144 h 56.603 v -48.273 z"
       fill="#ffffff"
       stroke="#323232"
       stroke-width="11"
       id="path4" />
    <path
       d="m -283.932,303.453 c 0,0 -2.114,29.691 -2.596,45.975 -0.466,15.91 1.064,41.17 1.064,41.17"
       fill="none"
       stroke="#323232"
       stroke-width="7.899"
       id="path6" />
    <path
       d="m 73.138,375.382 -38.968,0.21 1.147,25.733 c 6.509,66.711 27.905,139.259 27.905,139.259 l 38.652,-10.254 c 3.899,-0.758 -2.733,-5.725 -2.733,-5.725 C 96.029,514.701 76.768,456.198 73.514,385.96 Z"
       fill="#ffffff"
       stroke="#323232"
       stroke-width="11"
       id="path8" />
    <path
       d="m -89.83,307.496 208,-0.681 v 8.163 h -208 z"
       fill="#323232"
       id="path10" />
    <path
       d="m -85.695,298.64 18.102,-0.682 -0.136,12.502 H -85.83 Z"
       fill="#323232"
       id="path12" />
    <path
       d="m 129.534,308.741 v 52.203 l 128.848,-5.173 h 10.025 v -47.323 z"
       fill="#ffffff"
       stroke="#323232"
       stroke-width="11"
       id="path14" />
    <path
       d="m 278.521,269.4 c 0,0 -1.096,0.832 -1.197,1.578 v 13.356 l 4,3.593 c 0,0 -3.288,4.252 -4,10.252 v 63.772 l 17.9,0.191 -0.017,-31.164 h 13.675 c 4.407,-1.22 6.441,-17.085 0,-21.763 l -13.686,-0.203 -0.007,-14.034 -1.865,-7.154 1.055,-2.723 0.095,-10.123 c 0,0 -0.325,-2.983 -3.037,-4 h -7.14 c 0,0 -3.369,-2.019 -5.776,-1.578 z m 4.258,27.526 h 6.103 v 3.931 h -6.103 z m 0.144,6.052 h 5.96 v 3.008 h -5.96 z"
       fill="#323232"
       id="path16" />
    <path
       d="m 299.224,339.084 h 136.723 c 1.066,0 1.925,0.412 1.927,1.574 0.779,3.342 0.828,10.205 0,12.592 0,1.162 -0.859,1.573 -1.927,1.573 H 299.224 l -0.961,-1.575 -10e-4,-12.59 0.961,-1.575 z"
       fill="#323232"
       id="path18" />
    <path
       d="m 0.16,410.748 -36.678,-0.01 0.128,-9.152 c 1.66,6.068 6.864,8.144 6.864,8.144 l 23.448,-0.067 c 2.136,-0.78 6.285,-6.317 6.285,-6.317 z m -26.862,-21.184 c -3.39,8.983 1.394,12.861 2.188,13.631 -1.46,-5.174 -1.552,-8.403 1.19,-13.63 z"
       fill="#323232"
       stroke="#323232"
       stroke-width="2.449"
       id="path20" />
    <path
       d="m -36.106,387.277 37.559,0.01 -0.128,9.152 c -1.661,-6.068 -6.864,-8.143 -6.864,-8.143 l -24.33,0.066 c -3.627,0.848 -6.284,6.317 -6.284,6.317 z"
       fill="#323232"
       stroke="#323232"
       stroke-width="2.449"
       id="path22" />
    <rect
       width="75.842003"
       height="27.316999"
       x="-3.2130001"
       y="326.08099"
       rx="3.79"
       ry="3.901"
       fill="#7e7e7e"
       id="rect24" />
    <circle
       cx="-66.023003"
       cy="279.89001"
       r="6.9710002"
       fill="#7e7e7e"
       id="circle26" />
    <circle
       r="4.526"
       cy="370.61099"
       cx="6.9829998"
       fill="#323232"
       id="circle28" />
    <path
       d="m -102.808,356.778 123.17,-0.681 v 8.163 h -123.17 z"
       fill="#323232"
       id="path30" />
    <rect
       width="114.085"
       height="0.373"
       x="141.86301"
       y="319.11499"
       rx="2"
       ry="2"
       fill="#ffffff"
       fill-opacity="0.354"
       stroke="#323232"
       stroke-width="5.929"
       stroke-linecap="round"
       id="rect32" />
    <rect
       ry="2"
       rx="2"
       y="345.52499"
       x="159.595"
       height="0.433"
       width="96.112"
       fill="#ffffff"
       fill-opacity="0.354"
       stroke="#323232"
       stroke-width="5.869"
       stroke-linecap="round"
       id="rect34" />
    <rect
       ry="4"
       rx="4"
       y="331.99899"
       x="142.74699"
       height="0.63800001"
       width="112.316"
       fill="#ffffff"
       fill-opacity="0.354"
       stroke="#323232"
       stroke-width="7.698"
       stroke-linecap="round"
       id="rect36" />
    <circle
       cx="146.78"
       cy="332.33401"
       r="8.3389997"
       fill="#323232"
       id="circle38" />
    <path
       d="m -286.808,352.08 123.17,-0.681 v 8.163 h -123.17 z"
       fill="#323232"
       id="path40" />
    <circle
       cx="55.956001"
       cy="405.20999"
       r="3.28"
       fill="#323232"
       id="circle42" />
    <circle
       r="3.28"
       cy="450.465"
       cx="61.515999"
       fill="#323232"
       id="circle44" />
    <circle
       cx="70.913002"
       cy="494.76099"
       r="3.28"
       fill="#323232"
       id="circle46" />
  </g>
</svg>
