<svg xmlns="http://www.w3.org/2000/svg" width="120" height="210" version="1.1" id="svg2683" viewBox="-32 -94 120 210"><defs id="defs2687"><clipPath id="a-1-8"><path style="fill-opacity:0.506;stroke:#ffffff;stroke-width:2.1170001;stroke-opacity:0.50199998" d="m -45.534,209.35 29.33,16.933 v 33.867 l -29.33,16.933 -29.33,-16.933 v -33.867 z" id="path2-0-6-0"/></clipPath><clipPath id="a-1"><path style="fill-opacity:0.506;stroke:#ffffff;stroke-width:2.117;stroke-opacity:0.502" d="m -45.534,209.35 29.33,16.933 v 33.867 l -29.33,16.933 -29.33,-16.933 v -33.867 z" id="path2-0-6"/></clipPath><clipPath clipPathUnits="userSpaceOnUse" id="clipPath1204"><path style="fill:#515151;stroke-width:5.94354;stroke-miterlimit:10;stroke-opacity:0.49" clip-path="none" d="m 76,48 v 20 h 24 V 48 L 96,44 V 38 H 80 v 6 z" id="path1207"/></clipPath><clipPath clipPathUnits="userSpaceOnUse" id="clipPath1211"><path id="path1213" d="M 76,68 72,72 71.93306,136 78,144 v 8 h 20 v -8 l 5.93306,-8 L 104,72 100,68 V 54 H 76 Z" clip-path="none" style="fill:#515151;stroke-width:12.5546;stroke-miterlimit:10;stroke-opacity:0.49"/></clipPath><clipPath clipPathUnits="userSpaceOnUse" id="clipPath1221"><path id="path1223" d="m 76,48 v 10 h 24 V 48 L 96,44 V 38 H 80 v 6 z" clip-path="none" style="fill:#515151;stroke-width:5.94354;stroke-miterlimit:10;stroke-opacity:0.49"/></clipPath><clipPath clipPathUnits="userSpaceOnUse" id="clipPath1271"><path style="fill:#515151;stroke-width:10.4121;stroke-miterlimit:10;stroke-opacity:0.49" clip-path="none" d="M 30,191.95395 C 56,192 74,174 74,174 v 21.95395 C 74,195.95395 56,212 30,212 Z" id="path1273"/></clipPath><clipPath clipPathUnits="userSpaceOnUse" id="clipPath1301"><rect style="fill:#5b1616;fill-opacity:1;stroke:none;stroke-width:6.72946;stroke-linecap:butt;stroke-linejoin:miter;stroke-miterlimit:10;stroke-dasharray:none;stroke-opacity:1" id="rect1303" width="12.00001" height="13.999999" x="-118" y="-88"/></clipPath><clipPath clipPathUnits="userSpaceOnUse" id="clipPath1334"><path clip-path="none" id="path1336" d="m 104,136 -6,8 v 24 l 6,-6 v 10 l -6,6 v 60 H 78 v -46 l -4,3.95395 V 174 l 4,-4 v -26 l -6,-8 v -10 h 32 z" style="fill:#5b1616;fill-opacity:1;stroke-width:15.1754;stroke-miterlimit:10;stroke-opacity:0.49"/></clipPath></defs><path id="path1260" d="m 77,76 v 8 h 10 l 4,4 v 30 l -6,6 v 10 L 97,122 V 84 l -8,-8 z" clip-path="none" style="fill:#000000;fill-opacity:1;stroke-width:7.648;stroke-miterlimit:10;stroke-opacity:0.49" transform="matrix(1, 0, 0, 1, -32.165934, -94.416507)"/><path style="fill:#353716;fill-opacity:1;stroke:#000000;stroke-width:12;stroke-miterlimit:10;stroke-dasharray:none;stroke-opacity:1" clip-path="url(#clipPath1211)" d="M 76,68 72,72 71.93306,136 78,144 v 8 h 20 v -8 l 5.93306,-8 L 104,72 100,68 V 54 H 76 Z" id="path1209" transform="matrix(1, 0, 0, 1, -51.165934, -132.416507)"/><path style="fill:#5b1616;fill-opacity:1;stroke:#000000;stroke-width:12;stroke-miterlimit:10;stroke-dasharray:none;stroke-opacity:1" d="m 104,136 -6,8 v 24 l 6,-6 v 10 l -6,6 v 60 H 78 v -46 l -4,3.95395 V 174 l 4,-4 v -26 l -6,-8 v -10 h 32 z" id="path1332" clip-path="url(#clipPath1334)" transform="matrix(1, 0, 0, 1, -51.165934, -132.416507)"/><path style="fill:#462411;fill-opacity:1;stroke:#000000;stroke-width:12;stroke-miterlimit:10;stroke-dasharray:none;stroke-opacity:1" clip-path="url(#clipPath1271)" d="M 30,191.95395 C 56,192 74,174 74,174 v 21.95395 C 74,195.95395 56,212 30,212 Z" id="path1275" transform="matrix(1, 0, 0, 1, -51.165934, -132.416507)"/><path id="path1202" d="m 76,48 v 20 h 24 V 48 L 96,44 V 38 H 80 v 6 z" clip-path="url(#clipPath1204)" style="fill:#4e5120;fill-opacity:1;stroke:#000000;stroke-width:12;stroke-miterlimit:10;stroke-dasharray:none;stroke-opacity:1" transform="matrix(1, 0, 0, 1, -51.165934, -132.416507)"/><path style="fill:#000000;fill-opacity:1;stroke:none;stroke-width:9.64604;stroke-linecap:round;stroke-linejoin:miter;stroke-miterlimit:4;stroke-dasharray:none;stroke-opacity:1" d="m 59,196 h 20 v 8 l -6,6 h -8 l -6,-6 z" id="path1206" transform="matrix(1, 0, 0, 1, -32.165934, -94.416507)"/><path style="fill:#824420;fill-opacity:1;stroke:#000000;stroke-width:6;stroke-linecap:butt;stroke-linejoin:miter;stroke-miterlimit:4;stroke-dasharray:none;stroke-opacity:1" d="m 15,154.89458 v 17.65813 L 3,175.0627 v -22.67811 z" id="path1121" clip-path="none" transform="matrix(1, 0, 0, 1, -32.165934, -94.416507)"/><path style="fill:#6f722b;fill-opacity:1;stroke:#000000;stroke-width:12;stroke-miterlimit:10;stroke-dasharray:none;stroke-opacity:1" clip-path="url(#clipPath1221)" d="m 76,48 v 10 h 24 V 48 L 96,44 V 38 H 80 v 6 z" id="path1219" transform="matrix(1, 0, 0, 1, -51.165934, -132.416507)"/><g id="g1243" transform="matrix(0, 1, -1, 0, 151.406393, -84.416507)"><path id="path1225" clip-path="url(#a-1)" d="m -45.534,209.35 29.33,16.933 v 33.867 l -29.33,16.933 -29.33,-16.933 v -33.867 z" transform="matrix(0,-0.09735269,0.09735269,0,37.849461,106.13947)" style="fill:#000000;fill-opacity:1;stroke:none;stroke-width:4.011"/><path style="fill:#000000;fill-opacity:1;stroke:none;stroke-width:4.011" transform="matrix(0,-0.09735269,0.09735269,0,29.558531,106.13947)" d="m -45.534,209.35 29.33,16.933 v 33.867 l -29.33,16.933 -29.33,-16.933 v -33.867 z" clip-path="url(#a-1)" id="path1227"/><path style="fill:#000000;fill-opacity:1;stroke:none;stroke-width:4.011" transform="matrix(0,-0.09735269,0.09735269,0,21.267591,106.13947)" d="m -45.534,209.35 29.33,16.933 v 33.867 l -29.33,16.933 -29.33,-16.933 v -33.867 z" clip-path="url(#a-1)" id="path1229"/><path style="fill:#000000;fill-opacity:1;stroke:none;stroke-width:4.011" transform="matrix(0,-0.09735269,0.09735269,0,37.849461,114.13947)" d="m -45.534,209.35 29.33,16.933 v 33.867 l -29.33,16.933 -29.33,-16.933 v -33.867 z" clip-path="url(#a-1)" id="path1231"/><path id="path1233" clip-path="url(#a-1)" d="m -45.534,209.35 29.33,16.933 v 33.867 l -29.33,16.933 -29.33,-16.933 v -33.867 z" transform="matrix(0,-0.09735269,0.09735269,0,29.558531,114.13947)" style="fill:#000000;fill-opacity:1;stroke:none;stroke-width:4.011"/><path id="path1235" clip-path="url(#a-1)" d="m -45.534,209.35 29.33,16.933 v 33.867 l -29.33,16.933 -29.33,-16.933 v -33.867 z" transform="matrix(0,-0.09735269,0.09735269,0,21.267591,114.13947)" style="fill:#000000;fill-opacity:1;stroke:none;stroke-width:4.011"/></g><path id="path1279" d="M 72,80 V 90 H 66 V 80 c 0,-4 6,-4 6,0 z" style="fill:#000000;fill-opacity:1;stroke:none;stroke-width:7.02896;stroke-linecap:round;stroke-linejoin:miter;stroke-miterlimit:4;stroke-dasharray:none;stroke-opacity:1" transform="matrix(1, 0, 0, 1, -32.165934, -94.416507)"/><g id="g841" transform="matrix(3.801812, 0, 0, 3.801812, 78.794762, 27.921412)" style=""><circle style="fill:#824420;fill-opacity:1;stroke:#000000;stroke-width:2.1166985;stroke-miterlimit:10;stroke-dasharray:none;stroke-opacity:1" id="circle2681-9" stroke-miterlimit="10" cy="6.8830261" cx="-10.938052" r="7.1720281"/><g transform="matrix(0.26458733,0,0,0.26458733,-34.176497,-40.680096)" id="g1087"><path style="fill:#000000;fill-opacity:0.65656565;stroke:none;stroke-width:4.01100016" transform="matrix(0.15539667,-0.26915492,0.26915492,0.15539667,29.01575,110.71198)" d="m -45.534,209.35 29.33,50.8 -29.33,16.933 -29.33,-16.933 v -33.867 z" clip-path="url(#a-1-8)" id="path1078"/><path style="fill:#000000;fill-opacity:1;stroke:none;stroke-width:8.8640871;stroke-linecap:round;stroke-linejoin:miter;stroke-miterlimit:4;stroke-dasharray:none;stroke-opacity:1;paint-order:normal" d="M 95.69742,156.8684 H 100 l 1e-5,12.26322 -10.0394,5.73678 1e-5,21.1316 -4.3026,-1e-5 v -23.99998 l 10.03939,-5.7368 z" id="path1080"/><path id="path1082" d="m 79.96061,156.8684 h -4.30258 l -1e-5,12.26322 10.03939,5.73678 -1e-5,29.78856 4.3026,-1e-5 v -32.65694 l -10.03938,-5.7368 z" style="fill:#000000;fill-opacity:1;stroke:none;stroke-width:8.8640871;stroke-linecap:round;stroke-linejoin:miter;stroke-miterlimit:4;stroke-dasharray:none;stroke-opacity:1;paint-order:normal"/></g><path id="path1089" d="M -8.2921801,10.823664 H -10.938053 V 9.2361398 h 2.6458729 c 1.05835,0 1.05835,1.5875242 0,1.5875242 z" style="fill:#000000;fill-opacity:1;stroke:none;stroke-width:1.85977256;stroke-linecap:round;stroke-linejoin:miter;stroke-miterlimit:4;stroke-dasharray:none;stroke-opacity:1"/><path style="fill:#000000;fill-opacity:1;stroke:none;stroke-width:1.85977256;stroke-linecap:round;stroke-linejoin:miter;stroke-miterlimit:4;stroke-dasharray:none;stroke-opacity:1" d="m -13.583926,6.5902664 h 2.645873 v 1.587524 h -2.645873 c -1.058349,0 -1.058349,-1.587524 0,-1.587524 z" id="path1091"/></g><path id="path1283" d="M 53,38 H 95 V 48 H 53 Z" style="fill:#000000;fill-opacity:1;stroke:none;stroke-width:16.4738;stroke-linecap:round;stroke-linejoin:miter;stroke-miterlimit:4;stroke-dasharray:none;stroke-opacity:1" transform="matrix(1, 0, 0, 1, -32.165934, -94.416507)"/><rect y="-88" x="-118" height="13.999999" width="12.00001" id="rect1299" style="fill:#5b1616;fill-opacity:1;stroke:#000000;stroke-width:8;stroke-linecap:butt;stroke-linejoin:miter;stroke-miterlimit:10;stroke-dasharray:none;stroke-opacity:1" transform="matrix(-1, 0, 0, -1, -51.165934, -132.416507)" clip-path="url(#clipPath1301)"/><path style="fill:#000000;fill-opacity:1;stroke:none;stroke-width:5.08391;stroke-linecap:round;stroke-linejoin:miter;stroke-miterlimit:4;stroke-dasharray:none;stroke-opacity:1" d="m 71,12 v 8 h -4 v -8 l 2,-2 z" id="path1305" transform="matrix(1, 0, 0, 1, -32.165934, -94.416507)"/><path id="path1307" d="m 71,182 v 8 h -4 v -8 l 2,-2 z" style="fill:#000000;fill-opacity:1;stroke:none;stroke-width:5.08391;stroke-linecap:round;stroke-linejoin:miter;stroke-miterlimit:4;stroke-dasharray:none;stroke-opacity:1" transform="matrix(1, 0, 0, 1, -32.165934, -94.416507)"/></svg>