<svg width="22" height="31" viewBox="0 0 22 31" fill="none" xmlns="http://www.w3.org/2000/svg">
<path d="M11.6219 1.20381C11.3219 0.803809 10.8219 0.803809 10.5219 1.20381C8.32187 4.20381 0.921875 15.3038 0.921875 20.3038C0.921875 25.9038 5.52187 30.5038 11.1219 30.5038C16.7219 30.5038 21.3219 25.9038 21.3219 20.3038C21.3219 15.4038 13.7219 4.20381 11.6219 1.20381ZM11.0219 26.6038C7.12187 26.6038 3.92188 23.4038 3.92188 19.5038C3.92188 19.2038 4.12187 19.0038 4.42188 19.0038C4.72188 19.0038 4.92188 19.2038 4.92188 19.5038C4.92188 22.9038 7.62187 25.6038 11.0219 25.6038C11.3219 25.6038 11.5219 25.8038 11.5219 26.1038C11.5219 26.4038 11.3219 26.6038 11.0219 26.6038Z" fill="#47A7EE"/>
</svg>
