<svg width="129" height="128" viewBox="0 0 129 128" fill="none" xmlns="http://www.w3.org/2000/svg">
<mask id="mask0" mask-type="alpha" maskUnits="userSpaceOnUse" x="0" y="0" width="129" height="128">
<rect x="0.277344" width="128" height="128" fill="#C4C4C4"/>
</mask>
<g mask="url(#mask0)">
<path fill-rule="evenodd" clip-rule="evenodd" d="M32.3689 80.6658C30.8009 80.5055 28.5934 80.5935 26.0304 82.9923C22.9677 85.859 21.9161 87.025 21.7732 87.2496L19.3232 80.6327L21.497 78.4589C22.5733 77.4217 24.4403 74.9862 24.0774 72.3269C24.0672 72.2648 24.0575 72.2026 24.0483 72.1403C24.0388 72.086 24.0283 72.0316 24.0168 71.9771C23.9989 71.8918 23.993 71.8144 23.9983 71.7445C23.6842 68.799 24.656 65.7424 26.9136 63.4847L56.8654 33.5329C60.8292 29.5691 67.2559 29.5691 71.2198 33.533C75.1837 37.4968 75.1837 43.9235 71.2198 47.8874L41.2681 77.8391C38.8465 80.2607 35.5058 81.2029 32.3689 80.6658Z" fill="#AEAEAE"/>
<path d="M26.0304 82.9923L25.1763 82.0797L26.0304 82.9923ZM32.3689 80.6658L32.5799 79.4337L32.5382 79.4266L32.4961 79.4222L32.3689 80.6658ZM21.7732 87.2496L20.6009 87.6836L21.4755 90.0457L22.8277 87.9207L21.7732 87.2496ZM19.3232 80.6327L18.4393 79.7488L17.8728 80.3154L18.151 81.0667L19.3232 80.6327ZM21.497 78.4589L20.6296 77.5588L20.6213 77.5668L20.6131 77.575L21.497 78.4589ZM24.0774 72.3269L25.3159 72.1579L25.3136 72.1404L25.3107 72.1229L24.0774 72.3269ZM24.0483 72.1403L25.2852 71.9592L25.2826 71.9417L25.2795 71.9242L24.0483 72.1403ZM24.0168 71.9771L22.7936 72.2346L22.7936 72.2346L24.0168 71.9771ZM23.9983 71.7445L25.2447 71.8391L25.2533 71.7254L25.2412 71.6119L23.9983 71.7445ZM26.8846 83.9049C28.035 82.8282 29.055 82.3146 29.9126 82.0723C30.7744 81.8288 31.5457 81.8381 32.2418 81.9093L32.4961 79.4222C31.624 79.3331 30.5076 79.3063 29.2329 79.6664C27.954 80.0278 26.5888 80.7576 25.1763 82.0797L26.8846 83.9049ZM22.8277 87.9207C22.8002 87.9639 22.8248 87.9211 22.9985 87.7274C23.1491 87.5595 23.3763 87.317 23.7001 86.9862C24.3471 86.3253 25.3617 85.3304 26.8846 83.9049L25.1763 82.0797C23.6364 83.521 22.5939 84.5424 21.9136 85.2373C21.5739 85.5844 21.3199 85.8547 21.1374 86.0582C20.9781 86.2358 20.8176 86.423 20.7186 86.5785L22.8277 87.9207ZM18.151 81.0667L20.6009 87.6836L22.9454 86.8156L20.4954 80.1987L18.151 81.0667ZM20.6131 77.575L18.4393 79.7488L20.2071 81.5166L22.3809 79.3428L20.6131 77.575ZM22.8389 72.4959C22.9741 73.4868 22.7 74.4956 22.2175 75.4253C21.7357 76.3533 21.0901 77.1151 20.6296 77.5588L22.3644 79.359C22.9802 78.7655 23.8062 77.791 24.4363 76.5771C25.0656 75.3649 25.5436 73.8263 25.3159 72.1579L22.8389 72.4959ZM25.3107 72.1229C25.3017 72.0684 25.2932 72.0139 25.2852 71.9592L22.8115 72.3215C22.8218 72.3913 22.8326 72.4612 22.8442 72.5309L25.3107 72.1229ZM22.7936 72.2346C22.8022 72.2754 22.8101 72.316 22.8172 72.3565L25.2795 71.9242C25.2675 71.856 25.2544 71.7878 25.24 71.7196L22.7936 72.2346ZM22.7519 71.6498C22.736 71.8584 22.756 72.0559 22.7936 72.2346L25.24 71.7196C25.2417 71.7277 25.2499 71.7704 25.2447 71.8391L22.7519 71.6498ZM25.2412 71.6119C24.9655 69.026 25.8183 66.3478 27.7975 64.3686L26.0297 62.6008C23.4937 65.1369 22.4029 68.572 22.7553 71.877L25.2412 71.6119ZM27.7975 64.3686L57.7493 34.4168L55.9815 32.6491L26.0297 62.6008L27.7975 64.3686ZM57.7493 34.4168C61.225 30.9411 66.8602 30.9411 70.3359 34.4168L72.1037 32.6491C67.6517 28.197 60.4335 28.197 55.9815 32.6491L57.7493 34.4168ZM70.3359 34.4168C73.8116 37.8926 73.8116 43.5278 70.3359 47.0035L72.1037 48.7713C76.5557 44.3193 76.5557 37.1011 72.1037 32.6491L70.3359 34.4168ZM70.3359 47.0035L40.3842 76.9553L42.152 78.723L72.1037 48.7713L70.3359 47.0035ZM40.3842 76.9553C38.2616 79.0779 35.3341 79.9053 32.5799 79.4337L32.158 81.8978C35.6775 82.5005 39.4315 81.4435 42.152 78.723L40.3842 76.9553Z" fill="black"/>
<path fill-rule="evenodd" clip-rule="evenodd" d="M52.8397 98.5784L60.2502 121.12C60.7323 122.492 62.2217 124.664 64.3231 122.376C66.4245 120.088 68.9341 117.454 69.9263 116.423C70.6559 115.654 71.6366 113.93 69.722 113.183C67.8074 112.436 63.8459 99.816 62.1045 93.5994C63.4155 92.1123 65.7323 89.5523 67.1554 87.9799C68.0345 87.0085 68.5726 86.4139 68.3218 86.682C68.2477 86.7612 68.2615 86.7387 68.3266 86.6324C68.6688 86.0741 70.4269 83.2055 68.2926 80.6405C66.7197 78.7501 60.18 71.9949 56.7759 68.4811C56.247 67.8768 54.8831 66.9551 53.6593 68.1034C52.4354 69.2517 49.3714 72.3597 47.9925 73.7702C47.5116 74.262 47.4293 74.6237 48.1342 75.3286L47.0154 76.4474C46.6868 76.1119 46.3642 76.2339 46.2439 76.3368C44.001 78.5148 39.9122 82.6331 37.0145 85.5518C35.9283 86.6458 35.0095 87.5712 34.418 88.1627C33.0742 89.5065 33.5217 90.0397 33.8214 90.3968C33.9525 90.5529 34.0553 90.6754 33.9677 90.8172C30.681 96.144 24.5803 91.736 21.9408 88.8661L23.7513 88.2835L24.3406 85.7107L17.3613 78.7314L14.9993 79.5314L14.9117 81.8371C12.8784 83.812 8.63093 87.9778 7.90712 88.8417C7.18331 89.7056 7.62581 91.3606 7.93753 92.0802C8.86998 93.0756 10.9993 95.2931 12.0571 96.1998C13.1149 97.1065 15.1385 96.4555 16.0181 96.0167L16.7322 98.3248L18.6153 98.614L26.2077 106.206L24.9531 107.461C26.3144 108.94 29.1947 112.045 29.8252 112.629C30.4556 113.212 31.3192 112.857 31.6722 112.607L34.2415 110.038C34.7084 109.571 34.2748 108.204 33.9996 107.579L36.043 105.535L37.5594 106.062C39.5285 104.228 44.0837 99.9934 46.5513 97.7278C49.6358 94.8959 52.1251 96.6636 52.8397 98.5784ZM62.5551 88.6976C63.909 87.2105 65.3355 85.6436 65.5496 85.3682C65.5767 85.3333 65.6071 85.2956 65.6397 85.2552C66.0971 84.6891 66.9921 83.5813 65.462 81.8367C64.0999 80.2836 64.0984 80.2821 63.6314 79.8151C63.1645 79.3482 59.4529 84.4084 59.1882 85.0173C59.0109 85.4249 60.289 91.1974 60.6747 90.7687C61.1592 90.2308 61.8472 89.4751 62.5551 88.6976Z" fill="white"/>
<path d="M60.2502 121.12L59.0627 121.51L59.0667 121.522L59.0709 121.534L60.2502 121.12ZM52.8397 98.5784L54.0271 98.188L54.0194 98.1645L54.0108 98.1413L52.8397 98.5784ZM64.3231 122.376L63.4024 121.531L64.3231 122.376ZM69.9263 116.423L70.827 117.289L70.8328 117.283L69.9263 116.423ZM69.722 113.183L69.2676 114.348L69.2676 114.348L69.722 113.183ZM62.1045 93.5994L61.1668 92.7728L60.7176 93.2824L60.9008 93.9366L62.1045 93.5994ZM67.1554 87.9799L68.0822 88.8187L68.0822 88.8187L67.1554 87.9799ZM68.3218 86.682L67.4091 85.8279L67.4091 85.8279L68.3218 86.682ZM68.3266 86.6324L69.3924 87.2856L69.3924 87.2856L68.3266 86.6324ZM68.2926 80.6405L67.3318 81.44L67.3318 81.44L68.2926 80.6405ZM56.7759 68.4811L55.8353 69.3044L55.8561 69.3282L55.8782 69.3509L56.7759 68.4811ZM47.9925 73.7702L47.0987 72.8964L47.0987 72.8964L47.9925 73.7702ZM48.1342 75.3286L49.0181 76.2125L49.9019 75.3286L49.0181 74.4447L48.1342 75.3286ZM47.0154 76.4474L46.1225 77.3221L47.0063 78.2242L47.8993 77.3312L47.0154 76.4474ZM46.2439 76.3368L45.4313 75.387L45.4014 75.4126L45.3731 75.44L46.2439 76.3368ZM37.0145 85.5518L37.9015 86.4325L37.9015 86.4325L37.0145 85.5518ZM33.8214 90.3968L32.8639 91.2004L32.8639 91.2004L33.8214 90.3968ZM33.9677 90.8172L32.9039 90.1609L32.9039 90.1609L33.9677 90.8172ZM21.9408 88.8661L21.5578 87.6762L19.6984 88.2746L21.0207 89.7123L21.9408 88.8661ZM23.7513 88.2835L24.1343 89.4734L24.8111 89.2556L24.9698 88.5625L23.7513 88.2835ZM24.3406 85.7107L25.5591 85.9898L25.7134 85.3158L25.2245 84.8268L24.3406 85.7107ZM17.3613 78.7314L18.2452 77.8475L17.6959 77.2983L16.9603 77.5475L17.3613 78.7314ZM14.9993 79.5314L14.5983 78.3475L13.7829 78.6237L13.7502 79.484L14.9993 79.5314ZM14.9117 81.8371L15.7826 82.7337L16.1418 82.3849L16.1608 81.8845L14.9117 81.8371ZM7.93753 92.0802L6.79055 92.5771L6.87685 92.7763L7.02527 92.9347L7.93753 92.0802ZM16.0181 96.0167L17.2122 95.6473L16.7771 94.2412L15.4601 94.8982L16.0181 96.0167ZM16.7322 98.3248L15.5381 98.6943L15.7693 99.4416L16.5425 99.5603L16.7322 98.3248ZM18.6153 98.614L19.4992 97.7301L19.2097 97.4406L18.8051 97.3785L18.6153 98.614ZM26.2077 106.206L27.0915 107.09L27.9754 106.206L27.0915 105.322L26.2077 106.206ZM24.9531 107.461L24.0692 106.577L23.2213 107.425L24.0332 108.307L24.9531 107.461ZM29.8252 112.629L30.6744 111.712L30.6744 111.712L29.8252 112.629ZM31.6722 112.607L32.3956 113.626L32.4815 113.565L32.5561 113.491L31.6722 112.607ZM34.2415 110.038L33.3576 109.154L34.2415 110.038ZM33.9996 107.579L33.1157 106.695L32.5109 107.3L32.8555 108.082L33.9996 107.579ZM36.043 105.535L36.4531 104.355L35.7131 104.097L35.1591 104.651L36.043 105.535ZM37.5594 106.062L37.1493 107.243L37.8604 107.49L38.4113 106.977L37.5594 106.062ZM46.5513 97.7278L47.3967 98.6486L47.3967 98.6486L46.5513 97.7278ZM65.5496 85.3682L64.5627 84.601L64.5627 84.601L65.5496 85.3682ZM62.5551 88.6976L63.4794 89.5391L63.4794 89.5391L62.5551 88.6976ZM65.6397 85.2552L64.6674 84.4697L64.6674 84.4698L65.6397 85.2552ZM65.462 81.8367L66.4018 81.0125L66.4018 81.0125L65.462 81.8367ZM59.1882 85.0173L58.0418 84.5189L58.0418 84.5189L59.1882 85.0173ZM60.6747 90.7687L59.7459 89.9322L59.7456 89.9325L60.6747 90.7687ZM61.4377 120.73L54.0271 98.188L51.6522 98.9688L59.0627 121.51L61.4377 120.73ZM63.4024 121.531C62.9843 121.986 62.7106 122.093 62.6012 122.117C62.5235 122.134 62.4529 122.129 62.3353 122.057C62.192 121.968 62.0148 121.794 61.8349 121.524C61.6598 121.261 61.5203 120.964 61.4295 120.706L59.0709 121.534C59.3469 122.32 59.9656 123.533 61.0235 124.185C61.6012 124.541 62.3271 124.736 63.1347 124.559C63.9107 124.39 64.6112 123.91 65.2437 123.222L63.4024 121.531ZM69.0256 115.556C68.0298 116.591 65.5128 119.233 63.4024 121.531L65.2437 123.222C67.3361 120.943 69.8384 118.317 70.827 117.289L69.0256 115.556ZM69.2676 114.348C69.563 114.463 69.6033 114.558 69.5901 114.536C69.5741 114.509 69.5953 114.508 69.5807 114.602C69.5639 114.71 69.5071 114.87 69.3925 115.066C69.2812 115.256 69.143 115.432 69.0198 115.562L70.8328 117.283C71.2757 116.817 71.8973 115.969 72.0507 114.988C72.1332 114.461 72.0862 113.841 71.7383 113.257C71.3933 112.677 70.8383 112.277 70.1764 112.019L69.2676 114.348ZM60.9008 93.9366C61.7765 97.0626 63.2112 101.802 64.672 105.865C65.401 107.893 66.1472 109.782 66.8429 111.225C67.1894 111.944 67.5398 112.587 67.8866 113.091C68.0602 113.343 68.2495 113.585 68.4549 113.791C68.651 113.988 68.9216 114.213 69.2676 114.348L70.1764 112.019C70.2831 112.06 70.2984 112.099 70.2252 112.026C70.1615 111.962 70.0676 111.85 69.9462 111.674C69.7031 111.32 69.4163 110.806 69.0949 110.139C68.455 108.812 67.743 107.017 67.0246 105.019C65.5907 101.031 64.1739 96.3529 63.3082 93.2623L60.9008 93.9366ZM66.2286 87.1411C64.808 88.7108 62.4846 91.278 61.1668 92.7728L63.0422 94.426C64.3465 92.9465 66.6566 90.3939 68.0822 88.8187L66.2286 87.1411ZM69.2346 87.536C69.2725 87.4955 69.2726 87.496 69.2592 87.5092C69.2558 87.5126 69.2457 87.5226 69.232 87.5353C69.2252 87.5416 69.2123 87.5534 69.1956 87.5677C69.1857 87.5762 69.1439 87.6121 69.0855 87.6517C69.0617 87.6679 68.9876 87.7178 68.8831 87.7634C68.8261 87.7865 68.678 87.8323 68.5863 87.851C68.4373 87.8664 68.0558 87.8238 67.8358 87.7412C67.5862 87.5802 67.2514 87.1475 67.1678 86.9083C67.14 86.7449 67.1415 86.4766 67.1573 86.3749C67.1915 86.2024 67.2553 86.0788 67.2683 86.0531C67.309 85.9728 67.3499 85.9147 67.3565 85.9052C67.371 85.8843 67.3831 85.8683 67.3891 85.8604C67.4168 85.8242 67.4418 85.7964 67.426 85.8145C67.4058 85.8378 67.3429 85.9082 67.2335 86.0296C67.0217 86.2647 66.6687 86.6548 66.2286 87.1411L68.0822 88.8187C68.5212 88.3336 68.8768 87.9407 69.0911 87.7027C69.1948 87.5876 69.2744 87.4988 69.3119 87.4557C69.3174 87.4494 69.3244 87.4413 69.3318 87.4326C69.3344 87.4295 69.3542 87.4063 69.3762 87.3775C69.3827 87.369 69.3951 87.3525 69.4099 87.3312C69.4168 87.3213 69.4579 87.2629 69.4987 87.1823C69.5117 87.1566 69.5756 87.0329 69.6098 86.8603C69.6256 86.7585 69.627 86.4902 69.5993 86.3269C69.5156 86.0876 69.1809 85.6549 68.9313 85.4939C68.7112 85.4113 68.3298 85.3687 68.1807 85.3841C68.0889 85.4027 67.9408 85.4486 67.8838 85.4718C67.7792 85.5174 67.705 85.5673 67.6811 85.5835C67.6225 85.6233 67.5804 85.6595 67.5701 85.6683C67.5529 85.683 67.5395 85.6953 67.5322 85.7021C67.5173 85.7159 67.5056 85.7274 67.5003 85.7326C67.4718 85.7609 67.4338 85.8014 67.4091 85.8279L69.2346 87.536ZM67.2609 85.9792C67.2473 86.0014 67.2269 86.0345 67.2103 86.0628C67.2022 86.0765 67.1867 86.1031 67.1702 86.1346C67.1619 86.1504 67.1479 86.1777 67.1326 86.2119C67.1217 86.2363 67.088 86.3123 67.0617 86.4142C67.0489 86.4638 67.0249 86.5674 67.022 86.701C67.0196 86.8127 67.0265 87.111 67.2284 87.4172C67.4799 87.7985 67.8731 87.9595 68.2047 87.9775C68.4717 87.992 68.6718 87.9167 68.7464 87.8862C68.9069 87.8206 69.0159 87.7355 69.0362 87.72C69.0764 87.6892 69.107 87.662 69.1226 87.6479C69.1744 87.6008 69.2214 87.5501 69.2346 87.536L67.4091 85.8279C67.3852 85.8534 67.4061 85.8296 67.4417 85.7973C67.4532 85.7868 67.4803 85.7626 67.5177 85.734C67.5352 85.7206 67.6419 85.6369 67.8007 85.572C67.8745 85.5418 68.0739 85.4667 68.3404 85.4812C68.6714 85.4992 69.0643 85.66 69.3154 86.0408C69.5171 86.3467 69.5239 86.6444 69.5215 86.7554C69.5186 86.8882 69.4948 86.9908 69.4823 87.0393C69.4565 87.1389 69.424 87.212 69.4147 87.2326C69.4011 87.2632 69.3892 87.2861 69.3836 87.2968C69.3773 87.3089 69.3723 87.3177 69.37 87.3219C69.3674 87.3264 69.3658 87.3291 69.3656 87.3294C69.3655 87.3296 69.3673 87.3266 69.3726 87.3178C69.3778 87.3094 69.3839 87.2994 69.3924 87.2856L67.2609 85.9792ZM67.3318 81.44C68.1029 82.3667 68.1737 83.3158 68.0113 84.1502C67.8411 85.0247 67.4193 85.7207 67.2609 85.9792L69.3924 87.2856C69.5761 86.9857 70.2044 85.9683 70.4653 84.6277C70.7339 83.2471 70.6167 81.4793 69.2535 79.841L67.3318 81.44ZM55.8782 69.3509C59.3098 72.8931 65.7984 79.5971 67.3318 81.44L69.2535 79.841C67.6411 77.9031 61.0502 71.0966 57.6737 67.6114L55.8782 69.3509ZM54.5146 69.015C54.6688 68.8702 54.782 68.8297 54.8485 68.8156C54.9211 68.8001 55.0115 68.8012 55.13 68.8355C55.3998 68.9138 55.6805 69.1275 55.8353 69.3044L57.7166 67.6579C57.3424 67.2304 56.6768 66.6811 55.8264 66.4345C54.891 66.1632 53.7732 66.2824 52.804 67.1918L54.5146 69.015ZM48.8863 74.6441C50.272 73.2267 53.3147 70.1407 54.5146 69.015L52.804 67.1918C51.556 68.3627 48.4709 71.4928 47.0987 72.8964L48.8863 74.6441ZM49.0181 74.4447C48.9524 74.3791 48.9053 74.3268 48.8722 74.2864C48.8389 74.2459 48.8244 74.2231 48.8207 74.2168C48.814 74.2055 48.8635 74.2847 48.8681 74.4309C48.8703 74.5017 48.861 74.5686 48.845 74.6264C48.8296 74.6822 48.8108 74.7194 48.8015 74.736C48.7927 74.7515 48.7911 74.751 48.8058 74.7326C48.8206 74.7143 48.8456 74.6856 48.8863 74.6441L47.0987 72.8964C46.8293 73.1718 46.3447 73.7151 46.3693 74.5082C46.3925 75.2597 46.8633 75.8255 47.2503 76.2125L49.0181 74.4447ZM47.8993 77.3312L49.0181 76.2125L47.2503 74.4447L46.1316 75.5635L47.8993 77.3312ZM47.0566 77.2865C46.9174 77.4057 46.7511 77.4757 46.5646 77.4776C46.3286 77.4801 46.1729 77.3735 46.1225 77.3221L47.9084 75.5726C47.5294 75.1858 47.0481 74.9725 46.5386 74.9778C46.0785 74.9826 45.6907 75.165 45.4313 75.387L47.0566 77.2865ZM37.9015 86.4325C40.8035 83.5096 44.8822 79.4016 47.1148 77.2335L45.3731 75.44C43.1199 77.6281 39.021 81.7566 36.1274 84.6711L37.9015 86.4325ZM35.3019 89.0466C35.8954 88.4531 36.8162 87.5256 37.9015 86.4325L36.1274 84.6711C35.0405 85.7659 34.1237 86.6893 33.5341 87.2789L35.3019 89.0466ZM34.7789 89.5932C34.6156 89.3987 34.7621 89.5214 34.7516 89.717C34.7477 89.7887 34.7268 89.7763 34.7961 89.6573C34.8676 89.5344 35.0147 89.3338 35.3019 89.0466L33.5341 87.2789C32.7987 88.0143 32.2993 88.7644 32.2552 89.5825C32.2074 90.4699 32.7275 91.0378 32.8639 91.2004L34.7789 89.5932ZM35.0315 91.4736C35.1587 91.2676 35.2449 91.017 35.25 90.7367C35.255 90.467 35.1836 90.2456 35.1127 90.0911C34.9959 89.8366 34.8069 89.6265 34.7789 89.5932L32.8639 91.2004C32.8814 91.2211 32.892 91.2338 32.9012 91.245C32.9099 91.2558 32.9123 91.259 32.9113 91.2576C32.9102 91.2562 32.9021 91.2453 32.8904 91.2268C32.8788 91.2084 32.8602 91.1768 32.8404 91.1336C32.8007 91.047 32.7467 90.8927 32.7504 90.6907C32.7544 90.4781 32.8206 90.296 32.9039 90.1609L35.0315 91.4736ZM21.0207 89.7123C22.4108 91.2237 24.7611 93.2051 27.2978 94.095C28.5813 94.5452 30.0038 94.7475 31.3996 94.3698C32.8263 93.9838 34.0689 93.0338 35.0315 91.4736L32.9039 90.1609C32.2232 91.2641 31.4707 91.7607 30.7466 91.9566C29.9916 92.1609 29.1077 92.0805 28.1253 91.7359C26.13 91.036 24.1102 89.3784 22.8608 88.0199L21.0207 89.7123ZM23.3684 87.0936L21.5578 87.6762L22.3237 90.056L24.1343 89.4734L23.3684 87.0936ZM23.1222 85.4316L22.5329 88.0044L24.9698 88.5625L25.5591 85.9898L23.1222 85.4316ZM16.4774 79.6153L23.4567 86.5946L25.2245 84.8268L18.2452 77.8475L16.4774 79.6153ZM15.4003 80.7154L17.7623 79.9153L16.9603 77.5475L14.5983 78.3475L15.4003 80.7154ZM16.1608 81.8845L16.2484 79.5789L13.7502 79.484L13.6626 81.7896L16.1608 81.8845ZM8.86527 89.6445C9.18038 89.2684 10.3689 88.0629 11.799 86.6431C13.2014 85.2509 14.7682 83.7191 15.7826 82.7337L14.0408 80.9404C13.022 81.93 11.4484 83.4685 10.0377 84.8689C8.65485 86.2417 7.35767 87.5511 6.94897 88.0389L8.86527 89.6445ZM9.08452 91.5833C8.9699 91.3187 8.82244 90.8525 8.77821 90.3948C8.72967 89.8926 8.82953 89.6871 8.86527 89.6445L6.94897 88.0389C6.26091 88.8601 6.22011 89.9141 6.2898 90.6353C6.3638 91.401 6.59344 92.1221 6.79055 92.5771L9.08452 91.5833ZM12.8706 95.2507C11.8745 94.3969 9.79303 92.2325 8.8498 91.2256L7.02527 92.9347C7.94693 93.9186 10.1242 96.1893 11.2436 97.1488L12.8706 95.2507ZM15.4601 94.8982C15.114 95.0709 14.5185 95.293 13.9319 95.3748C13.299 95.463 12.9861 95.3497 12.8706 95.2507L11.2436 97.1488C12.186 97.9566 13.4137 97.9711 14.277 97.8508C15.1865 97.7241 16.0426 97.4014 16.5761 97.1353L15.4601 94.8982ZM17.9264 97.9553L17.2122 95.6473L14.8239 96.3862L15.5381 98.6943L17.9264 97.9553ZM18.8051 97.3785L16.922 97.0893L16.5425 99.5603L18.4256 99.8495L18.8051 97.3785ZM27.0915 105.322L19.4992 97.7301L17.7314 99.4979L25.3238 107.09L27.0915 105.322ZM25.8369 108.345L27.0915 107.09L25.3238 105.322L24.0692 106.577L25.8369 108.345ZM30.6744 111.712C30.0917 111.172 27.26 108.122 25.8729 106.615L24.0332 108.307C25.3688 109.759 28.2978 112.918 28.9759 113.546L30.6744 111.712ZM30.9488 111.588C30.937 111.596 30.8965 111.621 30.8365 111.647C30.7776 111.672 30.7229 111.687 30.6806 111.693C30.6391 111.698 30.6286 111.693 30.6404 111.696C30.6469 111.698 30.6557 111.701 30.6646 111.706C30.6737 111.711 30.677 111.714 30.6744 111.712L28.9759 113.546C29.6345 114.156 30.4179 114.253 31.0248 114.169C31.5986 114.089 32.0883 113.844 32.3956 113.626L30.9488 111.588ZM33.3576 109.154L30.7883 111.723L32.5561 113.491L35.1253 110.922L33.3576 109.154ZM32.8555 108.082C32.9654 108.332 33.1055 108.732 33.1679 109.085C33.1993 109.263 33.2005 109.372 33.1958 109.418C33.1897 109.478 33.1884 109.323 33.3576 109.154L35.1253 110.922C35.528 110.519 35.6476 110.018 35.6829 109.671C35.7197 109.31 35.6828 108.951 35.6298 108.65C35.5232 108.047 35.309 107.451 35.1436 107.075L32.8555 108.082ZM35.1591 104.651L33.1157 106.695L34.8835 108.463L36.9269 106.419L35.1591 104.651ZM37.9695 104.881L36.4531 104.355L35.6329 106.716L37.1493 107.243L37.9695 104.881ZM45.7059 96.8071C43.2346 99.0761 38.6763 103.313 36.7074 105.147L38.4113 106.977C40.3807 105.142 44.9329 100.911 47.3967 98.6486L45.7059 96.8071ZM54.0108 98.1413C53.547 96.8986 52.4907 95.6373 50.9415 95.1752C49.312 94.6892 47.4772 95.1808 45.7059 96.8071L47.3967 98.6486C48.7099 97.4429 49.662 97.4024 50.2269 97.5709C50.8721 97.7634 51.4177 98.3434 51.6685 99.0154L54.0108 98.1413ZM64.5627 84.601C64.5631 84.6004 64.5613 84.6028 64.5563 84.6089C64.5515 84.6148 64.545 84.6228 64.5364 84.633C64.5191 84.6537 64.4965 84.6803 64.4681 84.7133C64.4111 84.7794 64.3367 84.8643 64.246 84.9667C64.065 85.1711 63.8274 85.4358 63.552 85.7408C63.0014 86.3505 62.3083 87.1119 61.6307 87.8561L63.4794 89.5391C64.7986 88.0901 66.2828 86.4617 66.5365 86.1353L64.5627 84.601ZM64.6674 84.4698C64.6366 84.5078 64.5984 84.5551 64.5627 84.601L66.5365 86.1353C66.555 86.1114 66.5776 86.0835 66.6121 86.0407L64.6674 84.4698ZM64.5223 82.6609C65.1093 83.3303 65.0789 83.683 65.0616 83.7922C65.0304 83.9888 64.9092 84.1704 64.6674 84.4697L66.6121 86.0408C66.8277 85.7739 67.3826 85.1185 67.5308 84.1835C67.6928 83.1611 67.3448 82.0877 66.4018 81.0125L64.5223 82.6609ZM62.7476 80.699C63.1805 81.132 63.1549 81.1019 64.5223 82.6609L66.4018 81.0125C65.0449 79.4654 65.0163 79.4322 64.5153 78.9313L62.7476 80.699ZM60.3345 85.5156C60.3186 85.5522 60.3452 85.4937 60.4827 85.2829C60.5987 85.1052 60.7573 84.8737 60.9476 84.6056C61.3278 84.0702 61.8177 83.4132 62.3126 82.7904C62.8134 82.1602 63.2946 81.5963 63.6618 81.2287C63.8548 81.0355 63.9637 80.9502 63.9961 80.9293C64.0207 80.9134 63.9367 80.9756 63.7743 81.0111C63.5912 81.0511 63.1299 81.0814 62.7476 80.699L64.5153 78.9313C64.0746 78.4905 63.5296 78.5056 63.2407 78.5687C62.9725 78.6273 62.7606 78.751 62.6385 78.83C62.3775 78.9988 62.1178 79.237 61.893 79.462C61.4247 79.9309 60.8738 80.5826 60.3553 81.2351C59.8308 81.8951 59.314 82.5882 58.9092 83.1582C58.7071 83.4429 58.5286 83.7029 58.3891 83.9166C58.2712 84.0973 58.1239 84.3301 58.0418 84.5189L60.3345 85.5156ZM59.7456 89.9325C59.8811 89.782 60.1281 89.5928 60.4881 89.5499C60.8369 89.5083 61.1052 89.6268 61.2492 89.7156C61.3876 89.8011 61.4695 89.893 61.5009 89.9303C61.5375 89.9737 61.5569 90.0054 61.5609 90.0119C61.5614 90.0128 61.5157 89.9258 61.434 89.6937C61.2838 89.2663 61.1051 88.6204 60.9358 87.915C60.7682 87.2164 60.619 86.4976 60.5236 85.9381C60.4755 85.6557 60.4442 85.4324 60.4296 85.2801C60.4261 85.2435 60.424 85.2145 60.4227 85.1925C60.4221 85.1817 60.4217 85.1734 60.4216 85.1674C60.4214 85.1614 60.4214 85.1588 60.4214 85.1592C60.4214 85.1594 60.4214 85.1645 60.4209 85.1736C60.4204 85.1823 60.4194 85.1988 60.4167 85.2211C60.4136 85.2462 60.3994 85.3663 60.3345 85.5156L58.0418 84.5189C57.9167 84.8066 57.9217 85.0926 57.9214 85.1483C57.9209 85.2715 57.9297 85.4002 57.941 85.518C57.9639 85.7577 58.0064 86.0488 58.0592 86.3583C58.1656 86.9824 58.3268 87.7563 58.5048 88.4982C58.6812 89.2333 58.8832 89.9756 59.0755 90.5228C59.1652 90.7779 59.2812 91.0747 59.4248 91.3108C59.4773 91.3973 59.6382 91.6591 59.9359 91.8429C60.1103 91.9506 60.4077 92.0772 60.7839 92.0323C61.1715 91.9862 61.4443 91.7822 61.6039 91.6049L59.7456 89.9325ZM61.6308 87.8561C60.9239 88.6326 60.2332 89.3912 59.7459 89.9322L61.6035 91.6053C62.0853 91.0704 62.7706 90.3177 63.4794 89.5391L61.6308 87.8561Z" fill="black"/>
<rect x="55.8047" y="67.9712" width="6.0637" height="6.67442" transform="rotate(-45 55.8047 67.9712)" fill="white" stroke="black" stroke-width="2"/>
<rect x="60.6055" y="72.7717" width="6.0637" height="4.60099" transform="rotate(-45 60.6055 72.7717)" fill="white" stroke="black" stroke-width="2"/>
<path d="M67.9213 71.4187L58.7179 62.2153L77.0159 43.7924L76.0521 41.6801L77.5081 40.9213L78.3899 42.4183L80.5691 41.6529L85.9612 47.0449L87.761 46.3351L90.8029 48.9461L89.8016 50.4037C90.3002 50.7647 90.5973 50.8954 91.3462 51.4779C92.1863 52.1313 92.1041 52.9344 91.9056 53.2681C91.0728 54.4377 91.0371 54.4258 90.1438 55.7397C89.5927 56.5502 88.7411 56.5001 88.2933 56.3227L86.6464 55.4869L71.2918 70.8416C71.3846 71.0565 71.3305 70.9031 71.7287 71.6199C72.2264 72.5158 72.043 73.5969 70.9283 74.0027C69.9126 74.3724 69.2648 73.684 68.9093 73.0456L67.9213 71.4187Z" fill="white" stroke="black" stroke-width="2.5"/>
<path d="M60.2729 72.9723L57.7621 75.483L59.9555 79.6694" stroke="black" stroke-width="2"/>
<path d="M48.9323 81.8171L50.2663 84.0185C50.5181 84.4525 51.1502 84.7075 51.8718 84.3611C52.7737 83.9282 52.7495 83.2408 52.5383 82.6845L51.4019 80.3936" stroke="black" stroke-width="2"/>
<path d="M19.0625 98.0515L21.0816 96.0324L23.6076 97.0418L25.8083 92.9652" stroke="black" stroke-width="2"/>
<path d="M24.543 95.744C26.6456 97.1866 32.0502 98.7779 36.8476 93.6027" stroke="black" stroke-width="2"/>
<path d="M36.1016 92.9436C37.7276 94.5697 39.6868 93.5421 40.5331 92.6957L42.1686 96.022L45.3195 94.5637L43.1027 90.1261L49.8445 83.3844" stroke="black" stroke-width="2"/>
<path d="M15.125 81.8907L22.1613 88.927" stroke="black" stroke-width="2.5"/>
<path d="M15.9766 95.8705L22.3985 89.4485" stroke="black" stroke-width="2.5"/>
<path d="M114.485 10.2691L112.025 11.0118L109.484 13.5522L113.68 17.7949L116.221 15.2545L116.825 12.6091L118.169 11.2653L115.829 8.92528L114.485 10.2691Z" fill="white" stroke="black" stroke-width="2.5"/>
<rect x="80.5" y="42.1906" width="43.4703" height="6.46377" transform="rotate(-45 80.5 42.1906)" fill="white" stroke="black" stroke-width="2"/>
<circle cx="88.4658" cy="53.0446" r="1.08068" transform="rotate(-45 88.4658 53.0446)" fill="black"/>
<circle cx="79.5598" cy="57.0421" r="0.879236" transform="rotate(-45 79.5598 57.0421)" fill="black"/>
<line x1="65.3242" y1="62.0957" x2="66.6028" y2="60.8171" stroke="black" stroke-width="2" stroke-linecap="round"/>
<line x1="62.3125" y1="115.774" x2="63.5911" y2="114.495" stroke="black" stroke-width="2" stroke-linecap="round"/>
<path d="M61.0569 120.566L64.8797 116.743C65.4631 116.16 66.8349 115.021 66.2512 113.27C65.6675 111.519 62.8753 104.33 61.6398 100.604" stroke="black"/>
<line x1="64.8437" y1="68.0397" x2="85.2367" y2="47.6466" stroke="black" stroke-width="2"/>
<path d="M22.317 110.139C22.2206 110.042 22.2469 109.88 22.3688 109.819L24.8297 108.584C24.9068 108.546 24.9999 108.561 25.0608 108.622L29.1048 112.666C29.2013 112.762 29.175 112.925 29.0531 112.986L26.5922 114.22C26.5151 114.259 26.422 114.244 26.3611 114.183L22.317 110.139Z" fill="black"/>
<circle cx="40.7437" cy="86.3112" r="1.07004" transform="rotate(-45 40.7437 86.3112)" fill="black"/>
<circle cx="56.5484" cy="93.5216" r="1.07004" transform="rotate(-45 56.5484 93.5216)" fill="black"/>
<circle cx="51.9781" cy="75.0748" r="1.07004" transform="rotate(-45 51.9781 75.0748)" fill="black"/>
<circle cx="57.064" cy="70.7469" r="1.07004" transform="rotate(-45 57.064 70.7469)" fill="black"/>
<path d="M62.4724 86.1976C61.9238 86.4811 60.1434 86.52 58.9315 85.8387C59.1274 84.9739 60.1513 83.0135 60.8325 83.9378C61.6839 85.0931 63.5018 83.9188 64.0129 84.3542C64.5241 84.7897 63.0209 85.9142 62.4724 86.1976Z" fill="black"/>
<rect x="34.6133" y="53.7638" width="6.16874" height="24.1115" transform="rotate(-45 34.6133 53.7638)" fill="white" stroke="black" stroke-width="2.5"/>
</g>
</svg>
