<svg width="36" height="154" viewBox="0 0 36 154" fill="none" xmlns="http://www.w3.org/2000/svg">
<path d="M15.9324 6.40125L14.2539 9.47586L14.2539 14.3527L22.4993 14.3975L22.4993 9.52065L20.5053 6.40125L20.5053 3.8216L15.9324 3.8216L15.9324 6.40125Z" fill="#FDD238"/>
<path fill-rule="evenodd" clip-rule="evenodd" d="M11.2539 17.3363L11.2539 8.7102L12.9324 5.63559L12.9324 0.821487L23.5053 0.821487L23.5053 5.52422L25.4993 8.64362L25.4993 17.4137L11.2539 17.3363ZM18.2422 8.43088L17.2539 10.2413L17.2539 11.3688L19.4993 11.381L19.4993 10.3975L18.2422 8.43088Z" fill="black"/>
<path d="M14.2539 65.1716L14.2539 14.3975L22.4993 14.3975L22.4993 65.1716L14.2539 65.1716Z" fill="white"/>
<path fill-rule="evenodd" clip-rule="evenodd" d="M11.2539 68.1716L11.2539 11.3975L25.4993 11.3975L25.4993 68.1716L11.2539 68.1716ZM17.2539 62.1716L19.4993 62.1716L19.4993 17.3975L17.2539 17.3975L17.2539 62.1716Z" fill="black"/>
<path fill-rule="evenodd" clip-rule="evenodd" d="M24.229 125.971C23.0069 126.967 21.5081 128.59 21.3921 132.098C21.3114 134.541 21.3247 134.509 21.3499 134.448C21.368 134.404 21.3921 134.346 21.3921 135.173L14.9809 135.173L14.9809 132.098C15.0086 130.604 14.6065 127.562 12.4696 125.938C12.4184 125.901 12.3676 125.864 12.3172 125.827C12.272 125.795 12.226 125.764 12.1793 125.733C12.1064 125.686 12.0474 125.635 12.0017 125.582C9.69686 123.721 8.22266 120.873 8.22266 117.68L8.22265 75.3217C8.22265 69.7159 12.767 65.1716 18.3728 65.1716C23.9785 65.1716 28.5229 69.716 28.5229 75.3217L28.5229 117.68C28.5229 121.104 26.8269 124.133 24.229 125.971Z" fill="#3BE300"/>
<path fill-rule="evenodd" clip-rule="evenodd" d="M12.2227 117.68C12.2227 119.613 13.1097 121.336 14.5143 122.469L14.6298 122.563L14.6605 122.584L14.706 122.618C14.7366 122.641 14.7674 122.663 14.7985 122.686L14.8445 122.719L14.8896 122.753C16.7059 124.133 17.7013 125.972 18.2457 127.543C18.4374 127.048 18.6581 126.581 18.9049 126.14C19.782 124.571 20.8724 123.546 21.7029 122.87L21.8079 122.784L21.9186 122.706C23.5023 121.585 24.5229 119.752 24.5229 117.68L24.5229 75.3217C24.5229 71.9251 21.7694 69.1715 18.3728 69.1715C14.9762 69.1715 12.2227 71.9251 12.2227 75.3217L12.2227 117.68ZM25.0187 136.042C25.0504 135.97 25.0621 135.938 25.046 135.977L25.0442 135.981L25.0399 135.992C25.0363 136 25.0302 136.015 25.0226 136.033C25.0214 136.035 25.0202 136.038 25.0187 136.042ZM25.331 134.366C25.3307 134.367 25.3304 134.352 25.3305 134.316C25.3313 134.347 25.3312 134.364 25.331 134.366ZM25.3381 133.918C25.3492 133.998 25.355 134.057 25.358 134.087C25.3897 134.405 25.3921 134.806 25.3921 135.173L25.3921 139.173L10.9809 139.173L10.9809 132.061L10.9816 132.024C10.989 131.622 10.9321 130.933 10.7235 130.274C10.5213 129.635 10.2678 129.3 10.0731 129.141C10.047 129.122 10.021 129.103 9.99505 129.084C9.99479 129.084 9.99531 129.084 9.99505 129.084C9.77774 128.942 9.54486 128.767 9.31557 128.552C6.20981 125.962 4.22266 122.052 4.22266 117.68L4.22265 75.3217C4.22265 67.5068 10.5579 61.1715 18.3728 61.1715C26.1877 61.1715 32.5229 67.5068 32.5229 75.3217L32.5229 117.68C32.5229 122.399 30.2088 126.578 26.6706 129.142C26.3241 129.434 26.0782 129.703 25.8867 130.045C25.6867 130.403 25.429 131.05 25.3899 132.23C25.3623 133.066 25.3464 133.591 25.3381 133.918Z" fill="black"/>
<path d="M6.98438 103.867L6.98437 99.6478L29.7635 99.6478L29.7635 103.867L6.98438 103.867Z" fill="#FDD238"/>
<path fill-rule="evenodd" clip-rule="evenodd" d="M0.984375 109.867L0.984374 93.6478L35.7635 93.6478L35.7635 109.867L0.984375 109.867ZM6.98437 103.867L6.98437 99.6478L29.7635 99.6478L29.7635 103.867L6.98437 103.867Z" fill="black"/>
<path d="M11.365 134.405H24.9234L25.6322 138.119L24.9234 141.833H11.365L10.6562 138.119L11.365 134.405Z" fill="#FDD238"/>
<path fill-rule="evenodd" clip-rule="evenodd" d="M9.71155 132.405H26.5788L27.6693 138.119L26.5788 143.833H9.71155L8.62109 138.119L9.71155 132.405ZM13.0204 136.405L12.6933 138.119L13.0204 139.833H23.27L23.5971 138.119L23.27 136.405H13.0204Z" fill="black"/>
<path d="M16.3633 149.918H19.918V153.828H16.3633V149.918Z" fill="black"/>
<path d="M12.3906 142.833C12.3906 142.281 12.8383 141.833 13.3906 141.833H22.9001C23.4524 141.833 23.9001 142.281 23.9001 142.833V149.405C23.9001 149.958 23.4524 150.405 22.9001 150.405H13.3906C12.8383 150.405 12.3906 149.958 12.3906 149.405V142.833Z" fill="#FDD238"/>
<path fill-rule="evenodd" clip-rule="evenodd" d="M10.3906 142.833C10.3906 141.176 11.7338 139.833 13.3906 139.833H22.9001C24.557 139.833 25.9001 141.176 25.9001 142.833V149.405C25.9001 151.062 24.557 152.405 22.9001 152.405H13.3906C11.7338 152.405 10.3906 151.062 10.3906 149.405V142.833ZM14.3906 143.833V148.405H21.9001V143.833H14.3906Z" fill="black"/>
</svg>
