<svg width="96" height="264" viewBox="0 0 96 264" fill="none" xmlns="http://www.w3.org/2000/svg">
<path fill-rule="evenodd" clip-rule="evenodd" d="M25.0137 141.368H6.45703V114.98H81.622V141.368H63.1118V132.338H25.0137V141.368ZM17.0137 133.368V124.338H71.1118V133.368H73.622V122.98H14.457V133.368H17.0137Z" fill="black"/>
<path fill-rule="evenodd" clip-rule="evenodd" d="M39 181.508H85.4315C90.9544 181.508 95.4315 185.985 95.4315 191.508V201.817C95.4315 207.34 90.9543 211.817 85.4315 211.817H39C33.4771 211.817 29 207.339 29 201.817V191.508C29 185.985 33.4772 181.508 39 181.508ZM39 189.508C37.8954 189.508 37 190.403 37 191.508V201.817C37 202.921 37.8954 203.817 39 203.817H85.4315C86.5361 203.817 87.4315 202.921 87.4315 201.817V191.508C87.4315 190.403 86.5361 189.508 85.4315 189.508H39Z" fill="black"/>
<path d="M13.1484 158.984H35.3438V179.194H13.1484V158.984Z" fill="#6A6A6A"/>
<path fill-rule="evenodd" clip-rule="evenodd" d="M32.3438 161.984H16.1484V176.194H32.3438V161.984ZM13.1484 158.984V179.194H35.3438V158.984H13.1484Z" fill="black"/>
<path d="M32.2656 6.42188H55.7805V149.25H32.2656V6.42188Z" fill="#464646"/>
<path fill-rule="evenodd" clip-rule="evenodd" d="M28.2656 2.42188H59.7805V153.25H28.2656V2.42188ZM36.2656 10.4219V145.25H51.7805V10.4219H36.2656Z" fill="black"/>
<path fill-rule="evenodd" clip-rule="evenodd" d="M38.75 4.42188H49.2994V151.25H38.75V4.42188ZM42.75 8.42188V147.25H45.2994V8.42188H42.75Z" fill="black"/>
<path d="M31.0039 0.21875H34.5487V6.42H31.0039V0.21875Z" fill="black"/>
<path d="M38.1719 0.21875H41.7167V6.42H38.1719V0.21875Z" fill="black"/>
<path d="M45.3438 0.21875H48.8885V6.42H45.3438V0.21875Z" fill="black"/>
<path d="M52.5156 0.21875H56.0604V6.42H52.5156V0.21875Z" fill="black"/>
<path d="M28.1406 15.7031H59.9141V21.1069H28.1406V15.7031Z" fill="#464646"/>
<path fill-rule="evenodd" clip-rule="evenodd" d="M26.1406 13.7031H61.9141V23.1069H26.1406V13.7031ZM30.1406 17.7031V19.1069H57.9141V17.7031H30.1406Z" fill="black"/>
<path d="M28.1406 31.0234H59.9141V36.4273H28.1406V31.0234Z" fill="#464646"/>
<path fill-rule="evenodd" clip-rule="evenodd" d="M26.1406 29.0234H61.9141V38.4273H26.1406V29.0234ZM30.1406 33.0234V34.4273H57.9141V33.0234H30.1406Z" fill="black"/>
<path d="M28.1406 64.2852C28.1406 63.7329 28.5883 63.2852 29.1406 63.2852H58.9141C59.4663 63.2852 59.9141 63.7329 59.9141 64.2852V70.212C59.9141 70.7643 59.4663 71.212 58.9141 71.212H29.1406C28.5883 71.212 28.1406 70.7643 28.1406 70.212V64.2852Z" fill="#464646"/>
<path fill-rule="evenodd" clip-rule="evenodd" d="M26.1406 64.2852C26.1406 62.6283 27.4838 61.2852 29.1406 61.2852H58.9141C60.5709 61.2852 61.9141 62.6283 61.9141 64.2852V70.212C61.9141 71.8689 60.5709 73.212 58.9141 73.212H29.1406C27.4838 73.212 26.1406 71.8689 26.1406 70.212V64.2852ZM30.1406 65.2852V69.212H57.9141V65.2852H30.1406Z" fill="black"/>
<path fill-rule="evenodd" clip-rule="evenodd" d="M75.6074 120.953H12.4453V135.371H20.0977V129.898H67.956V135.371H75.6074V120.953Z" fill="#464646"/>
<path fill-rule="evenodd" clip-rule="evenodd" d="M10.4453 118.953H77.6074V137.371H65.956V131.898H22.0977V137.371H10.4453V118.953ZM14.4453 122.953V133.371H18.0977V127.898H69.956V133.371H73.6074V122.953H14.4453Z" fill="black"/>
<path d="M24.4648 124.996C24.4648 124.444 24.9126 123.996 25.4648 123.996H62.5859C63.1382 123.996 63.5859 124.444 63.5859 124.996V125.326C63.5859 125.878 63.1382 126.326 62.5859 126.326H25.4648C24.9126 126.326 24.4648 125.878 24.4648 125.326V124.996Z" fill="black"/>
<path d="M3.00781 131.32H5.86572V137.421H3.00781V131.32Z" fill="black"/>
<path d="M15.0078 136.246H19.3488V142.346H15.0078V136.246Z" fill="black"/>
<path d="M12.0391 140.09H22.3236V161.14H12.0391V140.09Z" fill="black"/>
<path d="M10.8047 155.707H23.552V164.546H10.8047V155.707Z" fill="black"/>
<path d="M5.42188 131.664H6.78308V135.2H5.42188V131.664Z" fill="black"/>
<path fill-rule="evenodd" clip-rule="evenodd" d="M46.4888 218.211H41.5488V221.42H40.5143L37.4453 225.711V255.461H50.6074V225.711L47.5373 221.42H46.4888V218.211Z" fill="#464646"/>
<path fill-rule="evenodd" clip-rule="evenodd" d="M33.5488 210.211H54.4888V217.387L58.6074 223.143V263.461H29.4453V223.144L33.5488 217.407V210.211ZM37.4453 225.711V255.461H50.6074V225.711L47.5373 221.42H46.4888V218.211H41.5488V221.42H40.5143L37.4453 225.711Z" fill="black"/>
<path d="M21.0547 147.918H66.9931V178.685H21.0547V147.918Z" fill="#464646"/>
<path fill-rule="evenodd" clip-rule="evenodd" d="M17.0547 143.918H70.9931V182.685H17.0547V143.918ZM25.0547 151.918V174.685H62.9931V151.918H25.0547Z" fill="black"/>
<path d="M19.1484 178.688H68.8998V214.01H19.1484V178.688Z" fill="#464646"/>
<path fill-rule="evenodd" clip-rule="evenodd" d="M15.1484 174.688H72.8998V218.01H15.1484V174.688ZM23.1484 182.688V210.01H64.8998V182.688H23.1484Z" fill="black"/>
<path d="M25.0742 155.707H62.9911V158.853H25.0742V155.707Z" fill="#242424"/>
<path d="M23.1562 186.051H64.9104V186.889H23.1562V186.051Z" fill="#1D1D1D"/>
<path d="M34.0781 161.402H53.9875V169.342H34.0781V161.402Z" fill="#242424"/>
<path d="M34.0781 161.402H53.9875V170.125H34.0781V161.402Z" fill="#242424"/>
<path d="M26.6953 192.051H34.6568V193.913H26.6953V192.051Z" fill="#242424"/>
<path d="M28.3516 201.43H34.6591V203.292H28.3516V201.43Z" fill="#242424"/>
<path fill-rule="evenodd" clip-rule="evenodd" d="M26.3516 199.43H36.6591V205.292H26.3516V199.43ZM34.6591 201.43H28.3516V203.292H34.6591V201.43Z" fill="black"/>
<path d="M28.3516 192.984H34.6591V194.847H28.3516V192.984Z" fill="#242424"/>
<path fill-rule="evenodd" clip-rule="evenodd" d="M26.3516 190.984H36.6591V196.847H26.3516V190.984ZM34.6591 192.984H28.3516V194.847H34.6591V192.984Z" fill="black"/>
<path d="M51.625 199.84H57.289V201.702H51.625V199.84Z" fill="#242424"/>
<path fill-rule="evenodd" clip-rule="evenodd" d="M49.625 197.84H59.289V203.702H49.625V197.84ZM57.289 199.84H51.625V201.702H57.289V199.84Z" fill="black"/>
<path d="M67.0937 203.816C66.5415 203.816 66.0937 203.369 66.0937 202.816L66.0937 190.508C66.0937 189.955 66.5415 189.508 67.0937 189.508L86.4334 189.508C86.9857 189.508 87.4334 189.955 87.4334 190.508L87.4334 202.816C87.4334 203.369 86.9857 203.816 86.4334 203.816L67.0937 203.816Z" fill="#848484"/>
<path fill-rule="evenodd" clip-rule="evenodd" d="M63.0937 202.816L63.0937 190.508C63.0937 188.298 64.8846 186.508 67.0937 186.508L86.4334 186.508C88.6426 186.508 90.4334 188.298 90.4334 190.508L90.4334 202.816C90.4334 205.026 88.6426 206.816 86.4334 206.816L67.0937 206.816C64.8846 206.816 63.0937 205.026 63.0937 202.816ZM66.0937 202.816C66.0937 203.369 66.5415 203.816 67.0937 203.816L86.4334 203.816C86.9857 203.816 87.4334 203.369 87.4334 202.816L87.4334 190.508C87.4334 189.955 86.9857 189.508 86.4334 189.508L67.0937 189.508C66.5415 189.508 66.0937 189.955 66.0937 190.508L66.0937 202.816Z" fill="black"/>
<path d="M72.8438 203.816L72.8437 189.508L73.4479 189.508L73.4479 203.816L72.8438 203.816Z" fill="#242424"/>
<path d="M75.875 203.816L75.875 189.508L76.4792 189.508L76.4792 203.816L75.875 203.816Z" fill="#242424"/>
<path d="M78.9062 203.816L78.9062 189.508L79.5104 189.508L79.5104 203.816L78.9062 203.816Z" fill="#242424"/>
<path d="M81.9375 203.816L81.9375 189.508L82.5417 189.508L82.5417 203.816L81.9375 203.816Z" fill="#242424"/>
<path d="M84.9688 203.816L84.9687 189.508L85.5729 189.508L85.5729 203.816L84.9688 203.816Z" fill="#242424"/>
<path d="M23.5547 245.773H31.5162V249.155H23.5547V245.773Z" fill="black"/>
<path d="M39.2486 249.605C38.8171 248.31 39.781 246.973 41.1461 246.973H46.9421C48.3141 246.973 49.2787 248.323 48.8343 249.621L48.0341 251.958C47.7572 252.766 46.9969 253.31 46.142 253.31H41.9248C41.0638 253.31 40.2995 252.759 40.0273 251.942L39.2486 249.605Z" fill="#2B2B2B"/>
<path d="M49.8719 248.1C49.8719 250.071 47.2545 251.669 44.0258 251.669C40.7971 251.669 38.1797 250.071 38.1797 248.1C38.1797 246.129 40.7971 244.531 44.0258 244.531C47.2545 244.531 49.8719 246.129 49.8719 248.1Z" fill="#1E1C1C"/>
<path d="M48.9881 239.607C48.9881 244.88 46.7662 249.154 44.0253 249.154C41.2844 249.154 39.0625 244.88 39.0625 239.607C39.0625 234.333 41.2844 230.059 44.0253 230.059C46.7662 230.059 48.9881 234.333 48.9881 239.607Z" fill="#1E1C1C"/>
<path d="M59.2656 139.297H75.7297V169.342H59.2656V139.297Z" fill="#242424"/>
<path fill-rule="evenodd" clip-rule="evenodd" d="M69.7297 145.297H65.2656V163.342H69.7297V145.297ZM59.2656 139.297V169.342H75.7297V139.297H59.2656Z" fill="black"/>
<path fill-rule="evenodd" clip-rule="evenodd" d="M17.2188 127.662L19.8464 126.215L44.0275 170.108L68.2086 126.215L70.8362 127.663L46.4887 171.858V216.108H41.5487V171.826L17.2188 127.662Z" fill="#242424"/>
<path fill-rule="evenodd" clip-rule="evenodd" d="M20.6312 123.496L44.0256 165.962L67.42 123.496L73.5511 126.874L48.4868 172.371V218.106H39.5468V172.339L14.5 126.874L20.6312 123.496ZM41.5468 171.824V216.106H46.4868V171.856L70.8343 127.661L68.2067 126.213L44.0256 170.106L19.8445 126.213L17.2168 127.66L41.5468 171.824Z" fill="black"/>
<path d="M66.5508 136.664H72.979V140.559H66.5508V136.664Z" fill="black"/>
<path d="M50.8705 164.836H60.7728V168.746H49.7969L50.8705 164.836Z" fill="black"/>
<path d="M61.8984 206.139V185.965H68.9983V196.142C71.7509 195.738 76.7703 197.843 77.7419 200.109L76.4465 206.139H61.8984Z" fill="#464646"/>
<path fill-rule="evenodd" clip-rule="evenodd" d="M60.3984 184.465H70.4983V194.627C71.878 194.75 73.3586 195.185 74.6434 195.752C75.5923 196.17 76.5101 196.693 77.2784 197.296C78.0272 197.883 78.7384 198.627 79.1206 199.518L79.3087 199.957L77.6585 207.639H60.3984V184.465ZM63.3984 187.465V204.639H75.2345L76.1537 200.361C75.9975 200.159 75.7625 199.919 75.4274 199.657C74.8953 199.24 74.2041 198.837 73.4325 198.496C71.8353 197.792 70.1961 197.482 69.2165 197.626L67.4983 197.879V187.465H63.3984Z" fill="black"/>
<path d="M50.6055 189.77H60.7748V192.982H50.6055V189.77Z" fill="black"/>
<path d="M0.761719 170.684H23.5552V222.405H0.761719V170.684Z" fill="#242424"/>
<path fill-rule="evenodd" clip-rule="evenodd" d="M17.5552 176.684H6.76172V216.405H17.5552V176.684ZM0.761719 170.684V222.405H23.5552V170.684H0.761719Z" fill="black"/>
<path d="M6.78125 214.246H17.5635V216.401H6.78125V214.246Z" fill="#626262"/>
<path d="M6.78125 186.051H10.5156V192.982H6.78125V186.051Z" fill="#121212"/>
<path d="M6.78125 181.305H17.5644V182.345H6.78125V181.305Z" fill="#121212"/>
<path d="M13.8281 186.051H17.5625V192.982H13.8281V186.051Z" fill="#121212"/>
<path d="M14.5938 186.891H17.5627V192.052H14.5938V186.891Z" fill="#303030"/>
<path d="M6.78125 186.891H9.75015V192.052H6.78125V186.891Z" fill="#303030"/>
<path d="M39.1333 237.77H48.9009L49.8719 248.026H38.1797L39.1333 237.77Z" fill="#1E1C1C"/>
<path d="M46.56 247.336C46.56 248.19 45.4255 248.883 44.0261 248.883C42.6267 248.883 41.4922 248.19 41.4922 247.336C41.4922 246.482 42.6267 245.789 44.0261 245.789C45.4255 245.789 46.56 246.482 46.56 247.336Z" fill="#373737"/>
<path d="M45.7347 247.337C45.7347 247.914 44.9686 248.382 44.0236 248.382C43.0786 248.382 42.3125 247.914 42.3125 247.337C42.3125 246.761 43.0786 246.293 44.0236 246.293C44.9686 246.293 45.7347 246.761 45.7347 247.337Z" fill="#B31E1E"/>
</svg>
