<?xml version="1.0" encoding="UTF-8" standalone="no"?>
<svg xmlns:dc="http://purl.org/dc/elements/1.1/" xmlns:cc="http://creativecommons.org/ns#"
   xmlns:rdf="http://www.w3.org/1999/02/22-rdf-syntax-ns#" xmlns:svg="http://www.w3.org/2000/svg"
   xmlns="http://www.w3.org/2000/svg" xmlns:sodipodi="http://sodipodi.sourceforge.net/DTD/sodipodi-0.dtd"
   xmlns:inkscape="http://www.inkscape.org/namespaces/inkscape" width="138" height="130" viewBox="9 -10 138 130"
   transform="rotate(135) scale(-1, 1)" fill="none" version="1.1" id="svg36" sodipodi:docname="loot-melee-icepick.svg"
   inkscape:version="0.92.2 (5c3e80d, 2017-08-06)">
   <metadata id="metadata40">
      <rdf:RDF>
         <cc:Work rdf:about="">
            <dc:format>image/svg+xml</dc:format>
            <dc:type rdf:resource="http://purl.org/dc/dcmitype/StillImage" />
         </cc:Work>
      </rdf:RDF>
   </metadata>
   <sodipodi:namedview pagecolor="#ffffff" bordercolor="#666666" borderopacity="1" objecttolerance="10"
      gridtolerance="10" guidetolerance="10" inkscape:pageopacity="0" inkscape:pageshadow="2"
      inkscape:window-width="1920" inkscape:window-height="1017" id="namedview38" showgrid="false"
      inkscape:zoom="2.5745939" inkscape:cx="66.995368" inkscape:cy="62.120138" inkscape:window-x="1912"
      inkscape:window-y="-8" inkscape:window-maximized="1" inkscape:current-layer="svg36" />
   <path
      d="M129.483 55.0583L129.52 55.449L129.686 55.8044C131.46 59.5901 131.447 61.118 131.154 62.0206C130.993 62.5176 130.682 63.0343 130.096 63.7576C129.802 64.1195 129.468 64.4995 129.072 64.948L129 65.0294C128.63 65.4478 128.216 65.916 127.785 66.43L126.862 67.5305L127.471 68.8313L129.902 74.0161L126.968 75.1527L124.542 76.0924L125.822 78.3576L126.604 79.7419L123.147 81.0757L119.796 82.3691L122.422 84.82L122.585 84.9719L118.852 87.1173L112.522 90.7545L119.801 91.3116L126.312 91.8098L127.181 91.8763L127.868 91.3399C133.748 86.7494 140.483 78.1655 143.182 66.4101C145.896 54.5862 144.485 39.7353 134.332 22.7623L131.076 17.3194L130.174 23.5974L129.203 30.3512L129.036 31.5182L129.9 32.3203C131.526 33.8303 133.321 36.297 133.779 38.7728C133.998 39.9553 133.907 41.0954 133.396 42.1804C132.882 43.2733 131.854 44.4954 129.888 45.6807L128.678 46.4099L128.809 47.8163L129.483 55.0583Z"
      fill="url(#paint0_linear)" stroke="black" stroke-width="4.5" id="path2" />
   <path d="M17.1934 52.4749L28.1665 47.1777V55.8821C22.9811 56.129 19.0211 54.254 17.1934 52.4749Z"
      fill="url(#paint1_linear)" id="path4" />
   <circle cx="25.2348" cy="52.4653" r="1.67816" fill="black" id="circle6" />
   <path
      d="m 34.0451,44.2159 -2.3205,-0.0727 v 2.3216 9.0998 2.3783 l 2.3746,-0.1318 h 2e-4 4e-4 l 0.0015,-1e-4 0.0063,-3e-4 0.0249,-0.0014 0.0975,-0.0054 0.3737,-0.0207 1.3616,-0.075 c 0,0 2.7039,-0.1482 4.3787,-0.2386 3.3546,-0.1813 7.1493,-0.382 8.9558,-0.4628 1.6661,-0.0746 5.2377,0.1145 8.5306,0.3388 1.6165,0.1101 4.2225,0.3131 4.2225,0.3131 l 1.3102,0.1068 0.3583,0.0302 0.0928,0.0079 0.0234,0.002 0.0057,5e-4 0.0013,10e-5 h 3e-4 0 l 2.4438,0.2113 v -2.4529 -9.0998 -2.7781 l -2.7175,0.5773 v 0 h -10e-5 l -4e-4,10e-5 -0.0014,2e-4 -0.0054,0.0012 -0.0212,0.0045 -0.0812,0.0173 -0.2944,0.0626 -0.938,0.1997 c 0,0 -4.036385,0.337958 -5.7924,0.299 -2.5448,-0.0567 -5.8803,-0.1458 -9.1994,-0.2396 -3.3182,-0.0938 -9.0852,-0.2669 -9.0852,-0.2669 l -4.0319,-0.1238 -0.0562,-0.0018 -0.0142,-4e-4 -0.0035,-10e-5 h -9e-4 z"
      id="path8" inkscape:connector-curvature="0" style="fill:url(#paint2_linear);stroke:#000000;stroke-width:4.5"
      sodipodi:nodetypes="ccccccccccccccccccccccccccccccccccccccccccccccccc" />
   <path fill-rule="evenodd" clip-rule="evenodd"
      d="M29.5654 41.8262L32.6679 41.9214V47.4233V55.8816V60.1724L28.3819 60.3765C27.6072 60.4134 26.8512 60.412 26.116 60.3764C23.1134 60.231 20.4567 59.5163 18.2864 58.5174C16.638 57.7587 15.1816 56.7947 14.056 55.699L9.35938 51.1273L15.3131 48.3867L26.2863 43.3356L29.5654 41.8262ZM20.1679 54.4296C18.9 53.8461 17.8922 53.1532 17.1948 52.4744L21.9394 50.2904L23.6679 49.4947L28.1679 47.4233V52.3772V55.8816C27.5378 55.9116 26.9259 55.9103 26.3336 55.8816C25.3931 55.8361 24.5024 55.7216 23.6679 55.554C23.1252 55.4451 22.6064 55.3137 22.113 55.1643C21.4112 54.9517 20.7611 54.7026 20.1679 54.4296Z"
      fill="black" id="path10" />
   <rect x="66.75" y="47.2129" width="60.5764" height="8.26978" fill="url(#paint3_linear)" stroke="black"
      stroke-width="4.5" id="rect12" />
   <defs id="defs34">
      <linearGradient id="paint0_linear" x1="128.242" y1="24.3046" x2="134.253" y2="88.8428"
         gradientUnits="userSpaceOnUse">
         <stop stop-color="#8E9DBC" id="stop14" />
         <stop offset="1" stop-color="#EAEDFA" id="stop16" />
      </linearGradient>
      <linearGradient id="paint1_linear" x1="22.6259" y1="48.6777" x2="22.6259" y2="56.1067"
         gradientUnits="userSpaceOnUse">
         <stop stop-color="#8A9AB9" id="stop19" />
         <stop offset="1" stop-color="#CCD2DF" id="stop21" />
      </linearGradient>
      <linearGradient id="paint2_linear" x1="33.9746" y1="51.0147" x2="66.2824" y2="51.0147"
         gradientUnits="userSpaceOnUse">
         <stop stop-color="#333333" id="stop24" />
         <stop offset="1" stop-color="#666666" id="stop26" />
      </linearGradient>
      <linearGradient id="paint3_linear" x1="125.076" y1="51.3478" x2="69" y2="51.3478" gradientUnits="userSpaceOnUse">
         <stop stop-color="#8086C4" id="stop29" />
         <stop offset="1" stop-color="#263180" id="stop31" />
      </linearGradient>
   </defs>
</svg>