<svg width="21" height="34" viewBox="0 0 21 34" fill="none" xmlns="http://www.w3.org/2000/svg">
<rect x="0.199219" y="30.0165" width="20.7085" height="19.8886" transform="rotate(-90 0.199219 30.0165)" fill="#838F8D"/>
<rect x="0.199219" y="11.4566" width="4.29955" height="19.8886" transform="rotate(-90 0.199219 11.4566)" fill="#3A5B50"/>
<rect x="0.199219" y="7.15448" width="6.80309" height="19.8886" transform="rotate(-90 0.199219 7.15448)" fill="#607A61"/>
<rect x="0.199219" y="33.105" width="1.10357" height="19.8886" transform="rotate(-90 0.199219 33.105)" fill="#838F8D"/>
<rect x="1.07617" y="28.2334" width="1.5332" height="18.1351" transform="rotate(-90 1.07617 28.2334)" fill="#3F4843"/>
<mask id="path-6-inside-1" fill="white">
<path fill-rule="evenodd" clip-rule="evenodd" d="M0.199219 28.0127L0.199218 12.6855L0.199218 12.631L0.199218 12.2019L0.199218 7.51089L0.199217 0.3526L20.0878 0.352599L20.0878 7.51088L20.0878 12.2019L20.0878 12.631L20.0878 12.6855L20.0878 28.0127L19.2145 28.0127L19.2145 29.0855L20.0878 29.0855L20.0878 33.105L0.199228 33.105L0.199227 29.0855L1.07245 29.0855L1.07245 28.0127L0.199219 28.0127Z"/>
</mask>
<path d="M0.199219 28.0127L-3.03633 28.0127L-3.03633 31.2483L0.199219 31.2483L0.199219 28.0127ZM0.199217 0.3526L0.199217 -2.88295L-3.03633 -2.88295L-3.03633 0.3526L0.199217 0.3526ZM20.0878 0.352599L23.3233 0.352599L23.3233 -2.88295L20.0878 -2.88295L20.0878 0.352599ZM20.0878 28.0127L20.0878 31.2483L23.3233 31.2483L23.3233 28.0127L20.0878 28.0127ZM19.2145 28.0127L19.2145 24.7772L15.979 24.7772L15.979 28.0127L19.2145 28.0127ZM19.2145 29.0855L15.979 29.0855L15.979 32.3211L19.2145 32.3211L19.2145 29.0855ZM20.0878 29.0855L23.3233 29.0855L23.3233 25.85L20.0878 25.85L20.0878 29.0855ZM20.0878 33.105L20.0878 36.3406L23.3233 36.3406L23.3233 33.105L20.0878 33.105ZM0.199228 33.105L-3.03632 33.105L-3.03632 36.3406L0.199228 36.3406L0.199228 33.105ZM0.199227 29.0855L0.199227 25.85L-3.03632 25.85L-3.03632 29.0855L0.199227 29.0855ZM1.07245 29.0855L1.07245 32.3211L4.308 32.3211L4.308 29.0855L1.07245 29.0855ZM1.07245 28.0127L4.308 28.0127L4.308 24.7772L1.07245 24.7772L1.07245 28.0127ZM-3.03633 12.6855L-3.03633 28.0127L3.43476 28.0127L3.43476 12.6855L-3.03633 12.6855ZM-3.03633 12.631L-3.03633 12.6855L3.43476 12.6855L3.43476 12.631L-3.03633 12.631ZM-3.03633 12.2019L-3.03633 12.631L3.43476 12.631L3.43476 12.2019L-3.03633 12.2019ZM-3.03633 7.51089L-3.03633 12.2019L3.43476 12.2019L3.43476 7.51089L-3.03633 7.51089ZM-3.03633 0.3526L-3.03633 7.51089L3.43476 7.51089L3.43476 0.3526L-3.03633 0.3526ZM20.0878 -2.88295L0.199217 -2.88295L0.199217 3.58815L20.0878 3.58815L20.0878 -2.88295ZM23.3233 7.51088L23.3233 0.352599L16.8522 0.352599L16.8522 7.51088L23.3233 7.51088ZM23.3233 12.2019L23.3233 7.51088L16.8522 7.51088L16.8522 12.2019L23.3233 12.2019ZM23.3233 12.631L23.3233 12.2019L16.8522 12.2019L16.8522 12.631L23.3233 12.631ZM23.3233 12.6855L23.3233 12.631L16.8522 12.631L16.8522 12.6855L23.3233 12.6855ZM23.3233 28.0127L23.3233 12.6855L16.8522 12.6855L16.8522 28.0127L23.3233 28.0127ZM19.2145 31.2483L20.0878 31.2483L20.0878 24.7772L19.2145 24.7772L19.2145 31.2483ZM15.979 28.0127L15.979 29.0855L22.4501 29.0855L22.4501 28.0127L15.979 28.0127ZM20.0878 25.85L19.2145 25.85L19.2145 32.3211L20.0878 32.3211L20.0878 25.85ZM23.3233 33.105L23.3233 29.0855L16.8523 29.0855L16.8523 33.105L23.3233 33.105ZM0.199228 36.3406L20.0878 36.3406L20.0878 29.8695L0.199227 29.8695L0.199228 36.3406ZM-3.03632 29.0855L-3.03632 33.105L3.43477 33.105L3.43477 29.0855L-3.03632 29.0855ZM1.07245 25.85L0.199227 25.85L0.199228 32.3211L1.07245 32.3211L1.07245 25.85ZM4.308 29.0855L4.308 28.0127L-2.1631 28.0127L-2.1631 29.0855L4.308 29.0855ZM0.199219 31.2483L1.07245 31.2483L1.07245 24.7772L0.199218 24.7772L0.199219 31.2483Z" fill="black" mask="url(#path-6-inside-1)"/>
</svg>
