<svg width="37" height="55" viewBox="0 0 37 55" fill="none"
    xmlns="http://www.w3.org/2000/svg" transform="rotate(180 0 0)">
    <path fill-rule="evenodd" clip-rule="evenodd" d="M2.61091 34.5452C2.02676 30.3564 1.67793 24.8793 6.33916 22.4729C10.1442 20.5085 10.108 19.7742 10.0703 19.0098C10.0441 18.4787 10.0172 17.933 11.2778 16.9499C12.1294 16.2859 12.8321 15.9788 13.403 15.7293C14.8935 15.078 15.4863 14.8189 15.4879 9.62374C15.4893 5.15729 15.2249 2.50492 15.5426 2.43325C15.8039 2.3743 16.4591 4.06126 17.9799 7.92071C18.6775 9.69109 19.1343 11.0159 19.474 12.0011C20.1412 13.9363 20.3566 14.5609 21.0576 14.6777C21.589 14.7662 21.4793 12.6373 21.3886 10.8772C21.2987 9.13288 21.2275 7.75068 21.8173 9.24739C22.1523 10.0976 22.399 10.8947 22.6096 11.5749C22.9499 12.6745 23.1957 13.4688 23.5674 13.6887C24.0486 13.9735 24.8153 12.3404 25.1385 11.4882C25.1632 11.105 25.3373 10.9222 25.8352 13.2564C26.3332 15.5906 29.5977 22.7932 29.91 22.26C29.9324 21.5581 29.8219 20.5324 29.6978 19.3814C29.6213 18.6721 29.5397 17.9153 29.481 17.1574C29.3432 15.3805 31.1495 20.3878 32.9648 25.9985C33.6744 28.1918 34.1067 30.1922 34.3512 31.9174C36.5807 39.8316 32.4949 48.3042 24.6809 51.3833C16.3484 54.6667 6.9319 50.5736 3.64851 42.2411C2.65051 39.7084 2.33401 37.0755 2.61091 34.5452Z" fill="url(#paint0_radial)"/>
    <path d="M6.33916 22.4729L7.02726 23.8058L6.33916 22.4729ZM2.61091 34.5452L4.10201 34.7084L4.12231 34.5229L4.09654 34.338L2.61091 34.5452ZM10.0703 19.0098L11.5684 18.936L11.5684 18.936L10.0703 19.0098ZM11.2778 16.9499L10.3554 15.7671L11.2778 16.9499ZM13.403 15.7293L14.0036 17.1038L14.0036 17.1038L13.403 15.7293ZM15.4879 9.62374L13.9879 9.62328L15.4879 9.62374ZM15.5426 2.43325L15.8727 3.89649L15.5426 2.43325ZM19.474 12.0011L18.0559 12.4901L19.474 12.0011ZM21.0576 14.6777L21.3041 13.1981L21.3041 13.1981L21.0576 14.6777ZM21.3886 10.8772L19.8906 10.9544L21.3886 10.8772ZM22.6096 11.5749L21.1766 12.0184L21.1766 12.0184L22.6096 11.5749ZM23.5674 13.6887L22.8034 14.9796L22.8034 14.9796L23.5674 13.6887ZM25.1385 11.4882L26.541 12.0201L26.6208 11.8096L26.6353 11.5849L25.1385 11.4882ZM25.8352 13.2564L27.3022 12.9434L25.8352 13.2564ZM29.91 22.26L31.2044 23.0181L31.3971 22.689L31.4093 22.3079L29.91 22.26ZM29.6978 19.3814L31.1891 19.2206L31.1891 19.2206L29.6978 19.3814ZM29.481 17.1574L30.9765 17.0414L30.9765 17.0414L29.481 17.1574ZM32.9648 25.9985L31.5376 26.4602L32.9648 25.9985ZM34.3512 31.9174L32.866 32.1278L32.8801 32.2274L32.9074 32.3241L34.3512 31.9174ZM5.65105 21.1401C2.81352 22.605 1.52114 25.0329 1.03508 27.557C0.562024 30.0136 0.831309 32.6443 1.12529 34.7524L4.09654 34.338C3.80637 32.2573 3.60916 30.055 3.98096 28.1243C4.33975 26.2611 5.20357 24.7473 7.02726 23.8058L5.65105 21.1401ZM8.57209 19.0837C8.58247 19.2943 8.57295 19.2745 8.58141 19.24C8.59764 19.1738 8.61921 19.1873 8.51981 19.3003C8.25868 19.5969 7.5399 20.1649 5.65105 21.1401L7.02726 23.8058C8.94342 22.8165 10.109 22.0352 10.7716 21.2825C11.1341 20.8708 11.3774 20.4346 11.4951 19.9544C11.6051 19.5058 11.5769 19.1076 11.5684 18.936L8.57209 19.0837ZM10.3554 15.7671C9.63443 16.3293 9.11495 16.8908 8.8252 17.5303C8.51558 18.2136 8.55845 18.807 8.57209 19.0837L11.5684 18.936C11.5612 18.7898 11.5622 18.7616 11.5638 18.7448C11.564 18.7429 11.5636 18.7482 11.5613 18.7569C11.559 18.7657 11.557 18.7702 11.5578 18.7684C11.5632 18.7565 11.6606 18.5536 12.2002 18.1328L10.3554 15.7671ZM12.8024 14.3548C12.2067 14.6151 11.3613 14.9827 10.3554 15.7671L12.2002 18.1328C12.8976 17.589 13.4574 17.3425 14.0036 17.1038L12.8024 14.3548ZM13.9879 9.62328C13.9871 12.2642 13.8206 13.3248 13.6212 13.7988C13.5546 13.9571 13.5058 13.9951 13.4627 14.0271C13.361 14.1027 13.2139 14.175 12.8024 14.3548L14.0036 17.1038C14.3374 16.958 14.8233 16.7537 15.252 16.4351C15.7393 16.073 16.1183 15.5994 16.3864 14.9622C16.8564 13.845 16.9871 12.1785 16.9879 9.62421L13.9879 9.62328ZM15.2125 0.970014C14.6618 1.09425 14.3565 1.46286 14.2231 1.67311C14.0901 1.88275 14.0284 2.08406 13.9984 2.19798C13.9365 2.43331 13.9144 2.68009 13.903 2.86816C13.8788 3.26714 13.884 3.80441 13.897 4.41241C13.9237 5.66869 13.9886 7.41157 13.9879 9.62328L16.9879 9.62421C16.9886 7.36947 16.922 5.55294 16.8963 4.34849C16.883 3.72613 16.8818 3.30772 16.8975 3.04964C16.906 2.9092 16.9153 2.9021 16.8997 2.96121C16.8929 2.98702 16.8582 3.11964 16.7562 3.28038C16.6538 3.44172 16.3837 3.78121 15.8727 3.89649L15.2125 0.970014ZM19.3754 7.37079C18.6206 5.45531 18.065 4.03855 17.6664 3.11384C17.4709 2.66022 17.2873 2.26351 17.1173 1.97033C17.0381 1.83395 16.9144 1.63539 16.7444 1.45749C16.6697 1.37933 16.1002 0.769771 15.2125 0.970014L15.8727 3.89649C15.4524 3.99128 15.1065 3.87779 14.9093 3.77617C14.7256 3.68151 14.615 3.57148 14.5755 3.53015C14.4973 3.44829 14.4795 3.40201 14.5223 3.47579C14.5961 3.60295 14.7204 3.85814 14.9114 4.30132C15.286 5.17021 15.8183 6.52666 16.5843 8.47063L19.3754 7.37079ZM20.892 11.5121C20.5509 10.5227 20.0854 9.17265 19.3754 7.37079L16.5843 8.47063C17.2695 10.2095 17.7177 11.5092 18.0559 12.4901L20.892 11.5121ZM21.3041 13.1981C21.3499 13.2057 21.456 13.2383 21.5555 13.3193C21.6322 13.3818 21.6307 13.4145 21.5703 13.3035C21.5086 13.1904 21.4263 13.0052 21.3084 12.6916C21.1923 12.3826 21.0612 12.0026 20.892 11.5121L18.0559 12.4901C18.3679 13.3949 18.6354 14.1875 18.936 14.7391C19.1004 15.0408 19.3259 15.3725 19.6611 15.6454C20.0189 15.9369 20.4148 16.0913 20.8112 16.1573L21.3041 13.1981ZM19.8906 10.9544C19.9371 11.8571 19.982 12.7547 19.9574 13.4147C19.9515 13.5735 19.942 13.7021 19.9302 13.8018C19.9177 13.9073 19.9062 13.9489 19.907 13.9462C19.908 13.9429 19.9175 13.9103 19.9419 13.8596C19.9651 13.8115 20.0161 13.7168 20.1112 13.6107C20.3472 13.3475 20.7827 13.1112 21.3041 13.1981L20.8112 16.1573C21.4654 16.2663 22.0137 15.9829 22.345 15.6133C22.6124 15.315 22.7297 14.9813 22.7855 14.7913C22.9039 14.3879 22.9407 13.9184 22.9553 13.5266C22.986 12.7043 22.9308 11.6574 22.8866 10.8L19.8906 10.9544ZM23.2129 8.69747C23.1298 8.4868 23.0426 8.28534 22.9499 8.11128C22.8966 8.01105 22.7134 7.65746 22.3625 7.40604C22.1518 7.25505 21.6897 7.00951 21.092 7.1514C20.5184 7.28757 20.2236 7.68773 20.1111 7.87601C19.9087 8.21481 19.8701 8.57256 19.8585 8.67012C19.7945 9.20935 19.85 10.1672 19.8906 10.9544L22.8866 10.8C22.8639 10.3588 22.8436 9.96399 22.8341 9.63309C22.8239 9.27756 22.8298 9.08938 22.8376 9.02369C22.8484 8.933 22.8428 9.15314 22.6864 9.4148C22.597 9.56451 22.3286 9.94122 21.7849 10.0703C21.2171 10.2051 20.7884 9.96878 20.6152 9.84462C20.4444 9.72228 20.354 9.59708 20.3342 9.56971C20.3043 9.52824 20.2939 9.50616 20.3018 9.52103C20.3178 9.55105 20.3573 9.6338 20.4217 9.7973L23.2129 8.69747ZM24.0425 11.1314C23.8329 10.4544 23.5712 9.60691 23.2129 8.69747L20.4217 9.7973C20.7334 10.5883 20.9651 11.3349 21.1766 12.0184L24.0425 11.1314ZM24.3314 12.3979C24.5081 12.5025 24.5743 12.6146 24.562 12.596C24.5541 12.584 24.5197 12.5257 24.4627 12.388C24.3447 12.103 24.2203 11.7057 24.0425 11.1314L21.1766 12.0184C21.3392 12.5436 21.5078 13.0934 21.6908 13.5353C21.7842 13.7612 21.9022 14.0114 22.0556 14.2446C22.2046 14.4711 22.4408 14.765 22.8034 14.9796L24.3314 12.3979ZM23.7359 10.9563C23.5916 11.337 23.357 11.8641 23.1315 12.2339C23.0085 12.4356 22.9528 12.4822 22.9834 12.4554C22.9996 12.4413 23.124 12.3317 23.353 12.2671C23.6326 12.1883 23.9982 12.2007 24.3314 12.3979L22.8034 14.9796C23.8182 15.5802 24.7059 14.9343 24.9575 14.7143C25.2773 14.4348 25.5237 14.0732 25.6929 13.7958C26.0518 13.2071 26.3622 12.4916 26.541 12.0201L23.7359 10.9563ZM27.3022 12.9434C27.174 12.3424 27.0619 11.8807 26.9626 11.5314C26.8726 11.2148 26.7661 10.8897 26.6241 10.6311C26.5818 10.5541 26.3924 10.1973 25.987 9.9639C25.7313 9.81664 25.3325 9.68897 24.8679 9.79805C24.4282 9.9013 24.1542 10.1649 24.0154 10.3388C23.7746 10.6405 23.7069 10.9592 23.6896 11.0385C23.66 11.1741 23.6476 11.2992 23.6416 11.3914L26.6353 11.5849C26.6352 11.5866 26.6347 11.5943 26.6331 11.6073C26.6315 11.6194 26.628 11.6442 26.6206 11.6783C26.6195 11.6834 26.5733 11.9432 26.3601 12.2103C26.2351 12.3669 25.9765 12.6194 25.5536 12.7186C25.1059 12.8237 24.7256 12.6993 24.49 12.5637C24.2775 12.4413 24.1523 12.2966 24.1009 12.2324C24.0418 12.1587 24.0077 12.0992 23.9947 12.0754C23.9615 12.015 23.9934 12.0579 24.0769 12.3516C24.1511 12.6125 24.2475 13.0032 24.3682 13.5693L27.3022 12.9434ZM28.6157 21.502C28.785 21.2128 29.1372 20.8686 29.6844 20.7995C30.1382 20.7422 30.4649 20.913 30.5743 20.9769C30.7895 21.1025 30.8831 21.2427 30.838 21.1861C30.7977 21.1357 30.6914 20.9779 30.5193 20.6716C30.1921 20.0892 29.7596 19.2103 29.3087 18.2147C28.3871 16.1797 27.5131 13.932 27.3022 12.9434L24.3682 13.5693C24.6553 14.915 25.6626 17.4356 26.5758 19.4523C27.0424 20.4824 27.5156 21.45 27.9039 22.1411C28.0896 22.4716 28.2934 22.8073 28.4934 23.0578C28.5684 23.1517 28.7647 23.3943 29.0623 23.5679C29.2129 23.6558 29.5757 23.8371 30.0602 23.7759C30.638 23.7029 31.0155 23.3406 31.2044 23.0181L28.6157 21.502ZM28.2064 19.5422C28.3357 20.7416 28.429 21.6407 28.4108 22.2121L31.4093 22.3079C31.4358 21.4754 31.308 20.3231 31.1891 19.2206L28.2064 19.5422ZM27.9855 17.2733C28.0462 18.0573 28.1303 18.8363 28.2064 19.5422L31.1891 19.2206C31.1123 18.508 31.0332 17.7733 30.9765 17.0414L27.9855 17.2733ZM34.392 25.5367C33.4822 22.7248 32.5672 20.0406 31.8917 18.2723C31.5681 17.425 31.2583 16.6762 31.0092 16.2472C30.9496 16.1445 30.8399 15.9642 30.6825 15.7987C30.6097 15.7223 30.4391 15.5538 30.1728 15.4325C29.8668 15.2933 29.3312 15.1829 28.786 15.487C28.3249 15.7442 28.1471 16.1457 28.0875 16.3046C28.0176 16.4909 27.9948 16.6561 27.9853 16.7492C27.9655 16.9422 27.9745 17.1316 27.9855 17.2733L30.9765 17.0414C30.9703 16.961 30.9772 16.9813 30.9696 17.0552C30.9662 17.0887 30.9531 17.2069 30.8963 17.3583C30.8498 17.4822 30.6886 17.8609 30.2474 18.107C29.722 18.4 29.2097 18.2903 28.93 18.163C28.6901 18.0538 28.5491 17.9087 28.5091 17.8666C28.4171 17.7699 28.3851 17.7023 28.4146 17.7532C28.5222 17.9386 28.7517 18.4591 29.0892 19.3429C29.7363 21.0367 30.6321 23.6615 31.5376 26.4602L34.392 25.5367ZM35.8363 31.7069C35.5801 29.8987 35.1288 27.814 34.392 25.5367L31.5376 26.4602C32.2201 28.5695 32.6333 30.4857 32.866 32.1278L35.8363 31.7069ZM32.9074 32.3241C34.9302 39.5047 31.2213 47.1938 24.131 49.9877L25.2308 52.7788C33.7684 49.4146 38.2311 40.1585 35.795 31.5107L32.9074 32.3241ZM24.131 49.9877C16.5693 52.9674 8.02375 49.2529 5.04407 41.6912L2.25295 42.791C5.84005 51.8942 16.1276 56.3659 25.2308 52.7788L24.131 49.9877ZM5.04407 41.6912C4.13742 39.3903 3.85094 37.0026 4.10201 34.7084L1.11981 34.382C0.817072 37.1485 1.16361 40.0265 2.25295 42.791L5.04407 41.6912Z" fill="#FA4D03"/>
    <defs>
        <radialGradient id="paint0_radial" cx="0" cy="0" r="1" gradientUnits="userSpaceOnUse" gradientTransform="translate(17.8339 36.2103) rotate(-92.1828) scale(32.9267 31.6405)">
            <stop stop-color="white"/>
            <stop offset="0.0967799" stop-color="#F3F3D3"/>
            <stop offset="0.262208" stop-color="#EDE751"/>
            <stop offset="0.453196" stop-color="#FF7B2B"/>
        </radialGradient>
    </defs>
</svg>
