<svg width="122" height="160" viewBox="7 -17 122 160" transform="rotate(-45)" fill="none"
    xmlns="http://www.w3.org/2000/svg">
    <g filter="url(#filter0_dddii)">
        <path
            d="M114.689 11.9723C115.508 11.1535 116.836 11.1535 117.654 11.9723C118.473 12.791 118.473 14.1185 117.654 14.9372L33.3627 99.2289L30.3977 96.264L114.689 11.9723Z"
            fill="#E8FFF0" />
    </g>
    <path
        d="M17.7572 107.513C17.9841 107.286 18.3519 107.286 18.5787 107.513C18.8055 107.74 18.8055 108.108 18.5787 108.335L14.4366 112.477C14.2097 112.704 13.8419 112.704 13.6151 112.477C13.3883 112.25 13.3883 111.882 13.6151 111.655L17.7572 107.513Z"
        fill="black" />
    <path
        d="M21.2924 111.046C21.5192 110.819 21.887 110.819 22.1139 111.046C22.3407 111.272 22.3407 111.64 22.1139 111.867L17.9717 116.009C17.7449 116.236 17.3771 116.236 17.1503 116.009C16.9234 115.782 16.9234 115.414 17.1503 115.188L21.2924 111.046Z"
        fill="black" />
    <path fill-rule="evenodd" clip-rule="evenodd"
        d="M21.0669 104.873L24.7515 108.558L23.2727 110.037C23.427 110.263 23.4038 110.574 23.2031 110.774L17.968 116.009C17.7673 116.21 17.4564 116.233 17.2303 116.079L16.8243 116.485L16.1526 118.101L11.5658 113.514L13.1396 112.8L13.5454 112.394C13.3902 112.168 13.413 111.856 13.6141 111.655L18.8492 106.42C19.0502 106.219 19.362 106.196 19.5882 106.352L21.0669 104.873Z"
        fill="#C4C4C4" />
    <path fill-rule="evenodd" clip-rule="evenodd"
        d="M28.3111 108.558L25.8129 111.056C25.6878 111.604 25.4116 112.125 24.9837 112.553L19.7486 117.788C19.4465 118.09 19.0979 118.317 18.726 118.468L17.0338 122.538L7.21877 112.723L11.1384 110.946C11.2892 110.557 11.522 110.191 11.8367 109.877L17.0719 104.641C17.5004 104.213 18.0225 103.936 18.572 103.812L21.0685 101.315L28.3111 108.558ZM19.5898 106.352C19.3636 106.196 19.0519 106.219 18.8508 106.42L13.6157 111.655C13.5534 111.718 13.5081 111.791 13.4801 111.869C13.4176 112.042 13.4399 112.238 13.5471 112.394L13.1413 112.8L11.5674 113.514L16.1542 118.101L16.8259 116.485L17.2319 116.079C17.3878 116.185 17.584 116.207 17.7565 116.145C17.8343 116.117 17.9073 116.072 17.9696 116.009L23.2048 110.774C23.4054 110.574 23.4286 110.263 23.2743 110.037L24.7532 108.558L21.0685 104.873L19.5898 106.352Z"
        fill="black" />
    <path d="M26.3398 100.321L29.3048 103.285L25.3251 107.265L22.3601 104.3L26.3398 100.321Z" fill="#7F7C7C" />
    <path fill-rule="evenodd" clip-rule="evenodd"
        d="M26.3398 96.7626L32.8627 103.285L25.3251 110.823L18.8022 104.3L26.3398 96.7626ZM26.3398 100.321L22.3601 104.3L25.3251 107.265L29.3048 103.285L26.3398 100.321Z"
        fill="black" />
    <path d="M29.3164 97.3447L32.2814 100.31L29.8075 102.784L26.8425 99.8186L29.3164 97.3447Z" fill="#C4C4C4" />
    <path fill-rule="evenodd" clip-rule="evenodd"
        d="M29.3164 93.7868L35.8393 100.31L29.8075 106.342L23.2846 99.8186L29.3164 93.7868ZM29.3164 97.3447L26.8425 99.8186L29.8075 102.784L32.2814 100.31L29.3164 97.3447Z"
        fill="black" />
    <path d="M34.6211 91.3208L35.6488 97.6608L33.6081 99.7015L29.6278 96.3141L34.6211 91.3208Z" fill="#2A2929" />
    <path fill-rule="evenodd" clip-rule="evenodd"
        d="M36.3203 86.0659L38.3406 98.5293L33.7479 103.122L25.9232 96.463L36.3203 86.0659ZM34.6234 91.3208L29.6301 96.3141L33.6105 99.7014L35.6511 97.6608L34.6234 91.3208Z"
        fill="black" />
    <path d="M31.2422 89.2306L32.5688 90.5572L31.1417 91.9843L29.8151 90.6577L31.2422 89.2306Z" fill="black" />
    <path d="M28.957 91.518L30.2836 92.8446L28.8565 94.2716L27.53 92.9451L28.957 91.518Z" fill="black" />
    <path d="M13.106 112.832L16.791 116.517L16.1751 118.124L11.537 113.486L13.106 112.832Z" fill="#2A2929" />
    <path
        d="M20.6127 108.186C20.8395 107.959 21.2073 107.959 21.4342 108.186C21.661 108.413 21.661 108.781 21.4342 109.008L16.199 114.243C15.9722 114.47 15.6044 114.47 15.3776 114.243C15.1507 114.016 15.1507 113.648 15.3776 113.421L20.6127 108.186Z"
        fill="#2A2929" />
    <path
        d="M18.851 106.42C19.0778 106.193 19.4456 106.193 19.6724 106.42C19.8993 106.647 19.8993 107.015 19.6724 107.241L14.4373 112.477C14.2105 112.703 13.8427 112.703 13.6158 112.477C13.389 112.25 13.389 111.882 13.6158 111.655L18.851 106.42Z"
        fill="#2A2929" />
    <path
        d="M22.3822 109.953C22.6091 109.726 22.9769 109.726 23.2037 109.953C23.4305 110.179 23.4305 110.547 23.2037 110.774L17.9686 116.009C17.7417 116.236 17.3739 116.236 17.1471 116.009C16.9203 115.782 16.9203 115.415 17.1471 115.188L22.3822 109.953Z"
        fill="#2A2929" />
    <defs>
        <filter id="filter0_dddii" x="19.9157" y="0.00711727" width="109.704" height="109.704"
            filterUnits="userSpaceOnUse" color-interpolation-filters="sRGB">
            <feFlood flood-opacity="0" result="BackgroundImageFix" />
            <feColorMatrix in="SourceAlpha" type="matrix" values="0 0 0 0 0 0 0 0 0 0 0 0 0 0 0 0 0 0 127 0" />
            <feOffset />
            <feGaussianBlur stdDeviation="4.19308" />
            <feColorMatrix type="matrix" values="0 0 0 0 0.8125 0 0 0 0 1 0 0 0 0 0.83125 0 0 0 1 0" />
            <feBlend mode="normal" in2="BackgroundImageFix" result="effect1_dropShadow" />
            <feColorMatrix in="SourceAlpha" type="matrix" values="0 0 0 0 0 0 0 0 0 0 0 0 0 0 0 0 0 0 127 0" />
            <feOffset />
            <feGaussianBlur stdDeviation="5.24134" />
            <feColorMatrix type="matrix" values="0 0 0 0 0 0 0 0 0 1 0 0 0 0 0.04 0 0 0 1 0" />
            <feBlend mode="normal" in2="effect1_dropShadow" result="effect2_dropShadow" />
            <feColorMatrix in="SourceAlpha" type="matrix" values="0 0 0 0 0 0 0 0 0 0 0 0 0 0 0 0 0 0 127 0" />
            <feOffset />
            <feGaussianBlur stdDeviation="2.09654" />
            <feColorMatrix type="matrix" values="0 0 0 0 0.14 0 0 0 0 1 0 0 0 0 0 0 0 0 1 0" />
            <feBlend mode="normal" in2="effect2_dropShadow" result="effect3_dropShadow" />
            <feBlend mode="normal" in="SourceGraphic" in2="effect3_dropShadow" result="shape" />
            <feColorMatrix in="SourceAlpha" type="matrix" values="0 0 0 0 0 0 0 0 0 0 0 0 0 0 0 0 0 0 127 0"
                result="hardAlpha" />
            <feOffset />
            <feGaussianBlur stdDeviation="1.46758" />
            <feComposite in2="hardAlpha" operator="arithmetic" k2="-1" k3="1" />
            <feColorMatrix type="matrix" values="0 0 0 0 0 0 0 0 0 1 0 0 0 0 0.0999999 0 0 0 1 0" />
            <feBlend mode="normal" in2="shape" result="effect4_innerShadow" />
            <feColorMatrix in="SourceAlpha" type="matrix" values="0 0 0 0 0 0 0 0 0 0 0 0 0 0 0 0 0 0 127 0"
                result="hardAlpha" />
            <feOffset />
            <feGaussianBlur stdDeviation="1.46758" />
            <feComposite in2="hardAlpha" operator="arithmetic" k2="-1" k3="1" />
            <feColorMatrix type="matrix" values="0 0 0 0 0.02 0 0 0 0 1 0 0 0 0 0 0 0 0 1 0" />
            <feBlend mode="normal" in2="effect4_innerShadow" result="effect5_innerShadow" />
        </filter>
    </defs>
</svg>