<svg width="90" height="267" viewBox="0 0 90 267" fill="none" xmlns="http://www.w3.org/2000/svg">
<rect x="11.418" y="117.305" width="67.3717" height="26.9913" fill="#4A5A27" stroke="black" stroke-width="6"/>
<rect x="27.7188" y="117.305" width="34.7675" height="26.9913" fill="#4A5A27" stroke="black" stroke-width="6"/>
<path d="M35.5117 114.355V206.834L36.8821 208.579H53.3265L54.6969 206.834V114.355H35.5117Z" fill="#989898" stroke="black" stroke-width="16" stroke-miterlimit="10"/>
<path d="M53.3945 114.355L53.3945 96.9509L52.2102 96.6225L37.998 96.6225L36.8137 96.9509L36.8137 114.355L53.3945 114.355Z" fill="#3F3F3F" stroke="black" stroke-width="16" stroke-miterlimit="10"/>
<path d="M42.7344 175.69V144.172H47.4751V175.69H42.7344Z" fill="#2E2E2E"/>
<path d="M39.8632 144.297H50.3438V125.83H39.8632V144.297Z" fill="#2D2D2D" stroke="black" stroke-width="4" stroke-miterlimit="10"/>
<path d="M8.44347 74.8654L9.7458 73.1604L28.7079 63.8874L31.2747 64.7682L43.3415 58.8672L44.2223 56.3003L42.3858 52.4642L39.819 51.5834L27.7522 57.4845L26.8714 60.0513L7.90932 69.3243L5.76399 69.3054C2.30987 70.9782 3.6393 73.7371 3.6393 73.7371C3.6393 73.7371 4.98935 76.5381 8.44347 74.8654Z" fill="black"/>
<path d="M81.6776 74.8654L80.3753 73.1604L61.4132 63.8874L58.8464 64.7682L46.7796 58.8672L45.8988 56.3003L47.7353 52.4642L50.3021 51.5834L62.3689 57.4845L63.2497 60.0513L82.2118 69.3243L84.3571 69.3054C87.8112 70.9782 86.4818 73.7371 86.4818 73.7371C86.4818 73.7371 85.1317 76.5381 81.6776 74.8654Z" fill="black"/>
<rect x="38.6797" y="213.582" width="12.8482" height="48.7099" fill="#48220B" stroke="black" stroke-width="8"/>
<rect x="39.8633" y="49.8125" width="10.4805" height="42.0872" fill="black"/>
<rect x="42.0586" y="0.175781" width="6.09391" height="49.6374" fill="black"/>
</svg>
