<svg width="37" height="54" viewBox="0 0 37 54" fill="none"
    xmlns="http://www.w3.org/2000/svg" transform="rotate(180 0 0)">
    <path fill-rule="evenodd" clip-rule="evenodd" d="M33.7015 30.3239C33.4557 28.8251 33.0548 26.923 32.4053 24.325C32.2782 23.8167 32.1394 23.2307 31.9918 22.6073C30.8128 17.6295 29.0702 10.272 28.2377 21.128C28.1744 21.9538 27.6912 22.188 27.106 21.9564C26.9242 21.8405 26.7395 21.7279 26.5521 21.6188C25.8163 21.019 25.0733 19.8126 24.8603 18.212C24.7444 17.3411 24.6566 16.7607 24.5871 16.302C24.3485 14.7248 24.3274 14.5856 24.1321 9.02286C24.098 8.05134 24.0735 7.16473 24.0516 6.37137C23.89 0.521427 23.8684 -0.258815 21.1647 7.37029C20.4305 9.4421 19.96 11.1326 19.5969 12.437C19.0283 14.4799 18.7233 15.5756 18.0818 15.7055C17.5573 15.8118 17.5834 12.1813 17.6071 8.89583C17.6309 5.59773 17.6521 2.64727 17.1113 4.17339C16.8189 4.99848 16.2381 7.05056 15.5904 9.33913C14.4689 13.3017 13.1468 17.9732 12.7735 18.212C12.4792 18.4003 12.0664 16.2548 11.712 14.413C11.4991 13.3067 11.3073 12.31 11.175 11.9946C11.1369 11.6125 10.8019 11.9436 10.0047 14.1932C9.00122 17.0248 7.0529 22.5097 6.72227 21.9877C6.64661 20.8552 6.09242 11.3683 6.26414 9.02255C6.40414 7.11006 5.81789 10.6171 5.06119 15.144C4.42607 18.9434 3.67088 23.4611 3.1242 26.096C2.49722 29.1178 2.29862 31.5531 2.30365 33.4451C1.28399 40.9001 5.58744 48.299 12.9591 50.9115C21.4007 53.9031 30.6692 49.485 33.6609 41.0434C34.9391 37.4365 34.8646 33.6786 33.7015 30.3239Z" fill="url(#paint0_radial)"/>
    <path d="M32.4053 24.325L30.9501 24.6888L32.4053 24.325ZM33.7015 30.3239L32.2842 30.8153L32.2421 30.6937L32.2212 30.5666L33.7015 30.3239ZM31.9918 22.6073L30.5322 22.953L31.9918 22.6073ZM28.2377 21.128L26.7421 21.0133L26.7421 21.0133L28.2377 21.128ZM27.106 21.9564L26.5539 23.3511L26.4206 23.2983L26.2997 23.2213L27.106 21.9564ZM26.5521 21.6188L25.7974 22.9151L25.6956 22.8559L25.6043 22.7814L26.5521 21.6188ZM24.8603 18.212L26.3472 18.0142L26.3472 18.0142L24.8603 18.212ZM24.5871 16.302L26.0703 16.0775L26.0703 16.0775L24.5871 16.302ZM24.1321 9.02286L25.6312 8.97023L25.6312 8.97023L24.1321 9.02286ZM24.0516 6.37137L25.551 6.32995L25.551 6.32995L24.0516 6.37137ZM19.5969 12.437L21.042 12.8392L21.042 12.8392L19.5969 12.437ZM18.0818 15.7055L17.784 14.2354L17.784 14.2354L18.0818 15.7055ZM17.6071 8.89583L19.1071 8.90664L17.6071 8.89583ZM15.5904 9.33913L17.0337 9.74761L15.5904 9.33913ZM12.7735 18.212L11.9651 16.9485L11.9651 16.9485L12.7735 18.212ZM11.712 14.413L10.239 14.6964L10.239 14.6964L11.712 14.413ZM11.175 11.9946L9.7918 12.5749L9.70471 12.3673L9.68239 12.1433L11.175 11.9946ZM6.72227 21.9877L5.45506 22.7903L5.25102 22.4682L5.2256 22.0877L6.72227 21.9877ZM6.26414 9.02255L7.76013 9.13206L6.26414 9.02255ZM5.06119 15.144L3.58171 14.8967L5.06119 15.144ZM3.1242 26.096L4.59292 26.4007L4.59292 26.4007L3.1242 26.096ZM2.30365 33.4451L3.80365 33.4411L3.80393 33.5452L3.78982 33.6483L2.30365 33.4451ZM33.8605 23.9612C34.5158 26.5826 34.9269 28.5277 35.1817 30.0812L32.2212 30.5666C31.9844 29.1225 31.5937 27.2634 30.9501 24.6888L33.8605 23.9612ZM33.4514 22.2616C33.5996 22.8876 33.7361 23.4638 33.8605 23.9612L30.9501 24.6888C30.8203 24.1697 30.6792 23.5738 30.5322 22.953L33.4514 22.2616ZM26.7421 21.0133C26.9482 18.3256 27.2204 16.5295 27.614 15.5298C27.7178 15.2661 27.867 14.9579 28.0955 14.6882C28.3293 14.4123 28.7518 14.0603 29.3754 14.0165C29.9892 13.9735 30.4455 14.2546 30.6982 14.4683C30.9506 14.6817 31.1322 14.9347 31.2585 15.1377C31.7325 15.8998 32.1353 17.1539 32.4692 18.3445C32.8211 19.5997 33.1583 21.024 33.4514 22.2616L30.5322 22.953C30.2358 21.7017 29.9129 20.3397 29.5806 19.1546C29.4146 18.5628 29.2515 18.0342 29.0943 17.5982C28.9306 17.1443 28.7985 16.8627 28.7111 16.7222C28.6656 16.6491 28.6768 16.6878 28.7608 16.7588C28.8452 16.8301 29.1353 17.0408 29.5855 17.0092C30.0456 16.9769 30.3075 16.7183 30.3841 16.6278C30.4555 16.5436 30.451 16.5129 30.4054 16.6288C30.3171 16.8531 30.1961 17.3072 30.0716 18.1025C29.9503 18.8779 29.8357 19.908 29.7334 21.2427L26.7421 21.0133ZM27.658 20.5616C27.6879 20.5735 27.3959 20.4535 27.0431 20.6856C26.7016 20.9102 26.7288 21.1875 26.7421 21.0133L29.7334 21.2427C29.6834 21.8942 29.4372 22.7015 28.692 23.1918C27.9354 23.6896 27.1092 23.5709 26.5539 23.3511L27.658 20.5616ZM26.2997 23.2213C26.1349 23.1162 25.9674 23.0141 25.7974 22.9151L27.3068 20.3225C27.5116 20.4418 27.7135 20.5648 27.9122 20.6915L26.2997 23.2213ZM26.3472 18.0142C26.5168 19.2888 27.0987 20.1291 27.4999 20.4562L25.6043 22.7814C24.5339 21.9088 23.6297 20.3364 23.3734 18.4099L26.3472 18.0142ZM26.0703 16.0775C26.1401 16.539 26.2295 17.1298 26.3472 18.0142L23.3734 18.4099C23.2593 17.5524 23.173 16.9824 23.104 16.5264L26.0703 16.0775ZM25.6312 8.97023C25.827 14.5468 25.8466 14.5998 26.0703 16.0775L23.104 16.5264C22.8503 14.8498 22.8279 14.6245 22.633 9.07549L25.6312 8.97023ZM25.551 6.32995C25.5729 7.1237 25.5973 8.00505 25.6312 8.97023L22.633 9.0755C22.5987 8.09763 22.5741 7.20577 22.5522 6.41279L25.551 6.32995ZM19.7509 6.86924C20.4251 4.96674 20.9476 3.54391 21.3525 2.58796C21.5517 2.1177 21.7473 1.70021 21.9419 1.38007C22.0369 1.22375 22.1683 1.02872 22.3412 0.853318C22.4809 0.711585 22.8565 0.364958 23.449 0.320409C24.1791 0.265512 24.6627 0.688752 24.8849 0.985885C25.0826 1.25036 25.1753 1.52937 25.2217 1.69082C25.3213 2.03733 25.3724 2.45699 25.407 2.85774C25.4787 3.68913 25.5112 4.88918 25.551 6.32995L22.5522 6.41279C22.5112 4.92858 22.4804 3.83738 22.4181 3.11558C22.3857 2.73975 22.3522 2.56734 22.3384 2.51933C22.3281 2.48353 22.3569 2.61468 22.4822 2.78231C22.5524 2.87613 22.683 3.02214 22.8945 3.14027C23.1227 3.26774 23.3937 3.33303 23.6739 3.31196C24.1755 3.27425 24.4503 2.98711 24.4779 2.95914C24.5386 2.89751 24.5466 2.87054 24.5055 2.93818C24.4278 3.06598 24.3004 3.32007 24.1149 3.7581C23.7503 4.61874 23.2562 5.95929 22.5786 7.87134L19.7509 6.86924ZM18.1519 12.0347C18.5159 10.727 18.998 8.99359 19.7509 6.86924L22.5786 7.87134C21.863 9.89061 21.4041 11.5382 21.042 12.8392L18.1519 12.0347ZM17.784 14.2354C17.5279 14.2873 17.3878 14.43 17.3579 14.4658C17.3459 14.4801 17.3932 14.4248 17.4823 14.2112C17.6652 13.7726 17.8561 13.0974 18.1519 12.0347L21.042 12.8392C20.7692 13.8194 20.5232 14.7136 20.2511 15.366C20.023 15.913 19.5284 16.943 18.3796 17.1757L17.784 14.2354ZM19.1071 8.90664C19.0951 10.5628 19.0834 12.2491 19.1375 13.5082C19.165 14.1495 19.2072 14.6058 19.2571 14.8708C19.2858 15.0234 19.2962 14.9934 19.242 14.8887C19.2153 14.8371 19.1156 14.6527 18.8923 14.4845C18.6201 14.2795 18.2207 14.1469 17.784 14.2354L18.3796 17.1757C17.8773 17.2774 17.4167 17.1289 17.0873 16.8808C16.8067 16.6694 16.6538 16.4148 16.5777 16.2677C16.4246 15.9719 16.3511 15.6501 16.3089 15.4259C16.2169 14.9374 16.1688 14.3007 16.1403 13.637C16.0822 12.286 16.0954 10.5143 16.1071 8.88502L19.1071 8.90664ZM15.6974 3.67234C15.7627 3.48832 15.8984 3.11666 16.1558 2.81988C16.2703 2.68792 16.6866 2.24522 17.3918 2.26021C18.1545 2.27642 18.5573 2.80036 18.6784 2.98695C18.818 3.20201 18.8839 3.41249 18.9147 3.52217C18.9513 3.6522 18.9759 3.78084 18.9937 3.89282C19.0292 4.11714 19.052 4.373 19.0681 4.63293C19.1314 5.65705 19.1188 7.28424 19.1071 8.90664L16.1071 8.88502C16.1192 7.20932 16.1291 5.71223 16.0738 4.81812C16.0602 4.5985 16.0445 4.45017 16.0306 4.36183C16.0235 4.31748 16.0207 4.31266 16.0267 4.33412C16.027 4.33523 16.0593 4.46204 16.1621 4.62034C16.2464 4.75016 16.6091 5.24425 17.328 5.25953C17.9895 5.27359 18.3585 4.85888 18.4219 4.78586C18.5771 4.60696 18.5951 4.47694 18.5251 4.67444L15.6974 3.67234ZM14.1471 8.93064C14.7849 6.6771 15.384 4.55684 15.6974 3.67234L18.5251 4.67444C18.2538 5.44011 17.6913 7.42402 17.0337 9.74761L14.1471 8.93064ZM11.9651 16.9485C11.8013 17.0533 11.7027 17.1647 11.6653 17.209C11.6205 17.262 11.5942 17.3028 11.5856 17.3164C11.5691 17.3425 11.573 17.3406 11.597 17.2892C11.6432 17.1904 11.7123 17.021 11.8037 16.7696C11.9839 16.2738 12.2101 15.5738 12.4668 14.7336C12.9787 13.0586 13.585 10.9167 14.1471 8.93064L17.0337 9.74761C16.4743 11.7241 15.8588 13.8992 15.3359 15.6104C15.0752 16.4632 14.8308 17.2235 14.6231 17.7947C14.5206 18.0767 14.4163 18.3425 14.3144 18.5603C14.2644 18.6672 14.2005 18.794 14.1231 18.9167C14.0793 18.9862 13.9049 19.2689 13.5819 19.4755L11.9651 16.9485ZM13.185 14.1296C13.3648 15.0642 13.5486 16.0168 13.7212 16.7127C13.8109 17.0746 13.8785 17.2862 13.9159 17.375C13.9456 17.4457 13.9077 17.3236 13.7688 17.1705C13.6972 17.0915 13.4965 16.8891 13.1506 16.7847C12.7293 16.6574 12.2966 16.7364 11.9651 16.9485L13.5819 19.4755C13.2136 19.7112 12.7432 19.7955 12.2833 19.6566C11.8989 19.5405 11.6588 19.3095 11.5471 19.1863C11.3278 18.9447 11.2067 18.6715 11.1508 18.5387C11.0169 18.2206 10.9039 17.816 10.8094 17.4349C10.6134 16.6447 10.4136 15.6036 10.239 14.6964L13.185 14.1296ZM12.5582 11.4142C12.6897 11.7277 12.7974 12.2057 12.8803 12.5941C12.9752 13.039 13.0795 13.5813 13.185 14.1296L10.239 14.6964C10.1316 14.1384 10.0336 13.6292 9.94631 13.2202C9.90274 13.016 9.86463 12.8501 9.83213 12.7238C9.79482 12.5789 9.78004 12.5469 9.7918 12.5749L12.5582 11.4142ZM8.59085 13.6922C8.99066 12.564 9.31483 11.7948 9.58548 11.34C9.65634 11.2209 9.75143 11.0752 9.87278 10.9375C9.94899 10.851 10.2332 10.5297 10.7201 10.4064C11.017 10.3313 11.3879 10.3324 11.7543 10.503C12.1002 10.6641 12.3076 10.9135 12.4207 11.0956C12.6206 11.4174 12.6566 11.7352 12.6676 11.8458L9.68239 12.1433C9.6839 12.1585 9.7011 12.403 9.87227 12.6785C9.97103 12.8375 10.1615 13.0706 10.488 13.2226C10.8351 13.3842 11.184 13.3836 11.4563 13.3147C11.8939 13.2039 12.1184 12.9268 12.1236 12.9209C12.1739 12.8637 12.1868 12.835 12.1636 12.874C12.0579 13.0516 11.816 13.5728 11.4185 14.6943L8.59085 13.6922ZM7.98948 21.1851C7.87916 21.0109 7.65496 20.7485 7.2675 20.6085C6.86876 20.4645 6.50838 20.5261 6.27834 20.6119C6.0676 20.6905 5.93192 20.7992 5.87523 20.8482C5.8108 20.9038 5.77207 20.9496 5.75892 20.9656C5.73188 20.9984 5.7766 20.9458 5.89443 20.7123C6.10601 20.2932 6.3908 19.6227 6.71553 18.7983C7.35813 17.1669 8.08731 15.113 8.59085 13.6922L11.4185 14.6943C10.9186 16.1049 10.1719 18.2093 9.5068 19.8978C9.17769 20.7333 8.85069 21.5132 8.57261 22.0641C8.4456 22.3158 8.27603 22.6281 8.07523 22.8721C8.00717 22.9548 7.75579 23.2627 7.32684 23.4227C7.06413 23.5207 6.67392 23.5838 6.24835 23.4301C5.83407 23.2805 5.58604 22.9971 5.45506 22.7903L7.98948 21.1851ZM7.76013 9.13206C7.68233 10.1949 7.77059 13.0464 7.89891 15.8925C8.02503 18.6897 8.18192 21.3337 8.21893 21.8877L5.2256 22.0877C5.18696 21.5092 5.02892 18.8435 4.90196 16.0277C4.7772 13.2608 4.67422 10.196 4.76814 8.91304L7.76013 9.13206ZM3.58171 14.8967C3.95885 12.6405 4.29739 10.6149 4.52417 9.39447C4.58104 9.08842 4.63268 8.82324 4.67745 8.61296C4.71445 8.43922 4.76641 8.20471 4.83063 8.02667C4.8451 7.98656 4.89118 7.85917 4.97665 7.7189C5.01353 7.65837 5.12074 7.48795 5.31654 7.32837C5.51801 7.16416 6.03712 6.84757 6.71255 7.05615C7.29235 7.2352 7.5412 7.67834 7.60594 7.80298C7.6926 7.96984 7.72829 8.11551 7.74214 8.17711C7.77241 8.3117 7.77921 8.42637 7.78162 8.47219C7.79145 8.6596 7.77663 8.90673 7.76013 9.13206L4.76814 8.91304C4.78664 8.66025 4.78412 8.59862 4.78574 8.62944C4.78609 8.63612 4.78956 8.72115 4.81524 8.83535C4.8268 8.88675 4.85988 9.02453 4.94363 9.18578C5.00546 9.30481 5.25108 9.74462 5.82735 9.92258C6.49927 10.1301 7.01455 9.81465 7.21189 9.6538C7.40356 9.49758 7.50634 9.33274 7.5385 9.27995C7.61453 9.15519 7.64998 9.05201 7.65268 9.04454C7.66979 8.99707 7.65631 9.02813 7.61167 9.23775C7.57481 9.41084 7.52864 9.64682 7.47368 9.94255C7.25317 11.1292 6.92023 13.1206 6.54066 15.3913L3.58171 14.8967ZM1.65548 25.7912C2.19471 23.1923 2.9442 18.7104 3.58171 14.8967L6.54066 15.3913C5.90794 19.1763 5.14705 23.73 4.59292 26.4007L1.65548 25.7912ZM0.803659 33.4491C0.798337 31.4478 1.0086 28.909 1.65548 25.7912L4.59292 26.4007C3.98584 29.3267 3.79891 31.6584 3.80365 33.4411L0.803659 33.4491ZM3.78982 33.6483C2.86455 40.4132 6.77204 47.1274 13.4602 49.4976L12.4581 52.3253C4.40285 49.4707 -0.296567 41.387 0.817492 33.2418L3.78982 33.6483ZM13.4602 49.4976C21.1209 52.2126 29.5321 48.2031 32.247 40.5423L35.0747 41.5444C31.8063 50.7669 21.6805 55.5937 12.4581 52.3253L13.4602 49.4976ZM32.247 40.5423C33.4075 37.2677 33.3399 33.86 32.2842 30.8153L35.1187 29.8325C36.3893 33.4972 36.4707 37.6053 35.0747 41.5444L32.247 40.5423Z" fill="#FFAD08"/>
    <defs>
        <radialGradient id="paint0_radial" cx="0" cy="0" r="1" gradientUnits="userSpaceOnUse" gradientTransform="translate(18.0233 34.7293) rotate(-91.1048) scale(33.8322 34.314)">
            <stop stop-color="white"/>
            <stop offset="0.0967799" stop-color="#F3F3D3"/>
            <stop offset="0.262208" stop-color="#EDE751"/>
            <stop offset="0.453196" stop-color="#FE721E"/>
        </radialGradient>
    </defs>
</svg>
