<?xml version="1.0" encoding="utf-8"?>
<svg version="1.1" id="svg854" x="0px" y="0px" viewBox="13.66 0 29.953 119.2" style="enable-background:new 0 0 56 119.2;" xmlns="http://www.w3.org/2000/svg">
  <style type="text/css">
	
		.st0{clip-path:url(#SVGID_00000090277436831574913310000000795859242646465165_);fill:#1F1F1F;stroke:#000000;stroke-width:12;stroke-linecap:round;}
	.st1{fill:#5A5A5A;stroke:#000000;stroke-width:3;stroke-miterlimit:10;}
	.st2{fill:#2B2B2B;stroke:#000000;stroke-width:4.4924;stroke-miterlimit:10;}
	
		.st3{clip-path:url(#SVGID_00000127724909864793218310000003090033101433421748_);fill:#3F3F3F;stroke:#000000;stroke-width:8;stroke-miterlimit:10;}
	.st4{fill:#161616;stroke:#000000;stroke-width:4.0518;stroke-miterlimit:10;}
	.st5{fill:#181818;}
	.st6{fill:#272727;stroke:#000000;stroke-width:4;stroke-miterlimit:10;}
	.st7{fill:#0E0E0E;}
</style>
  <g>
    <defs>
      <rect id="SVGID_1_" x="19" y="71.2" width="18" height="48"/>
    </defs>
    <clipPath id="SVGID_00000072982852192348601720000017659533155258712705_">
      <rect x="19" y="71.2" width="18" height="48" transform="matrix(1, 0, 0, 1, 0, 0)" style="overflow: visible;"/>
    </clipPath>
    <path id="path832" style="clip-path:url(#SVGID_00000072982852192348601720000017659533155258712705_);fill:#1F1F1F;stroke:#000000;stroke-width:12;stroke-linecap:round;" d=" M19,119.2v-48h18v48H19z"/>
  </g>
  <rect id="rect958" x="35.1" y="70.9" class="st1" width="6.9" height="8.5"/>
  <rect id="rect961" x="16" y="43.9" class="st2" width="6.9" height="19.1"/>
  <g>
    <defs>
      <polygon id="SVGID_00000169528268108860571750000002159921858739395243_" points="17.2,25.2 17.2,84.3 18.7,85.4 37.3,85.4 &#10;&#9;&#9;&#9;38.8,84.3 38.8,25.2 &#9;&#9;"/>
    </defs>
    <clipPath id="SVGID_00000052102201686008414950000015991447596562877374_">
      <polygon points="17.2,25.2 17.2,84.3 18.7,85.4 37.3,85.4 &#10;&#9;&#9;&#9;38.8,84.3 38.8,25.2 &#9;&#9;" transform="matrix(1, 0, 0, 1, 0, 0)" style="overflow: visible;"/>
    </clipPath>
    <path id="path964" style="clip-path:url(#SVGID_00000052102201686008414950000015991447596562877374_);fill:#3F3F3F;stroke:#000000;stroke-width:8;stroke-miterlimit:10;" d=" M17.2,25.2v59.1l1.5,1.1h18.5l1.5-1.1V25.2H17.2z"/>
  </g>
  <rect id="rect954" x="23.2" y="16.6" class="st4" width="9.6" height="13.1"/>
  <path id="path915" class="st5" d="M25.6,85.2V34.8h4.7v50.4H25.6z"/>
  <rect id="rect895" x="24.1" y="70.9" class="st1" width="7.9" height="8.5"/>
  <rect id="rect1037" x="24.5" y="27.2" class="st1" width="7" height="8"/>
  <path id="rect941" class="st6" d="M37,21.2H19v-18L22.6,2h10.9 L37,3.2V21.2z"/>
  <path id="path956" class="st7" d="M21,61.2V45.6h14v15.6H21z"/>
  <path id="path981" d="M23.3,12.3V2.6h9.4v9.6L30,13.7h-4L23.3,12.3z "/>
</svg>