<svg width="17" height="17" viewBox="0 0 17 17" fill="none" xmlns="http://www.w3.org/2000/svg">
<path opacity="0.9" d="M16.4358 8.40675C16.4366 12.8523 12.8338 16.4566 8.38837 16.4574C7.84752 16.4574 7.30741 16.4027 6.77693 16.2947C2.42083 15.4102 -0.393917 11.161 0.49066 6.80493C1.13377 3.6376 3.6097 1.16177 6.77693 0.51866C11.1323 -0.370728 15.3838 2.43996 16.2732 6.79531C16.3811 7.32579 16.4358 7.8659 16.4358 8.40675Z" fill="#FAB531"/>
<path d="M2.82636 9.00423C2.38209 9.00423 2.02148 8.64363 2.02148 8.19936C2.02148 5.08759 4.54401 2.56506 7.65578 2.56506C8.10005 2.56506 8.46066 2.92567 8.46066 3.36994C8.46066 3.81421 8.10005 4.17481 7.65578 4.17481C5.4334 4.17481 3.63123 5.97698 3.63123 8.19936C3.63123 8.64363 3.27063 9.00423 2.82636 9.00423Z" fill="white" fill-opacity="0.5"/>
</svg>
