<svg width="17" height="17" viewBox="0 0 17 17" fill="none" xmlns="http://www.w3.org/2000/svg">
<path opacity="0.9" d="M16.4358 8.13088C16.4366 12.5764 12.8338 16.1807 8.38837 16.1815C7.84752 16.1815 7.30741 16.1268 6.77693 16.0189C2.42083 15.1343 -0.393917 10.8852 0.49066 6.52905C1.13377 3.36172 3.6097 0.885887 6.77693 0.242781C11.1323 -0.646607 15.3838 2.16408 16.2732 6.51943C16.3811 7.04991 16.4358 7.59002 16.4358 8.13088Z" fill="#EEFF31"/>
<path d="M2.82636 8.72836C2.38209 8.72836 2.02148 8.36775 2.02148 7.92348C2.02148 4.81171 4.54401 2.28918 7.65578 2.28918C8.10005 2.28918 8.46066 2.64979 8.46066 3.09406C8.46066 3.53833 8.10005 3.89893 7.65578 3.89893C5.4334 3.89893 3.63123 5.7011 3.63123 7.92348C3.63123 8.36775 3.27063 8.72836 2.82636 8.72836Z" fill="white" fill-opacity="0.5"/>
</svg>
