<svg width="17" height="17" viewBox="0 0 17 17" fill="none" xmlns="http://www.w3.org/2000/svg">
<path opacity="0.9" d="M16.9885 8.40675C16.9894 12.8523 13.3865 16.4566 8.94111 16.4574C8.40025 16.4574 7.86015 16.4027 7.32967 16.2947C2.97356 15.4102 0.158817 11.161 1.04339 6.80493C1.6865 3.6376 4.16243 1.16177 7.32967 0.51866C11.685 -0.370728 15.9365 2.43996 16.8259 6.79531C16.9338 7.32579 16.9885 7.8659 16.9885 8.40675Z" fill="#FB1A1A"/>
<path d="M3.37909 9.00423C2.93482 9.00423 2.57422 8.64363 2.57422 8.19936C2.57422 5.08759 5.09674 2.56506 8.20852 2.56506C8.65279 2.56506 9.01339 2.92567 9.01339 3.36994C9.01339 3.81421 8.65279 4.17481 8.20852 4.17481C5.98613 4.17481 4.18396 5.97698 4.18396 8.19936C4.18396 8.64363 3.82336 9.00423 3.37909 9.00423Z" fill="white" fill-opacity="0.5"/>
</svg>
