<svg width="17" height="17" viewBox="0 0 17 17" fill="none" xmlns="http://www.w3.org/2000/svg">
<path opacity="0.9" d="M16.9885 8.855C16.9894 13.3005 13.3865 16.9049 8.94111 16.9056C8.40025 16.9056 7.86015 16.8509 7.32967 16.743C2.97356 15.8584 0.158817 11.6093 1.04339 7.25317C1.6865 4.08584 4.16243 1.61001 7.32967 0.966902C11.685 0.0775146 15.9365 2.8882 16.8259 7.24355C16.9338 7.77403 16.9885 8.31414 16.9885 8.855Z" fill="#557FE9"/>
<path d="M3.37909 9.45248C2.93482 9.45248 2.57422 9.09187 2.57422 8.6476C2.57422 5.53583 5.09674 3.01331 8.20852 3.01331C8.65279 3.01331 9.01339 3.37391 9.01339 3.81818C9.01339 4.26245 8.65279 4.62305 8.20852 4.62305C5.98613 4.62305 4.18396 6.42522 4.18396 8.6476C4.18396 9.09187 3.82336 9.45248 3.37909 9.45248Z" fill="white" fill-opacity="0.5"/>
</svg>
