<svg width="17" height="17" viewBox="0 0 17 17" fill="none" xmlns="http://www.w3.org/2000/svg">
<path opacity="0.9" d="M16.9885 8.13088C16.9894 12.5764 13.3865 16.1807 8.94111 16.1815C8.40025 16.1815 7.86015 16.1268 7.32967 16.0189C2.97356 15.1343 0.158817 10.8852 1.04339 6.52905C1.6865 3.36172 4.16243 0.885887 7.32967 0.242781C11.685 -0.646607 15.9365 2.16408 16.8259 6.51943C16.9338 7.04991 16.9885 7.59002 16.9885 8.13088Z" fill="#79E453"/>
<path d="M3.37909 8.72836C2.93482 8.72836 2.57422 8.36775 2.57422 7.92348C2.57422 4.81171 5.09674 2.28918 8.20852 2.28918C8.65279 2.28918 9.01339 2.64979 9.01339 3.09406C9.01339 3.53833 8.65279 3.89893 8.20852 3.89893C5.98613 3.89893 4.18396 5.7011 4.18396 7.92348C4.18396 8.36775 3.82336 8.72836 3.37909 8.72836Z" fill="white" fill-opacity="0.5"/>
</svg>
