<svg width="129" height="129" viewBox="0 0 129 129" fill="none" xmlns="http://www.w3.org/2000/svg">
<mask id="mask0" mask-type="alpha" maskUnits="userSpaceOnUse" x="0" y="0" width="129" height="129">
<rect x="0.910156" y="0.155273" width="128" height="128" fill="#C4C4C4"/>
</mask>
<g mask="url(#mask0)">
<path fill-rule="evenodd" clip-rule="evenodd" d="M29.1574 52.986L27.9896 55.3469L28.0203 55.4029L26.1927 56.3749L29.3146 62.2452L31.2135 61.2353L31.2786 61.3542L33.9169 61.9354L37.9249 59.8038L39.3606 57.056L39.2969 56.9364L41.1115 55.9713L37.9896 50.101L35.9411 51.1904L33.5919 50.6276L29.1574 52.986ZM12.7827 61.8473L6.39928 65.2422L10.8963 73.698L17.5107 70.1802L18.4711 67.8197L18.3721 67.6336L23.97 64.6566L25.2104 66.989L25.7812 66.6854C26.3809 67.3599 27.3846 67.5638 28.2168 67.1212C29.049 66.6787 29.4411 65.7325 29.2171 64.8581L30.1331 64.371L25.7206 56.074L20.7979 58.692L21.2051 59.4577L15.6072 62.4348L15.525 62.2802L12.7827 61.8473ZM42.7657 46.9414L38.0662 49.4408L42.7326 58.215L47.4321 55.7157L42.7657 46.9414ZM43.299 47.9431L53.1192 45.5637L54.4618 48.0882L46.7292 54.3928L43.299 47.9431Z" fill="white"/>
<path fill-rule="evenodd" clip-rule="evenodd" d="M4.96875 64.9557L12.6899 60.8494L16.3668 61.4298L19.8283 67.9384L18.5126 71.1724L10.5321 75.4166L4.96875 64.9557ZM8.04026 65.8944L11.4709 72.3451L16.7193 69.5539L17.3243 68.0668L14.8936 63.4964L13.0859 63.2111L8.04026 65.8944Z" fill="black"/>
<path fill-rule="evenodd" clip-rule="evenodd" d="M13.9766 62.2528L21.7735 58.1062L25.6048 65.3102L17.8078 69.4568L13.9766 62.2528ZM17.0481 63.1916L18.7466 66.3853L22.5333 64.3715L20.8347 61.1777L17.0481 63.1916Z" fill="black"/>
<path fill-rule="evenodd" clip-rule="evenodd" d="M36.6289 49.1545L43.3336 45.5888L49.0663 56.3682L42.3617 59.9339L36.6289 49.1545ZM39.7004 50.0933L43.3004 56.8624L45.9948 55.4295L42.3948 48.6603L39.7004 50.0933Z" fill="black"/>
<path fill-rule="evenodd" clip-rule="evenodd" d="M41.6133 47.1836L53.7121 44.2521L55.9064 48.3782L46.3796 56.1458L41.6133 47.1836ZM44.9928 48.7015L47.0868 52.6389L53.0252 47.7972L52.5343 46.8742L44.9928 48.7015Z" fill="black"/>
<path fill-rule="evenodd" clip-rule="evenodd" d="M28.4037 52.3383L33.4915 49.6325L36.1506 50.0304L38.5611 48.7484L42.7494 56.6238L40.4175 57.864L38.8707 60.8246L34.1831 63.3176L31.3405 62.6914L28.9474 63.9641L24.759 56.0887L27.1874 54.7972L28.4037 52.3383ZM27.8305 57.0274L29.8861 60.8926L31.7729 59.8892L32.129 60.5396L33.855 60.9198L37.1834 59.1496L38.179 57.244L37.8632 56.6502L39.6779 55.6851L37.6223 51.8199L35.8076 52.785L35.5132 52.2313L33.8964 51.9894L30.1153 54.0003L29.3717 55.5036L29.6703 56.049L27.8305 57.0274Z" fill="black"/>
<path fill-rule="evenodd" clip-rule="evenodd" d="M19.3594 58.4058L26.2872 54.7214L31.7661 65.0235L24.8383 68.7079L19.3594 58.4058ZM22.4309 59.3445L25.777 65.6363L28.6946 64.0847L25.3484 57.7929L22.4309 59.3445Z" fill="black"/>
<path d="M27.4104 63.062C27.6683 63.5469 27.4843 64.1491 26.9994 64.407C26.5145 64.6649 25.9123 64.4808 25.6544 63.9959C25.3966 63.511 25.5806 62.9089 26.0655 62.651C26.5504 62.3931 27.1526 62.5771 27.4104 63.062Z" fill="black"/>
<path d="M34.0768 56.3474C34.2103 56.5985 34.115 56.9103 33.864 57.0438C33.6129 57.1773 33.3011 57.082 33.1676 56.831C33.034 56.5799 33.1293 56.2681 33.3804 56.1346C33.6315 56.001 33.9433 56.0963 34.0768 56.3474Z" fill="black"/>
<path d="M44.4261 54.0117C44.684 54.4966 44.4999 55.0988 44.015 55.3567C43.5301 55.6146 42.928 55.4305 42.6701 54.9456C42.4122 54.4607 42.5962 53.8586 43.0811 53.6007C43.566 53.3428 44.1682 53.5268 44.4261 54.0117Z" fill="black"/>
<path fill-rule="evenodd" clip-rule="evenodd" d="M60.9291 64.9911L56.8901 68.2596C55.0666 69.7353 55.1512 72.5427 57.0603 73.9059L62.3997 77.7185C63.5827 78.5631 65.1612 78.601 66.3832 77.8139L68.5 76.4506C70.1088 75.4145 70.6063 73.2893 69.6246 71.6468L66.2073 65.9291C65.0996 64.0757 62.6074 63.6329 60.9291 64.9911ZM55.774 66.8803C53.0387 69.0939 53.1656 73.3051 56.0293 75.3499L61.3687 79.1624C63.1431 80.4294 65.5108 80.4862 67.3439 79.3056L69.4607 77.9423C71.8739 76.3881 72.6202 73.2004 71.1476 70.7365L67.7303 65.0188C66.0688 62.2388 62.3305 61.5745 59.8129 63.6119L55.774 66.8803Z" fill="black"/>
<path d="M61.6345 73.6262L60.0989 74.147L63.8562 68.2731C64.1615 68.8472 64.3865 72.3088 64.4427 73.1727L64.443 73.1778C64.5026 74.0945 65.0793 74.7107 65.3642 74.9099C65.7506 75.1801 66.6651 75.8878 66.7321 76.0634C66.799 76.239 66.2101 76.8691 65.7971 77.0359C65.4668 77.1693 62.8844 74.8183 61.6345 73.6262Z" fill="black"/>
<path fill-rule="evenodd" clip-rule="evenodd" d="M18.2036 77.3746L11.8391 80.7594L13.3925 83.6804L11.4362 84.7208L13.5873 88.7654L15.5436 87.725L17.9696 92.2866L21.1374 90.6019L23.6381 87.7463L25.0683 87.9686C25.2578 87.9981 25.4518 87.9653 25.6211 87.8752L32.9188 83.9941C33.3514 83.7641 33.5156 83.2269 33.2855 82.7943L32.5582 81.4267C32.5521 81.4154 32.5459 81.4042 32.5395 81.3933L37.2501 78.8881C39.9317 78.7096 42.3563 79.7551 43.4651 81.84C43.5368 81.9748 43.6017 82.1116 43.6602 82.2503L40.7582 100.386C40.4376 102.389 41.8592 104.253 43.8761 104.474L47.935 104.918C48.2399 104.964 48.5933 105.007 49.0026 105.051C54.593 105.16 56.1698 101.836 55.4373 100.459C54.847 99.349 53.9772 98.1135 53.0131 96.9641L54.367 85.1551C57.0848 79.0459 63.6691 67.1238 68.3637 65.8754C68.5638 65.8222 68.8294 63.9068 69.0551 61.9733L84.1308 53.9557L83.8051 53.3433L87.9106 51.1599C88.3803 51.3498 88.9275 51.3383 89.4098 51.0818L106.512 41.9863C107.377 41.5261 107.706 40.4518 107.246 39.5866L104.344 34.1308C103.884 33.2657 102.81 32.9373 101.945 33.3974L84.842 42.493C84.3605 42.7491 84.0453 43.1954 83.9397 43.69L79.8329 45.8741L79.5066 45.2607L18.4062 77.7555L18.2036 77.3746ZM116.318 28.3328L103.857 32.964L107.96 40.6782L118.787 32.975L118.435 32.3125L119.952 31.5054L118.149 28.1142L116.631 28.9213L116.318 28.3328Z" fill="white"/>
<path fill-rule="evenodd" clip-rule="evenodd" d="M10.3039 80.29L18.6736 75.8388L18.8762 76.2197L79.9766 43.7249L80.3028 44.3384L83.0068 42.9004C83.2595 42.318 83.7045 41.8122 84.3094 41.4905L101.412 32.3949C101.925 32.1223 102.482 32.0184 103.02 32.0639L116.855 26.9222L117.101 27.3855L118.619 26.5784L121.488 31.9748L119.971 32.7819L120.258 33.3222L108.173 41.9205C107.91 42.3579 107.529 42.7318 107.046 42.9888L89.9436 52.0844C89.3376 52.4066 88.6684 52.4926 88.0434 52.3757L85.3415 53.8127L85.6672 54.4251L70.113 62.6972C70.0194 63.4661 69.9198 64.2126 69.8209 64.8138C69.7596 65.1865 69.6939 65.5325 69.6239 65.8012C69.5904 65.9299 69.545 66.0845 69.4822 66.2277C69.4519 66.2969 69.3984 66.4081 69.3129 66.5228C69.2479 66.61 69.041 66.8704 68.6562 66.9728C67.7993 67.2006 66.6892 67.9835 65.4021 69.3377C64.1459 70.6594 62.8394 72.3971 61.5726 74.3177C59.0844 78.0898 56.8236 82.4532 55.4758 85.4584L54.1967 96.6144C55.0738 97.699 55.8703 98.8536 56.4405 99.9258C57.129 101.22 56.5969 102.927 55.3897 104.12C54.1171 105.377 51.999 106.245 48.9811 106.186L48.9322 106.185L48.8837 106.18C48.4734 106.136 48.1106 106.092 47.7907 106.045L43.7532 105.603C41.0908 105.312 39.2143 102.851 39.6375 100.206L42.4846 82.4141C42.4775 82.4005 42.4704 82.3868 42.4632 82.3733C41.6515 80.847 39.8295 79.9255 37.5615 80.0089L34.0766 81.8623L34.2887 82.2612C34.8132 83.2474 34.4389 84.4722 33.4526 84.9967L26.1549 88.8778C25.7688 89.0832 25.3266 89.1578 24.8945 89.0907L24.0815 88.9643L21.855 91.5066L17.5008 93.8224L15.0748 89.2607L13.1185 90.3011L9.90109 84.2514L11.8574 83.211L10.3039 80.29ZM12.9726 85.1901L14.0573 87.2296L16.0135 86.1892L18.4395 90.7508L20.4209 89.6971L23.1959 86.5283L25.1616 86.8338L32.1669 83.1082L31.5585 81.9643L30.9609 80.947L36.9324 77.7712L37.1753 77.755C40.1615 77.5563 43.0902 78.7157 44.4683 81.3069C44.556 81.4718 44.6356 81.6395 44.7073 81.8095L44.8334 82.1089L41.8801 100.565C41.6621 101.928 42.6287 103.195 44.0003 103.345L48.0808 103.792L48.1025 103.795C48.3753 103.836 48.696 103.876 49.0735 103.916C51.6162 103.956 53.0679 103.221 53.7936 102.504C54.5892 101.718 54.4794 101.075 54.4354 100.992C53.8922 99.9708 53.0725 98.8012 52.1437 97.6938L51.8299 97.3198L53.2593 84.8527L53.3301 84.6936C54.7093 81.5933 57.0637 77.0288 59.6768 73.0672C60.9826 71.0876 62.3723 69.2289 63.7559 67.7731C64.9303 66.5375 66.1956 65.4887 67.4841 64.9742C67.5135 64.8301 67.5457 64.6533 67.58 64.4451C67.695 63.7456 67.8153 62.8054 67.9278 61.8417L67.9968 61.2504L82.5957 53.4863L82.27 52.8739L87.8458 49.9086L88.3369 50.1072C88.5086 50.1766 88.7039 50.1714 88.8772 50.0793L105.98 40.9837C106.291 40.8181 106.409 40.4313 106.244 40.1198L103.342 34.664C103.177 34.3526 102.79 34.2344 102.478 34.4L85.3758 43.4956C85.2028 43.5876 85.0894 43.7463 85.0508 43.9271L84.9404 44.4443L79.3641 47.4099L79.0378 46.7965L17.9374 79.2913L17.7349 78.9103L13.3754 81.2288L14.9289 84.1497L12.9726 85.1901ZM108.356 39.0033L117.317 32.6278L116.899 31.8431L118.417 31.036L117.68 29.6499L116.162 30.457L115.783 29.7434L105.47 33.5764L108.356 39.0033Z" fill="black"/>
<path d="M19.5547 77.1461L78.3477 45.8784L82.9719 54.5734L24.1789 85.8411L19.5547 77.1461Z" fill="#AEAEAE"/>
<path d="M44.1157 74.0124C44.2641 72.8737 44.9544 71.8772 45.9682 71.3381L50.3739 68.9951C52.8855 67.6593 55.8692 69.674 55.5687 72.5029L52.4554 101.817C52.248 103.77 50.4933 105.183 48.5407 104.97L43.7999 104.451C41.8233 104.234 40.4101 102.436 40.6672 100.465L44.1157 74.0124Z" fill="black"/>
<path fill-rule="evenodd" clip-rule="evenodd" d="M35.5723 76.863C35.1397 77.093 34.9756 77.6302 35.2056 78.0628L35.7624 79.1096C39.0028 78.3627 42.1541 79.3747 43.4654 81.8403C44.0312 82.9043 44.1811 84.101 43.9733 85.3001L51.6551 81.2147C52.0877 80.9847 52.2519 80.4475 52.0218 80.0149L47.5049 71.5217C47.2749 71.0891 46.7377 70.925 46.3051 71.155L35.5723 76.863Z" fill="black"/>
<path d="M55.4425 100.459C56.175 101.836 54.5982 105.159 49.0078 105.05C44.224 104.544 47.0839 103.999 45.5689 101.15C44.0539 98.3017 44.6697 94.2569 47.2549 92.882C48.7956 92.0626 53.5523 96.9046 55.4425 100.459Z" fill="black"/>
<path d="M71.4592 44.0819L71.6625 43.5542C71.7009 43.4546 71.7739 43.3722 71.8681 43.322L72.1637 43.1648C72.4189 43.0291 72.7242 43.0262 72.982 43.157L74.3997 43.8768L74.4154 43.8685C74.6578 43.7396 74.9463 43.7302 75.1966 43.843L75.4086 43.9386L75.8552 44.7785L76.1198 44.9395L76.9998 46.5942L73.7235 48.3366L71.4592 44.0819Z" fill="black"/>
<path d="M21.2031 70.8496L71.4779 44.1121L73.7249 48.3372L23.4501 75.0747L21.2031 70.8496Z" fill="black"/>
<path d="M26.418 67.1295L43.2156 58.1961L45.5458 62.5777L28.7482 71.5111L26.418 67.1295Z" fill="black"/>
<path d="M17.6094 74.6248L23.5844 71.4471L25.3518 74.7704L19.3768 77.948L17.6094 74.6248Z" fill="black"/>
<path d="M23.5794 71.4472C24.4569 73.0971 23.8307 75.146 22.1808 76.0235C20.5308 76.901 18.4819 76.2748 17.6045 74.6248C16.727 72.9749 17.3532 70.926 19.0031 70.0485C20.6531 69.171 22.702 69.7972 23.5794 71.4472Z" fill="black"/>
<path d="M84.9487 46.549C84.7376 46.1519 84.8883 45.6589 85.2853 45.4478L103.999 35.4953C104.396 35.2841 104.889 35.4348 105.1 35.8318C105.311 36.2289 105.161 36.7219 104.764 36.933L86.0499 46.8855C85.6529 47.0967 85.1599 46.946 84.9487 46.549Z" fill="black"/>
<path d="M86.3394 49.1661C86.1282 48.7691 86.2789 48.2761 86.6759 48.0649L105.39 38.1125C105.787 37.9013 106.28 38.052 106.491 38.449C106.702 38.846 106.551 39.3391 106.154 39.5502L87.4406 49.5027C87.0435 49.7139 86.5505 49.5632 86.3394 49.1661Z" fill="black"/>
<path d="M82.9648 44.7216L84.7844 43.7539L88.5665 50.8654L86.747 51.8331L82.9648 44.7216Z" fill="black"/>
<path d="M23.9361 86.5253C23.706 86.0927 23.8702 85.5556 24.3028 85.3255L31.5712 81.46C32.0037 81.2299 32.5409 81.3941 32.771 81.8267L33.1144 82.4724C33.3444 82.905 33.1803 83.4422 32.7477 83.6722L25.4793 87.5377C25.0467 87.7678 24.5096 87.6036 24.2795 87.171L23.9361 86.5253Z" fill="black"/>
<path fill-rule="evenodd" clip-rule="evenodd" d="M23.1495 86.9419C22.6894 86.0767 23.0178 85.0024 23.8829 84.5423L31.1513 80.6767C32.0165 80.2166 33.0908 80.545 33.5509 81.4101L33.8943 82.0559C34.3544 82.921 34.0261 83.9954 33.1609 84.4555L25.8925 88.321C25.0274 88.7811 23.953 88.4528 23.4929 87.5876L23.1495 86.9419ZM31.9844 82.2433L24.716 86.1088L25.0594 86.7545L32.3278 82.889L31.9844 82.2433Z" fill="black"/>
<path fill-rule="evenodd" clip-rule="evenodd" d="M72.0518 57.2583C73.1716 56.6628 73.5966 55.2723 73.001 54.1525C72.4055 53.0327 71.015 52.6077 69.8952 53.2033C69.7838 53.2625 69.6792 53.3297 69.5819 53.4036L69.5684 53.3783L62.3347 57.2254L62.1415 62.5301L71.725 57.4334L71.7105 57.4061C71.8263 57.3667 71.9404 57.3176 72.0518 57.2583Z" fill="black"/>
<path d="M27.4816 78.243C27.3559 78.0065 27.4456 77.7129 27.6821 77.5871L54.6451 63.2475C54.8816 63.1217 55.1752 63.2114 55.301 63.4479C55.4267 63.6844 55.337 63.978 55.1005 64.1038L28.1375 78.4434C27.901 78.5692 27.6074 78.4794 27.4816 78.243Z" fill="black"/>
<path d="M31.7472 67.9321C31.6215 67.6956 31.7112 67.402 31.9477 67.2762L66.5702 48.863C66.8067 48.7373 67.1003 48.827 67.2261 49.0635C67.3519 49.2999 67.2621 49.5936 67.0256 49.7193L32.4031 68.1325C32.1666 68.2583 31.873 68.1685 31.7472 67.9321Z" fill="#666666"/>
<path d="M26.6445 76.671L30.8624 74.4278L33.9748 74.3703L34.3564 75.0879L33.8517 76.0335L27.9693 79.1619L26.6445 76.671Z" fill="black"/>
<path fill-rule="evenodd" clip-rule="evenodd" d="M34.2857 57.8339C35.0247 57.4409 35.3051 56.5233 34.9121 55.7843C34.5191 55.0454 33.6015 54.765 32.8626 55.1579C32.1236 55.5509 31.8432 56.4685 32.2362 57.2075C32.6292 57.9464 33.5468 58.2269 34.2857 57.8339ZM35.1188 59.4004C36.7229 58.5473 37.3317 56.5553 36.4786 54.9512C35.6255 53.3471 33.6336 52.7383 32.0295 53.5914C30.4254 54.4445 29.8166 56.4365 30.6697 58.0406C31.5228 59.6447 33.5147 60.2535 35.1188 59.4004Z" fill="black"/>
<path fill-rule="evenodd" clip-rule="evenodd" d="M31.6004 56.5056L28.6709 56.426L28.707 55.0958L31.6365 55.1754L31.6004 56.5056Z" fill="black"/>
<path fill-rule="evenodd" clip-rule="evenodd" d="M35.1138 54.6363L36.6856 52.1629L35.5625 51.4492L33.9907 53.9226L35.1138 54.6363Z" fill="black"/>
<path fill-rule="evenodd" clip-rule="evenodd" d="M32.4291 58.0629L30.8574 60.5363L31.9805 61.25L33.5522 58.7766L32.4291 58.0629Z" fill="black"/>
<path fill-rule="evenodd" clip-rule="evenodd" d="M35.9426 56.1938L38.8721 56.2733L38.8359 57.6035L35.9064 57.524L35.9426 56.1938Z" fill="black"/>
<path d="M19.0703 72.5631L21.0581 71.506L22.1152 73.4937L20.1275 74.5509L19.0703 72.5631Z" fill="#666666"/>
<path d="M19.6094 78.2045L21.1759 77.3714L25.0739 84.7009L23.5074 85.534L19.6094 78.2045Z" fill="black"/>
<path d="M78.7148 46.5696L80.2814 45.7365L84.9802 54.5717L83.4136 55.4048L78.7148 46.5696Z" fill="black"/>
<path d="M24.4922 70.4404L25.1294 70.1016L26.7706 73.1876L26.1334 73.5264L24.4922 70.4404Z" fill="#666666"/>
<path d="M27.625 68.7776L28.2622 68.4387L29.9034 71.5247L29.2662 71.8636L27.625 68.7776Z" fill="#666666"/>
<path d="M30.75 67.1146L31.3872 66.7758L33.0284 69.8618L32.3912 70.2006L30.75 67.1146Z" fill="#666666"/>
<path d="M27.6587 70.7368C27.7945 70.9921 27.6976 71.3092 27.4423 71.4449C27.187 71.5807 26.8699 71.4838 26.7341 71.2285C26.5984 70.9732 26.6953 70.6562 26.9506 70.5204C27.2059 70.3846 27.5229 70.4815 27.6587 70.7368Z" fill="#666666"/>
<path d="M30.7837 69.0737C30.9195 69.329 30.8226 69.6461 30.5673 69.7819C30.312 69.9176 29.9949 69.8207 29.8591 69.5654C29.7234 69.3101 29.8203 68.9931 30.0756 68.8573C30.3309 68.7215 30.6479 68.8184 30.7837 69.0737Z" fill="#666666"/>
<path fill-rule="evenodd" clip-rule="evenodd" d="M10.3039 80.29L20.6643 74.7801L20.8668 75.1609L79.9763 43.725L80.3026 44.3385L83.0068 42.9004C83.2595 42.318 83.7045 41.8122 84.3094 41.4905L101.412 32.3949C101.925 32.1223 102.482 32.0184 103.02 32.0639L116.855 26.9222L117.101 27.3855L118.619 26.5784L121.488 31.9748L119.971 32.7819L120.258 33.3222L108.173 41.9205C107.91 42.3579 107.529 42.7318 107.046 42.9888L89.9436 52.0844C89.3376 52.4066 88.6684 52.4926 88.0434 52.3757L85.3412 53.8128L85.6669 54.4251L70.113 62.697C70.0194 63.466 69.9198 64.2126 69.8209 64.8137C69.7596 65.1865 69.6939 65.5325 69.624 65.8012C69.5905 65.9299 69.545 66.0845 69.4822 66.2277C69.4519 66.2969 69.3984 66.4081 69.313 66.5228C69.2479 66.61 69.041 66.8704 68.6562 66.9728C67.7993 67.2006 66.6892 67.9835 65.4021 69.3377C64.1459 70.6594 62.8394 72.3971 61.5726 74.3177C59.0844 78.0898 56.8236 82.4532 55.4758 85.4584L54.1967 96.6144C55.0738 97.699 55.8703 98.8536 56.4405 99.9258C57.129 101.22 56.5969 102.927 55.3897 104.12C54.1171 105.377 51.999 106.245 48.9811 106.186L48.9322 106.185L48.8837 106.18C48.4734 106.136 48.1106 106.092 47.7907 106.045L43.7532 105.603C41.0908 105.312 39.2143 102.851 39.6375 100.206L42.4846 82.4141C42.4775 82.4005 42.4704 82.3868 42.4632 82.3733C41.6514 80.847 39.8294 79.9254 37.5612 80.0089L26.5225 85.8796L22.2273 91.3087L17.5008 93.8224L15.0748 89.2607L13.1185 90.3011L9.90109 84.2514L11.8574 83.211L10.3039 80.29ZM12.9726 85.1901L14.0573 87.2296L16.0135 86.1892L18.4395 90.7508L20.7412 89.5268L23.847 85.6011L23.4859 84.9223L36.9321 77.7712L37.175 77.7551C40.1613 77.5562 43.0902 78.7156 44.4683 81.3069C44.556 81.4718 44.6356 81.6395 44.7073 81.8095L44.8334 82.1089L41.8801 100.565C41.6621 101.928 42.6287 103.195 44.0003 103.345L48.0808 103.792L48.1025 103.795C48.3753 103.836 48.696 103.876 49.0735 103.916C51.6162 103.956 53.0679 103.221 53.7936 102.504C54.5892 101.718 54.4794 101.075 54.4354 100.992C53.8922 99.9708 53.0725 98.8012 52.1437 97.6938L51.8299 97.3198L53.2593 84.8527L53.3301 84.6936C54.7093 81.5933 57.0637 77.0288 59.6768 73.0672C60.9826 71.0876 62.3723 69.2289 63.7559 67.7731C64.9303 66.5375 66.1956 65.4887 67.4841 64.9742C67.5135 64.8301 67.5457 64.6532 67.58 64.4451C67.695 63.7455 67.8153 62.8053 67.9278 61.8416L67.9969 61.2502L82.5954 53.4863L82.2697 52.8741L87.8458 49.9086L88.3369 50.1072C88.5086 50.1766 88.7039 50.1714 88.8772 50.0793L105.98 40.9837C106.291 40.8181 106.409 40.4313 106.244 40.1198L103.342 34.664C103.177 34.3526 102.79 34.2344 102.478 34.4L85.3758 43.4956C85.2028 43.5876 85.0894 43.7463 85.0508 43.9271L84.9404 44.4443L79.3638 47.4101L79.0375 46.7965L19.9281 78.2324L19.7256 77.8516L13.3754 81.2288L14.9289 84.1497L12.9726 85.1901ZM108.356 39.0033L117.317 32.6278L116.899 31.8431L118.417 31.036L117.68 29.6499L116.162 30.457L115.783 29.7434L105.47 33.5764L108.356 39.0033Z" fill="black"/>
<path d="M51.1342 81.4917C52.0529 83.2192 51.3973 85.3644 49.6698 86.2831C47.9423 87.2019 45.7971 86.5462 44.8784 84.8187C43.9596 83.0912 44.6153 80.946 46.3428 80.0273C48.0703 79.1085 50.2155 79.7642 51.1342 81.4917Z" fill="#666666"/>
<path d="M26.2103 78.4989C26.5887 79.2103 26.3187 80.0937 25.6073 80.472C24.8959 80.8503 24.0126 80.5804 23.6342 79.869C23.2559 79.1576 23.5259 78.2742 24.2373 77.8959C24.9486 77.5176 25.832 77.7876 26.2103 78.4989Z" fill="black"/>
<path d="M49.2924 82.4706C49.6707 83.182 49.4007 84.0654 48.6893 84.4437C47.978 84.822 47.0946 84.552 46.7163 83.8407C46.3379 83.1293 46.6079 82.2459 47.3193 81.8676C48.0307 81.4893 48.9141 81.7593 49.2924 82.4706Z" fill="black"/>
</g>
</svg>
