<svg width="122" height="160" viewBox="7 -17 122 160" transform="rotate(-45)" fill="none"
    xmlns="http://www.w3.org/2000/svg">
    <g filter="url(#filter0_dddii)">
        <path
            d="M114.279 12.7092C115.098 11.8905 116.425 11.8905 117.244 12.7092C118.063 13.528 118.063 14.8554 117.244 15.6742L32.9525 99.9658L29.9876 97.0009L114.279 12.7092Z"
            fill="#FFECEC" />
    </g>
    <path fill-rule="evenodd" clip-rule="evenodd"
        d="M39.7366 97.6258L32.3242 90.2134L31.9505 90.5872L32.7229 91.3596L32.0014 92.0811L32.3556 92.4353L30.9818 93.8091L32.0786 94.9059L30.4572 96.5274L29.8393 95.9096L28.7463 97.0026L28.7232 96.9795L27.9556 97.4201L28.76 98.2245L25.5729 101.412L24.6361 100.475L24.6301 100.481L23.6177 100.574L23.5293 101.535L22.5677 101.624L22.4792 102.585L21.5176 102.674L21.4292 103.636L20.4676 103.724L20.3792 104.686L19.4176 104.774L19.3245 105.786L19.3185 105.792L19.3923 105.866L14.2872 110.971L14.6305 111.315L13.8449 112.1L13.3017 111.557L11.8297 113.029L16.9209 118.12L18.393 116.648L17.8489 116.104L18.6345 115.319L18.9777 115.662L24.0828 110.557L24.1551 110.629L24.1611 110.623L24.161 110.624L25.1744 110.531L25.2629 109.569L26.2245 109.481L26.3129 108.519L27.2745 108.431L27.3629 107.469L28.3245 107.381L28.4129 106.419L29.3745 106.331L29.4677 105.317L29.4668 105.317L29.4727 105.311L28.5385 104.377L31.7255 101.19L32.5295 101.994L32.8808 101.27L34.0405 100.111L33.4227 99.4929L35.0441 97.8714L36.1409 98.9682L37.5147 97.5944L37.8691 97.9488L38.5906 97.2273L39.3628 97.9996L39.7366 97.6258Z"
        fill="#7F7C7C" />
    <path fill-rule="evenodd" clip-rule="evenodd"
        d="M32.3242 86.6555L43.2945 97.6258L39.3628 101.557L38.5906 100.785L37.8691 101.507L37.5147 101.152L36.1409 102.526L35.6619 102.047L34.9591 102.75L33.2492 106.272L32.6598 105.682L31.8898 106.452L31.6882 108.644L30.7266 108.733L30.6382 109.694L29.6766 109.783L29.5882 110.744L28.6266 110.833L28.5381 111.794L27.5766 111.883L27.4881 112.844L25.296 113.046L24.1551 114.187L24.0828 114.115L21.7501 116.447L21.9509 116.648L16.9209 121.678L8.27173 113.029L13.3017 107.999L13.5017 108.199L15.8344 105.866L15.7605 105.792L16.9025 104.65L17.1039 102.46L18.0655 102.372L18.1539 101.41L19.1155 101.322L19.2039 100.36L20.1655 100.272L20.254 99.3101L21.2156 99.2217L21.304 98.2601L23.4942 98.0587L24.2652 97.2876L23.8519 96.8743L27.2891 94.9018L27.9028 94.2881L27.4238 93.8091L28.7977 92.4353L28.4435 92.081L29.1649 91.3596L28.3925 90.5872L32.3242 86.6555ZM30.9818 93.8091L32.0786 94.9059L30.4572 96.5273L29.8393 95.9095L28.7463 97.0026L28.7232 96.9795L27.9556 97.42L28.76 98.2245L25.5729 101.412L24.6361 100.475L24.6301 100.481L23.6177 100.574L23.5293 101.535L22.5677 101.624L22.4792 102.585L21.5176 102.674L21.4292 103.635L20.4676 103.724L20.3792 104.685L19.4176 104.774L19.3245 105.786L19.3185 105.792L19.3923 105.866L14.2872 110.971L14.6305 111.315L13.8449 112.1L13.3017 111.557L11.8297 113.029L16.9209 118.12L18.393 116.648L17.8489 116.104L18.6345 115.319L18.9777 115.662L24.0828 110.557L24.1551 110.629L24.1609 110.623L24.161 110.624L25.1744 110.531L25.2629 109.569L26.2245 109.481L26.3129 108.519L27.2745 108.431L27.3629 107.469L28.3245 107.381L28.4129 106.419L29.3745 106.331L29.4677 105.317L29.4668 105.317L29.4727 105.311L28.5385 104.377L31.7255 101.19L32.5295 101.994L32.8808 101.27L34.0405 100.111L33.4227 99.4928L35.0441 97.8714L36.1409 98.9682L37.5147 97.5944L37.8691 97.9487L38.5906 97.2273L39.3628 97.9995L39.7366 97.6258L32.3242 90.2134L31.9505 90.5872L32.7229 91.3596L32.0014 92.081L32.3556 92.4353L30.9818 93.8091Z"
        fill="black" />
    <path d="M29.8398 95.9092L34.041 100.11L32.5948 101.556L28.3937 97.3553L29.8398 95.9092Z" fill="#C4C4C4" />
    <path d="M28.7222 96.9793L32.9233 101.18L32.5284 101.994L27.9545 97.4198L28.7222 96.9793Z" fill="#C4C4C4" />
    <path fill-rule="evenodd" clip-rule="evenodd"
        d="M24.6393 100.476L29.476 105.313L29.47 105.318L29.471 105.318L29.3778 106.332L28.4575 105.412L28.4577 105.412L24.5412 101.495L24.5412 101.495L23.6209 100.575L24.6333 100.482L24.6393 100.476Z"
        fill="#C4C4C4" />
    <path fill-rule="evenodd" clip-rule="evenodd"
        d="M23.5808 101.531L28.4174 106.368L28.4114 106.374L28.4124 106.374L28.3192 107.387L27.3989 106.467L27.3991 106.467L23.4826 102.55L23.4826 102.55L22.5623 101.63L23.5747 101.537L23.5808 101.531Z"
        fill="#C4C4C4" />
    <path fill-rule="evenodd" clip-rule="evenodd"
        d="M22.5261 102.586L27.3627 107.423L27.3567 107.429L27.3577 107.429L27.2645 108.442L26.3442 107.522L26.3444 107.522L22.4279 103.605L22.4279 103.606L21.5076 102.685L22.52 102.592L22.5261 102.586Z"
        fill="#C4C4C4" />
    <path fill-rule="evenodd" clip-rule="evenodd"
        d="M21.4753 103.641L26.3119 108.478L26.306 108.484L26.3069 108.484L26.2137 109.497L25.2934 108.577L25.2936 108.577L21.3771 104.661L21.3771 104.661L20.4569 103.741L21.4693 103.647L21.4753 103.641Z"
        fill="#C4C4C4" />
    <path fill-rule="evenodd" clip-rule="evenodd"
        d="M20.4128 104.697L25.2494 109.533L25.2435 109.539L25.2444 109.539L25.1512 110.553L24.2309 109.632L24.2311 109.632L20.3146 105.716L20.3146 105.716L19.3944 104.796L20.4068 104.703L20.4128 104.697Z"
        fill="#C4C4C4" />
    <path fill-rule="evenodd" clip-rule="evenodd"
        d="M28.3568 106.431L23.5201 101.595L23.5261 101.589L23.5251 101.589L23.6183 100.575L24.5386 101.496L24.5384 101.496L28.4549 105.412L28.4549 105.412L29.3752 106.332L28.3628 106.425L28.3568 106.431Z"
        fill="#323232" />
    <path fill-rule="evenodd" clip-rule="evenodd"
        d="M27.3021 107.487L22.4654 102.65L22.4714 102.644L22.4704 102.644L22.5636 101.631L23.4839 102.551L23.4837 102.551L27.4002 106.467L27.4002 106.467L28.3205 107.388L27.3081 107.481L27.3021 107.487Z"
        fill="#323232" />
    <path fill-rule="evenodd" clip-rule="evenodd"
        d="M26.2474 108.542L21.4107 103.705L21.4167 103.699L21.4158 103.699L21.509 102.686L22.4292 103.606L22.4291 103.606L26.3455 107.523L26.3455 107.522L27.2658 108.443L26.2534 108.536L26.2474 108.542Z"
        fill="#323232" />
    <path fill-rule="evenodd" clip-rule="evenodd"
        d="M25.1888 109.597L20.3522 104.76L20.3581 104.754L20.3572 104.754L20.4504 103.741L21.3706 104.661L21.3705 104.661L25.2869 108.578L25.2869 108.578L26.2072 109.498L25.1948 109.591L25.1888 109.597Z"
        fill="#323232" />
    <path fill-rule="evenodd" clip-rule="evenodd"
        d="M24.1341 110.652L19.2975 105.816L19.3034 105.81L19.3025 105.81L19.3957 104.796L20.3159 105.716L20.3158 105.716L24.2322 109.633L24.2323 109.633L25.1525 110.553L24.1401 110.646L24.1341 110.652Z"
        fill="#323232" />
    <path d="M27.6406 97.1076L32.8422 102.309L32.1872 102.964L26.9856 97.7626L27.6406 97.1076Z" fill="black" />
    <path d="M29.9766 94.77L35.1782 99.9716L34.5231 100.627L29.3215 95.4251L29.9766 94.77Z" fill="black" />
    <path d="M15.168 109.579L20.3696 114.781L19.2321 115.918L14.0305 110.717L15.168 109.579Z" fill="black" />
    <path d="M24.2383 110.487L26.5156 112.765L22.1516 117.129L19.8742 114.851L24.2383 110.487Z" fill="black" />
    <path d="M22.3164 109.75L24.5938 112.027L21.4142 115.207L19.1368 112.929L22.3164 109.75Z" fill="#2A2929" />
    <path
        d="M22.8416 112.214C22.6443 112.411 22.3244 112.411 22.1272 112.214C21.9299 112.017 21.9299 111.697 22.1272 111.5C22.3244 111.302 22.6443 111.302 22.8416 111.5C23.0389 111.697 23.0389 112.017 22.8416 112.214Z"
        fill="#C81616" />
    <path fill-rule="evenodd" clip-rule="evenodd"
        d="M20.8832 112.742C20.8832 112.742 20.8832 112.742 20.8832 112.742C20.686 112.939 20.686 113.259 20.8832 113.456C21.0805 113.653 21.4004 113.653 21.5976 113.456C21.5977 113.456 21.5977 113.456 21.5977 113.456L21.9549 113.099C21.9549 113.099 21.9549 113.099 21.9549 113.099C22.1521 112.901 22.1521 112.582 21.9549 112.384C21.7576 112.187 21.4377 112.187 21.2405 112.384C21.2404 112.384 21.2404 112.384 21.2404 112.384L20.8832 112.742Z"
        fill="#74FBFD" />
    <defs>
        <filter id="filter0_dddii" x="19.5056" y="0.744056" width="109.704" height="109.704"
            filterUnits="userSpaceOnUse" color-interpolation-filters="sRGB">
            <feFlood flood-opacity="0" result="BackgroundImageFix" />
            <feColorMatrix in="SourceAlpha" type="matrix" values="0 0 0 0 0 0 0 0 0 0 0 0 0 0 0 0 0 0 127 0" />
            <feOffset />
            <feGaussianBlur stdDeviation="4.19308" />
            <feColorMatrix type="matrix" values="0 0 0 0 1 0 0 0 0 0.8125 0 0 0 0 0.8125 0 0 0 1 0" />
            <feBlend mode="normal" in2="BackgroundImageFix" result="effect1_dropShadow" />
            <feColorMatrix in="SourceAlpha" type="matrix" values="0 0 0 0 0 0 0 0 0 0 0 0 0 0 0 0 0 0 127 0" />
            <feOffset />
            <feGaussianBlur stdDeviation="5.24134" />
            <feColorMatrix type="matrix" values="0 0 0 0 1 0 0 0 0 0 0 0 0 0 0 0 0 0 1 0" />
            <feBlend mode="normal" in2="effect1_dropShadow" result="effect2_dropShadow" />
            <feColorMatrix in="SourceAlpha" type="matrix" values="0 0 0 0 0 0 0 0 0 0 0 0 0 0 0 0 0 0 127 0" />
            <feOffset />
            <feGaussianBlur stdDeviation="2.09654" />
            <feColorMatrix type="matrix" values="0 0 0 0 1 0 0 0 0 0 0 0 0 0 0 0 0 0 1 0" />
            <feBlend mode="normal" in2="effect2_dropShadow" result="effect3_dropShadow" />
            <feBlend mode="normal" in="SourceGraphic" in2="effect3_dropShadow" result="shape" />
            <feColorMatrix in="SourceAlpha" type="matrix" values="0 0 0 0 0 0 0 0 0 0 0 0 0 0 0 0 0 0 127 0"
                result="hardAlpha" />
            <feOffset />
            <feGaussianBlur stdDeviation="1.46758" />
            <feComposite in2="hardAlpha" operator="arithmetic" k2="-1" k3="1" />
            <feColorMatrix type="matrix" values="0 0 0 0 1 0 0 0 0 0 0 0 0 0 0 0 0 0 1 0" />
            <feBlend mode="normal" in2="shape" result="effect4_innerShadow" />
            <feColorMatrix in="SourceAlpha" type="matrix" values="0 0 0 0 0 0 0 0 0 0 0 0 0 0 0 0 0 0 127 0"
                result="hardAlpha" />
            <feOffset />
            <feGaussianBlur stdDeviation="1.46758" />
            <feComposite in2="hardAlpha" operator="arithmetic" k2="-1" k3="1" />
            <feColorMatrix type="matrix" values="0 0 0 0 1 0 0 0 0 0 0 0 0 0 0 0 0 0 1 0" />
            <feBlend mode="normal" in2="effect4_innerShadow" result="effect5_innerShadow" />
        </filter>
    </defs>
</svg>