<svg width="21" height="31" viewBox="0 0 21 31" fill="none" xmlns="http://www.w3.org/2000/svg">
<path d="M11.2625 1.20381C10.9625 0.803809 10.4625 0.803809 10.1625 1.20381C7.9625 4.20381 0.5625 15.3038 0.5625 20.3038C0.5625 25.9038 5.1625 30.5038 10.7625 30.5038C16.3625 30.5038 20.9625 25.9038 20.9625 20.3038C20.9625 15.4038 13.3625 4.20381 11.2625 1.20381ZM10.6625 26.6038C6.7625 26.6038 3.5625 23.4038 3.5625 19.5038C3.5625 19.2038 3.7625 19.0038 4.0625 19.0038C4.3625 19.0038 4.5625 19.2038 4.5625 19.5038C4.5625 22.9038 7.2625 25.6038 10.6625 25.6038C10.9625 25.6038 11.1625 25.8038 11.1625 26.1038C11.1625 26.4038 10.9625 26.6038 10.6625 26.6038Z" fill="#72C3FF"/>
</svg>
