<?xml version="1.0" encoding="UTF-8" standalone="no"?>
<svg
   width="121.82174"
   height="120.82572"
   version="1.1"
   id="svg38"
   sodipodi:docname="0a3657e6922391610ca1412441879987.svg"
   xmlns:inkscape="http://www.inkscape.org/namespaces/inkscape"
   xmlns:sodipodi="http://sodipodi.sourceforge.net/DTD/sodipodi-0.dtd"
   xmlns="http://www.w3.org/2000/svg"
   xmlns:svg="http://www.w3.org/2000/svg">
  <defs
     id="defs42" />
  <sodipodi:namedview
     id="namedview40"
     pagecolor="#ffffff"
     bordercolor="#666666"
     borderopacity="1.0"
     inkscape:pageshadow="2"
     inkscape:pageopacity="0.0"
     inkscape:pagecheckerboard="0" />
  <g
     transform="matrix(0.55548475,-0.46279602,0.46279602,0.55548475,-17.383792,70.933133)"
     id="g36">
    <path
       d="m 96.412,50.67 -0.013,-4.041 -38.108,0.113 0.003,1.058 -5.293,0.016 0.015,5.046"
       fill="#ffffff"
       stroke="#323232"
       stroke-width="2.836"
       id="path2" />
    <path
       d="M 69.456,71.549 84.1,68.669 84.084,63.47 77.931,64.084 c -1.43,-1.219 -4.014,-1.056 -5.66,0.496 l -2.834,0.352 z"
       fill="#ffffff"
       stroke="#323232"
       stroke-width="2.127"
       id="path4" />
    <path
       d="m 91.12,51.2 c 0,0 -0.26,1.589 -1.054,1.59 L 69.954,52.85 C 69.16,52.853 68.89,51.266 68.89,51.266 l -3.175,0.01 c 0.003,1.058 -1.054,1.59 -1.054,1.59 l -3.705,0.011 c 0,0 -1.06,-0.396 -1.062,-1.055 l -5.557,0.016 -3.434,2.127 -51.87,0.154 0.064,21.436 5.822,-0.018 c 2.655,2.904 4.234,-0.012 4.234,-0.012 L 9.145,72.614 c -0.004,-1.323 1.049,-3.179 3.166,-3.185 l 8.998,-0.027 c 3.179,1.152 4.762,5.082 8.507,6.433 0.506,0.182 2.699,-0.737 2.699,-0.737 0,0 0.197,1.481 0.435,1.511 1.336,0.169 1.895,-0.018 3.662,0.158 7.141,3.709 12.246,1.551 12.246,1.551 2.93,-3.967 0.74,-9.376 4.718,-15.381 0,0 0.255,-0.624 0.728,-0.626 l 8.508,-0.025 c 2.363,0.059 3.669,2.064 3.673,3.364 l 5.246,-0.832 c 2.894,-3.512 6.355,-0.561 6.355,-0.561 l 9.894,-0.874 14.542,-4.542 38.373,-0.114 -0.017,-5.557 c -0.003,-1.058 -0.8,-2.115 -2.123,-2.11 z m -49.342,9.56 c 1.418,-0.02 3.593,1.957 3.598,3.543 0.008,2.646 -2.865,5.842 -5.582,5.968 -1.155,0.15 -2.364,-0.111 -2.364,-0.111 -1.064,-0.115 -2.48,0.491 -2.48,0.491 0,0 -0.173,-2.002 -0.479,-2.137 0,0 -1.263,-1.949 -1.266,-3.465 -0.005,-1.869 2.189,-4.27 3.607,-4.275 z"
       fill="#ffffff"
       stroke="#323232"
       stroke-width="2.986"
       id="path6" />
    <path
       d="m 0.565,62.945 2.222,-0.009 c 1.418,-0.004 1.888,-0.95 1.884,-2.368 L 4.668,59.622 C 4.664,58.204 4.188,57.26 2.771,57.265 l -2.223,0.008"
       fill="none"
       stroke="#7e7e7e"
       stroke-width="2.363"
       id="path8" />
    <circle
       transform="rotate(37.649)"
       cx="81.934998"
       cy="9.5869999"
       r="2.8280001"
       fill="#323232"
       id="circle10" />
    <path
       d="m 63.07,52.077 0.004,1.323 -3.693,3.848"
       fill="none"
       stroke="#323232"
       stroke-width="1.588"
       id="path12" />
    <path
       d="m 62.772,70.978 -6.508,0.019 c -1.957,-0.353 -3.73,-2.499 -3.73,-2.499 0,0 -0.474,-4 1.407,-4.768 0,0 -0.531,2.334 -0.087,3.705 0,0 1.22,1.86 2.638,2.162 l 5.986,0.04 c 2.128,0.036 2.943,-4.103 2.943,-4.103 l 1.437,0.351 c 0,0 -0.358,5.082 -4.086,5.093 z M 57.283,63.72 c -0.993,3.948 1.603,5.154 2.133,5.287 0.814,0.114 1.058,-0.268 1.058,-0.268 0,0 -3.712,-2.106 -1.603,-5.023 z M 1.668,50.141 26.808,50.067 c 0.795,-0.002 1.857,1.053 1.857,1.053 l 0.006,2.234 -31.125,0.077 c 0,0 0.75,-2.265 4.122,-3.29 z m 63.194,-5.715 1.143,-0.004 0.005,1.719 -1.144,0.003 z m 1.972,-0.006 1.143,-0.004 0.005,1.718 -1.143,0.003 z m 2.036,-0.007 1.142,-0.003 0.005,1.718 -1.142,0.004 z m 2.013,-0.005 1.143,-0.004 0.005,1.719 -1.143,0.002 z m 1.96,-0.006 1.143,-0.004 0.005,1.719 -1.143,0.003 z m 2.082,-0.007 1.144,-0.003 0.005,1.718 -1.143,0.003 z m 2.083,-0.006 1.144,-0.003 0.005,1.718 -1.144,0.003 z m 1.979,-0.006 1.143,-0.003 0.005,1.718 -1.143,0.004 z m 2.011,-0.006 1.144,-0.003 0.005,1.718 -1.144,0.003 z m 1.997,-0.005 1.143,-0.003 0.005,1.717 -1.144,0.003 z m 2.012,-0.006 1.143,-0.003 0.005,1.718 -1.144,0.003 z m 2.013,-0.006 1.143,-0.004 0.005,1.719 -1.143,0.003 z m 2.013,-0.006 1.143,-0.003 0.005,1.718 -1.144,0.003 z m 2.066,-0.006 1.143,-0.004 0.005,1.719 -1.143,0.003 z m -28.18,0.084 1.144,-0.004 0.005,1.719 -1.144,0.003 z"
       fill="#323232"
       id="path14" />
    <circle
       transform="rotate(-0.17)"
       cx="132.007"
       cy="60.747002"
       r="1.067"
       fill="none"
       stroke="#323232"
       stroke-width="0.945"
       stroke-linecap="round"
       id="circle16" />
    <path
       d="M 96.397,45.939 208,45.597 c 0.533,1.224 0.542,4.29 0.016,5.518 L 96.413,51.457 Z"
       fill="#323232"
       id="path18" />
    <path
       d="M 78.43,69.33 78.416,64.603"
       fill="none"
       stroke="#323232"
       stroke-width="2.127"
       id="path20" />
    <path
       d="m 35.892,69.455 -4.234,6.63"
       fill="none"
       stroke="#323232"
       stroke-width="2.363"
       id="path22" />
    <rect
       transform="rotate(-0.17)"
       width="3.171"
       height="1.96"
       x="134.82401"
       y="54.551998"
       ry="0.78399998"
       rx="0.78399998"
       fill="none"
       stroke="#7e7e7e"
       stroke-width="1.654"
       stroke-linecap="round"
       id="rect24" />
    <path
       d="m 41.994,55.087 0.018,6.145 m -5.69,-6.128 0.018,6.144"
       fill="none"
       stroke="#323232"
       stroke-width="2.363"
       id="path26" />
    <rect
       width="39.584"
       height="1.997"
       x="98.642998"
       y="53.763"
       rx="0.91000003"
       ry="1.124"
       transform="matrix(0.9999945,-0.00331612,0.00123919,1.0000014,0,0)"
       fill="#7e7e7e"
       id="rect28" />
    <rect
       transform="rotate(-0.17)"
       width="14.787"
       height="2.526"
       x="70.662003"
       y="48.594002"
       rx="0.47299999"
       ry="0.47299999"
       fill="#323232"
       id="rect30" />
    <path
       d="m 67.55,66.355 0.007,2.363"
       fill="none"
       stroke="#323232"
       stroke-width="1.182"
       stroke-linecap="round"
       id="path32" />
    <path
       d="m -2.033,51.476 0.073,24.546 c 0,0 -0.144,1.559 -0.881,1.561 l -4.407,0.013 c -1.323,0.004 -5.067,1.962 -5.067,1.962 0.812,-9 0.048,-26.2 0.048,-26.2 0,0 0.546,-1.697 1.315,-2.65 0,0 0.899,0.63 3.627,0.783 z"
       fill="#323232"
       id="path34" />
  </g>
</svg>
