<svg width="145" height="145" viewBox="0 0 145 145" fill="none" xmlns="http://www.w3.org/2000/svg">
<mask id="mask0" mask-type="alpha" maskUnits="userSpaceOnUse" x="0" y="0" width="145" height="145">
<rect x="0.941406" y="0.197754" width="144" height="144" fill="#C4C4C4"/>
</mask>
<g mask="url(#mask0)">
<path d="M129.342 79.0352C127.379 78.3808 125.602 79.3157 123.639 80.6245C117.843 84.5511 110.551 83.8967 105.596 79.3157C100.547 74.5477 99.4254 67.2556 103.165 61.0852C104.38 59.122 104.941 57.5327 104.1 55.1019C102.698 51.1754 103.726 47.4358 106.624 44.3506C107.933 42.9483 108.4 41.9199 107.839 39.8632C106.811 36.2171 108.4 32.9449 111.579 31.1686C114.571 29.4858 117.936 29.6728 120.647 32.1035C123.265 34.5342 126.35 35.7496 129.623 36.591C135.98 38.1804 140 43.3223 138.878 49.5861C138.504 51.9233 139.252 52.8582 140.561 54.2605C145.048 58.935 146.17 65.0118 143.552 70.5277C140.748 76.324 136.167 79.2222 129.342 79.0352Z" fill="#D70357"/>
<path d="M15.1893 74.9217C18.181 74.2673 19.0224 73.1454 17.7135 70.9016C16.3112 68.4709 15.0024 66.0402 13.6935 63.516C11.7302 59.6829 11.8237 59.0285 14.5349 54.9149C16.3112 55.0084 17.0591 56.5977 17.994 57.7196C19.9573 60.0568 21.2661 62.768 25.0057 63.0485C27.0625 63.2355 28.4648 65.5727 27.9039 67.723C27.156 70.2472 27.8104 72.2105 28.5583 74.6412C29.5867 77.9133 26.782 79.5962 24.2578 80.9985C24.9122 84.8316 25.9406 88.3842 27.7169 91.6563C28.9323 93.9 30.4281 95.3959 33.2328 94.8349C34.5416 94.5545 36.0375 94.8349 37.4398 94.7414C40.2445 94.6479 41.8338 95.9568 42.0208 98.7615C42.1143 99.6964 41.7403 100.725 43.0492 101.005C46.1343 101.753 46.6953 103.903 46.5083 106.708C46.4148 107.923 47.2562 109.045 46.6953 110.261C45.7604 111.196 44.8255 110.915 43.9841 110.541C41.2729 109.419 39.1226 107.082 35.4765 108.391C33.7002 109.045 31.6435 106.521 32.1109 104.838C32.7653 102.314 31.2695 100.912 30.2411 99.5094C27.6234 96.0503 25.5667 92.2172 22.388 88.9451C20.8922 90.4409 21.5466 92.0302 21.4531 93.4326C21.3596 94.8349 21.4531 96.4242 19.8638 96.9852C18.2745 97.5461 17.1526 96.4242 16.2177 95.3959C12.2911 90.8149 9.29948 85.7664 9.1125 79.5027C9.01901 77.2589 9.76695 74.9217 6.6818 73.7063C5.09248 73.1454 4.71851 70.8081 5.55991 69.5928C7.24272 67.4425 5.7469 66.0402 4.71852 64.7313C0.511491 59.4959 0.511485 53.98 3.22268 48.0902C4.53153 45.0985 5.65341 42.0134 5.65341 38.6478C5.65341 37.9933 5.84038 37.4324 5.93387 36.778C6.68178 34.2538 8.45809 33.1319 10.7953 33.6928C13.0391 34.2538 14.2544 36.3105 13.5065 38.8348C12.7586 41.7329 10.8888 44.1636 9.39299 46.6879C7.33622 50.0535 5.84039 53.6061 6.21435 57.7196C6.40133 59.7764 6.68179 62.0201 8.3646 63.2355C12.4781 66.2272 14.2544 70.2472 15.1893 74.9217Z" fill="#D80B5A"/>
<path d="M56.0454 30.514C53.5212 30.6075 52.3058 29.2987 51.0905 28.2703C44.1722 22.4739 37.5345 22.9414 31.9251 29.9531C30.8033 31.3554 29.4944 32.2903 27.7181 32.6643C26.0353 33.0382 24.5394 32.5708 23.6045 31.1685C22.6697 29.6726 23.0436 27.9898 24.259 26.9614C32.673 19.5758 42.7699 14.8078 51.9318 24.9047C53.2407 26.494 55.1105 27.8029 56.0454 30.514Z" fill="#D8155E"/>
<path d="M89.0481 40.5176C89.1415 40.4241 89.3286 40.4241 89.422 40.3306C90.5439 39.0218 90.6374 36.4041 93.2551 37.152C95.6858 37.8999 95.2184 39.7697 94.564 41.733C94.377 42.2939 95.0314 43.1353 95.1249 43.8832C95.4053 47.2488 92.6007 49.3991 89.422 48.2772C88.1132 47.8098 87.1783 46.8749 85.5889 47.1553C83.3452 47.6228 81.6624 46.5944 80.821 44.3507C80.1666 42.6679 80.821 41.2655 81.9429 40.1436C83.6257 38.4608 85.4955 38.4608 87.3653 39.8632C87.9262 40.2371 88.3936 40.5176 89.0481 40.5176Z" fill="#D8155E"/>
<path d="M67.3566 30.0466C70.5353 30.1401 72.7791 33.3187 71.3767 36.3103C70.6288 37.9932 69.7874 39.489 69.9744 41.4523C70.1614 43.2286 68.759 44.2569 66.9827 44.2569C65.1129 44.2569 63.7106 42.9481 63.991 41.4523C64.365 39.2085 63.3366 37.7127 62.6822 35.9364C61.6538 32.9447 64.178 29.9531 67.3566 30.0466Z" fill="#D80B5A"/>
<path d="M70.255 131.857C62.3084 133.259 56.8859 131.202 55.2031 126.341C60.532 124.564 67.5438 126.995 70.255 131.857Z" fill="#D80B5A"/>
<path d="M106.623 96.5174C108.96 96.5174 110.736 98.2937 110.83 100.631C110.83 102.875 108.493 105.118 106.249 104.931C104.099 104.744 102.322 102.688 102.322 100.537C102.416 98.1067 104.192 96.4239 106.623 96.5174Z" fill="#D8155E"/>
<path d="M82.1299 104.745C82.0364 107.082 80.2601 108.765 77.9229 108.765C75.6791 108.765 73.8093 106.989 73.7158 104.745C73.6223 102.314 75.7726 100.257 78.2033 100.444C80.4471 100.538 82.2234 102.501 82.1299 104.745Z" fill="#D8155E"/>
<path d="M108.771 27.99C108.771 30.2337 106.901 32.1035 104.657 32.1035C102.32 32.197 100.45 30.5142 100.357 28.177C100.263 25.7462 102.32 23.6895 104.657 23.6895C106.807 23.8764 108.771 25.8397 108.771 27.99Z" fill="#D80B5A"/>
<path d="M82.1295 125.687C82.1295 127.37 77.455 130.922 75.7722 130.548C74.9308 130.361 74.4634 129.8 74.1829 128.959C73.809 127.276 78.5769 122.789 80.3532 123.349C81.4751 123.63 82.1295 124.471 82.1295 125.687Z" fill="#D8155E"/>
<path d="M47.0699 118.394C44.9196 118.675 43.0498 119.236 41.18 119.236C39.4972 119.236 38.2818 118.114 38.0948 116.337C38.0014 115.309 37.8144 114.094 39.0297 113.533C40.3386 112.878 42.1149 112.598 42.6759 114.094C43.6107 116.057 45.948 116.431 47.0699 118.394Z" fill="#D80B5A"/>
<path d="M128.593 85.3926C128.125 86.4209 127.471 87.3559 126.162 87.0754C124.853 86.7949 123.918 85.86 124.386 84.4577C124.76 83.4293 125.695 82.6814 126.91 83.0553C128.032 83.4293 128.686 84.1772 128.593 85.3926Z" fill="#D8155E"/>
<path d="M101.575 43.0418C100.36 42.9483 99.4248 42.2939 99.3313 41.172C99.2378 39.8632 100.079 38.8348 101.482 38.9283C102.697 38.9283 103.445 39.7697 103.445 40.985C103.538 42.1069 102.697 42.7613 101.575 43.0418Z" fill="#D8155E"/>
<path d="M73.5291 97.9203C73.4356 99.1356 72.7811 99.9771 71.6593 100.164C70.1634 100.351 69.322 99.3226 69.2285 98.0138C69.2285 96.8919 70.0699 95.957 71.2853 95.957C72.4072 95.957 73.1551 96.7049 73.5291 97.9203Z" fill="#D8155E"/>
<path d="M116.252 25.466C114.944 25.466 114.102 24.9051 113.915 23.5962C113.728 22.2874 114.476 21.446 115.692 21.3525C116.907 21.1655 117.748 21.9134 117.935 23.1288C118.122 24.5311 117.374 25.1856 116.252 25.466Z" fill="#D8155E"/>
<path d="M84.0914 56.2241C85.4003 56.2241 86.1482 56.972 86.2417 58.1874C86.2417 59.4027 85.5873 60.2442 84.2784 60.2442C83.0631 60.2442 82.2217 59.6832 82.1282 58.2809C82.0347 56.972 82.8761 56.4111 84.0914 56.2241Z" fill="#D8155E"/>
</g>
</svg>
