<svg width="129" height="129" viewBox="0 0 129 129" fill="none" xmlns="http://www.w3.org/2000/svg">
<mask id="mask0" mask-type="alpha" maskUnits="userSpaceOnUse" x="0" y="0" width="129" height="129">
<rect x="0.216797" y="0.769775" width="128" height="128" fill="#C4C4C4"/>
</mask>
<g mask="url(#mask0)">
<path d="M27.4135 121.463C27.4701 121.516 27.7945 121.222 28.1865 120.824C28.883 120.118 29.7928 119.084 29.7928 119.084L57.4576 89.0972L63.062 87.8331L66.7476 72.9232L68.4572 71.2136L60.3322 63.0886L58.6226 64.7982L53.178 77.949L48.0287 79.6682L34.3063 93.3906C28.4557 95.7113 16.1255 97.4517 15.1894 98.3878L11.429 102.148L10.8681 102.709C10.4322 103.187 11.0398 103.884 11.0398 103.884C16.0432 108.822 21.5348 113.173 27.4135 121.463Z" fill="white"/>
<path d="M11.429 102.148L10.8681 102.709C10.4322 103.187 11.0398 103.884 11.0398 103.884C16.0432 108.822 21.5348 113.173 27.4135 121.463C27.4701 121.516 27.7945 121.222 28.1865 120.824M11.429 102.148L15.1894 98.3878C16.1255 97.4517 28.4557 95.7113 34.3063 93.3906L48.0287 79.6682L53.178 77.949L58.6226 64.7982L60.3322 63.0886L68.4572 71.2136L66.7476 72.9232L63.062 87.8331L57.4576 89.0972L29.7928 119.084C29.7928 119.084 28.883 120.118 28.1865 120.824M11.429 102.148C16.86 106.834 27.815 117.129 28.1865 120.824" stroke="#323232" stroke-width="2"/>
<path d="M60.7541 69.8167L61.7095 68.8612L63.0147 69.2109L63.3645 70.5162L62.409 71.4717L61.1038 71.1219L60.7541 69.8167Z" fill="#323232"/>
<path d="M68.127 67.1737L103.584 31.7162L108.017 31.7162L108.944 30.8292L108.057 36.1889L90.4365 53.8094L88.5549 55.691L72.5996 71.6463L70.3432 69.3899L68.127 67.1737Z" fill="white"/>
<path d="M70.3432 69.3899L68.127 67.1737L103.584 31.7162L108.017 31.7162M70.3432 69.3899L72.5996 71.6463L88.5549 55.691M70.3432 69.3899L86.2985 53.4347L88.5549 55.691M88.5549 55.691L90.4365 53.8094M90.4365 53.8094L108.057 36.1889L108.944 30.8292L108.017 31.7162M90.4365 53.8094L88.1801 51.5531L108.017 31.7162" stroke="#323232" stroke-width="2"/>
<path d="M60.4512 55.925L69.0206 47.3556L71.7119 50.0469L63.1425 58.6163L60.4512 55.925Z" fill="white" stroke="#323232" stroke-width="2" stroke-linecap="round"/>
<path d="M67.8138 50.6061L68.1874 50.2325L68.6977 50.3692L68.8345 50.8796L68.4609 51.2532L67.9505 51.1165L67.8138 50.6061Z" fill="#323232"/>
<path d="M63.3313 55.092L63.7049 54.7184L64.2153 54.8551L64.352 55.3655L63.9784 55.7391L63.4681 55.6023L63.3313 55.092Z" fill="#323232"/>
<path d="M75.6375 69.6516C76.8625 70.4445 77.4681 71.5053 77.7082 73.2561C78.0136 80.0317 74.1726 81.0574 71.0836 81.0574C69.6727 80.881 67.2027 80.0234 66.7051 78.6102C66.7051 78.6102 66.7051 78.6102 66.9609 77.3985C66.9609 77.3985 69.5727 80.0442 71.0836 80.0442C74.9658 80.181 76.8607 77.5409 76.8607 73.4636C76.8607 71.8026 75.1068 70.1614 75.1068 70.1614L75.6375 69.6516ZM68.8248 74.9856C68.8248 74.9856 70.3248 77.5143 71.963 77.1904C71.0836 76.4095 70.1534 75.4761 69.7783 74.0282L68.8248 74.9856Z" fill="white" stroke="#323232" stroke-width="2"/>
<path d="M63.0647 62.0887L65.971 64.9949L92.7694 38.1965L88.9206 34.3477L74.0843 49.1839L75.0269 50.1265L63.0647 62.0887Z" fill="white"/>
<path d="M96.5204 34.4455L92.6716 30.5967L112.642 10.6263L118.669 16.6535L106.593 28.7293L102.237 28.7293L96.5204 34.4455Z" fill="white"/>
<path d="M111.185 10.9438L108.932 13.1975L108.002 10.9765L106.587 9.56179L107.335 8.81426L111.185 10.9438Z" fill="white"/>
<path d="M63.0647 62.0887L65.971 64.9949L92.7694 38.1965L88.9206 34.3477L74.0843 49.1839L75.0269 50.1265L63.0647 62.0887Z" stroke="#323232" stroke-width="2"/>
<path d="M96.5204 34.4455L92.6716 30.5967L112.642 10.6263L118.669 16.6535L106.593 28.7293L102.237 28.7293L96.5204 34.4455Z" stroke="#323232" stroke-width="2"/>
<path d="M111.185 10.9438L108.932 13.1975L108.002 10.9765L106.587 9.56179L107.335 8.81426L111.185 10.9438Z" stroke="#323232" stroke-width="2"/>
<mask id="path-12-inside-1" fill="white">
<path d="M90.7829 33.3869L82.8462 25.4502C82.7396 25.916 82.1394 26.1175 81.7746 25.7526C81.6551 25.6331 81.5879 25.471 81.5879 25.3019L81.5879 24.1919L75.661 18.265L73.5138 18.1776L73.5141 17.1849L75.661 16.2964L81.6534 22.2888C81.8343 21.9244 82.3494 21.7973 82.676 22.1239C82.7955 22.2434 82.8626 22.4055 82.8626 22.5745L82.8626 23.498L91.7672 32.4026L90.7829 33.3869Z"/>
</mask>
<path d="M90.7829 33.3869L82.8462 25.4502C82.7396 25.916 82.1394 26.1175 81.7746 25.7526C81.6551 25.6331 81.5879 25.471 81.5879 25.3019L81.5879 24.1919L75.661 18.265L73.5138 18.1776L73.5141 17.1849L75.661 16.2964L81.6534 22.2888C81.8343 21.9244 82.3494 21.7973 82.676 22.1239C82.7955 22.2434 82.8626 22.4055 82.8626 22.5745L82.8626 23.498L91.7672 32.4026L90.7829 33.3869Z" fill="white"/>
<path d="M82.8462 25.4502L82.1391 26.1573L83.4176 27.4358L83.821 25.6732L82.8462 25.4502ZM81.5879 24.1919L80.5879 24.1919L80.5879 24.6061L80.8808 24.899L81.5879 24.1919ZM81.6534 22.2888L82.3605 21.5817L81.3767 20.5978L80.7578 21.844L81.6534 22.2888ZM82.8626 23.498L83.8626 23.498L83.8626 23.0838L83.5698 22.7909L82.8626 23.498ZM81.5879 22.5746L82.5879 22.5746L82.5879 22.5745L81.5879 22.5746ZM82.8626 25.3019L81.8626 25.3019L81.8626 25.3019L82.8626 25.3019ZM83.5533 24.743L82.295 23.4848L80.8808 24.899L82.1391 26.1573L83.5533 24.743ZM76.661 18.265L76.661 16.2964L74.661 16.2964L74.661 18.265L76.661 18.265ZM80.9463 22.9959L82.1555 24.2051L83.5698 22.7909L82.3605 21.5817L80.9463 22.9959ZM82.5879 24.1919L82.5879 22.5746L80.5879 22.5746L80.5879 24.1919L82.5879 24.1919ZM81.8626 23.498L81.8626 25.3019L83.8626 25.3019L83.8626 23.498L81.8626 23.498ZM81.8626 25.3019C81.8626 25.2798 81.8651 25.2544 81.8714 25.2271L83.821 25.6732C83.8487 25.5522 83.8627 25.4278 83.8626 25.3019L81.8626 25.3019ZM82.5879 22.5745C82.5879 22.6221 82.5765 22.6783 82.549 22.7336L80.7578 21.844C80.6472 22.0665 80.5879 22.3149 80.5879 22.5746L82.5879 22.5745ZM90.7829 33.3869L89.3687 34.8011L90.7829 36.2153L92.1971 34.8011L90.7829 33.3869ZM82.8462 25.4502L84.2604 24.0359L81.7033 21.4789L80.8966 25.004L82.8462 25.4502ZM81.5879 24.1919L83.5879 24.1919L83.5879 23.3635L83.0021 22.7777L81.5879 24.1919ZM75.661 18.265L77.0752 16.8508L76.5229 16.2984L75.7424 16.2666L75.661 18.265ZM75.661 16.2964L77.0752 14.8822L76.1306 13.9376L74.8963 14.4484L75.661 16.2964ZM81.6534 22.2888L80.2392 23.703L82.2068 25.6706L83.4446 23.1784L81.6534 22.2888ZM82.8626 23.498L80.8626 23.498L80.8626 24.3265L81.4484 24.9122L82.8626 23.498ZM91.7672 32.4026L93.1814 33.8168L94.5956 32.4026L93.1814 30.9884L91.7672 32.4026ZM81.5879 25.3019L79.5879 25.3019L79.5879 25.3019L81.5879 25.3019ZM82.8626 22.5745L84.8626 22.5746L84.8626 22.5745L82.8626 22.5745ZM73.5141 17.1849L72.7493 15.3368L71.5144 15.8479L71.5141 17.1843L73.5141 17.1849ZM73.5138 18.1776L71.5138 18.177L71.5133 20.0978L73.4324 20.1759L73.5138 18.1776ZM92.1971 31.9727L84.2604 24.0359L81.432 26.8644L89.3687 34.8011L92.1971 31.9727ZM83.0021 22.7777L77.0752 16.8508L74.2468 19.6792L80.1737 25.6061L83.0021 22.7777ZM74.2468 17.7106L80.2392 23.703L83.0676 20.8746L77.0752 14.8822L74.2468 17.7106ZM81.4484 24.9122L90.353 33.8168L93.1814 30.9884L84.2769 22.0838L81.4484 24.9122ZM90.353 30.9884L89.3687 31.9727L92.1971 34.8011L93.1814 33.8168L90.353 30.9884ZM83.5879 25.3019L83.5879 24.1919L79.5879 24.1919L79.5879 25.3019L83.5879 25.3019ZM80.8626 22.5745L80.8626 23.498L84.8626 23.498L84.8626 22.5746L80.8626 22.5745ZM74.8963 14.4484L72.7493 15.3368L74.2788 19.0329L76.4258 18.1444L74.8963 14.4484ZM71.5141 17.1843L71.5138 18.177L75.5138 18.1781L75.5141 17.1854L71.5141 17.1843ZM73.4324 20.1759L75.5797 20.2633L75.7424 16.2666L73.5952 16.1792L73.4324 20.1759ZM80.8966 25.004C81.1253 24.0046 82.393 23.5425 83.1888 24.3384L80.3604 27.1668C81.8859 28.6924 84.3539 27.8274 84.7958 25.8963L80.8966 25.004ZM81.2618 23.5381C81.0062 23.2825 80.8627 22.9359 80.8627 22.5746L84.8626 22.5745C84.8626 21.8751 84.5848 21.2043 84.0902 20.7097L81.2618 23.5381ZM83.4446 23.1784C83.0696 23.9335 81.9836 24.2599 81.2618 23.5381L84.0902 20.7097C82.7152 19.3347 80.5991 19.9154 79.8622 21.3991L83.4446 23.1784ZM79.5879 25.3019C79.5879 26.0014 79.8658 26.6722 80.3604 27.1668L83.1888 24.3384C83.4444 24.5939 83.5879 24.9405 83.5879 25.3019L79.5879 25.3019Z" fill="#323232" mask="url(#path-12-inside-1)"/>
<path d="M94.5438 36.2385L90.6232 32.3179L90.7532 32.188L94.6737 36.1086L94.5438 36.2385Z" fill="white" stroke="#323232" stroke-width="2"/>
</g>
</svg>
