<?xml version="1.0" encoding="UTF-8" standalone="no"?>
<svg
   width="126.39217"
   height="118.43032"
   version="1.1"
   id="svg70"
   sodipodi:docname="03d2fefd6b18a887e8768bf4fc5b201a.svg"
   xmlns:inkscape="http://www.inkscape.org/namespaces/inkscape"
   xmlns:sodipodi="http://sodipodi.sourceforge.net/DTD/sodipodi-0.dtd"
   xmlns="http://www.w3.org/2000/svg"
   xmlns:svg="http://www.w3.org/2000/svg">
  <defs
     id="defs74" />
  <sodipodi:namedview
     id="namedview72"
     pagecolor="#ffffff"
     bordercolor="#666666"
     borderopacity="1.0"
     inkscape:pageshadow="2"
     inkscape:pageopacity="0.0"
     inkscape:pagecheckerboard="0" />
  <g
     transform="rotate(-30,49.618536,81.957343)"
     id="g34">
    <path
       d="m 63.31,35.815 h 18.396 v 4.727 H 63.31 Z"
       fill="#323232"
       id="path2" />
    <path
       d="m 26.79,46.07 c 0,0 0.481,-4.876 3.255,-8.996 0.169,-0.251 0.346,-0.5 0.533,-0.743 H 63.31 v 4.406 c 0,0.541 0.541,0.541 0.541,0.541 h 17.313 c 0,0 0.542,0 0.542,-0.54 V 36.33 h 47.34 v 7.304 h -12.714 c 0,0 -4.599,0.54 -7.575,2.435 z"
       fill="#ffffff"
       stroke="#323232"
       stroke-width="2.88"
       id="path4" />
    <path
       d="m 37.143,30.733 v 2.16 c 0,0 0.927,0.927 1.544,0.927 v 0.617 H 34.365 V 33.82 c 0.617,0 1.543,-0.926 1.543,-0.926 v -2.161 z"
       fill="#323232"
       id="path6" />
    <path
       d="m 26.52,49.586 c 0,5.952 -8.657,4.329 -10.821,6.493 0,0 -0.929,1.092 0,1.082 7.92,-0.495 12.02,4.488 11.903,9.738 -2.606,11.11 -12.43,34.086 -12.43,34.086 -0.404,1.394 1.068,2.164 1.068,2.164 l 24.898,3.787 8.105,-28.134 c 2.164,-4.328 7.082,-4.328 10.821,-4.328 h 12.985 c 9.739,0 10.82,-10.82 10.82,-15.149 0,-3.246 2.682,-4.869 4.329,-4.87 l 17.854,-0.016 V 49.586 Z M 72.237,56.08 C 76.025,56.079 79,60.768 79,63.653 c 0,2.885 -3.041,6.57 -6.762,6.57 L 63.31,70.221 c -3.722,0 -6.22,-3.683 -6.222,-6.568 0.003,-2.884 2.706,-7.574 6.222,-7.574 z"
       fill="#ffffff"
       stroke="#323232"
       stroke-width="2.861"
       id="path8" />
    <path
       d="m 65.092,57.161 c -4.232,5.41 -2.39,9.738 -0.61,11.903 -5.767,0 -6.89,-3.013 -7.035,-6.003 0,-2.654 1.624,-5.9 3.788,-5.9 z"
       fill="#323232"
       stroke="#323232"
       stroke-width="0.781"
       id="path10" />
    <path
       d="M 51.137,55.267 C 44.663,51.783 37.882,53.915 37.882,53.915 l -16.773,45.05 16.231,2.56 9.74,-32.461 c -1.353,-2.706 -0.542,-5.41 1.893,-6.493 z"
       fill="none"
       stroke="#323232"
       stroke-width="3.402"
       id="path12" />
    <path
       d="m 109.298,49.586 c 2.706,-1.893 8.116,-2.434 8.116,-2.434 l 11.903,-0.27 v 6.221 h -20.019 z"
       fill="#ffffff"
       stroke="#323232"
       stroke-width="2.195"
       stroke-linecap="round"
       id="path14" />
    <path
       d="m 131.342,36.983 v 8.115 h 1.606 c 0.402,-2.434 0.402,-5.68 0,-8.115 z"
       fill="#323232"
       id="path16" />
    <circle
       r="2.223"
       cy="58.573002"
       cx="43.103001"
       fill="#323232"
       id="circle18" />
    <rect
       transform="matrix(0.96162,0.27438,-0.2602,0.96555,0,0)"
       ry="1.745"
       rx="1.409"
       y="48.761002"
       x="64.749001"
       height="2.8970001"
       width="6.2329998"
       fill="#323232"
       id="rect20" />
    <circle
       cx="70.527"
       cy="52.842999"
       r="1.275"
       fill="#323232"
       id="circle22" />
    <path
       d="m 18.675,36.872 c -0.904,0.495 -1.082,1.353 -0.317,1.567 1.98,0.477 6.42,2.976 6.81,4.925 0.54,-1.893 1.352,-4.598 2.704,-6.763 -1.455,-0.235 -3.187,1.068 -4.328,1.082 -1.892,-0.017 -3.09,-1.746 -4.87,-0.811 z m 106.584,-4.869 -2.163,2.2 5.95,-0.036 c -0.811,-2.705 -3.787,-2.164 -3.787,-2.164 z M 34.635,36.601 H 53.571 V 46.34 H 34.635 Z"
       fill="#323232"
       id="path24" />
    <path
       d="m 36.8,37.683 v 10.01 m 2.434,-10.01 v 10.01 m 2.435,-10.01 v 10.01 m 2.434,-10.01 v 10.01 m 2.435,-10.01 v 10.01 m 2.435,-10.01 v 10.01 m 2.434,-10.01 v 10.01"
       fill="none"
       stroke="#ffffff"
       stroke-width="0.338"
       id="path26" />
    <circle
       cx="30.445999"
       cy="95.195999"
       r="2.223"
       fill="#323232"
       id="circle28" />
    <circle
       cx="53.777"
       cy="67.599998"
       r="2.223"
       fill="#323232"
       id="circle30" />
    <path
       d="m 130.94,35.868 v 16 h 1.373 v -16 z m -94.979,69.446 9.507,1.745 -0.514,2.04 -9.36,-1.69 z"
       fill="#323232"
       id="path32" />
  </g>
  <g
     transform="matrix(-0.8660254,-0.5,-0.5,0.8660254,160.72322,35.789437)"
     id="g68">
    <path
       d="m 63.31,35.815 h 18.396 v 4.727 H 63.31 Z"
       fill="#323232"
       id="path36" />
    <path
       d="m 26.79,46.07 c 0,0 0.481,-4.876 3.255,-8.996 0.169,-0.251 0.346,-0.5 0.533,-0.743 H 63.31 v 4.406 c 0,0.541 0.541,0.541 0.541,0.541 h 17.313 c 0,0 0.542,0 0.542,-0.54 V 36.33 h 47.34 v 7.304 h -12.714 c 0,0 -4.599,0.54 -7.575,2.435 z"
       fill="#ffffff"
       stroke="#323232"
       stroke-width="2.88"
       id="path38" />
    <path
       d="m 37.143,30.733 v 2.16 c 0,0 0.927,0.927 1.544,0.927 v 0.617 H 34.365 V 33.82 c 0.617,0 1.543,-0.926 1.543,-0.926 v -2.161 z"
       fill="#323232"
       id="path40" />
    <path
       d="m 26.52,49.586 c 0,5.952 -8.657,4.329 -10.821,6.493 0,0 -0.929,1.092 0,1.082 7.92,-0.495 12.02,4.488 11.903,9.738 -2.606,11.11 -12.43,34.086 -12.43,34.086 -0.404,1.394 1.068,2.164 1.068,2.164 l 24.898,3.787 8.105,-28.134 c 2.164,-4.328 7.082,-4.328 10.821,-4.328 h 12.985 c 9.739,0 10.82,-10.82 10.82,-15.149 0,-3.246 2.682,-4.869 4.329,-4.87 l 17.854,-0.016 V 49.586 Z M 72.237,56.08 C 76.025,56.079 79,60.768 79,63.653 c 0,2.885 -3.041,6.57 -6.762,6.57 L 63.31,70.221 c -3.722,0 -6.22,-3.683 -6.222,-6.568 0.003,-2.884 2.706,-7.574 6.222,-7.574 z"
       fill="#ffffff"
       stroke="#323232"
       stroke-width="2.861"
       id="path42" />
    <path
       d="m 65.092,57.161 c -4.232,5.41 -2.39,9.738 -0.61,11.903 -5.767,0 -6.89,-3.013 -7.035,-6.003 0,-2.654 1.624,-5.9 3.788,-5.9 z"
       fill="#323232"
       stroke="#323232"
       stroke-width="0.781"
       id="path44" />
    <path
       d="M 51.137,55.267 C 44.663,51.783 37.882,53.915 37.882,53.915 l -16.773,45.05 16.231,2.56 9.74,-32.461 c -1.353,-2.706 -0.542,-5.41 1.893,-6.493 z"
       fill="none"
       stroke="#323232"
       stroke-width="3.402"
       id="path46" />
    <path
       d="m 109.298,49.586 c 2.706,-1.893 8.116,-2.434 8.116,-2.434 l 11.903,-0.27 v 6.221 h -20.019 z"
       fill="#ffffff"
       stroke="#323232"
       stroke-width="2.195"
       stroke-linecap="round"
       id="path48" />
    <path
       d="m 131.342,36.983 v 8.115 h 1.606 c 0.402,-2.434 0.402,-5.68 0,-8.115 z"
       fill="#323232"
       id="path50" />
    <circle
       cx="43.103001"
       cy="58.573002"
       r="2.223"
       fill="#323232"
       id="circle52" />
    <rect
       width="6.2329998"
       height="2.8970001"
       x="64.749001"
       y="48.761002"
       rx="1.409"
       ry="1.745"
       transform="matrix(0.96162,0.27438,-0.2602,0.96555,0,0)"
       fill="#323232"
       id="rect54" />
    <circle
       r="1.275"
       cy="52.842999"
       cx="70.527"
       fill="#323232"
       id="circle56" />
    <path
       d="m 18.675,36.872 c -0.904,0.495 -1.082,1.353 -0.317,1.567 1.98,0.477 6.42,2.976 6.81,4.925 0.54,-1.893 1.352,-4.598 2.704,-6.763 -1.455,-0.235 -3.187,1.068 -4.328,1.082 -1.892,-0.017 -3.09,-1.746 -4.87,-0.811 z m 106.584,-4.869 -2.163,2.2 5.95,-0.036 c -0.811,-2.705 -3.787,-2.164 -3.787,-2.164 z M 34.635,36.601 H 53.571 V 46.34 H 34.635 Z"
       fill="#323232"
       id="path58" />
    <path
       d="m 36.8,37.683 v 10.01 m 2.434,-10.01 v 10.01 m 2.435,-10.01 v 10.01 m 2.434,-10.01 v 10.01 m 2.435,-10.01 v 10.01 m 2.435,-10.01 v 10.01 m 2.434,-10.01 v 10.01"
       fill="none"
       stroke="#ffffff"
       stroke-width="0.338"
       id="path60" />
    <circle
       r="2.223"
       cy="95.195999"
       cx="30.445999"
       fill="#323232"
       id="circle62" />
    <circle
       r="2.223"
       cy="67.599998"
       cx="53.777"
       fill="#323232"
       id="circle64" />
    <path
       d="m 130.94,35.868 v 16 h 1.373 v -16 z m -94.979,69.446 9.507,1.745 -0.514,2.04 -9.36,-1.69 z"
       fill="#323232"
       id="path66" />
  </g>
</svg>
