<svg width="129" height="129" viewBox="0 0 129 129" fill="none" xmlns="http://www.w3.org/2000/svg">
<mask id="mask0" mask-type="alpha" maskUnits="userSpaceOnUse" x="0" y="0" width="129" height="129">
<rect x="0.216797" y="0.529724" width="128" height="128" fill="#C4C4C4"/>
</mask>
<g mask="url(#mask0)">
<path d="M23.9941 93.7793L27.9884 89.785L30.0399 89.785L37.1367 96.8818L32.1166 101.902L23.9941 93.7793Z" fill="#7E7E7E"/>
<rect x="21.2031" y="96.5743" width="3.18516" height="11.4869" transform="rotate(-45 21.2031 96.5743)" fill="#7E7E7E"/>
<path d="M44.9493 64.8876L46.5544 64.4575L47.7294 65.6325L47.2993 67.2376L45.6942 67.6677L44.5191 66.4927L44.9493 64.8876Z" fill="#323232"/>
<path d="M25.1484 123.07C18.004 119.029 12.5435 108.56 10.7064 103.831L13.8195 100.718L27.5981 86.9397L30.66 86.9397L40.3561 96.6357L36.8859 100.106L36.8859 111.333L28.3126 119.906L25.1484 123.07Z" fill="white"/>
<path d="M28.3126 119.906L25.1484 123.07C18.004 119.029 12.5435 108.56 10.7064 103.831L13.8195 100.718M28.3126 119.906L13.8195 100.718M28.3126 119.906L36.8859 111.333V100.106L40.3561 96.6357L30.66 86.9397L27.5981 86.9397L13.8195 100.718" stroke="#323232" stroke-width="2"/>
<path d="M57.2716 79.4717L64.1835 72.5598L73.6439 82.0199L73.6439 83.3681L68.0802 88.9318L66.732 88.9318L57.2716 79.4717Z" fill="white" stroke="#323232" stroke-width="2"/>
<rect x="60.7785" y="59.2522" width="1.99869" height="19.3654" transform="rotate(-45 60.7785 59.2522)" fill="white" stroke="#323232" stroke-width="1.99869"/>
<rect x="88.6073" y="36.2946" width="1.56602" height="12.4802" transform="rotate(-45 88.6073 36.2946)" fill="white" stroke="#323232" stroke-width="1.56602"/>
<path d="M107.736 16.6838L112.651 11.7697L121.954 21.0729L117.04 25.987L107.736 16.6838Z" fill="white" stroke="#323232" stroke-width="2"/>
<path d="M33.6602 72.2204L30.0177 68.5779L35.8459 62.7497L39.4884 66.3922L39.4884 68.833L36.1011 72.2204H33.6602Z" fill="white" stroke="#323232" stroke-width="2"/>
<path d="M36.6554 75.0934L37.0559 75.0841L37.3391 74.8008L41.9777 70.1623L42.2609 69.879L42.2703 69.4785L42.3669 65.3465L46.015 61.6983L50.6283 66.3116L33.4884 83.4515L28.8752 78.8382L32.5233 75.19L36.6554 75.0934Z" fill="white" stroke="#323232" stroke-width="2"/>
<rect x="34.4697" y="85.2679" width="17.1459" height="0.824416" transform="rotate(-45 34.4697 85.2679)" fill="white" stroke="#323232" stroke-width="0.824416"/>
<rect x="47.79" y="71.9476" width="4.01092" height="0.824416" transform="rotate(-45 47.79 71.9476)" fill="white" stroke="#323232" stroke-width="0.824416"/>
<rect x="51.6337" y="68.1041" width="1.14094" height="0.824416" transform="rotate(-45 51.6337 68.1041)" fill="white" stroke="#323232" stroke-width="0.824416"/>
<rect x="47.1343" y="59.8585" width="0.982676" height="12.0769" transform="rotate(-45 47.1343 59.8585)" fill="white" stroke="#323232" stroke-width="0.982676"/>
<path d="M54.0491 58.393L50.4788 61.9632L57.0798 68.5642L55.7011 69.9429L54.937 69.1788L35.7235 88.3923L32.0313 84.7002L29.7463 86.9852L31.9634 86.9852L42.1079 97.1297L44.5106 94.7269L43.0902 93.3065L43.0902 91.7131L46.42 88.3833L48.0133 88.3833L49.66 90.03L56.7682 82.9218L55.3203 81.4739L66.2251 70.569L75.2249 79.5688L76.9623 77.8314V75.9764L58.4786 57.4927L55.8137 60.1576L54.0491 58.393Z" fill="white" stroke="#323232" stroke-width="2"/>
<path d="M88.7268 38.0213L96.0671 45.3617L74.6804 66.7484L67.3404 59.4079L88.7268 38.0213Z" fill="white" stroke="#323232" stroke-width="2"/>
<path d="M72.7944 60.8508L90.1444 43.5008C90.253 43.3922 90.3755 43.341 90.472 43.3305C90.5672 43.3202 90.6157 43.3486 90.6374 43.3703C90.6591 43.3921 90.6875 43.4405 90.6772 43.5358C90.6667 43.6322 90.6156 43.7547 90.5069 43.8633L73.157 61.2133C73.0483 61.3219 72.9258 61.3731 72.8294 61.3835C72.7342 61.3939 72.6857 61.3655 72.664 61.3438C72.6422 61.322 72.6138 61.2735 72.6242 61.1783C72.6346 61.0819 72.6858 60.9594 72.7944 60.8508ZM71.1653 59.2217L88.5153 41.8717C88.6239 41.7631 88.7464 41.7119 88.8429 41.7014C88.9381 41.6911 88.9865 41.7195 89.0083 41.7412C89.03 41.763 89.0584 41.8114 89.0481 41.9066C89.0376 42.0031 88.9864 42.1256 88.8778 42.2342L71.5278 59.5842C71.4192 59.6928 71.2967 59.744 71.2003 59.7544C71.1051 59.7648 71.0566 59.7364 71.0349 59.7146C71.0131 59.6929 70.9847 59.6444 70.9951 59.5492C71.0055 59.4528 71.0567 59.3303 71.1653 59.2217ZM74.4236 62.4799L91.7736 45.13C91.8822 45.0213 92.0047 44.9702 92.1011 44.9597C92.1964 44.9493 92.2448 44.9778 92.2666 44.9995C92.2883 45.0212 92.3167 45.0697 92.3064 45.1649C92.2959 45.2614 92.2447 45.3839 92.1361 45.4925L74.7861 62.8425C74.6775 62.9511 74.555 63.0022 74.4586 63.0127C74.3634 63.0231 74.3149 62.9947 74.2931 62.9729C74.2714 62.9512 74.243 62.9027 74.2533 62.8075C74.2638 62.7111 74.315 62.5886 74.4236 62.4799Z" fill="white" stroke="#323232" stroke-linecap="round"/>
<path d="M107.887 18.8598L115.227 26.2002L98.78 42.6472L91.4399 35.3067L107.887 18.8598Z" fill="white" stroke="#323232" stroke-width="2"/>
<mask id="path-21-inside-1" fill="white">
<path d="M108.933 24.0495L96.6165 36.3657C96.3557 36.6266 96.3739 37.0676 96.6571 37.3509C96.9404 37.6341 97.3814 37.6523 97.6423 37.3915L109.958 25.0752C110.219 24.8144 110.201 24.3733 109.918 24.0901C109.635 23.8069 109.194 23.7887 108.933 24.0495Z"/>
<path d="M107.371 22.4873L95.0543 34.8035C94.7935 35.0643 94.8116 35.5054 95.0949 35.7886C95.3781 36.0719 95.8192 36.09 96.08 35.8292L108.396 23.513C108.657 23.2522 108.639 22.8111 108.356 22.5279C108.072 22.2446 107.631 22.2264 107.371 22.4873Z"/>
<path d="M110.495 25.6118L98.1788 37.928C97.918 38.1889 97.9362 38.6299 98.2194 38.9132C98.5027 39.1964 98.9438 39.2146 99.2046 38.9538L111.521 26.6375C111.782 26.3767 111.763 25.9357 111.48 25.6524C111.197 25.3692 110.756 25.351 110.495 25.6118Z"/>
</mask>
<path d="M108.933 24.0495L96.6165 36.3657C96.3557 36.6266 96.3739 37.0676 96.6571 37.3509C96.9404 37.6341 97.3814 37.6523 97.6423 37.3915L109.958 25.0752C110.219 24.8144 110.201 24.3733 109.918 24.0901C109.635 23.8069 109.194 23.7887 108.933 24.0495Z" fill="white"/>
<path d="M107.371 22.4873L95.0543 34.8035C94.7935 35.0643 94.8116 35.5054 95.0949 35.7886C95.3781 36.0719 95.8192 36.09 96.08 35.8292L108.396 23.513C108.657 23.2522 108.639 22.8111 108.356 22.5279C108.072 22.2446 107.631 22.2264 107.371 22.4873Z" fill="white"/>
<path d="M110.495 25.6118L98.1788 37.928C97.918 38.1889 97.9362 38.6299 98.2194 38.9132C98.5027 39.1964 98.9438 39.2146 99.2046 38.9538L111.521 26.6375C111.782 26.3767 111.763 25.9357 111.48 25.6524C111.197 25.3692 110.756 25.351 110.495 25.6118Z" fill="white"/>
<path d="M96.6165 36.3657L95.2023 34.9515L96.6165 36.3657ZM108.933 24.0495L110.347 25.4637L108.933 24.0495ZM109.918 24.0901L108.504 25.5043L109.918 24.0901ZM109.958 25.0752L111.373 26.4894L109.958 25.0752ZM97.6423 37.3915L96.2281 35.9772L97.6423 37.3915ZM96.6571 37.3509L95.2429 38.7651L96.6571 37.3509ZM95.0543 34.8035L96.4685 36.2177L95.0543 34.8035ZM108.356 22.5279L106.941 23.9421L108.356 22.5279ZM108.396 23.513L109.81 24.9272L108.396 23.513ZM96.08 35.8292L94.6658 34.415L96.08 35.8292ZM95.0949 35.7886L93.6807 37.2028L95.0949 35.7886ZM98.1788 37.928L96.7646 36.5138L98.1788 37.928ZM110.495 25.6118L111.909 27.026L110.495 25.6118ZM111.48 25.6524L110.066 27.0666L111.48 25.6524ZM111.521 26.6375L112.935 28.0518L111.521 26.6375ZM99.2046 38.9538L97.7904 37.5396L99.2046 38.9538ZM98.2194 38.9132L96.8052 40.3274L98.2194 38.9132ZM98.0308 37.7799L110.347 25.4637L107.519 22.6353L95.2023 34.9515L98.0308 37.7799ZM110.347 25.4637C109.719 26.0915 108.889 25.89 108.504 25.5043L111.332 22.6759C110.38 21.7237 108.668 21.4859 107.519 22.6353L110.347 25.4637ZM108.504 25.5043C108.118 25.1186 107.917 24.2888 108.544 23.661L111.373 26.4894C112.522 25.34 112.284 23.6281 111.332 22.6759L108.504 25.5043ZM108.544 23.661L96.2281 35.9772L99.0565 38.8057L111.373 26.4894L108.544 23.661ZM96.2281 35.9772C96.8558 35.3495 97.6856 35.5509 98.0713 35.9366L95.2429 38.7651C96.1952 39.7173 97.9071 39.9551 99.0565 38.8057L96.2281 35.9772ZM98.0713 35.9366C98.4571 36.3224 98.6585 37.1522 98.0308 37.7799L95.2023 34.9515C94.0529 36.1009 94.2907 37.8128 95.2429 38.7651L98.0713 35.9366ZM96.4685 36.2177L108.785 23.9015L105.956 21.073L93.6401 33.3893L96.4685 36.2177ZM108.785 23.9015C108.157 24.5292 107.327 24.3278 106.941 23.9421L109.77 21.1136C108.818 20.1614 107.106 19.9236 105.956 21.073L108.785 23.9015ZM106.941 23.9421C106.556 23.5563 106.354 22.7265 106.982 22.0988L109.81 24.9272C110.96 23.7778 110.722 22.0659 109.77 21.1136L106.941 23.9421ZM106.982 22.0988L94.6658 34.415L97.4942 37.2434L109.81 24.9272L106.982 22.0988ZM94.6658 34.415C95.2936 33.7872 96.1234 33.9887 96.5091 34.3744L93.6807 37.2028C94.6329 38.1551 96.3448 38.3929 97.4942 37.2434L94.6658 34.415ZM96.5091 34.3744C96.8948 34.7601 97.0963 35.5899 96.4685 36.2177L93.6401 33.3893C92.4907 34.5387 92.7285 36.2506 93.6807 37.2028L96.5091 34.3744ZM99.5931 39.3423L111.909 27.026L109.081 24.1976L96.7646 36.5138L99.5931 39.3423ZM111.909 27.026C111.282 27.6538 110.452 27.4524 110.066 27.0666L112.894 24.2382C111.942 23.286 110.23 23.0482 109.081 24.1976L111.909 27.026ZM110.066 27.0666C109.68 26.6809 109.479 25.8511 110.107 25.2233L112.935 28.0518C114.084 26.9023 113.847 25.1904 112.894 24.2382L110.066 27.0666ZM110.107 25.2233L97.7904 37.5396L100.619 40.368L112.935 28.0518L110.107 25.2233ZM97.7904 37.5396C98.4181 36.9118 99.2479 37.1132 99.6337 37.499L96.8052 40.3274C97.7575 41.2796 99.4694 41.5174 100.619 40.368L97.7904 37.5396ZM99.6337 37.499C100.019 37.8847 100.221 38.7145 99.5931 39.3423L96.7646 36.5138C95.6152 37.6632 95.853 39.3752 96.8052 40.3274L99.6337 37.499Z" fill="#323232" mask="url(#path-21-inside-1)"/>
<path d="M50.3079 93.3032L58.1156 85.4955L62.9786 90.3584L55.1708 98.1662L54.4637 98.8733L55.1708 99.5804L55.533 99.9425L54.7459 100.73L54.3838 100.367L53.6767 99.6603L52.9696 100.367L50.2233 103.114L44.7865 103.114L42.642 100.969L48.1066 95.5045L48.8137 94.7974L48.1066 94.0903L30.0557 76.0394L30.0557 75.5531L30.3565 75.2523L30.8428 75.2523L48.8937 93.3032L49.6008 94.0103L50.3079 93.3032Z" fill="white" stroke="#323232" stroke-width="2"/>
</g>
</svg>
