<svg width="24" height="46" viewBox="0 0 24 46" fill="none" xmlns="http://www.w3.org/2000/svg">
<path d="M12.1429 4.47776C15.7692 4.47776 19.8209 9.55726 19.8209 15.8231C19.8209 22.089 16.3833 27.1685 12.1429 27.1685C7.90241 27.1685 4.46484 22.089 4.46484 15.8231C4.46484 9.55726 8.67369 4.47776 12.1429 4.47776Z" fill="#D3CDD7"/>
<rect x="4.46484" y="38.7246" width="15.9891" height="15.356" transform="rotate(-90 4.46484 38.7246)" fill="#838F8D"/>
<rect x="4.46484" y="22.7354" width="3.3197" height="15.356" transform="rotate(-90 4.46484 22.7354)" fill="#3A5B50"/>
<rect x="4.46484" y="19.4156" width="3.59327" height="15.356" transform="rotate(-90 4.46484 19.4156)" fill="#607A61"/>
<rect x="4.46484" y="41.1091" width="0.852069" height="15.356" transform="rotate(-90 4.46484 41.1091)" fill="#838F8D"/>
<rect x="5.13867" y="40.257" width="1.53273" height="14.0076" transform="rotate(-90 5.13867 40.257)" fill="#3F4843"/>
<mask id="path-7-outside-1" maskUnits="userSpaceOnUse" x="0.464842" y="0.10913" width="24" height="45" fill="black">
<rect fill="white" x="0.464842" y="0.10913" width="24" height="45"/>
<path fill-rule="evenodd" clip-rule="evenodd" d="M4.46484 22.7355L4.46484 38.7246L5.13911 38.7246L5.13911 40.2571L4.46485 40.2571L4.46485 41.1091L19.8209 41.1091L19.8209 40.2571L19.1467 40.2571L19.1467 38.7246L19.8209 38.7246L19.8209 22.7355L18.2317 22.7355L18.2318 22.7354L19.8209 22.7354L19.8209 19.4157L19.4279 19.4157L19.428 19.4156L19.8209 19.4156L19.8209 18.0502L19.6758 18.0291C19.771 17.3156 19.8209 16.5779 19.8209 15.8231C19.8209 9.55724 15.7692 4.47775 12.1429 4.47775C8.67369 4.47775 4.46484 9.55725 4.46484 15.8231L4.46484 15.8241L4.46484 19.4156L4.85773 19.4156L4.85775 19.4157L4.46484 19.4157L4.46484 22.7354L6.05394 22.7354L6.05399 22.7355L4.46484 22.7355Z"/>
</mask>
<path d="M4.46484 38.7246L0.464844 38.7246L0.464844 42.7246L4.46484 42.7246L4.46484 38.7246ZM4.46484 22.7355L4.46484 18.7355L0.464843 18.7355L0.464843 22.7355L4.46484 22.7355ZM5.13911 38.7246L9.13911 38.7246L9.13911 34.7246L5.13911 34.7246L5.13911 38.7246ZM5.13911 40.2571L5.13911 44.2571L9.13911 44.2571L9.13911 40.2571L5.13911 40.2571ZM4.46485 40.2571L4.46485 36.2571L0.464854 36.2571L0.464854 40.2571L4.46485 40.2571ZM4.46485 41.1091L0.464854 41.1091L0.464855 45.1091L4.46485 45.1091L4.46485 41.1091ZM19.8209 41.1091L19.8209 45.1091L23.8209 45.1091L23.8209 41.1091L19.8209 41.1091ZM19.8209 40.2571L23.8209 40.2571L23.8209 36.2571L19.8209 36.2571L19.8209 40.2571ZM19.1467 40.2571L15.1467 40.2571L15.1467 44.2571L19.1467 44.2571L19.1467 40.2571ZM19.1467 38.7246L19.1467 34.7246L15.1467 34.7246L15.1467 38.7246L19.1467 38.7246ZM19.8209 38.7246L19.8209 42.7246L23.8209 42.7246L23.8209 38.7246L19.8209 38.7246ZM19.8209 22.7355L23.8209 22.7355L23.8209 18.7355L19.8209 18.7355L19.8209 22.7355ZM18.2317 22.7355L14.6802 20.8952L11.6539 26.7355L18.2317 26.7355L18.2317 22.7355ZM18.2318 22.7354L18.2318 18.7354L15.7994 18.7354L14.6803 20.8951L18.2318 22.7354ZM19.8209 22.7354L19.8209 26.7354L23.8209 26.7354L23.8209 22.7354L19.8209 22.7354ZM19.8209 19.4157L23.8209 19.4157L23.8209 15.4157L19.8209 15.4157L19.8209 19.4157ZM19.4279 19.4157L15.5274 18.5292L14.4169 23.4157L19.4279 23.4157L19.4279 19.4157ZM19.428 19.4156L19.428 15.4156L16.2351 15.4156L15.5274 18.5291L19.428 19.4156ZM19.8209 19.4156L19.8209 23.4156L23.8209 23.4156L23.8209 19.4156L19.8209 19.4156ZM19.8209 18.0502L23.8209 18.0502L23.8209 14.5882L20.3947 14.0916L19.8209 18.0502ZM19.6758 18.0291L15.7109 17.5004L15.1881 21.4204L19.102 21.9878L19.6758 18.0291ZM4.46484 19.4156L0.464843 19.4156L0.464843 23.4156L4.46484 23.4156L4.46484 19.4156ZM4.85773 19.4156L8.75946 18.5344L8.05507 15.4156L4.85773 15.4156L4.85773 19.4156ZM4.85775 19.4157L4.85775 23.4157L9.86191 23.4157L8.75948 18.5345L4.85775 19.4157ZM4.46484 19.4157L4.46484 15.4157L0.464843 15.4157L0.464843 19.4157L4.46484 19.4157ZM4.46484 22.7354L0.464843 22.7354L0.464843 26.7354L4.46484 26.7354L4.46484 22.7354ZM6.05394 22.7354L9.60214 20.8887L8.48144 18.7354L6.05394 18.7354L6.05394 22.7354ZM6.05399 22.7355L6.05399 26.7355L12.6451 26.7355L9.6022 20.8888L6.05399 22.7355ZM8.46484 38.7246L8.46484 22.7355L0.464843 22.7355L0.464844 38.7246L8.46484 38.7246ZM5.13911 34.7246L4.46484 34.7246L4.46484 42.7246L5.13911 42.7246L5.13911 34.7246ZM9.13911 40.2571L9.13911 38.7246L1.13911 38.7246L1.13911 40.2571L9.13911 40.2571ZM5.13911 36.2571L4.46485 36.2571L4.46485 44.2571L5.13911 44.2571L5.13911 36.2571ZM0.464854 40.2571L0.464854 41.1091L8.46485 41.1091L8.46485 40.2571L0.464854 40.2571ZM4.46485 45.1091L19.8209 45.1091L19.8209 37.1091L4.46485 37.1091L4.46485 45.1091ZM23.8209 41.1091L23.8209 40.2571L15.8209 40.2571L15.8209 41.1091L23.8209 41.1091ZM19.8209 36.2571L19.1467 36.2571L19.1467 44.2571L19.8209 44.2571L19.8209 36.2571ZM15.1467 38.7246L15.1467 40.2571L23.1467 40.2571L23.1467 38.7246L15.1467 38.7246ZM19.8209 34.7246L19.1467 34.7246L19.1467 42.7246L19.8209 42.7246L19.8209 34.7246ZM15.8209 22.7355L15.8209 38.7246L23.8209 38.7246L23.8209 22.7355L15.8209 22.7355ZM18.2317 26.7355L19.8209 26.7355L19.8209 18.7355L18.2317 18.7355L18.2317 26.7355ZM14.6803 20.8951L14.6802 20.8952L21.7832 24.5758L21.7833 24.5757L14.6803 20.8951ZM19.8209 18.7354L18.2318 18.7354L18.2318 26.7354L19.8209 26.7354L19.8209 18.7354ZM15.8209 19.4157L15.8209 22.7354L23.8209 22.7354L23.8209 19.4157L15.8209 19.4157ZM19.4279 23.4157L19.8209 23.4157L19.8209 15.4157L19.4279 15.4157L19.4279 23.4157ZM15.5274 18.5291L15.5274 18.5292L23.3285 20.3022L23.3285 20.3021L15.5274 18.5291ZM19.8209 15.4156L19.428 15.4156L19.428 23.4156L19.8209 23.4156L19.8209 15.4156ZM15.8209 18.0502L15.8209 19.4156L23.8209 19.4156L23.8209 18.0502L15.8209 18.0502ZM19.102 21.9878L19.2471 22.0088L20.3947 14.0916L20.2496 14.0705L19.102 21.9878ZM15.8209 15.8231C15.8209 16.402 15.7826 16.9629 15.7109 17.5004L23.6407 18.5579C23.7594 17.6682 23.8209 16.7539 23.8209 15.8231L15.8209 15.8231ZM12.1429 8.47775C12.1347 8.47775 12.999 8.60239 14.0866 10.1254C15.0718 11.505 15.8209 13.5297 15.8209 15.8231L23.8209 15.8231C23.8209 11.8507 22.5441 8.20268 20.5969 5.4761C18.7521 2.89287 15.7774 0.477752 12.1429 0.477752L12.1429 8.47775ZM8.46484 15.8231C8.46484 13.5662 9.23103 11.5446 10.2433 10.1459C11.3812 8.57354 12.2526 8.47775 12.1429 8.47775L12.1429 0.477752C8.56393 0.477753 5.59629 2.92171 3.76249 5.4556C1.80307 8.16305 0.464842 11.8142 0.464843 15.8231L8.46484 15.8231ZM8.46484 15.8241L8.46484 15.8231L0.464843 15.8231L0.464843 15.8241L8.46484 15.8241ZM8.46484 19.4156L8.46484 15.8241L0.464843 15.8241L0.464843 19.4156L8.46484 19.4156ZM4.85773 15.4156L4.46484 15.4156L4.46484 23.4156L4.85773 23.4156L4.85773 15.4156ZM8.75948 18.5345L8.75946 18.5344L0.956005 20.2968L0.956029 20.2969L8.75948 18.5345ZM4.46484 23.4157L4.85775 23.4157L4.85775 15.4157L4.46484 15.4157L4.46484 23.4157ZM8.46484 22.7354L8.46484 19.4157L0.464843 19.4157L0.464843 22.7354L8.46484 22.7354ZM6.05394 18.7354L4.46484 18.7354L4.46484 26.7354L6.05394 26.7354L6.05394 18.7354ZM9.6022 20.8888L9.60214 20.8887L2.50573 24.5821L2.50579 24.5822L9.6022 20.8888ZM4.46484 26.7355L6.05399 26.7355L6.05399 18.7355L4.46484 18.7355L4.46484 26.7355Z" fill="black" mask="url(#path-7-outside-1)"/>
</svg>
