<?xml version="1.0"?>
<svg width="60" height="258" xmlns="http://www.w3.org/2000/svg" xmlns:svg="http://www.w3.org/2000/svg" version="1.1">
 <metadata id="metadata858">image/svg+xml</metadata>
 <defs id="defs850">
  <clipPath clipPathUnits="userSpaceOnUse" id="clipPath917">
   <path clip-path="none" d="m24,10c7.48,0 13.5,12.93 13.5,29l0,126c0,16.07 -6.02,29 -13.5,29c-7.48,0 -13.5,-12.93 -13.5,-29l0,-126c0,-16.07 6.02,-29 13.5,-29z" fill="#7b673c" id="path919" stroke-miterlimit="10" stroke-width="7.86"/>
  </clipPath>
  <clipPath clipPathUnits="userSpaceOnUse" id="clipPath893">
   <path d="m35.47,58l4.53,4.59l0,72.82l-9.12,4.59l-13.76,0l-9.12,-4.59l0,-72.82l4.53,-4.59l22.94,0z" fill="#515151" id="path895" stroke-miterlimit="10" stroke-opacity="0.49" stroke-width="11.47"/>
  </clipPath>
  <clipPath clipPathUnits="userSpaceOnUse" id="clipPath918">
   <path d="m32,58l6,6l0,56l-4,4l0,60l2,4l0,8l-24,0l0,-8l2,-4l0,-60l-4,-4l0,-56l6,-6l16,0z" fill="#515151" id="path920" stroke-miterlimit="10" stroke-opacity="0.49" stroke-width="10"/>
  </clipPath>
  <clipPath clipPathUnits="userSpaceOnUse" id="clipPath1017">
   <path d="m38,84l8,8l0,48l-6,6l0,86l2,4l0,8l-24,0l0,-8l2,-4l0,-86l-6,-6l0,-48l8,-8l16,0z" fill="#515151" id="path1019" stroke-miterlimit="10" stroke-opacity="0.49" stroke-width="10"/>
  </clipPath>
  <clipPath clipPathUnits="userSpaceOnUse" id="clipPath952">
   <path d="m34,50.52l0,56l2,4l0,68l-2,1.48l0,16l-20,0l0,-16l-2,-1.48l0,-68l2,-4l0,-56l20,0z" fill="#515151" id="path954" stroke-miterlimit="10" stroke-opacity="0.49" stroke-width="10"/>
  </clipPath>
  <clipPath clipPathUnits="userSpaceOnUse" id="clipPath958">
   <path d="m41.47,63.41l2.29,4.59l0,122.09l-6.88,4.59l-13.76,0l-6.88,-4.59l0,-122.09l2.29,-4.59l22.94,0z" fill="#515151" id="path960" stroke-miterlimit="10" stroke-opacity="0.49" stroke-width="11.47"/>
  </clipPath>
  <clipPath clipPathUnits="userSpaceOnUse" id="clipPath964">
   <path d="m36,33.79l0,30.21l6,4l0,126.52l-2,1.48l0,48l-20,0l0,-48l-2,-1.48l0,-126.52l6,-4l0,-30.21l12,0z" fill="#515151" id="path966" stroke-miterlimit="10" stroke-opacity="0.49" stroke-width="10"/>
  </clipPath>
 </defs>
 <g class="layer">
  <title>Layer 1</title>
  <g id="g1019" transform="translate(-0.00710566)">
   <path d="m49.06,49.29l0.57,2.79l-7.26,27.11l-3.13,1.8l-4.62,17.25l1.81,3.13l7.39,1.98l3.12,-1.8l4.63,-17.25l-1.81,-3.13l7.26,-27.11l1.9,-2.13c1.34,-4.92 -3.56,-6.24 -3.56,-6.24c0,0 -4.96,-1.33 -6.3,3.6z" fill="#000000" id="path1015" stroke-miterlimit="4" stroke-width="23.57"/>
   <path d="m1.08,52.29l1.9,2.14l7.26,27.1l-1.81,3.13l4.63,17.25l3.12,1.8l7.39,-1.98l1.81,-3.12l-4.62,-17.25l-3.13,-1.81l-7.26,-27.1l0.57,-2.8c-1.3,-4.93 -6.2,-3.62 -6.2,-3.62c0,0 -4.96,1.33 -3.66,6.26z" fill="#000000" id="path1000" stroke-miterlimit="4" stroke-width="23.57"/>
  </g>
  <path clip-path="url(#clipPath964)" d="m36,33.79l0,30.21l6,4l0,126.52l-2,1.48l0,48l-20,0l0,-48l-2,-1.48l0,-126.52l6,-4l0,-30.21l12,0z" fill="#3b311d" id="path962" stroke="#000000" stroke-miterlimit="10" stroke-width="16" transform="translate(0,14)"/>
  <rect fill="#323232" height="9.37" id="rect926" stroke="#000000" stroke-miterlimit="10" stroke-width="4" transform="rotate(90)" width="2.14" x="136.93" y="-21.37"/>
  <rect fill="#323232" height="8.45" id="rect1037" stroke="#000000" stroke-miterlimit="10" stroke-width="4" transform="rotate(90)" width="7.02" x="167.07" y="-50"/>
  <rect fill="#272727" height="46.58" id="rect888" rx="2" ry="2" stroke="#000000" stroke-miterlimit="4" stroke-width="8" width="13.18" x="23.41" y="4"/>
  <rect fill="#323232" height="44" id="rect932" rx="1.25" ry="2" stroke="#000000" stroke-miterlimit="10" stroke-width="3.85" transform="scale(-1)" width="13.31" x="-36.66" y="-254.58"/>
  <path clip-path="url(#clipPath958)" d="m41.47,63.41l2.29,4.59l0,122.09l-6.88,4.59l-13.76,0l-6.88,-4.59l0,-122.09l2.29,-4.59l22.94,0z" fill="#8e7645" id="path956" stroke="#000000" stroke-miterlimit="10" stroke-width="16" transform="translate(0,12)"/>
  <path d="m22,105.43l16,0" fill="none" id="path968" stroke="#000000" stroke-miterlimit="4" stroke-opacity="0.5" stroke-width="3"/>
  <path d="m22,111.29l16,0" fill="none" id="path970" stroke="#000000" stroke-miterlimit="4" stroke-opacity="0.5" stroke-width="3"/>
  <path d="m22,117.14l16,0" fill="none" id="path972" stroke="#000000" stroke-miterlimit="4" stroke-opacity="0.5" stroke-width="3"/>
  <path d="m22,123l16,0" fill="none" id="path974" stroke="#000000" stroke-miterlimit="4" stroke-opacity="0.5" stroke-width="3"/>
  <path d="m22,128.86l16,0" fill="none" id="path976" stroke="#000000" stroke-miterlimit="4" stroke-opacity="0.5" stroke-width="3"/>
  <path d="m22,134.71l16,0" fill="none" id="path978" stroke="#000000" stroke-miterlimit="4" stroke-opacity="0.5" stroke-width="3"/>
  <path d="m22,140.57l16,0" fill="none" id="path980" stroke="#000000" stroke-miterlimit="4" stroke-opacity="0.5" stroke-width="3"/>
  <path d="m22,146.43l16,0" fill="none" id="path982" stroke="#000000" stroke-miterlimit="4" stroke-opacity="0.5" stroke-width="3"/>
  <path d="m22,152.29l16,0" fill="none" id="path984" stroke="#000000" stroke-miterlimit="4" stroke-opacity="0.5" stroke-width="3"/>
  <path d="m22,158.14l16,0" fill="none" id="path986" stroke="#000000" stroke-miterlimit="4" stroke-opacity="0.5" stroke-width="3"/>
  <path d="m22,164l16,0" fill="none" id="path988" stroke="#000000" stroke-miterlimit="4" stroke-opacity="0.5" stroke-width="3"/>
  <path d="m22,169.86l16,0" fill="none" id="path990" stroke="#000000" stroke-miterlimit="4" stroke-opacity="0.5" stroke-width="3"/>
  <path d="m22,175.71l16,0" fill="none" id="path992" stroke="#000000" stroke-miterlimit="4" stroke-opacity="0.5" stroke-width="3"/>
  <path d="m22,99.57l16,0" fill="none" id="path994" stroke="#000000" stroke-miterlimit="4" stroke-opacity="0.5" stroke-width="3"/>
  <rect fill="#232323" height="8.45" id="rect998" stroke="#000000" stroke-miterlimit="10" stroke-width="3.5" width="5.51" x="27.24" y="86"/>
  <rect fill="#232323" height="8.45" id="rect996" stroke="#000000" stroke-miterlimit="10" stroke-width="3.5" width="5.51" x="27.24" y="186"/>
  <path d="m22,181.57l16,0" fill="none" id="path998" stroke="#000000" stroke-miterlimit="4" stroke-opacity="0.5" stroke-width="3"/>
 </g>
</svg>