<svg width="36" height="55" viewBox="0 0 36 55" fill="none"
    xmlns="http://www.w3.org/2000/svg" transform="rotate(180 0 0)">
    <path fill-rule="evenodd" clip-rule="evenodd" d="M2.7999 31.1306C3.0906 28.9069 3.64675 26.2383 4.68017 22.8711C4.96289 21.9499 5.26713 19.3423 5.59329 16.5468C6.31852 10.331 7.15215 3.18604 8.09872 11.5836C8.33021 13.6372 10.7485 22.4827 11.0747 19.1153C11.2261 17.5526 11.6626 16.841 12.1299 16.0793C12.823 14.9494 13.5836 13.7094 13.581 9.41737C13.5782 4.97879 13.3282 2.36646 13.6491 2.29436C13.9167 2.23424 14.5812 3.94077 16.1172 7.82806C18.19 13.0741 19.4185 14.4917 20.4765 14.6669C21.1084 14.7715 20.0382 10.3387 19.3266 7.39103C18.8466 5.40309 18.5298 4.09072 19.0082 5.30143C19.8868 7.52516 22.3835 13.3201 22.9854 13.6756C23.2691 13.8432 23.3759 12.6475 23.4817 11.4626C23.5555 10.6368 23.6288 9.81624 23.7612 9.46611C23.7767 9.22253 24.2327 10.4533 24.7882 11.9526C25.1066 12.8121 25.4577 13.7598 25.7773 14.5686C26.8813 17.3625 29.0242 22.7744 29.336 22.2409C29.3712 21.1064 29.341 19.9402 29.0856 17.602C28.7624 14.6422 30.0453 18.6502 31.5482 23.3455C31.8256 24.2122 32.1106 25.1024 32.3943 25.9766C33.1059 28.1692 33.5401 30.1692 33.7862 31.8942C36.023 39.8063 31.9452 48.2827 24.1341 51.3691C15.8047 54.6602 6.38433 50.5759 3.09316 42.2465C1.63078 38.5455 1.62456 34.629 2.7999 31.1306Z" fill="url(#paint0_radial)"/>
    <path d="M4.68017 22.8711L3.24618 22.431L4.68017 22.8711ZM2.7999 31.1306L4.2218 31.6083L4.26831 31.4698L4.28724 31.325L2.7999 31.1306ZM5.59329 16.5468L4.1034 16.3729L5.59329 16.5468ZM8.09872 11.5836L6.60816 11.7516L8.09872 11.5836ZM11.0747 19.1153L12.5677 19.26L12.5677 19.26L11.0747 19.1153ZM12.1299 16.0793L10.8513 15.295L12.1299 16.0793ZM13.581 9.41737L12.081 9.41831L12.081 9.41831L13.581 9.41737ZM13.6491 2.29436L13.3202 0.830859L13.6491 2.29436ZM20.4765 14.6669L20.2315 16.1467L20.2315 16.1467L20.4765 14.6669ZM19.3266 7.39103L17.8685 7.74306L19.3266 7.39103ZM22.9854 13.6756L22.2226 14.9672L22.2226 14.9672L22.9854 13.6756ZM23.4817 11.4626L21.9877 11.3292L21.9877 11.3292L23.4817 11.4626ZM23.7612 9.46611L25.1642 9.99668L25.2439 9.78613L25.2582 9.56148L23.7612 9.46611ZM24.7882 11.9526L23.3816 12.4737L24.7882 11.9526ZM29.336 22.2409L30.6311 22.9978L30.8235 22.6685L30.8353 22.2874L29.336 22.2409ZM29.0856 17.602L30.5768 17.4391L30.5768 17.4391L29.0856 17.602ZM31.5482 23.3455L32.9768 22.8882L31.5482 23.3455ZM32.3943 25.9766L33.821 25.5135L32.3943 25.9766ZM33.7862 31.8942L32.3012 32.106L32.3154 32.2055L32.3427 32.3022L33.7862 31.8942ZM3.24618 22.431C2.19146 25.8676 1.61552 28.6187 1.31255 30.9361L4.28724 31.325C4.56568 29.1952 5.10203 26.609 6.11415 23.3112L3.24618 22.431ZM4.1034 16.3729C3.93979 17.7752 3.78398 19.1101 3.63418 20.2092C3.47836 21.3525 3.34518 22.1084 3.24618 22.431L6.11415 23.3112C6.29788 22.7125 6.45817 21.7041 6.6067 20.6144C6.76124 19.4805 6.92063 18.1139 7.08319 16.7206L4.1034 16.3729ZM9.58928 11.4155C9.46889 10.3475 9.34722 9.49759 9.22198 8.84723C9.10702 8.25024 8.96158 7.66064 8.731 7.23184C8.643 7.0682 8.3522 6.54976 7.71844 6.33859C6.85571 6.05112 6.21719 6.54688 5.97438 6.81235C5.74209 7.06633 5.60855 7.35562 5.53494 7.53338C5.44964 7.73938 5.37823 7.96431 5.31698 8.18641C4.8604 9.84209 4.45731 13.3396 4.1034 16.3729L7.08319 16.7206C7.4545 13.5381 7.83085 10.3553 8.20903 8.98395C8.25212 8.82767 8.28593 8.73131 8.3067 8.68113C8.33917 8.60272 8.31258 8.70096 8.18809 8.83707C8.0531 8.98466 7.52326 9.43571 6.77008 9.18475C6.48348 9.08925 6.30672 8.92652 6.22413 8.83697C6.13945 8.74516 6.09838 8.6705 6.0888 8.65268C6.08081 8.63783 6.16146 8.81918 6.2761 9.41451C6.38047 9.95647 6.49191 10.7203 6.60816 11.7516L9.58928 11.4155ZM9.58172 18.9707C9.56585 19.1345 9.5494 19.1905 9.55263 19.1797C9.5548 19.1724 9.57147 19.1165 9.61541 19.0361C9.6569 18.9603 9.75357 18.8057 9.93933 18.6606C10.1451 18.4999 10.4287 18.3776 10.7595 18.372C11.0693 18.3668 11.3042 18.4656 11.4385 18.5417C11.6686 18.6722 11.758 18.8221 11.7265 18.7777C11.6914 18.7285 11.5897 18.5487 11.4364 18.179C11.294 17.8355 11.1376 17.404 10.9759 16.9131C10.3139 14.9031 9.68803 12.2916 9.58928 11.4155L6.60816 11.7516C6.7409 12.9292 7.43997 15.7673 8.1265 17.8516C8.30195 18.3843 8.48425 18.8917 8.66518 19.3281C8.83529 19.7383 9.04176 20.1796 9.28287 20.5181C9.38941 20.6677 9.60896 20.9532 9.95914 21.1517C10.1534 21.2618 10.4458 21.3778 10.8103 21.3716C11.1958 21.3651 11.5314 21.2238 11.7861 21.0249C12.2175 20.6878 12.3707 20.2276 12.4276 20.0369C12.5022 19.7866 12.5428 19.5171 12.5677 19.26L9.58172 18.9707ZM10.8513 15.295C10.3315 16.1423 9.7647 17.0817 9.58172 18.9707L12.5677 19.26C12.6875 18.0235 12.9938 17.5396 13.4085 16.8636L10.8513 15.295ZM12.081 9.41831C12.0823 11.4841 11.8987 12.7193 11.6719 13.5298C11.4539 14.3084 11.1825 14.755 10.8513 15.295L13.4085 16.8636C13.7704 16.2737 14.2258 15.5353 14.5608 14.3384C14.8869 13.1734 15.0824 11.6426 15.081 9.41644L12.081 9.41831ZM13.3202 0.830859C12.7828 0.951629 12.4777 1.30574 12.3396 1.51715C12.2033 1.72583 12.139 1.92707 12.1074 2.04226C12.0424 2.27902 12.0185 2.52648 12.006 2.71373C11.9795 3.11108 11.9827 3.64425 11.9939 4.24645C12.0172 5.49411 12.0796 7.21611 12.081 9.41831L15.081 9.41644C15.0796 7.18005 15.0156 5.3766 14.9934 4.19042C14.9819 3.5757 14.9826 3.16486 14.9994 2.91342C15.0085 2.77627 15.0177 2.77314 15.0005 2.8359C14.9928 2.86409 14.956 2.99748 14.8512 3.1578C14.7447 3.32086 14.4753 3.64611 13.978 3.75787L13.3202 0.830859ZM17.5122 7.27684C16.7499 5.3476 16.188 3.9186 15.7841 2.98529C15.586 2.52742 15.3999 2.12678 15.227 1.83071C15.1465 1.69281 15.021 1.49283 14.8486 1.31413C14.768 1.23054 14.2003 0.633096 13.3202 0.830859L13.978 3.75787C13.5635 3.85101 13.2212 3.74125 13.0238 3.64081C12.8401 3.54734 12.7293 3.4382 12.6893 3.39675C12.6105 3.31505 12.5928 3.2689 12.6362 3.34327C12.7112 3.47175 12.8373 3.72942 13.0308 4.17658C13.4102 5.05332 13.9485 6.42124 14.7221 8.37928L17.5122 7.27684ZM20.7216 13.187C20.8037 13.2006 20.5382 13.2223 19.9196 12.3083C19.3152 11.4152 18.5379 9.87255 17.5122 7.27684L14.7221 8.37928C15.7693 11.0296 16.6426 12.8187 17.4352 13.9898C18.2136 15.1399 19.0913 15.9579 20.2315 16.1467L20.7216 13.187ZM17.8685 7.74306C18.2268 9.22746 18.6624 11.0334 18.9316 12.453C19.0686 13.1753 19.1483 13.7266 19.1654 14.0644C19.1753 14.2606 19.1554 14.2476 19.1842 14.1346C19.1967 14.0858 19.2613 13.8345 19.5005 13.5887C19.817 13.2634 20.2776 13.1135 20.7216 13.187L20.2315 16.1467C20.7544 16.2333 21.2807 16.061 21.6506 15.6809C21.9432 15.3802 22.049 15.0416 22.0912 14.8758C22.1797 14.5289 22.1743 14.1637 22.1616 13.913C22.1335 13.357 22.0197 12.6355 21.8791 11.8941C21.5932 10.3865 21.1379 8.50222 20.7847 7.039L17.8685 7.74306ZM20.4032 4.75021C20.3396 4.58929 20.2776 4.44022 20.2195 4.318C20.192 4.26015 20.1503 4.17616 20.0969 4.08925C20.0707 4.04661 20.0248 3.97536 19.9599 3.89652C19.9164 3.84363 19.7626 3.65815 19.4987 3.51633C19.3533 3.43822 19.1098 3.33825 18.7936 3.33611C18.4487 3.33378 18.1235 3.44935 17.8644 3.64872C17.4306 3.98252 17.3311 4.42853 17.3122 4.51023C17.2543 4.75958 17.2734 4.97653 17.2757 5.00977C17.2858 5.1558 17.3126 5.3105 17.3335 5.42207C17.4221 5.8968 17.6345 6.77395 17.8685 7.74306L20.7847 7.039C20.5387 6.02017 20.3527 5.24717 20.2825 4.8714C20.2636 4.77035 20.2658 4.7624 20.2686 4.80298C20.2696 4.81812 20.2717 4.85418 20.2707 4.90347C20.2699 4.94159 20.2666 5.0501 20.2346 5.18815C20.2183 5.25824 20.1227 5.69643 19.6939 6.02634C19.4373 6.22376 19.115 6.33835 18.7733 6.33605C18.4602 6.33393 18.2201 6.23497 18.0785 6.15888C17.8221 6.02111 17.6771 5.84369 17.6436 5.803C17.5888 5.73637 17.5542 5.68146 17.5406 5.65942C17.5125 5.61369 17.5014 5.5879 17.5101 5.60615C17.5244 5.63613 17.5571 5.7109 17.6131 5.85265L20.4032 4.75021ZM23.7481 12.384C23.8624 12.4515 23.9343 12.5177 23.9611 12.5433C23.9777 12.5593 23.9896 12.5719 23.9965 12.5795C24.0036 12.5872 24.0075 12.592 24.0083 12.5929C24.0094 12.5942 24.0032 12.5867 23.9894 12.5675C23.976 12.5487 23.9584 12.5229 23.9364 12.489C23.8436 12.3459 23.7169 12.1259 23.5593 11.8281C23.247 11.2381 22.865 10.4415 22.4649 9.56574C21.6663 7.81785 20.8327 5.83723 20.4032 4.75021L17.6131 5.85265C18.0623 6.98936 18.9164 9.01809 19.7362 10.8125C20.1453 11.7079 20.5553 12.5656 20.9078 13.2316C21.0827 13.5619 21.2566 13.8703 21.419 14.1208C21.4996 14.2452 21.5924 14.3786 21.694 14.5019C21.7716 14.596 21.952 14.8074 22.2226 14.9672L23.7481 12.384ZM21.9877 11.3292C21.9325 11.9471 21.8848 12.4672 21.8232 12.8149C21.7875 13.0167 21.7713 13.0097 21.8164 12.9161C21.8288 12.8903 21.9539 12.615 22.2875 12.406C22.4831 12.2835 22.7452 12.1885 23.051 12.1914C23.3495 12.1943 23.5879 12.2894 23.7481 12.384L22.2226 14.9672C22.4183 15.0827 22.6908 15.1881 23.022 15.1913C23.3607 15.1946 23.6542 15.0899 23.8802 14.9484C24.2743 14.7015 24.4551 14.351 24.5191 14.2181C24.6673 13.9105 24.7377 13.5619 24.7773 13.3376C24.8666 12.8332 24.9252 12.163 24.9758 11.5961L21.9877 11.3292ZM22.3582 8.93554C22.2204 9.29993 22.1534 9.76143 22.1111 10.0996C22.063 10.4835 22.0239 10.9237 21.9877 11.3292L24.9758 11.5961C25.0133 11.1757 25.0477 10.7927 25.0879 10.4723C25.1077 10.3135 25.127 10.1872 25.1453 10.0919C25.1657 9.98503 25.176 9.9656 25.1642 9.99668L22.3582 8.93554ZM26.1948 11.4315C25.9199 10.6897 25.6594 9.98613 25.4654 9.49996C25.3738 9.27022 25.2746 9.03167 25.1849 8.85664C25.1606 8.80932 25.1258 8.74433 25.0821 8.67521C25.0568 8.63517 24.9547 8.47146 24.7795 8.31683C24.6991 8.24588 24.4733 8.05797 24.1188 7.97497C23.66 7.86757 23.1403 7.97617 22.7511 8.33582C22.4514 8.61284 22.3516 8.92853 22.3194 9.04325C22.2793 9.18657 22.2683 9.30666 22.2642 9.37074L25.2582 9.56148C25.2551 9.61034 25.2459 9.71808 25.2084 9.85186C25.179 9.95704 25.0827 10.266 24.7873 10.539C24.4024 10.8947 23.8878 11.002 23.435 10.896C23.0864 10.8144 22.8674 10.6305 22.7945 10.5662C22.6343 10.4249 22.5504 10.2848 22.5462 10.2781C22.5236 10.2423 22.5128 10.2205 22.5153 10.2254C22.5328 10.2595 22.5853 10.3767 22.679 10.6116C22.8558 11.0548 23.101 11.7162 23.3816 12.4737L26.1948 11.4315ZM27.1724 14.0174C26.8599 13.2265 26.5146 12.2948 26.1948 11.4315L23.3816 12.4737C23.6986 13.3294 24.0556 14.2931 24.3823 15.1198L27.1724 14.0174ZM28.0409 21.4841C28.145 21.3061 28.3597 21.0358 28.7419 20.8821C29.1352 20.7239 29.4976 20.7726 29.7305 20.8501C29.9439 20.9212 30.0834 21.0249 30.1418 21.0719C30.2082 21.1252 30.2485 21.1695 30.2622 21.185C30.2904 21.2169 30.2439 21.1659 30.1178 20.9368C29.8914 20.5254 29.5828 19.8656 29.2288 19.0533C28.5284 17.4459 27.7263 15.4194 27.1724 14.0174L24.3823 15.1198C24.9323 16.5117 25.7537 18.5881 26.4786 20.2518C26.8374 21.075 27.192 21.8427 27.4896 22.3834C27.6255 22.6303 27.8061 22.9364 28.0155 23.173C28.0865 23.2532 28.3487 23.552 28.7831 23.6966C29.0491 23.7852 29.4413 23.8343 29.8611 23.6655C30.2698 23.5011 30.5076 23.2091 30.6311 22.9978L28.0409 21.4841ZM27.5945 17.7649C27.8445 20.0535 27.8692 21.1473 27.8367 22.1945L30.8353 22.2874C30.8732 21.0654 30.8376 19.8268 30.5768 17.4391L27.5945 17.7649ZM32.9768 22.8882C32.2327 20.5635 31.52 18.3348 31.0324 17.0653C30.9103 16.7474 30.7875 16.4504 30.67 16.2136C30.6133 16.0994 30.5367 15.9558 30.4412 15.8188C30.3935 15.7505 30.3185 15.6508 30.215 15.549C30.1273 15.4627 29.9212 15.2759 29.5987 15.168C29.2024 15.0354 28.6943 15.0504 28.2488 15.3519C27.8864 15.5972 27.7323 15.9231 27.6741 16.0667C27.557 16.3552 27.5431 16.6327 27.5384 16.742C27.5261 17.0275 27.5529 17.3843 27.5945 17.7649L30.5768 17.4391C30.5375 17.0798 30.5337 16.9143 30.5356 16.8709C30.538 16.8156 30.5423 16.977 30.454 17.1945C30.4102 17.3026 30.2732 17.6043 29.9303 17.8364C29.5044 18.1247 29.0184 18.1373 28.6467 18.013C28.3488 17.9133 28.1697 17.7452 28.1114 17.6879C28.0373 17.615 27.994 17.5544 27.9805 17.535C27.9531 17.4957 27.9538 17.4889 27.9829 17.5475C28.037 17.6565 28.1198 17.8493 28.2318 18.1409C28.6806 19.3093 29.3608 21.4322 30.1196 23.8027L32.9768 22.8882ZM33.821 25.5135C33.5384 24.6428 33.2544 23.7555 32.9768 22.8882L30.1196 23.8027C30.3968 24.669 30.6827 25.5621 30.9675 26.4396L33.821 25.5135ZM35.2711 31.6823C35.0132 29.8743 34.5599 27.7901 33.821 25.5135L30.9675 26.4396C31.6519 28.5482 32.067 30.4641 32.3012 32.106L35.2711 31.6823ZM32.3427 32.3022C34.3723 39.481 30.6706 47.1735 23.5829 49.974L24.6853 52.7641C33.2197 49.3919 37.6738 40.1317 35.2296 31.4861L32.3427 32.3022ZM23.5829 49.974C16.0239 52.9608 7.47495 49.2542 4.48821 41.6953L1.69811 42.7977C5.29372 51.8976 15.5854 56.3597 24.6853 52.7641L23.5829 49.974ZM4.48821 41.6953C3.16064 38.3354 3.15492 34.7839 4.2218 31.6083L1.378 30.6529C0.0941957 34.4742 0.100916 38.7555 1.69811 42.7977L4.48821 41.6953Z" fill="#FE721E"/>
    <defs>
        <radialGradient id="paint0_radial" cx="0" cy="0" r="1" gradientUnits="userSpaceOnUse" gradientTransform="translate(17.2713 35.983) rotate(-92.3633) scale(33.3063 31.8275)">
            <stop stop-color="white"/>
            <stop offset="0.0967799" stop-color="#F3F3D3"/>
            <stop offset="0.262208" stop-color="#EDE751"/>
            <stop offset="0.453196" stop-color="#FEA41E"/>
        </radialGradient>
    </defs>
</svg>
